<svg width="20" height="19" viewBox="0 0 20 19" xmlns="http://www.w3.org/2000/svg"><title>social-blue-instagram</title><path d="M16.875 17.219H2.625a.594.594 0 0 1-.594-.594V7.719h2.375c-.31.445-.414 1.276-.414 1.803 0 3.18 2.593 5.766 5.78 5.766 3.187 0 5.78-2.586 5.78-5.766 0-.527-.075-1.345-.458-1.803h2.375v8.906a.594.594 0 0 1-.594.594M9.772 5.877a3.65 3.65 0 0 1 3.654 3.645 3.65 3.65 0 0 1-3.654 3.646 3.65 3.65 0 0 1-3.653-3.646 3.65 3.65 0 0 1 3.653-3.645M14.5 2.375h1.781c.328 0 .594.266.594.594V4.75a.594.594 0 0 1-.594.594H14.5a.594.594 0 0 1-.594-.594V2.969c0-.328.266-.594.594-.594M16.991 0H2.51A2.256 2.256 0 0 0 .25 2.253v14.494A2.256 2.256 0 0 0 2.509 19H16.99a2.256 2.256 0 0 0 2.259-2.253V2.253A2.256 2.256 0 0 0 16.991 0" fill="#2B9CF2" fill-rule="evenodd"/></svg>