<svg width="26" height="19" viewBox="0 0 26 19" xmlns="http://www.w3.org/2000/svg"><title>social-blue-youtube</title><path d="M24.887 4.196c0-2.227-1.617-4.018-3.614-4.018A174.606 174.606 0 0 0 12.99 0h-.879C9.3 0 6.534.05 3.83.178 1.837.178.22 1.98.22 4.205A73.441 73.441 0 0 0 .05 9.49a76.61 76.61 0 0 0 .165 5.289c0 2.226 1.617 4.032 3.61 4.032 2.841.134 5.757.193 8.721.188 2.97.01 5.875-.05 8.722-.188 1.997 0 3.614-1.806 3.614-4.032.117-1.767.17-3.528.166-5.294a73.652 73.652 0 0 0-.161-5.29zM10.158 14.343V4.621l7.081 4.859-7.081 4.863z" fill="#2B9CF2" fill-rule="evenodd"/></svg>