<svg width="19" height="19" viewBox="0 0 19 19" xmlns="http://www.w3.org/2000/svg"><title>social-blue-web</title><path d="M16.385 14.148a20.872 20.872 0 0 0-3.646-.843c.175-1.03.268-2.107.298-3.211h4.753a8.244 8.244 0 0 1-1.405 4.054zm-4.846 3.403c.395-.956.719-1.988.968-3.076 1.067.158 2.09.391 3.06.698a8.325 8.325 0 0 1-4.028 2.378zm-1.462.232c-.192.014-.382.03-.577.03-.195 0-.385-.016-.577-.03a17.732 17.732 0 0 1-1.217-3.465c.59-.052 1.188-.082 1.794-.082.606 0 1.204.03 1.794.082a17.772 17.772 0 0 1-1.217 3.465zm-6.645-2.61a19.72 19.72 0 0 1 3.061-.698c.249 1.088.573 2.12.968 3.076a8.327 8.327 0 0 1-4.029-2.378zm-.817-1.025a8.244 8.244 0 0 1-1.405-4.054h4.753c.03 1.104.123 2.182.298 3.21-1.287.184-2.51.466-3.646.844zm0-9.296c1.137.378 2.36.661 3.646.843a22.866 22.866 0 0 0-.298 3.211H1.21a8.244 8.244 0 0 1 1.405-4.054zM7.46 1.449a19.318 19.318 0 0 0-.968 3.076 19.689 19.689 0 0 1-3.06-.698A8.327 8.327 0 0 1 7.46 1.45zm1.462-.232c.192-.013.382-.03.577-.03.195 0 .385.017.577.03a17.786 17.786 0 0 1 1.217 3.465 20.58 20.58 0 0 1-1.794.082c-.606 0-1.204-.03-1.794-.082a17.746 17.746 0 0 1 1.217-3.465zm2.925 8.877a20.823 20.823 0 0 1-.306 3.061 23.51 23.51 0 0 0-2.042-.092c-.693 0-1.373.034-2.041.092a20.663 20.663 0 0 1-.306-3.061h4.695zM7.153 8.906c.031-1.045.126-2.074.306-3.061.668.058 1.348.093 2.041.093.693 0 1.373-.035 2.041-.093.18.987.275 2.016.307 3.061H7.153zm8.415-5.079c-.97.307-1.994.54-3.061.698a19.318 19.318 0 0 0-.968-3.076 8.325 8.325 0 0 1 4.029 2.378zm.817 1.025a8.244 8.244 0 0 1 1.405 4.054h-4.753a22.866 22.866 0 0 0-.298-3.21 20.819 20.819 0 0 0 3.646-.844zM9.5 0a9.5 9.5 0 1 0 0 19 9.5 9.5 0 0 0 0-19z" fill="#2B9CF2" fill-rule="evenodd"/></svg>