<svg width="455" height="300" viewBox="0 0 455 300" xmlns="http://www.w3.org/2000/svg" xmlns:xlink="http://www.w3.org/1999/xlink"><title>price-comparison-illustrations</title><defs><path id="a" d="M0 300h456V0H0z"/></defs><g fill="none" fill-rule="evenodd"><path d="M86.846 256.068c-5.875-7.3-10.367-17.346-9.797-27.091.023-.394.44-2.268.566-2.769.153-.908.256-1.835.411-2.739.173-1.002.369-1.994.614-2.975.503-2.017 1.165-3.973 1.915-5.885.71-1.806 1.48-3.574 2.28-5.325.712-2.147 1.466-4.277 2.148-6.407l4.47-13.96c2.784-8.698 5.225-17.672 8.568-26.116 3.907-9.867 9.303-17.998 18.048-23.238 7.471-4.477 16.656-6.153 25.277-5.325 9.438.905 18.236 4.626 26.656 9.475 3.628 2.09 7.075 4.525 10.514 6.975 1.813 1.29 3.624 2.583 5.468 3.818.99.663 1.987 1.313 2.998 1.934.432.265.883.504 1.308.782 1.22.804-.56-.255-.646-.322 1.595 1.227 3.986 1.908 5.815 2.527.176.06.729.23 1.23.384.137-.023 1.776.31 2.14.349.35.036 1.94-.076 2.77-.005.287-.045.58-.077.853-.138.203-.045.405-.106.606-.167.455-.352 1.584-.706 1.94-.921.122-.073.242-.157.362-.245.519-.555 1.13-1.027 1.655-1.579.35-.366.682-.752 1.012-1.138.171-.275.451-.566.602-.786 2.01-2.917 3.721-6.068 5.432-9.209 4.352-7.99 9.234-14.997 16.344-20.234 7.012-5.165 40.97-20.136 52.868-20.685 7.793-.36 16.21 1.045 22.594 6.626 6.22 5.439 8.4 14.117 10.555 21.98.5 1.82 1.047 3.623 1.683 5.397.295.822.615 1.631.931 2.444.08.204.132.343.169.444l.17.353c1.624 3.405 3.454 6.678 5.574 9.758.326.473.663.936.993 1.404l.11.15c.237.286.992 1.237 1.166 1.443a62.883 62.883 0 0 0 3.446 3.764 56.888 56.888 0 0 0 4.03 3.718c.601.498 2.012 1.47.57.466.69.481 1.364.99 2.059 1.467 12.175 8.37 27.4 14.424 34.373 29.336a45.48 45.48 0 0 1 4.266 21.22c-.269 6.689-1.32 13.154-2.322 19.71a176.088 176.088 0 0 0-1.091 8.81c.003-.063.004-.124.004-.185a4.495 4.495 0 0 1-.015.285c-.072.713-.052.677-.025.398-.002.04-.006.082-.007.122-.024.722-.038 1.445-.047 2.17-.017 1.463-.005 2.93.012 4.395.078 6.607.31 13.425-.942 19.864-1.511 7.772-5.457 15.778-11.85 19.857-.257.164-1.647.718-2.025.856-.648.304-1.281.655-1.927.956a27.1 27.1 0 0 1-2.18.917c-1.523.556-7.682 1.83-9.192 2.04-1.714.46-90.343 6.588-98.69 3.097-1.932-.809-3.88-1.553-5.861-2.182-.918-.292-1.842-.547-2.766-.81a19.228 19.228 0 0 1-.5-.148 14.11 14.11 0 0 1-.424-.078c-4.065-.783-8.147-1.25-12.249-1.27-.63-.004-1.258.014-1.888.02-.033 0-.11.001-.203.004-.406.042-1.74.14-2.034.174-1.87.207-3.73.5-5.57.878a56.088 56.088 0 0 0-5.913 1.533c-.83.268-2.609 1.044-.781.257-.875.377-1.693.965-2.638 1.1-54.943 7.85-80.581-7.316-85.715-13.184-2.29-2.618-4.655-5.136-7.065-7.618.054.05.108.095.16.14a5.778 5.778 0 0 1-.213-.195l-.028-.03c-.582-.598-.563-.551-.335-.317-.035-.033-.069-.067-.103-.097-.622-.556-1.25-1.102-1.884-1.641a200.333 200.333 0 0 0-3.889-3.213c-5.881-4.766-12.052-9.522-16.92-15.57z" fill="#FFEFBB"/><path d="M371 244.52c.014-.136.029-.326.037-.52l-.008.068-.029.452M110 277c.111.114.268.27.434.421l-.055-.058c-.128-.122-.254-.246-.379-.363" fill="#FFEFBB"/><path d="M291.619 273.487a3.5 3.5 0 1 1 5.761-3.974 3.5 3.5 0 0 1-5.761 3.974zm2-117a3.5 3.5 0 1 1 5.763-3.974 3.5 3.5 0 0 1-5.763 3.974z" stroke="#FFF" stroke-width="2.607" stroke-linecap="round" stroke-linejoin="round"/><path d="M303 233l-12-5" stroke="#FFF" stroke-width="2.857" stroke-linecap="round" stroke-linejoin="round"/><path d="M332 252l4-9m-66 23l-7-6m73-66l-7-6m-50 0l4-9" stroke="#FFF" stroke-width="2.487" stroke-linecap="round" stroke-linejoin="round"/><path d="M120.67 198.1a3.499 3.499 0 1 1 1.661 6.798 3.499 3.499 0 0 1-1.662-6.797zm110 44a3.5 3.5 0 1 1 1.66 6.8 3.5 3.5 0 0 1-1.66-6.8z" stroke="#FFF" stroke-width="2.607" stroke-linecap="round" stroke-linejoin="round"/><path d="M155 224l9-10" stroke="#FFF" stroke-width="2.857" stroke-linecap="round" stroke-linejoin="round"/><path d="M127 244l7 7m1-70l9-5m35 92l9-5m18-45l7 7" stroke="#FFF" stroke-width="2.487" stroke-linecap="round" stroke-linejoin="round"/><path d="M319 19zm103.979 6.35l-.024-.046-.048-.156.023-.047c1.555-3.17 3.324-4.981 4.852-4.97h.015c1.726.026 2.907 1.599 2.873 3.825-.021 1.485-.677 2.336-1.223 2.788a3.56 3.56 0 0 1-2.269.8c-2.018-.03-3.396-1.21-4.199-2.195zm-.506 12.007c-.248.329-.593.494-1.023.49-.494-.007-.863-.184-1.113-.525-.7-.958-.484-3.193.7-7.247.14-.483.293-.97.454-1.446l.137-.405.115.412c1.31 4.698 1.556 7.632.73 8.721zM373.24 15.394c.052-1.012.144-1.997.27-2.928.823-6.002 2.478-10.186 4.027-10.173h.007c.738.01 1.104.576 1.088 1.68-.04 2.712-1.774 6.582-5.152 11.504l-.264.385.024-.468zm54.1 14.104h.054c3.252.025 5.558-2.23 5.606-5.48.024-1.609-.426-3.085-1.268-4.156-.891-1.133-2.145-1.744-3.627-1.766h-.03c-1.999-.016-3.868 1.5-5.71 4.634l-.148.25-.091-.276c-.45-1.352-.852-2.478-1.09-3.152-.168-.47-.244-.681-.26-.75-.085-.34-.373-.554-.751-.557a1.334 1.334 0 0 0-.716.224c-.232.147-.364.328-.412.57l-.012.037c-1.864 5.713-3.387 8.484-4.659 8.475a.562.562 0 0 1-.437-.187c-.33-.374-.242-1.256-.12-2.479.09-.897.192-1.913.16-2.993-.06-2.074-1.177-3.329-2.987-3.357-2.302-.017-3.811 2.441-4.509 3.909l-.207.437-.043-.483c-.158-1.824-.749-4.004-2.663-4.033-2.235-.017-3.957 2.614-5.011 4.823l-.283.593.032-.656c.146-2.958.26-4.702.34-5.187.08-.484.042-.811-.115-.999-.148-.177-.429-.243-.843-.22-.715.04-1.085.476-1.645 1.943-.922 2.41-3.264 8.011-5.1 7.998-.365-.005-.653-.132-.863-.378-.764-.897-.438-3.3.013-6.628l.034-.25c.213-1.576-.129-1.915-.977-2.08a1.442 1.442 0 0 0-.258-.027c-.679-.005-1.001.648-1.648 2.463-1.151 3.23-2.626 6.627-4.323 6.615-.061 0-.123-.007-.185-.017-.897-.16-.869-1.505-.831-3.207.02-.92.043-1.964-.091-2.907-.24-1.692-1.222-2.756-2.56-2.776-2.671-.02-4.497 3.414-5.35 5.462l-.193.464-.06-.5a46.64 46.64 0 0 1-.295-3.975l-.002-.05.03-.038c5.045-6.304 7.322-10.864 7.38-14.784.037-2.505-1.098-4.017-3.038-4.047-1.417-.01-4.799 1.155-6.05 12.175a64.457 64.457 0 0 0-.4 6.229v.04l-.025.034c-2.31 3.319-7.233 9.02-12.01 8.985-4.318-.032-7.737-3.577-7.692-9.79.061-8.33 5.949-13.401 10.351-13.369h.036c.957.015 1.775.29 2.367.797.615.526.933 1.26.92 2.12-.017 1.15-.393 1.738-.757 2.307-.092.146-.185.291-.271.445-.086.156-.165.382-.054.577.115.2.409.327.77.332 1.047.008 2.643-1.509 2.678-3.812.035-2.411-1.962-4.91-5.557-4.937-5.44-.04-12.81 5.93-12.883 15.692-.05 6.906 4.211 11.711 10.031 11.755 4.13.03 8.237-2.92 11.891-7.871l.224-.3.013.376c.064 1.821.185 3.259.273 4.308.057.674.098 1.162.094 1.43-.01.59.084.998.283 1.25.2.253.518.374 1.003.381.813.006.98-.551 1.31-1.926l.097-.392c.412-1.666 1.929-7.103 4.15-7.087.363.006.641.117.838.33.488.53.426 1.605.355 2.85-.044.778-.09 1.582-.019 2.365.194 2.114 1.092 3.154 2.745 3.179 1.698.013 3.482-1.817 4.429-3.522l.179-.322.066.363c.166.918.915 3.932 3.331 3.95 2.19.016 4.085-2.295 6.18-7.061l.273-.624-.022.682c-.057 1.812-.17 4.024-.183 5.735-.011 1.324.118 1.83.725 1.834.044 0 .09.007.138.008.582.004.98-.344 1.182-1.035 1.589-5.43 2.946-7.955 4.273-7.945 1.299.019 1.403 2.414 1.477 6.645l.005.296c.02 1.48.068 2.134.981 2.149.691.005.867-.541 1.235-1.888.07-.257.146-.538.236-.842 1.283-4.365 2.332-6.142 3.624-6.132 1.105.017 1.158 1.165 1.175 1.543.038.809-.051 1.653-.137 2.47-.08.759-.162 1.543-.138 2.275.055 1.71.977 2.666 2.598 2.69 2.102.017 4.02-2.448 5.717-7.323l.118-.34.128.336c.297.77.682 1.812 1.037 3.056l.013.047-.02.045c-1.635 3.59-2.8 7.595-2.832 9.738-.042 2.824 1.212 4.668 3.195 4.698h.034c1.08.008 3.598-.409 3.676-4.45.031-1.656-.34-4-1.102-6.97l-.088-.34.289.197c.996.678 2.123 1.045 3.26 1.062zM428 20zm-106.637.38c-.732 2.795-2.121 6.164-4.582 6.34a2.588 2.588 0 0 1-.2.007c-1.02-.007-1.588-.665-1.685-1.954-.124-1.614.6-3.499 1.846-4.802.793-.829 1.683-1.282 2.505-1.276h.018c1.04.015 1.762.837 2.092 1.602l.018.04-.012.042zm22.669-15.498h.035c.231.001.435.116.603.342.8 1.074.781 4.97-.64 9.392-.811 2.528-1.896 4.913-3.136 6.9l-.197.316-.048-.369c-.136-1.072-.198-2.19-.241-3.14-.304-6.702 1.818-13.363 3.624-13.441zM325.13 27.984c2.377-.17 4.286-3.318 4.997-4.663l.183-.348.066.386c.32 1.903 1.353 5.103 4.66 5.152h.026c1.43.01 3.059-.833 4.71-2.44l.12-.118.086.144c1.09 1.813 2.564 2.784 4.14 2.716 2.321-.1 3.74-1.7 3.874-2.816.034-.285-.042-.553-.206-.735-.207-.23-.51-.258-.735-.051l-.106.098c-.545.504-1.557 1.442-2.654 1.489-1.343.055-2.33-.738-2.96-2.363l-.026-.068.045-.057c3.728-4.698 6.373-11.888 6.153-16.724-.1-2.238-.746-4.91-3.244-4.93-.06 0-.123.001-.187.005-.956.041-1.83.48-2.596 1.307-2.337 2.52-3.596 8.755-3.21 15.886.082 1.48.334 2.866.751 4.116l.023.07-.048.056c-1.382 1.557-2.74 2.41-3.825 2.402-2.61-.019-2.49-4.298-2.257-7.848.05-.765.12-1.252-.109-1.53-.164-.2-.44-.3-.843-.306h-.047c-.929-.007-1.124.178-1.61 1.523-1.01 2.794-2.995 7.48-4.959 7.466-.543-.008-.958-.193-1.24-.55-.942-1.196-.197-4.156.401-6.534.108-.428.212-.839.3-1.219.132-.564.096-.977-.107-1.228-.202-.25-.61-.353-1.15-.315-.84.06-1.381.4-1.652 1.962l-.055.325-.193-.233c-.363-.533-1.075-1.17-2.403-1.18a4.255 4.255 0 0 0-.362.012c-1.418.104-3.04 1.059-4.233 2.493a8.324 8.324 0 0 0-1.9 5.988c.01.116.025.226.042.338l.008.061-.043.045c-.831.875-1.675 1.315-2.51 1.309-1.285-.02-2.016-.96-2.004-2.517.02-2.622 1.895-10.513 1.916-13.374.023-3.044-1.351-4.712-3.76-4.748h-.036c-3.516-.025-6.286 3.859-8.969 11.872-.246.734-.513 1.582-.743 2.315l-.378 1.205.12-1.255c.264-2.796.452-5.517.558-8.087.16-3.881-.359-6.383-1.583-7.65-.66-.682-1.539-1.023-2.686-1.039h-.03c-4.303-.032-6.418 7.054-7.956 12.053-.464 1.51-1.383 4.914-1.997 7.242l.358-.56c.287-2.934 1.109-10.284 1.088-14.275-.022-4.282-1.465-6.211-4.678-6.259h-.04c-1.717-.012-2.914.814-3.616 1.51-1.127 1.116-1.836 2.752-1.808 4.171.017.863.553 1.634.962 1.637.267.002.417-.345.483-.553 1.019-3.208 2.317-4.762 3.968-4.75.686.01 1.194.21 1.572.614 1.281 1.364 1.018 5.019.543 11.654a434.803 434.803 0 0 0-.48 7.317c-.025.473-.058.93-.09 1.364-.14 1.914-.251 3.427.49 3.544.965.155 1.597-.225 1.925-1.158.488-1.385 1.587-5.17 3.709-12.085 2.036-6.637 3.555-9.047 5.475-9.033 2.219.016 2.356 3.744 1.89 11.605-.099 1.665-.229 3.553-.334 5.608-.014.288-.03.568-.046.837-.098 1.701-.175 3.044.318 3.562.153.161.364.242.643.246.96.007 1.256-.816 1.746-2.18.085-.241.178-.497.28-.767 3.362-8.87 5.857-16.567 9.127-16.544.98.007 1.737.792 1.726 2.312-.026 3.51-1.83 10.278-1.856 13.715-.01 1.23.344 2.34 1.023 3.122.697.802 1.677 1.235 2.833 1.252h.026c1.094.008 2.238-.504 3.4-1.522l.11-.095.085.116c.754 1.006 1.977 1.552 3.303 1.461 2.033-.14 3.752-1.898 4.399-3.563l.126-.325.122.327c.46 1.242 1.47 2.743 3.65 2.585z" fill="#C7D0D8"/><path d="M332.522 10c-.833-.006-1.51.631-1.522 1.42-.012.794.65 1.45 1.478 1.462l.01.118.001-.118c.82.006 1.499-.63 1.51-1.419.013-.794-.65-1.45-1.477-1.463m57 0c-.833-.006-1.51.63-1.522 1.42-.012.794.65 1.45 1.478 1.462l.01.118.002-.118c.82.006 1.497-.63 1.51-1.419.012-.794-.651-1.45-1.478-1.463m44.472 19.855a.853.853 0 0 1-.848-.86.854.854 0 1 1 1.71.012.853.853 0 0 1-.862.848m.013-1.855a1.002 1.002 0 0 0-1.007.993c-.003.55.442 1.003.992 1.007a1.001 1.001 0 0 0 .015-2" fill="#C7D0D8"/><path d="M434.39 28.45l-.216-.002.004-.335h.3c.143.002.298.04.297.167-.002.165-.201.17-.385.17m.553-.17c.002-.178-.115-.276-.418-.277L434.01 28l-.011.994.17.001.003-.436.24.002.395.438.19.001-.394-.438c.18-.022.337-.098.339-.281" fill="#C7D0D8"/><path d="M251.288 21.739l.619-.88c.449-.624.98-.677 1.616-.244.832.606 2.245 1.443 3.97 1.456 1.506.011 2.904-.778 2.915-2.431.025-3.42-9.388-3.149-9.344-9.278.021-2.936 2.18-5.2 5.276-5.69l.011-1.511c.005-.77.34-1.166 1.121-1.16l.195.001c.723.005 1.083.35 1.079 1.006l-.012 1.625c1.92.156 3.279.908 4.026 1.456.61.374.66.973.323 1.598l-.481.966c-.367.682-.896.764-1.59.359-.72-.462-1.912-1.07-3.333-1.08-1.67-.013-3.013.974-3.024 2.4-.024 3.393 9.39 2.865 9.345 9.25-.02 2.907-2.015 5.373-5.415 5.803l-.01 1.426c-.005.77-.372 1.195-1.095 1.189l-.194-.001c-.78-.006-1.111-.379-1.106-1.007l.01-1.625a9.386 9.386 0 0 1-4.719-1.974c-.58-.432-.604-1.059-.183-1.654" fill="#2B9CF2"/><path d="M92.833 23.156L88.207 20.8l-13.454 6.895a.544.544 0 0 1-.478 0L60.797 20.8l-4.627 2.356a.3.3 0 0 0 0 .54l18.08 9.249a.547.547 0 0 0 .478 0l18.08-9.25c.252-.122.252-.416.025-.54M59.565 17.93l14.71 7.507a.542.542 0 0 0 .478 0l14.711-7.507a.3.3 0 0 0 0-.54l-4.225-2.158-10.486 5.372a.544.544 0 0 1-.478 0L63.79 15.255l-4.224 2.16c-.227.098-.227.393 0 .515m3.193-5.447l11.517 5.888a.54.54 0 0 0 .478 0l11.517-5.888a.3.3 0 0 0 0-.54L74.753 6.057a.54.54 0 0 0-.478 0l-11.517 5.888a.3.3 0 0 0 0 .54m97.275 4.11c-.444-.558-1.134-1.02-2.094-1.02-2.44 0-2.957 2.283-2.957 4.13 0 1.846.492 4.104 2.957 4.104.985 0 1.65-.436 2.094-1.02.64-.825.813-1.991.813-3.109 0-1.069-.173-2.235-.813-3.085m1.675 8.794c-.789.631-1.848 1.044-3.178 1.044-1.553 0-2.785-.534-3.4-1.263V31H152V13.291h2.686l.197 1.41C155.647 13.51 157.1 13 158.53 13c1.306 0 2.34.437 3.154 1.093 1.552 1.263 2.315 3.182 2.315 5.587.025 2.502-.738 4.446-2.29 5.709M100 26.975V9h3.195v14.896h6.049L111 27zm43.099-10.948c-.964 0-1.655.444-2.099 1.012-.642.838-.815 2.022-.815 3.131 0 1.11.173 2.318.815 3.157a2.584 2.584 0 0 0 2.099 1.01c2.444 0 2.938-2.318 2.938-4.191 0-1.874-.494-4.119-2.938-4.119zm3.21 10.677l-.198-1.43c-.765 1.209-2.222 1.726-3.654 1.726-1.309 0-2.37-.443-3.16-1.084-1.556-1.283-2.297-3.231-2.297-5.672 0-2.54.766-4.512 2.321-5.795.79-.64 1.852-1.035 3.16-1.035 1.655 0 2.84.542 3.408 1.233V9H149v17.704h-2.692zm39.004 2.873c-1.29 0-3.43-.146-3.43-1.77 0-.8.515-1.38 1.238-1.575h2.554c1.237 0 3.223 0 3.223 1.575 0 1.697-2.295 1.77-3.585 1.77m-.232-14.3c1.496 0 2.399.995 2.399 2.376 0 1.382-.903 2.351-2.399 2.351s-2.399-.97-2.399-2.351c0-1.38.903-2.375 2.4-2.375m5.261 9.379c-1.29-.824-3.044-.848-4.41-.848h-2.245c-.67 0-1.496-.17-1.496-.921 0-.413.361-.727.67-.897.671.218 1.445.34 2.193.34 2.915 0 5.417-1.673 5.417-4.363 0-2.011-1.677-2.641-1.703-2.69h2.812L193 13h-7.945c-3.044 0-5.546 1.648-5.546 4.677 0 1.31.516 2.35 1.367 3.127-1.083.63-1.625 1.502-1.625 2.568 0 .824.49 1.745 1.368 2.182-1.574.727-2.065 2.641-1.187 4.265 1.522 1.963 3.843 2.181 6.01 2.181 3.018 0 6.552-.897 6.552-4.265 0-1.236-.49-2.302-1.65-3.078M210.585 27c-.707 0-1.536-.101-2.22-.33-1.633-.557-2.999-1.826-3.365-3.601l2.512-.939c.269 1.548 1.708 2.283 3.098 2.283.78 0 1.365-.101 1.829-.38.415-.254.634-.61.634-1.065 0-.812-.488-1.243-1.317-1.395l-3.073-.558c-2.097-.38-3.244-1.928-3.244-3.602 0-2.612 2.268-4.413 5.17-4.413 2.488 0 4.489 1.09 5.098 3.5l-2.537 1.014c-.268-1.344-1.438-1.978-2.536-1.978-.415 0-.829.026-1.268.203-.561.229-.975.634-.975 1.293 0 .94.78 1.091 1.487 1.218l2.56.507c2.025.406 3.562 1.75 3.562 3.83-.049 2.688-2.122 4.413-5.415 4.413m-92.431-10.614c-.441-.48-1.127-.783-2.008-.783-1.64 0-2.89 1.212-3.036 3.032h5.778c0-.935-.244-1.693-.734-2.249m3.77 4.549h-8.79c.025 1.996 1.494 3.36 3.281 3.36 1.739 0 2.645-.909 3.11-2.097l2.424 1.062c-.636 1.996-2.57 3.74-5.485 3.74-3.746 0-6.464-2.83-6.464-6.975 0-3.74 2.228-7.025 6.17-7.025 2.155 0 3.918.96 4.946 2.78.687 1.213.907 2.602.882 4.043 0 .682-.073 1.112-.073 1.112m10.613-.2l-3.435.254c-.975.076-1.95.66-1.95 1.75 0 1.04.847 1.674 1.924 1.674 2.026 0 3.461-1.09 3.461-3.069v-.609zm3.18 2.639c0 .608.36.836.898.836.205 0 .384-.05.384-.05v2.257c-.359.253-.743.456-1.538.456-1.41 0-2.385-.862-2.488-1.877-.743 1.117-2.18 2.004-4.102 2.004-3.23 0-4.872-2.004-4.872-4.184 0-2.537 2-4.008 4.564-4.185l3.974-.28v-.532c0-1.42-.948-2.232-2.538-2.232-1.82 0-2.692.863-2.923 2.207l-2.718-.584c.205-2.232 2.359-4.21 5.743-4.21 3.514 0 5.642 1.7 5.642 5.072l-.026 5.302zm37.846-2.639l-3.436.254c-.974.076-1.948.66-1.948 1.75 0 1.04.846 1.674 1.922 1.674 2.026 0 3.462-1.09 3.462-3.069v-.609zm3.154 2.639c0 .608.359.836.897.836.205 0 .385-.05.385-.05v2.257c-.36.253-.744.456-1.538.456-1.411 0-2.385-.862-2.488-1.877-.743 1.117-2.18 2.004-4.103 2.004-3.23 0-4.871-2.004-4.871-4.184 0-2.537 2-4.008 4.564-4.185l3.974-.28v-.532c0-1.42-.949-2.232-2.538-2.232-1.82 0-2.692.863-2.924 2.207l-2.717-.584c.205-2.232 2.359-4.21 5.743-4.21 3.514 0 5.642 1.7 5.642 5.072l-.026 5.302z" fill="#C7D0D8"/><path d="M200.154 16.386c-.441-.48-1.127-.783-2.008-.783-1.64 0-2.89 1.212-3.036 3.032h5.803c-.025-.935-.27-1.693-.76-2.249m3.772 4.549h-8.79c.024 1.996 1.493 3.36 3.28 3.36 1.739 0 2.645-.909 3.11-2.097l2.424 1.062c-.636 1.996-2.57 3.74-5.485 3.74-3.746 0-6.464-2.83-6.464-6.975 0-3.74 2.228-7.025 6.17-7.025 2.155 0 3.918.96 4.947 2.78.686 1.213.906 2.602.881 4.043 0 .682-.073 1.112-.073 1.112m14.645-6.98h-.324v.477h.323c.161 0 .277-.068.277-.25 0-.16-.116-.227-.277-.227zm.276 1.295l-.277-.568h-.323v.568h-.254v-1.568h.577c.3 0 .554.182.554.5a.476.476 0 0 1-.277.454l.3.614h-.3zm-.346-2c-.738 0-1.223.523-1.223 1.25s.485 1.25 1.223 1.25c.738 0 1.223-.523 1.223-1.25s-.485-1.25-1.223-1.25zm0 2.75c-.853 0-1.5-.659-1.5-1.5 0-.84.647-1.5 1.5-1.5.854 0 1.5.66 1.5 1.5 0 .841-.624 1.5-1.5 1.5z" fill="#C7D0D8"/><path d="M32.295 25.685l.624-.874c.453-.62.984-.668 1.615-.23.825.613 2.229 1.462 3.951 1.49 1.503.024 2.904-.752 2.93-2.406.051-3.42-9.345-3.23-9.252-9.357.046-2.936 2.218-5.183 5.312-5.646l.024-1.51c.011-.77.35-1.164 1.128-1.152l.195.004c.722.012 1.078.36 1.068 1.015l-.025 1.625c1.915.172 3.265.936 4.006 1.49.607.38.653.98.31 1.601l-.487.961c-.373.68-.901.756-1.59.347-.714-.468-1.9-1.086-3.319-1.11-1.667-.026-3.015.949-3.037 2.375-.052 3.392 9.349 2.945 9.251 9.33-.045 2.907-2.055 5.355-5.452 5.757l-.021 1.425c-.012.77-.38 1.191-1.102 1.18l-.195-.004c-.778-.012-1.106-.387-1.096-1.015l.026-1.625a9.357 9.357 0 0 1-4.695-2.014c-.577-.438-.595-1.065-.17-1.657" fill="#2B9CF2"/><path d="M139.91 75.053c1.918-1.916 4.012-2.512 6.42-1.643 2.16.78 3.617 2.881 3.656 5.21.028 1.672.005 3.346.004 5.02 0 .092-.017.185-.03.313h-2.72v-.535c0-1.515.012-3.03-.005-4.546-.013-1.258-.547-2.233-1.7-2.78-1.076-.508-2.12-.374-3.053.364-.716.568-1.09 1.33-1.089 2.261.002 1.563.001 3.126.001 4.689v.547h-2.759v-.585c0-1.484.014-2.968-.002-4.452-.022-1.928-1.463-3.281-3.263-3.09a2.89 2.89 0 0 0-2.575 2.849c-.012 1.61-.012 3.22.004 4.83.003.358-.078.512-.468.493a25.538 25.538 0 0 0-1.885-.003c-.29.008-.424-.062-.421-.391.014-1.768-.082-3.542.03-5.302.147-2.296 1.37-3.96 3.478-4.828 2.202-.907 4.25-.496 6.038 1.099.137.122.22.307.339.48m-28.582 3.713c.01-1.629-1.271-2.982-2.824-2.982-1.508 0-2.8 1.33-2.813 2.894-.013 1.648 1.24 2.99 2.797 2.996 1.55.005 2.83-1.306 2.84-2.908m-2.842 15.232v-2.716c.183-.038.371-.074.559-.115 1.234-.269 2.208-1.331 2.259-2.642.061-1.579.014-3.161.014-4.815-.157.066-.274.11-.389.163-2.05.971-4.022.802-5.793-.635-1.789-1.452-2.471-3.435-1.982-5.742.48-2.269 1.89-3.727 4.042-4.314 3.403-.928 6.79 1.822 6.798 5.481.008 3.23.008 6.459 0 9.688-.008 2.982-2.352 5.533-5.172 5.647-.103.004-.205 0-.336 0m84.005-11.841c1.561.007 2.834-1.312 2.85-2.951.014-1.652-1.272-3.02-2.84-3.019-1.536 0-2.834 1.367-2.833 2.984.001 1.632 1.275 2.979 2.823 2.986m2.831-8.023V68h2.675v.505c0 3.624.008 7.249-.002 10.872-.008 2.856-2.252 5.375-4.97 5.604-2.85.24-5.46-1.803-5.922-4.657-.384-2.372.3-4.357 2.118-5.8 1.806-1.433 3.784-1.544 5.82-.524l.281.134m-15.831 7.196a2.834 2.834 0 0 0 2.833-2.8c.013-1.535-1.255-2.834-2.785-2.854-1.543-.02-2.86 1.282-2.862 2.83-.002 1.535 1.274 2.816 2.814 2.824m2.83 2.007c-.642.202-1.22.447-1.822.563-3.081.591-5.969-1.5-6.44-4.636-.453-3.018 1.761-5.864 4.847-6.227 3.028-.356 5.828 1.91 6.028 4.993.117 1.787.039 3.586.056 5.38.003.267-.116.337-.359.334a35.175 35.175 0 0 0-1.866.004c-.319.012-.508-.055-.444-.41m-19.631-4.869c-.007 1.557 1.239 2.837 2.775 2.852a2.836 2.836 0 0 0 2.858-2.82c.002-1.537-1.271-2.827-2.803-2.839-1.526-.011-2.823 1.275-2.83 2.807m8.31.05a5.497 5.497 0 0 1-5.538 5.48c-3.01-.013-5.486-2.517-5.462-5.52.024-3.085 2.515-5.505 5.638-5.479 2.935.025 5.383 2.544 5.362 5.519M127 73v5.202c-.002 3.151-2.354 5.712-5.323 5.796-3.02.085-5.522-2.31-5.643-5.487-.068-1.774-.013-3.554-.012-5.331 0-.045.019-.09.038-.173h2.626v.507c0 1.556-.01 3.111.003 4.667.011 1.256.55 2.203 1.642 2.74 1.041.511 2.047.362 2.946-.383.722-.599 1.053-1.414 1.055-2.373.003-1.54 0-3.08 0-4.619V73H127zm31.998.005c0 .849.01 1.67-.013 2.492-.003.095-.178.248-.295.27-1.827.338-2.78 1.423-2.787 3.208-.005 1.491-.019 2.983.01 4.473.009.451-.143.573-.592.55-.641-.036-1.287-.018-1.93-.007-.263.005-.395-.064-.39-.345.026-1.887-.049-3.78.083-5.66.196-2.768 3.015-5.114 5.914-4.98m-70.196-10.13c.705 0 1.279.561 1.279 1.25 0 .69-.574 1.25-1.279 1.25s-1.279-.56-1.279-1.25c0-.689.574-1.25 1.279-1.25m-8.474 20.998c.705 0 1.28.56 1.28 1.25s-.575 1.251-1.28 1.251c-.705 0-1.28-.56-1.28-1.25s.575-1.251 1.28-1.251m7.39-10.603h-16.25c-2.195 0-3.98 1.745-3.98 3.89v5.289c0 2.145 1.785 3.89 3.98 3.89h5.914a3.203 3.203 0 0 0 2.946 1.911c1.763 0 3.197-1.402 3.197-3.127 0-1.724-1.434-3.125-3.197-3.125a3.21 3.21 0 0 0-2.802 1.62h-6.059c-.66 0-1.196-.524-1.196-1.17V77.16c0-.645.536-1.17 1.196-1.17h16.251c.66 0 1.196.525 1.196 1.17v15.951c0 .645-.537 1.17-1.196 1.17h-26.74c-.659 0-1.196-.525-1.196-1.17V66.843c0-.644.537-1.169 1.196-1.169h25.047a3.212 3.212 0 0 0 2.777 1.579c1.763 0 3.198-1.403 3.198-3.127C92 62.403 90.565 61 88.802 61c-1.34 0-2.488.81-2.964 1.954h-24.86c-2.193 0-3.978 1.744-3.978 3.89V93.11c0 2.146 1.785 3.89 3.978 3.89h26.74c2.193 0 3.978-1.744 3.978-3.889v-15.95c0-2.145-1.785-3.89-3.978-3.89" fill="#C7D0D8"/><path d="M29.295 85.685l.624-.874c.454-.62.984-.668 1.615-.23.826.612 2.23 1.462 3.95 1.49 1.504.024 2.905-.752 2.93-2.406.053-3.42-9.344-3.23-9.25-9.358.045-2.936 2.217-5.182 5.311-5.645l.024-1.51c.011-.77.35-1.164 1.128-1.152l.195.004c.722.011 1.078.36 1.069 1.015l-.025 1.625c1.914.172 3.264.936 4.005 1.49.607.38.653.98.31 1.6l-.487.962c-.372.679-.901.756-1.59.346-.714-.467-1.9-1.086-3.319-1.109-1.667-.026-3.015.949-3.037 2.375-.052 3.392 9.35 2.945 9.251 9.33-.044 2.907-2.055 5.355-5.451 5.757l-.022 1.424c-.012.77-.38 1.192-1.102 1.18l-.195-.003c-.778-.012-1.105-.388-1.096-1.015l.026-1.625a9.366 9.366 0 0 1-4.695-2.014c-.577-.438-.595-1.065-.17-1.657" fill="#2B9CF2"/><mask id="b" fill="#fff"><use xlink:href="#a"/></mask><path fill="#D5C692" mask="url(#b)" d="M211 244h49v-44h-49z"/><path d="M235.865 227.083c.06.02.121.042.186.068a4.418 4.418 0 0 0 3.343-.015c.685-.274.916-.433 1.421-.78 2.775-1.913 6.212-1.566 8.371.836.332.366.646.69.949 1.006.977 1.014 1.901 1.972 2.555 3.366.04.085.077.17.111.257a5.48 5.48 0 0 1 .436 2.147c0 1.522-.63 2.976-1.734 4.023-.389.392-.707.688-.922.88-.34.313-.7.608-1.044.853a20.074 20.074 0 0 1-11.699 3.737c-1.927 0-3.874-.272-5.792-.822l-1.71-.491-.07-.125a20.646 20.646 0 0 1-8.818-6.633 20.21 20.21 0 0 1-4.198-12.388c0-4.832 1.725-9.522 4.859-13.206a20.462 20.462 0 0 1 12.035-6.9l.054-.01c.09-.016.18-.032.27-.046l.029-.005a4.96 4.96 0 0 1 .213-.03l.032-.006c5.274-.79 10.528.45 14.795 3.497.345.245.704.54 1.043.853.215.192.534.487.923.88a5.542 5.542 0 0 1 1.734 4.023c0 .74-.146 1.46-.435 2.146a5.021 5.021 0 0 1-.112.256c-.654 1.396-1.578 2.354-2.555 3.369-.303.314-.617.639-.949 1.003-2.158 2.404-5.596 2.75-8.371.838-.505-.347-.735-.506-1.42-.78a4.527 4.527 0 0 0-1.548-.328c-.182.004-.357.002-.566.02l-.018.003-.15.021-.028.004a5.383 5.383 0 0 0-.239.035 4.542 4.542 0 0 0-.315.075l-.016.005c-.034.01-.069.018-.104.027a4.97 4.97 0 0 0-.339.117c-1.706.66-2.852 2.324-2.852 4.14a4.519 4.519 0 0 0 2.645 4.08m30.912-21.723a17.034 17.034 0 0 0-12.138-12.138c-5.462-1.434-11.412-2.223-17.64-2.222-6.144 0-12.02.767-17.421 2.165a17.276 17.276 0 0 0-12.412 12.413C205.768 210.979 205 216.855 205 223c0 6.227.788 12.178 2.222 17.639a17.035 17.035 0 0 0 12.139 12.14c5.461 1.433 11.412 2.221 17.638 2.221 6.228 0 12.178-.788 17.64-2.222a17.034 17.034 0 0 0 12.138-12.14C268.212 235.179 269 229.228 269 223c0-6.227-.788-12.178-2.223-17.64" fill="#D5C692" mask="url(#b)"/><path d="M275.39 73.279c2.391-.39 3.247-2.227 3.889-4.279h2.256v3.966h5.154l-.856 3.029h-4.318v8.948c0 2.13.798 2.755 2.257 2.755 1.01 0 1.866-.352 2.43-.664l.798 2.853c-.972.625-2.606 1.113-4.26 1.113-5.133 0-5.328-3.067-5.328-5.881v-9.124H275l.39-2.716zm21.853 1.854c-2.734 0-3.92 2.691-4.15 5 .479.041.918.041 1.359.041 2.964 0 4.914-.783 4.914-2.932-.019-1.486-.86-2.109-2.123-2.109M303 77.041c0 5.122-4.13 6.367-9.906 6.146.171 2.39 1.3 4.479 4.265 4.479 1.969 0 3.442-.864 4.283-1.467l1.186 2.973c-.555.422-2.792 1.828-5.929 1.828-5.757 0-7.899-3.937-7.899-9.018 0-5.543 2.964-9.982 8.416-9.982 3.442 0 5.584 1.667 5.584 5.041m13.197-1.358c-.524-.221-1.552-.462-2.6-.462-3.416 0-4.424 3.26-4.424 6.923 0 2.838.698 5.635 3.57 5.635 2.212 0 3.454-1.57 3.454-3.26v-8.836zm4.037 11.191c0 .724.174.966.756 1.006l1.01.08v2.577h-5.124l-.096-1.892-.098-.04C315.81 89.892 314.296 91 311.91 91c-5.046 0-6.909-3.704-6.909-8.715 0-6.32 3.008-10.285 9.12-10.285 1.146 0 3.668.242 6.114 1.227v13.647zm8.927-5.474c0 3.615 1.228 6.125 4.277 6.125 1.324 0 2.666-.502 4.028-1.606L339 88.791c-1.304 1.145-3.452 2.209-6.041 2.209-5.025 0-7.959-3.214-7.959-9.42 0-7.19 4.276-9.58 8.228-9.58 2.09 0 3.931.503 5.293 1.386v5.081l-3.184.241V76.6c0-.602-.077-.903-.575-1.064-.384-.1-.92-.18-1.324-.18-2.647 0-4.277 1.867-4.277 6.045m13.902-12.644c0-.768-.222-.984-.91-1.023L341 67.636V65h6.232v9.776c1.254-2.282 3.42-2.911 5.26-2.911 4.19 0 5.666 2.42 5.666 5.999v9.382l1.842.099v2.636h-8.013v-2.479l1.113-.098c.607-.079.749-.413.749-1.16v-7.456c0-2.104-.466-3.462-2.894-3.462-2.205 0-3.723 1.712-3.723 3.817v8.123l1.76.079V90h-7.972v-2.517l1.052-.099c.688-.079.93-.275.93-1.16V68.757h.061zm30.115 6.926c-.524-.221-1.553-.462-2.6-.462-3.416 0-4.425 3.26-4.425 6.923 0 2.838.698 5.635 3.57 5.635 2.213 0 3.455-1.57 3.455-3.26v-8.836zm4.056 11.191c0 .724.175.966.757 1.006l1.009.08v2.577h-5.123l-.098-1.892-.096-.04c-.874 1.288-2.387 2.395-4.774 2.395-5.046 0-6.909-3.704-6.909-8.715 0-6.32 3.007-10.285 9.121-10.285 1.145 0 3.668.242 6.113 1.227v13.647zm9.728-.677c.692.386 1.807.695 2.942.695 2.327 0 3.942-1.718 3.942-6.293 0-2.82-.693-5.715-3.808-5.715-1.788 0-3.076 1.1-3.076 2.645v8.668zm0-12.703c1.057-1.1 2.634-1.757 4.385-1.757 4.153 0 6.653 2.915 6.653 8.224C398 86.738 394.923 90 389.77 90c-2.424 0-5.405-.695-6.846-1.486V68.687c0-.714-.232-.965-.867-1.004L381 67.586V65h5.962v8.494zm20.181 13.733l1.857.138V90h-7.921v-2.518l1.086-.098c.671-.098.85-.275.85-1.16V68.757c0-.768-.218-.984-.89-1.023L401 67.635V65h6.124v22.227h.02zm12.101-12.094c-2.735 0-3.922 2.691-4.15 5 .477.041.917.041 1.357.041 2.965 0 4.916-.783 4.916-2.932-.02-1.486-.861-2.109-2.123-2.109M425 77.041c0 5.122-4.13 6.367-9.907 6.146.172 2.39 1.3 4.479 4.265 4.479 1.97 0 3.442-.864 4.285-1.467l1.185 2.973c-.555.422-2.793 1.828-5.929 1.828-5.757 0-7.899-3.937-7.899-9.018 0-5.543 2.965-9.982 8.416-9.982 3.443 0 5.584 1.667 5.584 5.041" fill="#C7D0D8" mask="url(#b)"/><path d="M251.295 85.685l.624-.874c.453-.62.983-.668 1.614-.23.827.613 2.23 1.462 3.952 1.49 1.502.024 2.904-.752 2.93-2.406.052-3.42-9.346-3.23-9.252-9.358.045-2.935 2.218-5.182 5.313-5.645l.023-1.51c.012-.77.35-1.164 1.128-1.152l.195.004c.722.01 1.078.36 1.069 1.015l-.025 1.625c1.914.172 3.264.936 4.005 1.49.608.38.653.98.31 1.601l-.487.961c-.373.68-.9.756-1.59.347-.715-.468-1.9-1.087-3.318-1.11-1.668-.026-3.016.949-3.037 2.375-.052 3.392 9.348 2.945 9.25 9.33-.044 2.907-2.055 5.355-5.451 5.757l-.022 1.424c-.011.77-.381 1.192-1.102 1.18l-.195-.003c-.778-.012-1.105-.387-1.096-1.015l.026-1.625a9.358 9.358 0 0 1-4.695-2.014c-.578-.438-.595-1.065-.17-1.657" fill="#2B9CF2" mask="url(#b)"/><path d="M23.313 33S-99.22 193.418 230 223M145.851 96s-45.4 62.252 82.149 122M440.471 40S531.147 212.994 243 222m104.97-119S374.722 180.265 234 210" stroke="#3D434A" stroke-width="2.1" stroke-linecap="round" stroke-linejoin="round" stroke-dasharray="10.5" mask="url(#b)"/><path fill="#FFF" mask="url(#b)" d="M205 237h49v-44h-49z"/><path d="M228.865 219.083c.059.02.121.042.186.068a4.421 4.421 0 0 0 3.343-.014c.686-.275.916-.434 1.422-.782 2.774-1.912 6.212-1.565 8.37.837.332.366.645.69.949 1.006.978 1.014 1.901 1.972 2.555 3.366.04.085.077.17.111.257a5.47 5.47 0 0 1 .437 2.147c0 1.522-.63 2.976-1.735 4.023-.389.392-.707.688-.922.88-.34.313-.7.608-1.044.853a20.078 20.078 0 0 1-11.7 3.737 21 21 0 0 1-5.791-.822l-1.71-.491-.07-.125a20.64 20.64 0 0 1-8.818-6.633 20.208 20.208 0 0 1-4.198-12.388c0-4.831 1.725-9.522 4.859-13.206a20.464 20.464 0 0 1 12.035-6.9l.054-.01c.09-.016.18-.032.27-.046l.029-.005a4.96 4.96 0 0 1 .213-.03l.032-.006c5.274-.79 10.527.45 14.796 3.497.344.245.703.54 1.042.853.216.192.534.487.923.88a5.545 5.545 0 0 1 1.735 4.023c0 .74-.147 1.46-.436 2.146a4.775 4.775 0 0 1-.112.256c-.654 1.396-1.577 2.354-2.555 3.369-.304.314-.617.639-.949 1.003-2.157 2.404-5.596 2.75-8.37.838-.506-.347-.736-.506-1.422-.78a4.525 4.525 0 0 0-1.546-.328c-.183.004-.358.002-.566.02l-.019.003-.15.022-.027.003c-.048.007-.17.022-.24.035a4.44 4.44 0 0 0-.315.075l-.016.005c-.034.01-.069.018-.104.027-.11.033-.223.072-.34.117-1.705.661-2.851 2.324-2.851 4.14a4.52 4.52 0 0 0 2.645 4.08m30.913-21.723a17.035 17.035 0 0 0-12.14-12.138C242.178 183.788 236.228 183 230 183c-6.145 0-12.02.767-17.422 2.165a17.276 17.276 0 0 0-12.412 12.413C198.768 202.98 198 208.856 198 215c0 6.227.788 12.178 2.222 17.639a17.037 17.037 0 0 0 12.139 12.14C217.822 246.212 223.773 247 230 247c6.227 0 12.178-.788 17.638-2.222a17.036 17.036 0 0 0 12.14-12.14C261.212 227.179 262 221.228 262 215c0-6.227-.788-12.178-2.222-17.64" fill="#2B9CF2" mask="url(#b)"/></g></svg>