<svg id="Layer_1" xmlns="http://www.w3.org/2000/svg" viewBox="0 0 750 550"><style>.st0{fill:#ffefbb}.st1{fill:none;stroke-width:3.7247;stroke-linecap:round;stroke-linejoin:round;stroke-miterlimit:10}.st1,.st2,.st3{stroke:#fff}.st2,.st3,.st4{fill:none;stroke-linecap:round;stroke-linejoin:round;stroke-miterlimit:10}.st2{stroke-width:4.0805}.st3{stroke-width:3.5535}.st4{stroke:#e4c09d;stroke-width:2.5826}.st5{fill:#c7d0d8}.st6{fill:#2b9cf2}.st7{fill:#d5c692}.st8{fill:none;stroke:#3d434a;stroke-width:3;stroke-linecap:round;stroke-linejoin:round;stroke-miterlimit:10;stroke-dasharray:15}.st9{fill:#fff}</style><path class="st0" d="M162.8 454.7c7.2 9 16.4 16.1 25.2 23.2 1.9 1.6 3.9 3.2 5.8 4.8.9.8 1.9 1.6 2.8 2.5.1 0 .1.1.2.1l.5.5.3.3c-.1-.1-.2-.1-.2-.2 3.6 3.7 7.1 7.5 10.5 11.4 7.6 8.8 45.8 31.4 127.6 19.7 1.4-.2 2.6-1.1 3.9-1.6-2.7 1.2-.1 0 1.2-.4 2.9-.9 5.8-1.7 8.8-2.3 2.7-.6 5.5-1 8.3-1.3.4 0 2.4-.2 3-.3h3.1c6.1 0 12.2.7 18.2 1.9.3.1.5.1.6.1.2.1.4.1.7.2 1.4.4 2.8.8 4.1 1.2 3 .9 5.9 2.1 8.7 3.3 12.4 5.2 144.4-3.9 147-4.6 2.2-.3 11.4-2.2 13.7-3 1.1-.4 2.2-.9 3.2-1.4 1-.5 1.9-1 2.9-1.4.6-.2 2.6-1 3-1.3 9.5-6.1 15.4-18 17.6-29.6 1.9-9.6 1.5-19.8 1.4-29.7v-6.6c0-1.1 0-2.2.1-3.2v-.2c0 .4-.1.5 0-.6v-.5.3c.4-4.4 1-8.8 1.6-13.2 1.5-9.8 3.1-19.4 3.5-29.4.4-11-1.7-21.7-6.4-31.7-10.4-22.3-33.1-31.3-51.2-43.8-1-.7-2-1.5-3.1-2.2 2.1 1.5 0 0-.8-.7-2.1-1.7-4.1-3.6-6-5.6-1.8-1.8-3.5-3.7-5.1-5.6-.3-.3-1.4-1.7-1.7-2.2-.1-.1-.1-.2-.2-.2l-1.5-2.1c-3.2-4.6-5.9-9.5-8.3-14.6-.1-.2-.2-.4-.3-.5-.1-.2-.1-.4-.3-.7-.5-1.2-.9-2.4-1.4-3.6-.9-2.6-1.8-5.3-2.5-8.1-3.2-11.7-6.5-24.7-15.7-32.8-9.5-8.3-22-10.4-33.6-9.9-17.7.8-68.3 23.2-78.7 30.9-10.6 7.8-17.9 18.3-24.3 30.2-2.5 4.7-5.1 9.4-8.1 13.7-.2.3-.6.8-.9 1.2-.5.6-1 1.2-1.5 1.7-.8.8-1.7 1.5-2.5 2.4-.2.1-.4.3-.5.4-.5.3-2.2.8-2.9 1.4-.3.1-.6.2-.9.2-.4.1-.8.1-1.3.2-1.2-.1-3.6.1-4.1 0-.5-.1-3-.6-3.2-.5-.7-.2-1.6-.5-1.8-.6-2.7-.9-6.3-1.9-8.7-3.8.1.1 2.8 1.7 1 .5-.6-.4-1.3-.8-1.9-1.2-1.5-.9-3-1.9-4.5-2.9-2.7-1.8-5.4-3.8-8.1-5.7-5.1-3.7-10.3-7.3-15.7-10.4-12.5-7.2-25.6-12.8-39.7-14.1-12.8-1.2-26.5 1.3-37.6 7.9-13 7.8-21.1 20-26.9 34.7-5 12.6-8.6 26-12.8 39-2.2 6.9-4.4 13.9-6.7 20.8-1 3.2-2.1 6.4-3.2 9.6-1.2 2.6-2.3 5.3-3.4 7.9-1.1 2.9-2.1 5.8-2.9 8.8-.4 1.5-.7 2.9-.9 4.4-.2 1.3-.4 2.7-.6 4.1-.2.7-.8 3.5-.8 4.1-.5 14.8 6.2 29.8 14.9 40.7z"/><path class="st0" d="M585.2 436.8c0-.2 0-.5.1-.7v.1c-.1.2-.1.4-.1.6zm-388.4 48.6l.6.6-.1-.1-.5-.5z"/><ellipse transform="rotate(-34.583 470.808 477.744)" class="st1" cx="470.8" cy="477.7" rx="5.1" ry="5.1"/><ellipse transform="rotate(-34.583 473.892 302.536)" class="st1" cx="473.8" cy="302.5" rx="5.1" ry="5.1"/><path class="st2" d="M483.8 419.8l-18.2-7.5"/><path class="st3" d="M526.8 448.5l6.2-13.2m-97.9 34.9l-11.1-9.6m109-98.3l-11.1-9.6m-73.2-.6l6.2-13.3"/><ellipse transform="rotate(-13.736 214.243 372.698)" class="st1" cx="214.3" cy="372.8" rx="5.1" ry="5.1"/><ellipse transform="rotate(-13.736 376.837 437.922)" class="st1" cx="376.9" cy="438" rx="5.1" ry="5.1"/><path class="st2" d="M263.8 405.6l13.4-14.3"/><path class="st3" d="M221.6 435.5l10.2 10.6m2.2-104l12.9-7M300 472l12.9-6.9m26.6-68.3l10.2 10.6"/><path class="st5" d="M508.4 100zm161.1 15.8c4.9 0 8.4-3.3 8.4-8.1 0-2.4-.6-4.6-1.9-6.2-1.3-1.7-3.2-2.6-5.4-2.6-3 0-5.8 2.2-8.5 6.9l-.2.4-.1-.4c-.7-2-1.3-3.7-1.6-4.7-.2-.7-.4-1-.4-1.1-.1-.5-.6-.8-1.1-.8-.3 0-.7.1-1.1.3-.3.2-.5.5-.6.8v.1c-2.8 8.5-5.1 12.6-7 12.6-.3 0-.5-.1-.7-.3-.5-.6-.4-1.9-.2-3.7.1-1.3.3-2.8.2-4.4-.1-3.1-1.8-4.9-4.5-5-3.4 0-5.7 3.6-6.7 5.8l-.3.6-.1-.7c-.2-2.7-1.1-5.9-4-6-3.3 0-5.9 3.9-7.5 7.1l-.4.9v-1c.2-4.4.4-7 .5-7.7.1-.7.1-1.2-.2-1.5-.2-.3-.6-.4-1.3-.3-1.1.1-1.6.7-2.5 2.9-1.4 3.6-4.9 11.9-7.6 11.8-.5 0-1-.2-1.3-.6-1.1-1.3-.7-4.9 0-9.8l.1-.4c.3-2.3-.2-2.8-1.5-3.1h-.4c-1 0-1.5 1-2.5 3.6-1.7 4.8-3.9 9.8-6.5 9.8h-.3c-1.3-.2-1.3-2.2-1.2-4.7 0-1.4.1-2.9-.1-4.3-.4-2.5-1.8-4.1-3.8-4.1-4 0-6.7 5.1-8 8.1l-.3.7-.1-.7c-.2-1.3-.4-3.4-.4-5.9v-.2c7.5-9.3 10.9-16.1 11-21.9.1-3.7-1.6-5.9-4.5-6-2.1 0-7.2 1.7-9 18-.3 3-.5 6.1-.6 9.2v.1c-3.4 4.9-10.8 13.4-17.9 13.3-6.4 0-11.5-5.3-11.5-14.5.1-12.3 8.9-19.8 15.4-19.8h.1c1.4 0 2.6.4 3.5 1.2.9.8 1.4 1.9 1.4 3.1 0 1.7-.6 2.6-1.1 3.4-.1.2-.3.4-.4.7-.1.2-.2.6-.1.9.2.3.6.5 1.1.5 1.6 0 3.9-2.2 4-5.6.1-3.6-2.9-7.3-8.3-7.3-8.1-.1-19.1 8.8-19.2 23.2-.1 10.2 6.3 17.3 15 17.4 6.2 0 12.3-4.3 17.7-11.7l.3-.4v.6c.1 2.7.3 4.8.4 6.4.1 1 .1 1.7.1 2.1 0 .9.1 1.5.4 1.9.3.4.8.6 1.5.6 1.2 0 1.5-.8 2-2.9l.1-.6c.6-2.5 2.9-10.5 6.2-10.5.5 0 1 .2 1.3.5.7.8.6 2.4.5 4.2-.1 1.2-.1 2.3 0 3.5.3 3.1 1.6 4.7 4.1 4.7 2.5 0 5.2-2.7 6.6-5.2l.3-.5.1.5c.2 1.4 1.4 5.8 5 5.8 3.3 0 6.1-3.4 9.2-10.5l.4-.9v1c-.1 2.7-.3 6-.3 8.5 0 2 .2 2.7 1.1 2.7h.2c.9 0 1.5-.5 1.8-1.5 2.4-8 4.4-11.8 6.4-11.8 1.9 0 2.1 3.6 2.2 9.8v.4c0 2.2.1 3.2 1.5 3.2 1 0 1.3-.8 1.8-2.8.1-.4.2-.8.4-1.2 1.9-6.5 3.5-9.1 5.4-9.1 1.6 0 1.7 1.7 1.8 2.3.1 1.2-.1 2.4-.2 3.7-.1 1.1-.2 2.3-.2 3.4.1 2.5 1.5 3.9 3.9 4 3.1 0 6-3.6 8.5-10.8l.2-.5.2.5c.4 1.1 1 2.7 1.5 4.5v.2c-2.4 5.3-4.2 11.2-4.2 14.4-.1 4.2 1.8 6.9 4.8 7h.1c1.6 0 5.4-.6 5.5-6.6 0-2.5-.5-5.9-1.6-10.3l-.1-.5.4.3c1.5 1 3.2 1.6 4.9 1.6zm-80.7-20.9c.1-1.5.2-3 .4-4.3 1.2-8.9 3.7-15.1 6-15.1 1.1 0 1.6.9 1.6 2.5-.1 4-2.6 9.7-7.7 17l-.4.6.1-.7zm73.4 32.5c-.4.5-.9.7-1.5.7-.7 0-1.3-.3-1.7-.8-1-1.4-.7-4.7 1-10.7.2-.7.4-1.4.7-2.1l.2-.6.2.6c2 7 2.4 11.3 1.1 12.9zm.8-17.8l-.1-.3v-.1c2.3-4.7 5-7.4 7.2-7.4 2.6 0 4.3 2.4 4.3 5.7 0 2.2-1 3.5-1.8 4.1-.9.8-2.2 1.2-3.4 1.2-2.9 0-5-1.7-6.2-3.2zm7.2-7.5zm-153.1 11.8c3.5-.3 6.4-5 7.4-7.1l.3-.5.1.6c.5 2.9 2 7.7 6.9 7.8 2.1 0 4.5-1.3 7-3.7l.2-.2.1.2c1.6 2.8 3.8 4.2 6.1 4.1 3.4-.2 5.6-2.6 5.8-4.3.1-.4-.1-.8-.3-1.1-.3-.3-.8-.4-1.1-.1l-.2.1c-.8.8-2.3 2.2-3.9 2.3-2 .1-3.5-1.1-4.4-3.6v-.1l.1-.1c5.5-7.1 9.5-18 9.1-25.4-.2-3.4-1.1-7.5-4.8-7.5h-.3c-1.4.1-2.7.7-3.9 2-3.5 3.8-5.3 13.3-4.8 24.1.1 2.2.5 4.4 1.1 6.3v.1l-.1.1c-2.1 2.4-4.1 3.7-5.7 3.6-3.9 0-3.7-6.5-3.4-11.9.1-1.2.2-1.9-.2-2.3-.2-.3-.7-.5-1.3-.5h-.1c-1.4 0-1.7.3-2.4 2.3-1.5 4.2-4.4 11.4-7.4 11.3-.8 0-1.4-.3-1.8-.8-1.4-1.8-.3-6.3.6-9.9.2-.6.3-1.3.4-1.8.2-.9.1-1.5-.2-1.9-.3-.4-.9-.5-1.7-.5-1.2.1-2.1.6-2.5 3l-.1.5-.3-.4c-.5-.8-1.6-1.8-3.6-1.8h-.5c-2.1.2-4.5 1.6-6.3 3.8-2.1 2.5-3.1 5.8-2.8 9.1 0 .2 0 .3.1.5v.1l-.1.1c-1.2 1.3-2.5 2-3.7 2-1.9 0-3-1.5-3-3.8 0-4 2.8-16 2.8-20.3 0-4.6-2-7.2-5.6-7.2h-.1c-5.2 0-9.3 5.9-13.3 18-.4 1.1-.8 2.4-1.1 3.5l-.6 1.8.2-1.9c.4-4.2.7-8.4.8-12.3.2-5.9-.5-9.7-2.4-11.6-1-1-2.3-1.6-4-1.6-6.4 0-9.5 10.7-11.8 18.3-.7 2.3-2.1 7.5-3 11l.5-.8c.4-4.5 1.6-15.6 1.6-21.7 0-6.5-2.2-9.4-6.9-9.5h-.1c-2.5 0-4.3 1.2-5.4 2.3-1.7 1.7-2.7 4.2-2.7 6.3 0 1.3.8 2.5 1.4 2.5.4 0 .6-.5.7-.8 1.5-4.9 3.4-7.2 5.9-7.2 1 0 1.8.3 2.3.9 1.9 2.1 1.5 7.6.8 17.7-.2 3.2-.5 6.9-.7 11.1 0 .7-.1 1.4-.1 2.1-.2 2.9-.4 5.2.7 5.4 1.4.2 2.4-.3 2.9-1.8.7-2.1 2.4-7.8 5.5-18.3 3-10.1 5.3-13.7 8.1-13.7 3.3 0 3.5 5.7 2.8 17.6-.1 2.5-.3 5.4-.5 8.5 0 .4 0 .9-.1 1.3-.1 2.6-.3 4.6.5 5.4.2.2.5.4 1 .4 1.4 0 1.9-1.2 2.6-3.3.1-.4.3-.8.4-1.2 5-13.5 8.7-25.2 13.6-25.1 1.5 0 2.6 1.2 2.6 3.5 0 5.3-2.7 15.6-2.8 20.8 0 1.9.5 3.6 1.5 4.7 1 1.2 2.5 1.9 4.2 1.9 1.6 0 3.3-.8 5.1-2.3l.2-.1.1.2c1.1 1.5 2.9 2.4 4.9 2.2 3-.2 5.6-2.9 6.5-5.4l.2-.5.2.5c1.5 1.9 3 4.2 6.2 4zm28.1-35.1c.4 0 .7.2.9.5 1.2 1.6 1.2 7.5-.9 14.3-1.2 3.8-2.8 7.5-4.7 10.5l-.3.5-.1-.6c-.2-1.6-.3-3.3-.4-4.8-.4-10.2 2.8-20.3 5.5-20.4zm-33.7 23.5c-1.1 4.2-3.2 9.4-6.8 9.6h-.3c-1.5 0-2.4-1-2.5-3-.2-2.5.9-5.3 2.7-7.3 1.2-1.3 2.5-1.9 3.7-1.9 1.5 0 2.6 1.3 3.1 2.4l.1.2zm83.7-26.6z"/><path class="st5" d="M528.6 86.9c-1.3 0-2.4 1-2.5 2.4 0 1.3 1.1 2.4 2.4 2.4v.2-.2c1.3 0 2.4-1 2.4-2.3.1-1.4-1-2.5-2.3-2.5zm84.8.6c-1.3 0-2.4 1-2.5 2.4 0 1.3 1.1 2.4 2.4 2.4v.2-.2c1.3 0 2.4-1 2.4-2.3.1-1.4-1-2.5-2.3-2.5zm65.8 25.7c-.9 0-1.7.7-1.7 1.6 0 .9.7 1.7 1.6 1.7.9 0 1.7-.7 1.7-1.6 0-1-.7-1.7-1.6-1.7zm0 3c-.8 0-1.4-.6-1.4-1.4 0-.8.6-1.4 1.4-1.4.8 0 1.4.6 1.4 1.4 0 .8-.7 1.4-1.4 1.4z"/><path class="st5" d="M679.9 114.4c0-.3-.2-.5-.6-.5h-.7v1.9h.2v-.8h.3l.6.8h.3l-.6-.8c.3-.1.5-.3.5-.6zm-.8.3h-.3v-.6h.4c.2 0 .4.1.4.3.1.3-.2.3-.5.3z"/><path class="st6" d="M406.7 103.9l.9-1.3c.7-.9 1.5-1 2.5-.4 1.3.9 3.4 2.2 6.1 2.2 2.3 0 4.5-1.2 4.5-3.6 0-5.1-14.4-4.7-14.3-13.9 0-4.4 3.3-7.8 8.1-8.5v-2.3c0-1.2.5-1.7 1.7-1.7h.3c1.1 0 1.7.5 1.7 1.5v2.4c2.9.2 5 1.4 6.2 2.2.9.6 1 1.5.5 2.4l-.7 1.4c-.6 1-1.4 1.1-2.4.5-1.1-.7-2.9-1.6-5.1-1.6-2.6 0-4.6 1.5-4.6 3.6 0 5.1 14.4 4.3 14.3 13.9 0 4.4-3.1 8.1-8.3 8.7v2.1c0 1.2-.6 1.8-1.7 1.8h-.3c-1.2 0-1.7-.6-1.7-1.5v-2.4c-3.5-.4-6-2-7.2-3-1.1-.6-1.1-1.6-.5-2.5z"/><path class="st5" d="M126.1 90.5l17 8.9c.2.1.5.1.7 0l17-8.9c.3-.2.3-.6 0-.8l-17-8.9c-.2-.1-.5-.1-.7 0l-17 8.9c-.3.2-.3.6 0 .8zm-4.7 8.2l21.7 11.3c.2.1.5.1.7 0l21.7-11.3c.3-.2.3-.6 0-.8l-6.2-3.3-15.4 8.1c-.2.1-.5.1-.7 0l-15.4-8.1-6.2 3.3c-.5.2-.5.7-.2.8zm49 7.9l-6.8-3.6-19.8 10.4c-.2.1-.5.1-.7 0L123.2 103l-6.8 3.6c-.3.2-.3.6 0 .8l26.6 14c.2.1.5.1.7 0l26.6-14c.5-.1.5-.6.1-.8zm103.5 3.7c-1.2 1-2.8 1.6-4.8 1.6-2.3 0-4.2-.8-5.1-1.9v8.9h-4.7v-27h4l.3 2.1c1.1-1.8 3.3-2.6 5.5-2.6 2 0 3.5.7 4.7 1.7 2.3 1.9 3.5 4.9 3.5 8.5 0 3.9-1.1 6.8-3.4 8.7zm-2.6-13.4c-.7-.9-1.7-1.6-3.1-1.6-3.7 0-4.4 3.5-4.4 6.3s.7 6.3 4.4 6.3c1.5 0 2.5-.7 3.1-1.6 1-1.3 1.2-3 1.2-4.7.1-1.6-.2-3.4-1.2-4.7zm-89 14.5V84.8h4.9v22h9.2l2.7 4.6h-16.8zm69.3 0l-.3-2.1c-1.1 1.8-3.3 2.6-5.5 2.6-2 0-3.6-.7-4.7-1.6-2.3-1.9-3.4-4.9-3.4-8.5 0-3.8 1.1-6.8 3.5-8.7 1.2-1 2.8-1.6 4.7-1.6 2.5 0 4.3.8 5.1 1.9v-8.5h4.7v26.6h-4.1zm-4.8-16c-1.4 0-2.5.7-3.1 1.5-1 1.3-1.2 3-1.2 4.7s.3 3.5 1.2 4.7c.7.9 1.7 1.5 3.1 1.5 3.7 0 4.4-3.5 4.4-6.3s-.8-6.1-4.4-6.1zm68.7 13.9c-1.9-1.3-4.4-1.3-6.3-1.3H306c-1 0-2.1-.3-2.1-1.4 0-.6.5-1.1 1-1.4 1 .3 2.1.5 3.1.5 4.2 0 7.8-2.6 7.8-6.7 0-3.1-2.4-4-2.4-4.1h4l2-3.5H308c-4.4 0-8 2.5-8 7.1 0 2 .7 3.6 2 4.8-1.6 1-2.3 2.3-2.3 3.9 0 1.3.7 2.7 2 3.3-2.3 1.1-3 4-1.7 6.5 2.2 3 5.5 3.3 8.6 3.3 4.3 0 9.4-1.4 9.4-6.5-.1-1.7-.8-3.3-2.5-4.5zM308 95c2.1 0 3.4 1.5 3.4 3.6s-1.3 3.6-3.4 3.6-3.4-1.5-3.4-3.6c-.1-2.1 1.2-3.6 3.4-3.6zm.3 21.8c-1.9 0-4.9-.2-4.9-2.7 0-1.2.7-2.1 1.8-2.4h3.7c1.8 0 4.6 0 4.6 2.4-.1 2.6-3.3 2.7-5.2 2.7zm37.8-4.9c-1.1 0-2.3-.1-3.4-.5-2.5-.8-4.6-2.7-5.1-5.3l3.8-1.4c.4 2.3 2.6 3.3 4.7 3.3 1.2 0 2.1-.1 2.8-.6.6-.4 1-.9 1-1.6 0-1.2-.7-1.8-2-2l-4.7-.8c-3.2-.6-4.9-2.8-4.9-5.3 0-3.8 3.4-6.4 7.9-6.4 3.8 0 6.8 1.6 7.7 5.1l-3.9 1.5c-.4-2-2.2-2.9-3.9-2.9-.6 0-1.3 0-1.9.3-.9.3-1.5.9-1.5 1.9 0 1.4 1.2 1.6 2.3 1.8l3.9.7c3.1.6 5.4 2.6 5.4 5.6 0 4.1-3.2 6.6-8.2 6.6zm-130.4-9h-13.3c0 2.9 2.3 4.9 5 4.9 2.6 0 4-1.3 4.7-3.1l3.7 1.6c-1 2.9-3.9 5.5-8.3 5.5-5.7 0-9.8-4.1-9.8-10.2 0-5.5 3.4-10.3 9.3-10.3 3.3 0 5.9 1.4 7.5 4.1 1 1.8 1.4 3.8 1.3 5.9 0 .9-.1 1.6-.1 1.6zm-5.7-6.7c-.7-.7-1.7-1.1-3-1.1-2.5 0-4.4 1.8-4.6 4.4h8.7c0-1.4-.4-2.5-1.1-3.3zm24.6 10.4c0 .9.5 1.2 1.3 1.2.3 0 .6-.1.6-.1v3.3c-.5.4-1.1.7-2.2.7-2 0-3.4-1.3-3.6-2.7-1.1 1.6-3.1 2.9-5.9 2.9-4.7 0-7-2.9-7-6.1 0-3.7 2.9-5.9 6.6-6.1l5.7-.4v-.8c0-2.1-1.4-3.3-3.7-3.3-2.6 0-3.9 1.3-4.2 3.2l-3.9-.9c.3-3.3 3.4-6.1 8.3-6.1 5.1 0 8.1 2.5 8.1 7.4l-.1 7.8zm-4.6-3.9l-5 .4c-1.4.1-2.8 1-2.8 2.6 0 1.5 1.2 2.4 2.8 2.4 2.9 0 5-1.6 5-4.5v-.9zm65.7 3.9c0 .9.5 1.2 1.3 1.2.3 0 .6-.1.6-.1v3.3c-.5.4-1.1.7-2.2.7-2 0-3.4-1.3-3.6-2.7-1.1 1.6-3.1 2.9-5.9 2.9-4.7 0-7-2.9-7-6.1 0-3.7 2.9-5.9 6.6-6.1l5.7-.4v-.8c0-2.1-1.4-3.3-3.7-3.3-2.6 0-3.9 1.3-4.2 3.2l-3.9-.9c.3-3.3 3.4-6.1 8.3-6.1 5.1 0 8.1 2.5 8.1 7.4l-.1 7.8zm-4.5-3.9l-5 .4c-1.4.1-2.8 1-2.8 2.6 0 1.5 1.2 2.4 2.8 2.4 2.9 0 5-1.6 5-4.5v-.9z"/><path class="st5" d="M336.3 102.9H323c0 2.9 2.3 4.9 5 4.9 2.6 0 4-1.3 4.7-3.1l3.7 1.6c-1 2.9-3.9 5.5-8.3 5.5-5.7 0-9.8-4.1-9.8-10.2 0-5.5 3.4-10.3 9.3-10.3 3.3 0 5.9 1.4 7.5 4.1 1 1.8 1.4 3.8 1.3 5.9.1.9-.1 1.6-.1 1.6zm-5.7-6.7c-.7-.7-1.7-1.1-3-1.1-2.5 0-4.4 1.8-4.6 4.4h8.8c-.1-1.4-.4-2.5-1.2-3.3zM358.2 96.2c-1.4 0-2.4-1.1-2.4-2.4 0-1.4 1-2.4 2.4-2.4s2.4 1.1 2.4 2.4c0 1.4-1 2.4-2.4 2.4zm0-4.5c-1.2 0-2 .9-2 2 0 1.2.8 2 2 2s2-.9 2-2c-.1-1.1-.9-2-2-2zm.5 3.3l-.4-.9h-.5v.9h-.4v-2.6h.9c.5 0 .9.3.9.8 0 .3-.1.6-.4.7l.5 1h-.6zm-.4-2.1h-.5v.8h.5c.3 0 .4-.1.4-.4 0-.3-.2-.4-.4-.4z"/><path class="st6" d="M82.1 111.1l1-1.3c.7-.9 1.5-1 2.5-.3 1.3.9 3.4 2.2 6.1 2.2 2.3 0 4.5-1.1 4.5-3.6.1-5.1-14.4-4.8-14.2-14 .1-4.4 3.4-7.8 8.2-8.5v-2.3c0-1.2.5-1.7 1.7-1.7h.3c1.1 0 1.7.5 1.6 1.5v2.4c2.9.3 5 1.4 6.2 2.2.9.6 1 1.5.5 2.4l-.7 1.4c-.6 1-1.4 1.1-2.4.5-1.1-.7-2.9-1.6-5.1-1.7-2.6 0-4.6 1.4-4.7 3.6-.1 5.1 14.4 4.4 14.2 14-.1 4.4-3.2 8-8.4 8.6v2.1c0 1.2-.6 1.8-1.7 1.8h-.3c-1.2 0-1.7-.6-1.7-1.5v-2.4c-3.5-.4-6-2-7.2-3-1.1-.5-1.1-1.5-.4-2.4z"/><path class="st5" d="M241.6 184.1c2.9-2.8 6-3.7 9.6-2.4 3.2 1.2 5.4 4.3 5.5 7.7v8h-4.1v-7.6c0-1.9-.8-3.3-2.5-4.1-1.6-.8-3.2-.6-4.6.5-1.1.8-1.6 2-1.6 3.4v7.8h-4.1v-7.5c0-2.9-2.2-4.9-4.9-4.6-2.2.2-3.8 2.1-3.8 4.2v7.2c0 .5-.1.8-.7.7h-2.8c-.4 0-.6-.1-.6-.6 0-2.6-.1-5.3 0-7.9.2-3.4 2-5.9 5.2-7.2 3.3-1.3 6.4-.7 9 1.6.1.3.3.6.4.8zM194.5 212v-4c.3-.1.6-.1.9-.2 1.9-.4 3.4-2 3.5-3.9.1-2.3 0-4.7 0-7.1-.2.1-.4.2-.6.2-3.2 1.4-6.2 1.2-8.9-.9-2.8-2.2-3.8-5.1-3.1-8.5.7-3.4 2.9-5.5 6.2-6.4 5.3-1.4 10.5 2.7 10.5 8.1v14.4c0 4.4-3.6 8.2-8 8.4-.1-.1-.3-.1-.5-.1zm4.4-22.6c0-2.4-2-4.4-4.4-4.4-2.3 0-4.3 2-4.3 4.3 0 2.4 1.9 4.4 4.3 4.4s4.4-1.9 4.4-4.3zm125.9-7.4v-8.9h4.1v16.5c0 4.2-3.5 7.8-7.7 8.2-4.4.4-8.4-2.6-9.1-6.8-.6-3.5.5-6.4 3.3-8.5 2.8-2.1 5.8-2.3 9-.8 0 .2.1.2.4.3zm-4.4 11.7c2.4 0 4.4-1.9 4.4-4.3s-2-4.4-4.4-4.4c-2.4 0-4.4 2-4.4 4.3.1 2.4 2 4.4 4.4 4.4zm-15.9 3.1c-1 .3-1.9.7-2.8.9-4.8.9-9.2-2.3-10-7.2-.7-4.7 2.7-9.1 7.5-9.6 4.7-.6 9 3 9.3 7.7.2 2.8.1 5.5.1 8.3 0 .4-.2.5-.6.5h-2.9c-.4.1-.7-.1-.6-.6zm-4.4-3.1c2.4 0 4.4-1.9 4.4-4.3s-1.9-4.4-4.3-4.4-4.4 2-4.4 4.4c0 2.3 1.9 4.3 4.3 4.3zm-11.7-4.3c0 4.7-3.8 8.5-8.6 8.5-4.6 0-8.5-3.9-8.4-8.5 0-4.8 3.9-8.5 8.7-8.5 4.6 0 8.3 3.9 8.3 8.5zm-12.8-.1c0 2.4 1.9 4.4 4.3 4.4s4.4-1.9 4.4-4.4c0-2.4-2-4.4-4.3-4.4-2.4 0-4.4 2-4.4 4.4zm-52.2-7.7v7.7c0 4.7-3.6 8.4-8.2 8.6-4.7.1-8.5-3.4-8.7-8.1-.1-2.6 0-5.3 0-7.9 0-.1 0-.1.1-.3h4.1v7.7c0 1.9.9 3.3 2.5 4.1 1.6.8 3.2.5 4.6-.6 1.1-.9 1.6-2.1 1.6-3.5v-7.6c1.3-.1 2.6-.1 4-.1zm45.2-.4v3.7c0 .1-.3.4-.4.4-2.6.5-4 2.1-4 4.7v6.6c0 .7-.2.8-.8.8-.9-.1-1.8 0-2.7 0-.4 0-.6-.1-.6-.5 0-2.8-.1-5.6.1-8.4.3-4.1 4.3-7.5 8.4-7.3zm-105.4-.4h-23.9c-3.2 0-5.8 2.6-5.8 5.8v7.9c0 3.2 2.6 5.8 5.8 5.8h8.7c.7 1.7 2.4 2.9 4.3 2.9 2.6 0 4.7-2.1 4.7-4.7s-2.1-4.7-4.7-4.7c-1.8 0-3.3 1-4.1 2.4h-8.9c-1 0-1.8-.8-1.8-1.8v-7.9c0-1 .8-1.8 1.8-1.8h23.9c1 0 1.8.8 1.8 1.8v24c0 1-.8 1.8-1.8 1.8h-39.3c-1 0-1.8-.8-1.8-1.8V171c0-1 .8-1.8 1.8-1.8h36.8c.8 1.4 2.3 2.4 4.1 2.4 2.6 0 4.7-2.1 4.7-4.7s-2.1-4.7-4.7-4.7c-2 0-3.7 1.2-4.4 2.9h-36.5c-3.2 0-5.8 2.6-5.8 5.8v39.5c0 3.2 2.6 5.8 5.8 5.8h39.3c3.2 0 5.8-2.6 5.8-5.8v-24c0-3-2.6-5.6-5.8-5.6zm-10.9 16c1 0 1.9.8 1.9 1.9 0 1-.8 1.9-1.9 1.9s-1.9-.8-1.9-1.9c0-1.1.9-1.9 1.9-1.9zm12.4-31.6c1 0 1.9.8 1.9 1.9s-.8 1.9-1.9 1.9-1.9-.8-1.9-1.9.9-1.9 1.9-1.9z"/><path class="st6" d="M77.1 199.4l1-1.3c.7-.9 1.5-1 2.5-.3 1.3.9 3.4 2.2 6.1 2.2 2.3 0 4.5-1.1 4.5-3.6.1-5.1-14.4-4.8-14.2-14 .1-4.4 3.4-7.8 8.2-8.5v-2.3c0-1.2.5-1.7 1.7-1.7h.3c1.1 0 1.7.5 1.6 1.5v2.4c2.9.3 5 1.4 6.2 2.2.9.6 1 1.5.5 2.4l-.7 1.4c-.6 1-1.4 1.1-2.4.5-1.1-.7-2.9-1.6-5.1-1.7-2.6 0-4.6 1.4-4.7 3.6-.1 5.1 14.4 4.4 14.2 14-.1 4.4-3.2 8-8.4 8.6v2.1c0 1.2-.6 1.8-1.7 1.8h-.3c-1.2 0-1.7-.6-1.7-1.5v-2.4c-3.5-.4-6-2-7.2-3-1.1-.5-1.1-1.5-.4-2.4z"/><path class="st7" d="M347.7 371.2h73.4V437h-73.4z"/><path class="st7" d="M429.4 377.8c-2.3-8.8-9.2-15.8-18.1-18.1-8.1-2.1-17-3.3-26.3-3.3-9.2 0-17.9 1.1-25.9 3.2-9.1 2.3-16.1 9.4-18.5 18.5-2.1 8-3.2 16.8-3.2 25.9 0 9.3 1.2 18.1 3.3 26.3 2.3 8.8 9.2 15.8 18.1 18.1 8.1 2.1 17 3.3 26.3 3.3s18.1-1.2 26.3-3.3c8.8-2.3 15.8-9.2 18.1-18.1 2.1-8.1 3.3-17 3.3-26.3 0-9.2-1.2-18.1-3.4-26.2zm-46 32.3c.1 0 .2.1.3.1 1.7.6 3.3.6 5 0 1-.4 1.4-.6 2.1-1.2 4.1-2.8 9.3-2.3 12.5 1.2.5.5 1 1 1.4 1.5 1.5 1.5 2.8 2.9 3.8 5 .1.1.1.3.2.4.4 1 .6 2.1.6 3.2 0 2.3-.9 4.4-2.6 6-.6.6-1.1 1-1.4 1.3-.5.5-1 .9-1.6 1.3-5.1 3.7-11.2 5.6-17.4 5.6-2.9 0-5.8-.4-8.6-1.2l-2.5-.7-.1-.2c-5.2-2-9.7-5.5-13.1-9.9-4.1-5.3-6.3-11.7-6.3-18.4 0-7.2 2.6-14.2 7.2-19.7 4.6-5.4 11-9.1 17.9-10.3h.1c.1 0 .3 0 .4-.1h.3c7.9-1.2 15.7.7 22 5.2.5.4 1 .8 1.6 1.3.3.3.8.7 1.4 1.3 1.6 1.6 2.6 3.7 2.6 6 0 1.1-.2 2.2-.6 3.2-.1.1-.1.3-.2.4-1 2.1-2.3 3.5-3.8 5-.5.5-.9 1-1.4 1.5-3.2 3.6-8.3 4.1-12.5 1.2-.8-.5-1.1-.8-2.1-1.2-.7-.3-1.5-.5-2.3-.5h-1c-.1 0-.3 0-.4.1-.1 0-.3.1-.5.1h-.2c-.2 0-.3.1-.5.2-2.5 1-4.2 3.5-4.2 6.2s1.5 5.1 3.9 6.1z"/><g><path class="st6" d="M407.5 199.9l1-1.3c.7-.9 1.5-1 2.5-.3 1.3.9 3.4 2.2 6.1 2.2 2.3 0 4.5-1.1 4.5-3.6.1-5.1-14.4-4.8-14.2-14 .1-4.4 3.4-7.8 8.2-8.5v-2.3c0-1.2.5-1.7 1.7-1.7h.3c1.1 0 1.7.5 1.6 1.5v2.4c2.9.3 5 1.4 6.2 2.2.9.6 1 1.5.5 2.4l-.7 1.4c-.6 1-1.4 1.1-2.4.5-1.1-.7-2.9-1.6-5.1-1.7-2.6 0-4.6 1.4-4.7 3.6-.1 5.1 14.4 4.4 14.2 14-.1 4.4-3.2 8-8.4 8.6v2.1c0 1.2-.6 1.8-1.7 1.8h-.3c-1.2 0-1.7-.6-1.7-1.5v-2.4c-3.5-.4-6-2-7.2-3-1.1-.6-1.1-1.5-.4-2.4z"/></g><path class="st8" d="M68 120.6s-182 239.2 307 283.3M251 215.4s-67.8 93 122.6 182.3M689 131.3s135 257.8-294 271.2m156.1-176.8S591 341.1 381 385.6"/><g><path class="st9" d="M337.6 359.9H411v65.8h-73.4z"/><path class="st6" d="M419.3 366.5c-2.3-8.8-9.2-15.8-18.1-18.1-8.1-2.1-17-3.3-26.3-3.3-9.2 0-17.9 1.1-25.9 3.2-9.1 2.3-16.1 9.4-18.5 18.5-2.1 8-3.2 16.8-3.2 25.9 0 9.3 1.2 18.1 3.3 26.3 2.3 8.8 9.2 15.8 18.1 18.1 8.1 2.1 17 3.3 26.3 3.3s18.1-1.2 26.3-3.3c8.8-2.3 15.8-9.2 18.1-18.1 2.1-8.1 3.3-17 3.3-26.3 0-9.2-1.2-18-3.4-26.2zm-46 32.4c.1 0 .2.1.3.1 1.7.6 3.3.6 5 0 1-.4 1.4-.6 2.1-1.2 4.1-2.8 9.3-2.3 12.5 1.2.5.5 1 1 1.4 1.5 1.5 1.5 2.8 2.9 3.8 5 .1.1.1.3.2.4.4 1 .6 2.1.6 3.2 0 2.3-.9 4.4-2.6 6-.6.6-1.1 1-1.4 1.3-.5.5-1 .9-1.6 1.3-5.1 3.7-11.2 5.6-17.4 5.6-2.9 0-5.8-.4-8.6-1.2l-2.5-.7-.1-.2c-5.2-2-9.7-5.5-13.1-9.9-4.1-5.3-6.3-11.7-6.3-18.4 0-7.2 2.6-14.2 7.2-19.7 4.6-5.4 11-9.1 17.9-10.3h.1c.1 0 .3 0 .4-.1h.3c7.9-1.2 15.7.7 22 5.2.5.4 1 .8 1.6 1.3.3.3.8.7 1.4 1.3 1.6 1.6 2.6 3.7 2.6 6 0 1.1-.2 2.2-.6 3.2-.1.1-.1.3-.2.4-1 2.1-2.3 3.5-3.8 5-.5.5-.9 1-1.4 1.5-3.2 3.6-8.3 4.1-12.5 1.2-.8-.5-1.1-.8-2.1-1.2-.7-.3-1.5-.5-2.3-.5h-1c-.1 0-.3 0-.4.1-.1 0-.3.1-.5.1h-.2c-.2 0-.3.1-.5.2-2.5 1-4.2 3.5-4.2 6.2 0 2.6 1.5 5 3.9 6.1z"/></g><g><path class="st5" d="M619.3 166.6c.9.1 1.9.2 2.8.4 2.2.4 4.2 1.2 6 2.6.3.2.3.4.2.7-.6 1.2-1.1 2.4-1.6 3.6-.6-.3-1.1-.5-1.7-.8-1.7-.7-3.4-1.3-5.2-1.6-.9-.1-1.8-.1-2.7.1-1.6.3-2.5 1.4-2.7 3.1 0 .4-.1.7-.1 1.1v4.3h16.8c.7 0 .7 0 .7.6v20.5c0 .6.1 1.1.1 1.7 0 .8.4 1.2 1.1 1.4.7.2 1.4.3 2.1.5.3.1.4.2.4.5v2.8h-12.9c-.4 0-.6-.2-.5-.6v-2.1c0-.4.2-.6.5-.6.6-.1 1.2-.2 1.8-.4 1-.3 1.3-.7 1.4-1.8V185.5c0-.6 0-.6-.6-.6h-10.3c-.4 0-.6.1-.6.6v17c0 1.3.3 1.7 1.6 2 .6.1 1.1.3 1.7.3.2 0 .3.1.3.4v2.5c0 .3-.1.4-.4.4h-12.9V205c.7-.1 1.3-.3 2-.4 1.2-.3 1.5-.6 1.6-1.8v-17.2c0-.6 0-.6-.7-.6h-4.1v-3.9c0-.4.1-.5.5-.6 1.3-.1 2.7-.3 4-.4.3 0 .4-.2.4-.5 0-1.4 0-2.8.1-4.2.5-4.6 3.3-8 8-8.6.4-.1.8-.1 1.2-.2h1.7zm43 38c-2.2 1.8-4.6 3.3-7.3 4-4.2 1.1-8.2.7-11.9-1.7-2.4-1.6-3.9-3.9-4.6-6.6-1.2-4.2-1.3-8.4.3-12.5 1.8-4.7 5.3-7.4 10.3-8.2 4.1-.7 7.9.2 11.6 1.9.3.1.5.4.4.7-.1 2.3-.2 4.6-.2 6.9v.2c0 .6 0 .6-.7.6h-3.1c-.3 0-.4-.1-.5-.4l-.6-3.9c-.1-.3-.2-.5-.6-.6-1.4-.3-2.7-.6-4.1-.6-3.2 0-5.5 1.6-6.5 4.6-.3.9-.5 1.8-.6 2.7-.3 2.3-.1 4.6.5 6.8.4 1.5 1.2 2.9 2.4 3.9 1.6 1.4 3.5 1.8 5.5 1.6 2.9-.2 5.3-1.4 7.5-3.4.7 1.3 1.4 2.6 2.2 4 0-.1 0-.1 0 0zm-189.7 3.5v-3.2c.7-.1 1.4-.3 2.1-.4 1.1-.3 1.4-.6 1.5-1.7V174c0-.5-.1-.7-.6-.8-.8-.2-1.6-.5-2.3-.8-.1 0-.3-.2-.3-.3v-3.4c3.1-.5 6.1-1 9.3-1.5v15.4c.3-.2.6-.3.9-.4 1.7-.9 3.4-1.9 5.3-2.4 2.5-.7 4.9-.6 7.3.4 2.6 1.1 4 3.3 4.6 6 .2 1 .3 2 .3 3v11.5c0 .8 0 1.6.1 2.4 0 .8.4 1.3 1.2 1.5.7.2 1.4.3 2.1.5.3.1.4.2.4.5v2.3c0 .4-.1.5-.5.5h-12.5c-.3 0-.5-.1-.5-.5v-2.3c0-.4.2-.5.5-.6.5-.1 1.1-.2 1.6-.3 1.2-.3 1.6-.8 1.6-2v-13.3c0-.4 0-.9-.1-1.3-.4-2.2-1.7-3.2-3.9-3.4-1.7-.1-3.3.4-4.7 1.4-1.1.8-2.2 1.6-3.3 2.5-.1.1-.1.3-.1.4v13.8c0 1.2.4 1.6 1.5 1.9.6.1 1.2.2 1.8.4.1 0 .3.2.3.3v2.9c-4.8-.2-9.2-.2-13.6-.2zm94.1-40.9v23.5s.1 0 .1.1c2.5-2.2 4.9-4.4 7.5-6.7-.4-.1-.7-.2-1-.2-.3-.1-.4-.2-.4-.5v-2.8c0-.3.1-.5.4-.5 2.3 0 4.6-.1 7-.2 1.6-.1 3.2 0 4.8.3v3.5c-1.1.2-2.3.4-3.4.6-.3.1-.7.2-.9.4-2.6 2.3-5.1 4.7-7.7 7-.1.1-.2.2-.4.3.7.9 1.4 1.7 2.1 2.6 2.2 2.8 4.5 5.6 6.7 8.3.2.2.5.4.8.5l3.6 1.2c.3.1.4.2.4.5v2.8c-.1 0-.1.1-.1.1-1.6 0-3.3 0-4.9-.1-2.1-.2-3.7-1.4-4.9-3-2.4-3-4.7-6-7-9-.1-.2-.2-.3-.4-.5-.7.7-1.4 1.3-2.1 1.9-.1.1-.1.2-.1.3 0 1.8 0 3.5.1 5.3 0 .7.4 1.2 1.1 1.4.7.2 1.4.3 2.1.5.1 0 .3.2.3.3v2.9H557v-3.2c.7-.1 1.3-.2 2-.4 1.4-.3 1.7-.7 1.7-2.2v-28.5c0-.4-.1-.5-.5-.7-.8-.2-1.5-.5-2.3-.8-.3-.1-.4-.2-.4-.5v-2.9c0-.3.1-.4.4-.5 2.8-.5 5.7-.9 8.5-1.4.1.3.1.3.3.3zm-30.6 40.9h-13.3v-3.2c.7-.1 1.4-.3 2.1-.4 1.1-.3 1.4-.6 1.5-1.8v-17.3c0-.4-.1-.7-.6-.8-.7-.2-1.5-.5-2.2-.7-.3-.1-.4-.2-.4-.5v-2.9c0-.3.1-.4.4-.4 1.9 0 3.7-.1 5.6-.2 1-.1 1.8.4 2.7.6.1 0 .2.3.2.4.1.5.1 1 .1 1.5 0 .2 0 .4.1.7.2-.1.3-.2.5-.3 2.2-1.6 4.5-2.9 7.3-3.3 2.9-.4 5.7-.1 7.9 2 1.4 1.3 2.1 2.9 2.4 4.7.2 1 .3 2 .3 3.1v12.9c0 .4 0 .7.1 1.1.1.6.5 1 1.1 1.2.7.2 1.4.3 2.1.5.3.1.4.1.4.5v2.8h-12.9c-.4 0-.5-.1-.5-.5v-2.3c0-.3.1-.4.4-.5l1.8-.3c1.1-.3 1.5-.8 1.5-1.9v-13c0-.7-.1-1.4-.3-2-.4-1.6-1.6-2.6-3.3-2.8-2.4-.3-4.4.5-6.3 2-.8.6-1.5 1.2-2.2 1.8-.1.1-.2.4-.2.6V203c0 1.1.4 1.5 1.4 1.8.6.2 1.2.3 1.8.4.1 0 .3.2.3.3.2.6.2 1.6.2 2.6zm-76.8-23.2v15.7c0 .6.1 1.3.3 1.9.4 1.3 1.4 1.9 2.9 2 1.7.1 3.3-.3 4.8-.8.1 0 .2-.1.3-.1.4 1.2.8 2.5 1.2 3.7-1.6.8-3.2 1.3-4.9 1.6-1.9.3-3.9.4-5.8 0-2.8-.6-4.5-2.5-4.8-5.4-.1-.7-.1-1.4-.1-2.1v-15.8c0-.6 0-.6-.6-.6H449v-4c.7-.1 1.3-.2 2-.3.6-.1 1.2-.1 1.8-.2.3 0 .4-.2.4-.5V172.6c2-.4 4-.8 6.1-1.2v8.8h9.8l-.6 4.8c-3.1-.1-6.1-.1-9.2-.1zm47.6 23.2V204.9c.7-.1 1.4-.3 2.1-.4 1.2-.3 1.5-.7 1.6-1.9v-17.3c0-.4-.1-.6-.5-.7-.8-.2-1.6-.5-2.4-.7-.3-.1-.4-.2-.4-.5v-2.8c0-.3.1-.5.5-.5 1.7 0 3.4 0 5.2-.2 1.2-.1 2.3.3 3.4.4.3 0 .3.3.3.5v19.6c0 .8 0 1.7.1 2.5 0 .8.4 1.3 1.2 1.5.7.2 1.4.3 2.1.5.1 0 .3.2.3.3v2.9h-13.5zm9.9-37.1c0 .4 0 .9-.1 1.3-.3 1.7-1.6 2.7-3.3 2.7h-.9c-1.9-.2-3.1-1.4-3.1-3.3-.1-2.2 1.1-3.7 3.4-4 .5-.1 1-.1 1.5-.1 1.3 0 2.1.7 2.4 2 0 .5 0 1 .1 1.4zm72 37.1V204.9c.7-.1 1.4-.3 2.1-.4 1.2-.3 1.5-.7 1.6-1.9v-17.3c0-.4-.1-.6-.5-.7-.8-.2-1.6-.5-2.4-.7-.3-.1-.4-.2-.4-.5v-2.8c0-.3.1-.5.5-.5 1.7 0 3.4 0 5.2-.2 1.2-.1 2.3.3 3.4.4.3 0 .3.3.3.5v19.6c0 .8 0 1.7.1 2.5 0 .8.4 1.3 1.2 1.5.7.2 1.4.3 2.1.5.1 0 .3.2.3.3v2.9h-13.5zm9.8-37.1c0 .4 0 .9-.1 1.3-.3 1.7-1.6 2.7-3.3 2.7h-.9c-1.9-.2-3.1-1.4-3.1-3.3-.1-2.2 1.1-3.7 3.4-4 .5-.1 1-.1 1.5-.1 1.3 0 2.1.7 2.4 2 .1.5.1 1 .1 1.4z"/></g></svg>