<svg id="Layer_6" data-name="Layer 6" xmlns="http://www.w3.org/2000/svg" viewBox="0 0 750.46 514.83"><defs><style>.cls-1,.cls-2{fill:#ffefbe}.cls-1{opacity:.2}.cls-24,.cls-3{fill:#e5ebef}.cls-12,.cls-21,.cls-22,.cls-3,.cls-6,.cls-7{stroke:#3c4249}.cls-12,.cls-14,.cls-15,.cls-16,.cls-20,.cls-21,.cls-22,.cls-23,.cls-25,.cls-26,.cls-3,.cls-6,.cls-7{stroke-linecap:round;stroke-linejoin:round}.cls-12,.cls-21,.cls-22,.cls-25,.cls-26,.cls-3,.cls-7{stroke-width:5px}.cls-15,.cls-4{fill:#fff}.cls-20,.cls-5,.cls-7{fill:#e5ebed}.cls-12,.cls-23,.cls-25,.cls-26,.cls-6{fill:none}.cls-6{stroke-width:4.64px}.cls-8{fill:#e4e7e9}.cls-9{fill:#cecfd2}.cls-10{fill:#4c98d0}.cls-11{fill:#3f87b3}.cls-13{fill:#e1e8ee}.cls-14{fill:#e2eaf0}.cls-14,.cls-15,.cls-16,.cls-20{stroke:#3d4349;stroke-width:3px}.cls-16{fill:#afbdc6}.cls-17{fill:#9a989d}.cls-18{fill:#4f98cf}.cls-19{fill:#c0cbce}.cls-21{fill:#e55a5a}.cls-22{fill:#76c06a}.cls-23,.cls-26{stroke:#fff}.cls-23{stroke-width:4px}.cls-25{stroke:#e2eaf0}</style></defs><title>Artboard 1 copy 5</title><path class="cls-1" d="M159.31 63.51c-.22.18-.51.44-.8.72l.11-.09z"/><path class="cls-2" d="M406 336.34c-8-15.36-19.55-26.78-33-37.41a194.09 194.09 0 0 1-15.42-13.07c-.36-.35-.83-1-1.29-1.39-.63-.75-1.25-1.5-1.84-2.29-.88-1.18-1.61-2.5-2.5-3.67-.13-.26-.26-.52-.37-.77a40.73 40.73 0 0 0-1.27-4.06c-.07-.41-.14-.83-.18-1.24s-.05-1.14-.08-1.72c.29-1.62.41-4.78.54-5.46s1.06-3.85 1.05-4.13c.37-.95.79-2 .93-2.32 1.47-3.45 3.17-8 5.68-10.81-.14.15-2.39 3.39-.71 1.19.58-.76 1.1-1.59 1.66-2.37 1.31-1.83 2.68-3.63 4.06-5.41 2.58-3.31 5.25-6.55 7.93-9.79 5.07-6.15 10.12-12.31 14.58-18.92 10.37-15.35 18.78-31.7 22.23-50.09 3.19-16.77 2-35.3-4.52-51.18-7.65-18.58-21.15-31.3-38.05-41.54C351 61.14 335.42 54 320.39 46.29l-24.12-12.4C292.59 32 288.92 30 285.22 28c-3-2-6-4-9.09-5.86A84.62 84.62 0 0 0 266 16.86c-1.71-.74-3.45-1.38-5.21-2-1.59-.54-3.23-1-4.82-1.52-.87-.38-4.15-1.68-4.85-1.83-17.35-3.63-36.24 2.64-50.48 12.33-11.8 8-21.55 19-31.26 29.33-2.15 2.3-4.32 4.59-6.53 6.84q-1.64 1.66-3.32 3.29l-.19.18c.46-.39.55-.41-.64.58h-.06l-.39.37.28-.28c-4.93 4.11-9.91 8.12-15.05 12-11.53 8.61-23 17-33.46 26.94a88.38 88.38 0 0 0-24.09 39.54c-9.92 34 7.91 67.07 16.91 99 .51 1.82.95 3.66 1.45 5.48-1-3.8 0-.1.31 1.61.74 4 1.23 8 1.57 12q.47 5.59.47 11.2c0 .59-.09 3.24-.09 4.05v.4c-.11 1.24-.21 2.48-.34 3.72a141.79 141.79 0 0 1-4.79 23.91l-.22.81c-.09.21-.2.51-.37.95-.65 1.75-1.3 3.51-2 5.24-1.52 3.74-3.24 7.39-5.07 11-7.91 15.55-17 32.4-14.13 50.51 2.94 18.59 15.69 33.88 30 45.46 25.37 20.57 59.35 28 89.31 12.88 11.8-6 22.26-13.43 32.66-21.51 4.64-3.61 9.27-7.23 14.07-10.64 2.25-1.6 4.54-3.16 6.88-4.63 1.15-.73 2.33-1.41 3.5-2.12l.4-.24c2.38-1.08 4.73-2.18 7.2-3.05 1.21-.43 2.45-.76 3.67-1.17h.12c1.11-.14 8.63-1.55 9.15-.63.16.28-4.31-.6-1.54 0 .83.19 1.76.22 2.6.36 2 .33 4 .78 6 1.31l.85.2.38.17c1.62.72 3.33 1.28 5 2 3.6 1.52 7.12 3.22 10.62 5 6.76 3.35 13.42 6.9 20.36 9.86a92.66 92.66 0 0 0 32.6 7.37 55 55 0 0 1 13.2-1.07 116.39 116.39 0 0 0 10.8-4.61 237.91 237.91 0 0 0 26-16.11c.47-.66.93-1.32 1.37-2 10.17-16.08 9.81-36.34 1.17-53z"/><path class="cls-1" d="M317.48 307c.15.24.36.57.59.9l-.07-.12z"/><path class="cls-2" d="M624.27 104.07c-16.38 5.57-29.41 15.31-41.94 27a194.09 194.09 0 0 1-15.24 13.28c-.4.31-1.09.67-1.57 1.06-.84.51-1.67 1-2.54 1.47-1.3.7-2.72 1.21-4 1.92-.28.09-.55.18-.82.25a40.73 40.73 0 0 0-4.21.64h-1.25c-.41 0-1.14-.12-1.71-.18-1.55-.53-4.66-1.12-5.31-1.36s-3.65-1.63-3.93-1.66l-2.16-1.27c-3.18-2-7.41-4.33-9.83-7.24.13.16 3 2.87 1.07.88-.67-.69-1.41-1.33-2.1-2a154.23 154.23 0 0 1-4.74-4.83c-2.89-3-5.69-6.18-8.49-9.31-5.32-5.94-10.65-11.85-16.52-17.26-13.61-12.55-28.54-23.33-46.17-29.54-16.1-5.68-34.6-7.3-51.27-3.22-19.52 4.77-34.12 16.2-46.79 31.38-10.83 13-20.21 27.33-30.11 41l-15.88 22c-2.42 3.36-5 6.68-7.48 10-2.45 2.64-4.85 5.32-7.16 8.1a84.62 84.62 0 0 0-6.75 9.25c-1 1.58-1.88 3.2-2.74 4.85-.77 1.49-1.45 3-2.22 4.54-.5.81-2.29 3.85-2.54 4.52-6.2 16.61-2.84 36.22 4.61 51.76 6.17 12.88 15.51 24.16 24.3 35.31 1.95 2.48 3.89 5 5.78 7.48q1.4 1.87 2.75 3.77l.15.22c-.31-.52-.33-.61.48.72v.06l.31.45-.23-.32c3.32 5.49 6.54 11 9.56 16.68 6.78 12.7 13.34 25.32 21.61 37.13a88.38 88.38 0 0 0 35.47 29.76c32.1 14.91 67.5 2.26 100.43-1.84 1.88-.23 3.76-.39 5.63-.61-3.92.46-.1 0 1.63-.06 4-.13 8.11 0 12.14.26q5.6.37 11.14 1.22c.58.09 3.19.57 4 .7l.39.09c1.21.3 2.42.58 3.63.9a141.79 141.79 0 0 1 22.83 8.23l.77.34.88.5c1.63.91 3.27 1.81 4.88 2.76 3.47 2.07 6.82 4.32 10.1 6.67 14.18 10.16 29.48 21.67 47.82 21.56 18.82-.11 35.85-10.42 49.44-22.8 24.15-22 36.6-54.47 26.15-86.36-4.11-12.56-9.93-24-16.36-35.52-2.87-5.13-5.76-10.26-8.41-15.51-1.24-2.47-2.44-5-3.55-7.5-.54-1.25-1-2.52-1.57-3.78l-.18-.43c-.71-2.51-1.44-5-1.93-7.58-.24-1.26-.39-2.53-.6-3.8v-.12c0-1.12-.24-8.76.75-9.14.3-.11-1.24 4.17-.19 1.53.32-.8.48-1.7.74-2.52a61.8 61.8 0 0 1 2.19-5.72c.11-.25.22-.53.33-.81l.23-.35c1-1.49 1.76-3.1 2.69-4.61 2-3.33 4.25-6.55 6.49-9.75 4.33-6.18 8.84-12.24 12.81-18.65a92.66 92.66 0 0 0 12.19-31.12 55 55 0 0 1 .92-13.21 116.39 116.39 0 0 0-2.84-11.33 237.91 237.91 0 0 0-12-28.09c-.58-.56-1.16-1.12-1.78-1.66-14.32-12.53-34.39-15.25-52.18-9.18z"/><path class="cls-3" d="M375.51 64h8l4 71h-16l4-71z"/><g id="_Group_" data-name="&lt;Group&gt;"><path class="cls-4" d="M60.17 297.63a19 19 0 1 1-19 19 19 19 0 0 1 19-19z"/><path class="cls-5" d="M60.17 324c10.51 0 19-7.34 19-7.34a19 19 0 0 1-38.06 0S49.66 324 60.17 324z"/><path class="cls-6" d="M79.2 316.66a19 19 0 1 1-19-19 19 19 0 0 1 19 19z"/></g><circle class="cls-6" cx="60.17" cy="316.66" r="3.33"/><g id="_Group_2" data-name="&lt;Group&gt;"><path class="cls-4" d="M126.17 297.63a19 19 0 1 1-19 19 19 19 0 0 1 19-19z"/><path class="cls-5" d="M126.17 324c10.51 0 19-7.34 19-7.34a19 19 0 0 1-38.06 0s8.55 7.34 19.06 7.34z"/><path class="cls-6" d="M145.2 316.66a19 19 0 1 1-19-19 19 19 0 0 1 19 19z"/></g><circle class="cls-6" cx="126.17" cy="316.66" r="3.33"/><g id="_Group_3" data-name="&lt;Group&gt;"><path class="cls-4" d="M192.17 297.63a19 19 0 1 1-19 19 19 19 0 0 1 19-19z"/><path class="cls-5" d="M192.17 324c10.51 0 19-7.34 19-7.34a19 19 0 0 1-38.06 0s8.55 7.34 19.06 7.34z"/><path class="cls-6" d="M211.2 316.66a19 19 0 1 1-19-19 19 19 0 0 1 19 19z"/></g><circle class="cls-6" cx="192.17" cy="316.66" r="3.33"/><g id="_Group_4" data-name="&lt;Group&gt;"><path class="cls-4" d="M559.17 297.63a19 19 0 1 1-19 19 19 19 0 0 1 19-19z"/><path class="cls-5" d="M559.17 324c10.51 0 19-7.34 19-7.34a19 19 0 0 1-38.06 0s8.55 7.34 19.06 7.34z"/><path class="cls-6" d="M578.2 316.66a19 19 0 1 1-19-19 19 19 0 0 1 19 19z"/></g><circle class="cls-6" cx="559.17" cy="316.66" r="3.33"/><g id="_Group_5" data-name="&lt;Group&gt;"><path class="cls-4" d="M625.17 297.63a19 19 0 1 1-19 19 19 19 0 0 1 19-19z"/><path class="cls-5" d="M625.17 324c10.51 0 19-7.34 19-7.34a19 19 0 0 1-38.06 0s8.55 7.34 19.06 7.34z"/><path class="cls-6" d="M644.2 316.66a19 19 0 1 1-19-19 19 19 0 0 1 19 19z"/></g><circle class="cls-6" cx="625.17" cy="316.66" r="3.33"/><g id="_Group_6" data-name="&lt;Group&gt;"><path class="cls-4" d="M691.17 297.63a19 19 0 1 1-19 19 19 19 0 0 1 19-19z"/><path class="cls-5" d="M691.17 324c10.51 0 19-7.34 19-7.34a19 19 0 0 1-38.06 0s8.55 7.34 19.06 7.34z"/><path class="cls-6" d="M710.2 316.66a19 19 0 1 1-19-19 19 19 0 0 1 19 19z"/></g><circle class="cls-6" cx="691.17" cy="316.66" r="3.33"/><path class="cls-7" d="M713 281.49H37.5a35.1 35.1 0 0 0-35 35 35.1 35.1 0 0 0 35 35H713a35.1 35.1 0 0 0 35-35 35.1 35.1 0 0 0-35-35zm18.63 36.26A20.67 20.67 0 0 1 711 338.36H39.47a20.67 20.67 0 0 1-20.61-20.61 20.67 20.67 0 0 1 20.61-20.61H711a20.67 20.67 0 0 1 20.61 20.61z"/><path class="cls-4" d="M223.73 75.55a11.25 11.25 0 1 1 4-15.4 11.26 11.26 0 0 1-4 15.4zm-8.35-14.23a5.25 5.25 0 1 0 7.18 1.87 5.26 5.26 0 0 0-7.18-1.87zm384.16 185.36a11.25 11.25 0 1 1 4-15.4 11.26 11.26 0 0 1-4 15.4zm-8.35-14.23a5.25 5.25 0 1 0 7.18 1.87 5.26 5.26 0 0 0-7.17-1.88zM162.54 404.68a11.25 11.25 0 1 1 4-15.4 11.26 11.26 0 0 1-4 15.4zm-8.35-14.23a5.25 5.25 0 1 0 7.18 1.87 5.26 5.26 0 0 0-7.17-1.88zm-11.27-227.92a2.86 2.86 0 0 1-1.83-3l2.53-23.49a2.86 2.86 0 0 1 5.69.61l-2.53 23.49a2.86 2.86 0 0 1-3.86 2.37zm496.42 18.95a2.86 2.86 0 0 1-1.83-3L640 155a2.86 2.86 0 0 1 5.69.61l-2.53 23.49a2.86 2.86 0 0 1-3.86 2.37z"/><g id="_Group_7" data-name="&lt;Group&gt;"><rect class="cls-8" x="207.27" y="120.04" width="339.83" height="258.35" rx="20.49" ry="20.49"/><path class="cls-9" d="M547.1 334v23.9a20.55 20.55 0 0 1-20.49 20.49H227.76a20.55 20.55 0 0 1-20.49-20.49V334z"/><g id="_Group_8" data-name="&lt;Group&gt;"><path class="cls-10" d="M547.11 140.53V357.9a20.55 20.55 0 0 1-20.49 20.49H233.45a26.26 26.26 0 0 1-26.18-26.18V140.53A20.55 20.55 0 0 1 227.76 120h298.86a20.55 20.55 0 0 1 20.49 20.53z"/><path class="cls-11" d="M547.11 357.9a20.55 20.55 0 0 1-20.49 20.49H233.45a26.26 26.26 0 0 1-26.18-26.18l-.09-32 340 2z"/><path class="cls-12" d="M207.27 183.22v-42.69A20.55 20.55 0 0 1 227.76 120h298.86a20.55 20.55 0 0 1 20.49 20.49V357.9a20.55 20.55 0 0 1-20.49 20.49H233.45a26.26 26.26 0 0 1-26.18-26.18v-76.78"/></g><path class="cls-12" d="M207.27 249.21V206.1"/></g><g id="_Group_9" data-name="&lt;Group&gt;"><path class="cls-4" d="M527.69 152.38v193.67a9.16 9.16 0 0 1-9.16 9.16H235.85a9.16 9.16 0 0 1-9.16-9.16V152.38a9.17 9.17 0 0 1 9.16-9.17h282.68a9.17 9.17 0 0 1 9.16 9.17z"/><path class="cls-5" d="M527.69 321.5v24.55a9.16 9.16 0 0 1-9.16 9.16H235.85a9.16 9.16 0 0 1-9.16-9.16v-24.88z"/><path class="cls-12" d="M518.53 355.21H235.85a9.16 9.16 0 0 1-9.16-9.16V152.38a9.17 9.17 0 0 1 9.16-9.17h282.68a9.17 9.17 0 0 1 9.16 9.17v193.67a9.16 9.16 0 0 1-9.16 9.16z"/></g><path class="cls-13" d="M736.77 485.47c-1.67-.83-4.78-2.51-7.78-2.87-2.51-.3-4.92-.32-7.43-.38-3.09-.08-6.59-.3-10.05-.62-8.46-.78-16.72-2.61-25.12-3.76a198.8 198.8 0 0 0-27.18-1.74 17 17 0 0 0-8.69-8.18c-5.08-4.39-11-4.42-17.87-2.93q-1.34.29-2.66.62c-9 1.1-17.95 3.51-26.84 5.08-10.45 1.84-21 3.24-31.54 4.47-10.12 1.19-21.24.71-31.19 3.22-25.7-3.42-51.7-4-77.67-4.65-33.49-.78-67.26.7-100.68 2.7s-66.89 5.32-100.34 8.17c-16.37 1.4-32.87 2.45-49.31 1.69-16.21-.75-32.06-4.38-48.2-5.72-18.31-1.52-36 1.33-53.94 4.61-8.4 1.53-16.82 3-25.33 3.71-8.94.79-17.9.46-26.85 1.14-10.42.79-13.58 16.23-3.66 20.44 15.22 6.47 32.15 4.43 48.13 2.17 15.69-2.22 31.44-5.16 47.34-5.17 15.29 0 30.49 3.8 45.68 5.48 17.21 1.91 34.61 1.92 51.89 1.11 33.85-1.6 67.56-5.34 101.42-7q50.28-2.49 100.66-3.35c24.67-.42 49.54-.65 74.23-2.36.49.36 1 .72 1.48 1.05a57.33 57.33 0 0 0 17.38 7.6c12.39 3.25 25.55 2.59 37.93-.19a188.48 188.48 0 0 0 27.64-8.92 197.19 197.19 0 0 1 26.67-3.19 120.79 120.79 0 0 1 24.57 1.3c8.73 1.5 17.15 4.09 25.75 6.11s17.05 4.26 25.75 5.11a63 63 0 0 0 14.91 0 31.65 31.65 0 0 0 7.18-1.59c3.31-1.33 5.05-3.71 7.48-6 5.36-5.1 2.05-14.26-3.76-17.16z"/><path class="cls-12" d="M101.94 492.09h171m409 0h41m-420 0h31m24 0h259"/><path class="cls-14" d="M45.57 242.74l65.14 13.11-27.01 23.5-14.19-13.85-13.56 12.57 2.53-22.86-12.91-12.47z"/><path class="cls-15" d="M110.71 255.85l-52.23-.64-12.91-12.47 65.14 13.11-41.2 9.65 14.19 13.85 27.01-23.5z"/><path class="cls-16" d="M55.95 278.07l20.8-5.5-7.24-7.07-13.56 12.57z"/><path class="cls-14" d="M144.57 242.74l65.14 13.11-27.01 23.5-14.19-13.85-13.55 12.57 2.52-22.86-12.91-12.47z"/><path class="cls-15" d="M209.71 255.85l-52.23-.64-12.91-12.47 65.14 13.11-41.2 9.65 14.19 13.85 27.01-23.5z"/><path class="cls-16" d="M154.96 278.07l20.79-5.5-7.24-7.07-13.55 12.57z"/><path class="cls-14" d="M558.38 242.74l65.15 13.11-27.02 23.5-14.19-13.85-13.55 12.57 2.52-22.86-12.91-12.47z"/><path class="cls-15" d="M623.53 255.85l-52.24-.64-12.91-12.47 65.15 13.11-41.21 9.65 14.19 13.85 27.02-23.5z"/><path class="cls-16" d="M568.77 278.07l20.8-5.5-7.25-7.07-13.55 12.57z"/><path class="cls-14" d="M660.22 217.12l65.3-12.24-16.24 31.91-18.34-7.53-7.85 16.74-6.23-22.15-16.64-6.73z"/><path class="cls-15" d="M725.52 204.88l-48.66 18.97-16.64-6.73 65.3-12.24-34.58 24.38 18.34 7.53 16.24-31.91z"/><path class="cls-16" d="M683.09 246l17.21-12.9-9.36-3.84-7.85 16.74z"/><path class="cls-17" d="M424.34 209.49l.42-.14h.08l.36-.09h1.03a5 5 0 0 1 1.78.36 5.63 5.63 0 0 1 1.28.7 1.08 1.08 0 0 0 1.5-.09 9.3 9.3 0 0 0 1.58-1.86.66.66 0 0 0-.16-.79c-.2-.21-.36-.35-.46-.44a3.65 3.65 0 0 0-.36-.3 9 9 0 0 0-6.56-1.54h-.26a9 9 0 0 0-.94 17.61 9 9 0 0 0 7.75-1.28 3.65 3.65 0 0 0 .36-.3c.1-.09.26-.24.46-.44a.66.66 0 0 0 .16-.79 9.3 9.3 0 0 0-1.58-1.86 1.08 1.08 0 0 0-1.5-.09 5.63 5.63 0 0 1-1.28.7 5 5 0 0 1-3.69 0 5 5 0 0 1 .07-9.24zm-62.02 0l.42-.14h.08l.36-.09h1.03a5 5 0 0 1 1.78.36 5.63 5.63 0 0 1 1.28.7 1.08 1.08 0 0 0 1.5-.09 9.3 9.3 0 0 0 1.58-1.86.66.66 0 0 0-.16-.79c-.2-.21-.36-.35-.46-.44a3.65 3.65 0 0 0-.36-.3 9 9 0 0 0-6.56-1.54h-.26a9 9 0 0 0-.94 17.61 9 9 0 0 0 7.75-1.28 3.65 3.65 0 0 0 .36-.3c.1-.09.26-.24.46-.44a.66.66 0 0 0 .16-.79 9.3 9.3 0 0 0-1.58-1.86 1.08 1.08 0 0 0-1.5-.09 5.63 5.63 0 0 1-1.28.7 5 5 0 0 1-3.69 0 5 5 0 0 1 .07-9.24zM414.9 220a5 5 0 0 1-1-1 2.05 2.05 0 0 0-.16-.27 4.9 4.9 0 0 1-.9-2.83v-1.86a9.06 9.06 0 1 0-2.93 6.66l.14-.12a9.12 9.12 0 0 0 1.74 2.07 1.11 1.11 0 0 0 1.42 0l1.77-1.39a.84.84 0 0 0-.08-1.26zm-11.17-.94a5 5 0 1 1 5-5 5 5 0 0 1-4.99 5.02zm50.78.94v-5a9 9 0 0 0-14-7.56v-4.86a.79.79 0 0 0-.78-.79h-2.53a.79.79 0 0 0-.78.77v18.11a2.07 2.07 0 0 0 0 .21v1.53a.79.79 0 0 0 .78.79h2.53a.79.79 0 0 0 .78-.77V215a5 5 0 1 1 9.92 0v7.35a.79.79 0 0 0 .78.79h2.53a.79.79 0 0 0 .78-.77V220zm-71.69-14.93a9 9 0 0 1 4.88 1.54 9 9 0 0 0-4.88-1.54z"/><path class="cls-17" d="M373.66 214.08a9 9 0 1 0 9.17-9h-.16a9 9 0 0 0-9.01 9zm14 0a5 5 0 1 1-5-5 5 5 0 0 1 4.96 5.04z"/><path class="cls-18" d="M336.25 201.1a13.75 13.75 0 0 0-9.8-9.8 57.42 57.42 0 0 0-28.3 0 13.94 13.94 0 0 0-10 10 57.42 57.42 0 0 0 0 28.3 13.75 13.75 0 0 0 9.8 9.8 57.4 57.4 0 0 0 28.47 0 13.75 13.75 0 0 0 9.8-9.8 57.4 57.4 0 0 0 0-28.47zm-24.95 17.53l.15.05a3.57 3.57 0 0 0 2.7 0 4.69 4.69 0 0 0 1.15-.63 5 5 0 0 1 6.76.68c.27.29.52.56.77.81a9.92 9.92 0 0 1 2.06 2.72l.09.21a4.42 4.42 0 0 1 .35 1.73 4.48 4.48 0 0 1-1.4 3.25c-.31.32-.57.56-.74.71a8.73 8.73 0 0 1-.84.69 16.2 16.2 0 0 1-9.44 3 16.93 16.93 0 0 1-4.67-.66l-1.38-.4-.06-.1a16.66 16.66 0 0 1-7.12-5.35 16.45 16.45 0 0 1 .53-20.66 16.52 16.52 0 0 1 9.71-5.57h.39a16.28 16.28 0 0 1 11.94 2.82 8.73 8.73 0 0 1 .84.69c.17.15.43.39.75.71a4.47 4.47 0 0 1 1.4 3.25 4.43 4.43 0 0 1-.35 1.73l-.09.21a9.92 9.92 0 0 1-2.06 2.72c-.24.25-.5.52-.77.81a5 5 0 0 1-6.76.68 4.69 4.69 0 0 0-1.15-.63 3.66 3.66 0 0 0-1.25-.26h-.77l-.25.06h-.08l-.27.09a3.59 3.59 0 0 0-.17 6.63z"/><g id="_Group_10" data-name="&lt;Group&gt;"><path class="cls-5" d="M170.51 351.5l-5.49 128a12.52 12.52 0 0 1-25 0l-5.49-128z"/><path class="cls-19" d="M152.51 460a31.2 31.2 0 0 0 13.5-3.48l-1 23a12.52 12.52 0 0 1-25 0l-1-23s7.28 3.48 13.5 3.48z"/><path class="cls-12" d="M152.51 491.5a12.52 12.52 0 0 1-12.51-12l-5.49-128h36l-5.49 128a12.52 12.52 0 0 1-12.51 12z"/></g><path class="cls-20" d="M663.51 225.5l-11.37 5.4m3.7-9.4l-8.2 2.23m57.37 18.77l-6.37 7.73"/><path class="cls-5" d="M283.46 284.5a10 10 0 1 0 10 10 10 10 0 0 0-10-10zm27.05 0a10 10 0 1 0 10 10 10 10 0 0 0-10-10zm84.91 0a10 10 0 1 0 10 10 10 10 0 0 0-10-10zm40.04 0a10 10 0 1 0 10 10 10 10 0 0 0-10-10zm40.05 0a10 10 0 1 0 10 10 10 10 0 0 0-10-10z"/><circle class="cls-21" cx="283.46" cy="289.5" r="7.5"/><circle class="cls-21" cx="310.51" cy="289.5" r="7.5"/><circle class="cls-22" cx="395.42" cy="289.5" r="7.5"/><circle class="cls-22" cx="435.46" cy="289.5" r="7.5"/><circle class="cls-22" cx="475.51" cy="289.5" r="7.5"/><path class="cls-23" d="M156.75 416.01l-.24 9.99m1.01-41.48l-.54 21.97m1.03-41.99l-.26 10.52"/><g id="_Group_11" data-name="&lt;Group&gt;"><path class="cls-5" d="M627.84 351.5l-5.49 128a12.52 12.52 0 0 1-25 0l-5.49-128z"/><path class="cls-19" d="M609.84 460a31.2 31.2 0 0 0 13.5-3.48l-1 23a12.52 12.52 0 0 1-25 0l-1-23s7.29 3.48 13.5 3.48z"/><path class="cls-12" d="M609.84 491.5a12.52 12.52 0 0 1-12.51-12l-5.49-128h36l-5.49 128a12.52 12.52 0 0 1-12.51 12z"/></g><path class="cls-23" d="M614.56 396.5l-.24 9.99m1.02-41.99l-.26 10.52m-190.9-242.85h-14.01m67.01 0h-42.67m86 0h-20"/><g id="_Group_12" data-name="&lt;Group&gt;"><circle class="cls-24" cx="379.51" cy="64" r="20"/><path class="cls-19" d="M379.51 73.83c11.05 0 20-9.83 20-9.83a20 20 0 0 1-40 0s8.95 9.83 20 9.83z"/><circle class="cls-12" cx="379.51" cy="64" r="20"/></g><path class="cls-25" d="M379.01 8.83V2.5m0 21.5v-6.83m-41.45 12.28l-5.49-4.6m16.47 13.82l-3.86-3.24m76.15-7.88l3.21-2.7m-16.47 13.82l6.2-5.19"/><path class="cls-26" d="M380 57a7 7 0 0 1 7 7"/></svg>