<svg width="95" height="72" viewBox="0 0 95 72" xmlns="http://www.w3.org/2000/svg"><title>“</title><path d="M94.32 51.56c0-10.836-7.56-18.144-17.136-18.144-1.764 0-4.032.504-4.788.756 1.512-6.552 7.056-14.364 13.608-19.656 1.512-1.26 2.268-3.276 2.268-5.292 0-3.276-3.276-8.316-9.072-8.316-2.52 0-5.04.756-6.804 2.52-12.6 11.34-20.412 26.46-20.412 42.588 0 16.38 10.836 25.704 22.68 25.704 10.584 0 19.656-9.072 19.656-20.16zm-51.156 0c0-10.836-7.56-18.144-17.136-18.144-1.764 0-4.032.504-4.788.756 1.512-6.552 7.056-14.364 13.608-19.656 1.512-1.26 2.268-3.276 2.268-5.292 0-3.528-3.024-8.316-9.072-8.316-2.52 0-5.04.756-6.804 2.52C8.64 14.768.828 29.888.828 46.016c0 16.38 10.836 25.704 22.68 25.704 10.584 0 19.656-9.072 19.656-20.16z" fill="#4BB1FF" fill-rule="evenodd"/></svg>