<svg id="Layer_1" xmlns="http://www.w3.org/2000/svg" xmlns:xlink="http://www.w3.org/1999/xlink" viewBox="0 0 800 600"><style>.st0{fill:#e0e7ee}.st1{fill:none;stroke:#3c4249;stroke-width:4.1919;stroke-linecap:round;stroke-linejoin:round;stroke-miterlimit:10}.st2{fill:#ffefbb}.st3{fill:#dbd1b4}.st4{fill:#d6dbe8}.st5{fill:#b6bdcc}.st6,.st7{fill:none;stroke:#4c4f59;stroke-width:4.787;stroke-linecap:round;stroke-linejoin:round;stroke-miterlimit:10}.st7{fill:#d6dbe8}.st8{fill:#fff}.st9{fill:#e4e6e9}.st10{fill:#cdcfd1}.st11,.st12{fill:#51585e;stroke:#3c4249;stroke-width:4.3529;stroke-linecap:round;stroke-linejoin:round;stroke-miterlimit:10}.st12{fill:none}.st13{clip-path:url(#SVGID_2_);fill:#2e9df2}.st14{fill:#fff}.st14,.st15,.st16,.st17{clip-path:url(#SVGID_2_)}.st16{fill:#e9eaf3}.st17{opacity:.6;fill:#fff}.st18,.st19{fill:#d6dbe8;stroke:#4c4f59;stroke-width:5.9838;stroke-linecap:round;stroke-linejoin:round;stroke-miterlimit:10}.st19{fill:#fff}.st20{opacity:.35}.st21,.st22{fill:none;stroke:#4c4f59;stroke-width:5.3727;stroke-linecap:round;stroke-linejoin:round;stroke-miterlimit:10}.st22{stroke-width:5.9838}.st23{opacity:.4;fill:#4c4f59}.st24{fill:none;stroke:#fff;stroke-width:3.5903;stroke-linecap:round;stroke-linejoin:round;stroke-miterlimit:10}.st25{fill:#2e9df2}</style><path class="st0" d="M786.6 497.5c-1.4-.7-4-2.1-6.5-2.4-2.1-.3-4.1-.3-6.2-.3-2.6-.1-5.5-.3-8.4-.5-7.1-.7-14-2.2-21.1-3.2-7.4-1-15.1-1.5-22.8-1.5-1.5-3.2-4.1-5.4-7.3-6.9-4.3-3.7-9.2-3.7-15-2.5-.7.2-1.5.3-2.2.5-7.5.9-15 2.9-22.5 4.3-8.8 1.5-17.6 2.7-26.4 3.8-8.5 1-17.8.6-26.2 2.7-21.5-2.9-43.3-3.4-65.1-3.9-28.1-.7-56.4.6-84.4 2.3-28.1 1.7-56.1 4.5-84.1 6.9-13.7 1.2-27.6 2.1-41.3 1.4-13.6-.6-26.9-3.7-40.4-4.8-15.3-1.3-30.2 1.1-45.2 3.9-7 1.3-14.1 2.5-21.2 3.1-7.5.7-15 .4-22.5 1-8.7.7-11.4 13.6-3.1 17.1 12.8 5.4 27 3.7 40.4 1.8 13.2-1.9 26.4-4.3 39.7-4.3 12.8 0 25.6 3.2 38.3 4.6 14.4 1.6 29 1.6 43.5.9 28.4-1.3 56.6-4.5 85-5.9 28.1-1.4 56.3-2.3 84.4-2.8 20.7-.3 41.5-.5 62.2-2l1.2.9c4.5 3 9.4 5 14.6 6.4 10.4 2.7 21.4 2.2 31.8-.2 8-1.8 15.6-4.5 23.2-7.5 7.4-1.3 14.8-2.4 22.4-2.7 6.9-.2 13.8-.1 20.6 1.1 7.3 1.3 14.4 3.4 21.6 5.1 7.1 1.7 14.3 3.6 21.6 4.3 4.1.4 8.4.6 12.5 0 2-.3 4.2-.6 6-1.3 2.8-1.1 4.2-3.1 6.3-5.1 4.2-4.2 1.4-11.9-3.4-14.3z"/><path class="st1" d="M254.3 503h143.4m342.9 0H775m-352.1 0h25.9m20.2 0h217.1"/><path class="st2" d="M293.7 125.6c-.2.2-.5.4-.8.7l.1-.1c.3-.2.5-.4.7-.6z"/><path class="st2" d="M757.9 292.1c.3-.7.4-1.6.7-2.4.6-1.8 1.3-3.6 2.1-5.4.1-.2.2-.5.3-.8.1-.1.1-.2.2-.3.9-1.4 1.7-2.9 2.5-4.3 1.9-3.1 4-6.1 6.1-9.1 4.1-5.8 8.3-11.5 12-17.5 5.4-8.7 9.5-18.8 11.4-29.2-.2-4.2.1-8.3.9-12.4-.8-3.6-1.6-7.2-2.7-10.7-3.1-9.1-7.1-17.7-11.3-26.3-.5-.5-1.1-1-1.7-1.6-13.4-11.8-32.2-14.3-48.9-8.6-15.4 5.2-27.6 14.3-39.3 25.3-4.6 4.3-9.2 8.6-14.3 12.4-.4.3-1 .6-1.5 1-.8.5-1.6.9-2.4 1.4-1.2.7-2.5 1.1-3.8 1.8-.3.1-.5.2-.8.2-.7.2-3 .2-3.9.6h-1.2c-.5 0-1.1-.1-1.6-.2-1.5-.5-4.4-1.1-5-1.3-.6-.2-3.4-1.5-3.7-1.6-.8-.5-1.7-1-2-1.2-3-1.9-6.9-4.1-9.2-6.8.1.1 2.8 2.7 1 .8-.6-.6-1.3-1.2-2-1.9-1.5-1.5-3-3-4.4-4.5-2.7-2.9-5.3-5.8-8-8.7-5-5.6-10-11.1-15.5-16.2-12.8-11.8-26.7-21.9-43.3-27.7-15.1-5.3-32.4-6.8-48.1-3-1.5.4-3 .8-4.4 1.2-9.6 3-20.1 1.8-28.7-3.4-.2-.1-.5-.3-.7-.4-13.6-8.2-28.2-14.9-42.3-22.1-7.5-3.9-15.1-7.7-22.6-11.6-3.5-1.8-6.9-3.7-10.4-5.5-2.8-1.9-5.6-3.7-8.5-5.5-3.1-1.8-6.2-3.5-9.5-5-1.6-.7-3.2-1.3-4.9-1.9-1.5-.5-3-.9-4.5-1.4-.8-.4-3.9-1.6-4.5-1.7-16.3-3.4-34 2.5-47.3 11.6-11.1 7.5-20.2 17.8-29.3 27.5-2 2.2-4 4.3-6.1 6.4l-3.1 3.1-.2.2c.4-.4.5-.4-.6.5h-.1c-.1.1-.3.2-.4.3l.3-.3c-4.6 3.9-9.3 7.6-14.1 11.2-10.8 8.1-21.6 15.9-31.4 25.3-10.8 10.3-18.4 22.8-22.6 37.1-9.3 31.8 7.4 62.9 15.8 92.8.5 1.7.9 3.4 1.4 5.1-1-3.6 0-.1.3 1.5.7 3.7 1.2 7.5 1.5 11.3.3 3.5.4 7 .4 10.5 0 .6-.1 3-.1 3.8v.4c-.1 1.2-.2 2.3-.3 3.5-.8 7.6-2.3 15-4.4 22.3-.1.3-.2.6-.2.8-.1.2-.2.5-.3.9-.6 1.6-1.2 3.3-1.9 4.9-1.4 3.5-3 6.9-4.8 10.3-7.4 14.6-15.9 30.4-13.2 47.3 2.8 17.4 14.7 31.8 28.1 42.6 23.8 19.3 55.6 26.2 83.7 12.1 11.1-5.6 20.9-12.6 30.6-20.2 4.4-3.4 8.7-6.8 13.2-10 2.1-1.5 4.3-3 6.4-4.3 1.1-.7 2.2-1.3 3.3-2 .1-.1.3-.2.4-.2 2.2-1 4.4-2 6.7-2.9 1.1-.4 2.3-.7 3.4-1.1h.1c1-.1 8.1-1.5 8.6-.6.1.3-4-.6-1.4 0 .8.2 1.6.2 2.4.3 1.9.3 3.8.7 5.6 1.2.2.1.5.1.8.2.1 0 .2.1.4.2 1.5.7 3.1 1.2 4.6 1.8 3.4 1.4 6.7 3 10 4.6 6.3 3.1 12.6 6.5 19.1 9.2 9.4 4 20 6.5 30.6 6.9 4.1-.8 8.2-1.2 12.4-1 3.5-1.4 6.9-2.7 10.1-4.3 6.3-3.2 12.3-7 18.2-10.9 27 7.1 55.8-2.4 82.8-5.8 1.8-.2 3.5-.4 5.3-.6-3.7.4-.1 0 1.5-.1 3.8-.1 7.6 0 11.4.2 3.5.2 7 .6 10.4 1.1.5.1 3 .5 3.7.7.2 0 .3.1.4.1 1.1.3 2.3.5 3.4.8 7.4 1.9 14.5 4.6 21.4 7.7.3.1.5.2.7.3.2.1.4.3.8.5 1.5.9 3.1 1.7 4.6 2.6 3.3 1.9 6.4 4 9.5 6.2 13.3 9.5 27.6 20.3 44.8 20.2 17.6-.1 33.6-9.8 46.3-21.4 22.6-20.6 34.3-51 24.5-80.9-3.9-11.8-9.3-22.5-15.3-33.3-2.7-4.8-5.4-9.6-7.9-14.5-1.2-2.3-2.3-4.7-3.3-7-.5-1.2-1-2.4-1.5-3.5-.1-.2-.1-.3-.2-.4-.7-2.4-1.3-4.7-1.8-7.1l-.6-3.6v-.1c0-1.1-.2-8.2.7-8.6.7.5-.8 4.5.2 2.1z"/><path class="st3" d="M680.6 205.5H364.3c-10.9 0-19.7 8.5-19.7 19v35.3c0 1.1 1 2.1 2.1 2.1v14.8c-1.2 0-2.1.9-2.1 2.1v35.6c0 1.1 1 2.1 2.1 2.1V334c-1.2 0-2.1.9-2.1 2.1v68.2c0 10.5 8.8 19 19.7 19h316.3c10.9 0 19.7-8.5 19.7-19V224.5c0-10.5-8.8-19-19.7-19z"/><g id="XMLID_2_"><path class="st4" d="M536 349.9l29.9 144.8H448.3l29.9-144.8H536zm-16.5 72.4c0-6.8-5.5-12.4-12.3-12.4-6.8 0-12.4 5.5-12.4 12.4 0 6.8 5.5 12.3 12.4 12.3 6.8 0 12.3-5.5 12.3-12.3z"/><path class="st5" d="M561.8 474.5l4.2 20.2H448.3l9.1-44.2 104.4 24z"/><path class="st6" d="M536 349.9h-57.7l-30 144.8h117.6z"/><circle class="st6" cx="507.1" cy="422.3" r="12.3"/></g><path class="st7" d="M576.1 499.5h-137c-3 0-5.4-2.4-5.4-5.4 0-3 2.4-5.4 5.4-5.4h137c3 0 5.4 2.4 5.4 5.4 0 3-2.4 5.4-5.4 5.4z"/><path class="st8" d="M447.4 154.8c-4.6 2.7-10.6 1.2-13.3-3.5-2.7-4.6-1.2-10.6 3.5-13.3 4.6-2.7 10.6-1.2 13.3 3.5s1.1 10.6-3.5 13.3zm-7.2-12.2c-2.2 1.3-2.9 4-1.6 6.2s4 2.9 6.2 1.6c2.2-1.3 2.9-4 1.6-6.2-1.3-2.2-4.1-2.9-6.2-1.6zm-161.9 40.8c-4.6 2.7-10.6 1.2-13.3-3.5s-1.2-10.6 3.5-13.3c4.6-2.7 10.6-1.2 13.3 3.5 2.6 4.6 1.1 10.6-3.5 13.3zm-7.2-12.3c-2.2 1.3-2.9 4-1.6 6.2s4 2.9 6.2 1.6c2.2-1.3 2.9-4 1.6-6.2s-4.1-2.8-6.2-1.6zm474.4 236.4c-4.6 2.7-10.6 1.2-13.3-3.5-2.7-4.6-1.2-10.6 3.5-13.3s10.6-1.2 13.3 3.5 1.1 10.6-3.5 13.3zm-7.2-12.3c-2.2 1.3-2.9 4-1.6 6.2 1.3 2.2 4 2.9 6.2 1.6 2.2-1.3 2.9-4 1.6-6.2-1.3-2.2-4-2.9-6.2-1.6zM281.6 292.3c-.7-.3-1.2-1-1.1-1.8l1.5-14.1c.1-.9.9-1.6 1.9-1.5.9.1 1.6.9 1.5 1.9l-1.5 14.1c-.1.9-.9 1.6-1.9 1.5-.1-.1-.2-.1-.4-.1zm45 148.4c-.6 1.1-1.9 1.7-3.2 1.3l-22.4-6c-1.5-.4-2.4-1.9-2-3.4.4-1.5 1.9-2.4 3.4-2l22.4 6c1.5.4 2.4 1.9 2 3.4 0 .2-.1.5-.2.7zm225-274.3c-.6 1.1-1.9 1.7-3.2 1.3l-22.4-6c-1.5-.4-2.4-1.9-2-3.4.4-1.5 1.9-2.4 3.4-2l22.4 6c1.5.4 2.4 1.9 2 3.4 0 .3-.1.5-.2.7zM739 230.2c-1-.7-1.4-2.1-1-3.3l8.5-21.5c.6-1.4 2.2-2.1 3.6-1.6 1.4.6 2.1 2.2 1.6 3.6l-8.5 21.5c-.6 1.4-2.2 2.1-3.6 1.6-.2 0-.4-.1-.6-.3zm5.4 110.9c-.7 1.1-2 1.6-3.2 1.2l-22.2-6.8c-1.5-.5-2.3-2-1.9-3.5.4-1.5 2-2.3 3.5-1.9l22.2 6.8c1.5.5 2.3 2 1.9 3.5-.1.3-.2.6-.3.7z"/><g id="XMLID_1_"><path class="st9" d="M684.7 205.4v189.2c0 9.8-8 17.8-17.8 17.8H345.8c-9.8 0-17.8-8-17.8-17.8V205.4c0-9.8 8-17.8 17.8-17.8h321.1c9.8 0 17.8 8 17.8 17.8z"/><path class="st10" d="M684.7 373.8v20.8c0 9.8-8 17.8-17.8 17.8H345.8c-9.8 0-17.8-8-17.8-17.8v-20.8h356.7z"/><path class="st11" d="M327.9 242.6v-37.2c0-9.8 8-17.8 17.8-17.8h321.1c9.8 0 17.8 8 17.8 17.8v189.2c0 9.8-8 17.8-17.8 17.8h-321c-9.8 0-17.8-8-17.8-17.8v-71.8"/><path class="st12" d="M327.9 300v-37.5"/></g><defs><path id="SVGID_1_" d="M663.8 399.1H350.5c-3.9 0-7-3.1-7-7v-183c0-3.9 3.1-7 7-7h313.4c3.9 0 7 3.1 7 7V392c-.1 3.9-3.2 7.1-7.1 7.1z"/></defs><clipPath id="SVGID_2_"><use xlink:href="#SVGID_1_" overflow="visible"/></clipPath><path class="st13" d="M343.4 202.5h327.4V403H343.4z"/><path class="st14" d="M623.4 408.1H390.9c-2.9 0-5.2-2.3-5.2-5.2v-98.4c0-2.9 2.3-5.2 5.2-5.2h232.5c2.9 0 5.2 2.3 5.2 5.2v98.4c.1 2.8-2.3 5.2-5.2 5.2zm-57.2-175.5h-118c-1.1 0-2-.9-2-2v-11.7c0-1.1.9-2 2-2h118c1.1 0 2 .9 2 2v11.7c0 1.1-.9 2-2 2z"/><g class="st15"><image width="843" height="601" xlink:href="5B28AA95238A4E2D.png" transform="matrix(.24 0 0 .24 406.06 261.042)" overflow="visible" opacity=".2"/><path class="st8" d="M585.5 382H428.8c-2.9 0-5.2-2.3-5.2-5.2V278c0-2.9 2.3-5.2 5.2-5.2h156.7c2.9 0 5.2 2.3 5.2 5.2v98.7c.1 2.9-2.3 5.3-5.2 5.3z"/></g><path class="st13" d="M575.4 372H439.1c-2.9 0-5.2-2.3-5.2-5.2V359c0-2.9 2.3-5.2 5.2-5.2h136.3c2.9 0 5.2 2.3 5.2 5.2v7.7c0 2.9-2.3 5.3-5.2 5.3z"/><path class="st16" d="M575.4 342.2H439.1c-2.9 0-5.2-2.3-5.2-5.2v-7.7c0-2.9 2.3-5.2 5.2-5.2h136.3c2.9 0 5.2 2.3 5.2 5.2v7.7c0 2.8-2.3 5.2-5.2 5.2zm-117.8-30.5h-18.5c-2.9 0-5.2-2.3-5.2-5.2V288c0-2.9 2.3-5.2 5.2-5.2h18.5c2.9 0 5.2 2.3 5.2 5.2v18.5c.1 2.9-2.3 5.2-5.2 5.2z"/><path class="st17" d="M554.4 245.1h-94.5c-1 0-1.9-.8-1.9-1.9v-1.9c0-1 .8-1.9 1.9-1.9h94.5c1 0 1.9.8 1.9 1.9v1.9c-.1 1.1-.9 1.9-1.9 1.9zm-19.8 9.6h-54.9c-1 0-1.9-.8-1.9-1.9v-1.9c0-1 .8-1.9 1.9-1.9h54.9c1 0 1.9.8 1.9 1.9v1.9c-.1 1-.9 1.9-1.9 1.9z"/><path class="st16" d="M540.6 298h-66.7c-1 0-1.9-.8-1.9-1.9V292c0-1 .8-1.9 1.9-1.9h66.7c1 0 1.9.8 1.9 1.9v4.2c0 1-.9 1.8-1.9 1.8zm-51.4 7.6h-15.3c-1 0-1.9-.8-1.9-1.9v-.2c0-1 .8-1.9 1.9-1.9h15.3c1 0 1.9.8 1.9 1.9v.2c0 1.1-.9 1.9-1.9 1.9zm25.6 0h-15.3c-1 0-1.9-.8-1.9-1.9v-.2c0-1 .8-1.9 1.9-1.9h15.3c1 0 1.9.8 1.9 1.9v.2c0 1.1-.9 1.9-1.9 1.9zm25.6 0h-15.3c-1 0-1.9-.8-1.9-1.9v-.2c0-1 .8-1.9 1.9-1.9h15.3c1 0 1.9.8 1.9 1.9v.2c0 1.1-.9 1.9-1.9 1.9z"/><path class="st18" d="M25.8 501.1h231.5c7.1 0 12.8-5.7 12.8-12.8 0-7.1-5.7-12.8-12.8-12.8H25.8c-7.1 0-12.8 5.7-12.8 12.8 0 7 5.7 12.8 12.8 12.8z"/><circle class="st19" cx="236.2" cy="488" r="11.1"/><circle class="st19" cx="188.3" cy="488" r="11.1"/><g class="st20"><path class="st21" d="M236.9 383.1L377.5 76.8 203.9 388.3z"/><path class="st21" d="M131.8 421.4L388.7 66.6 194.3 395.5l-22.8 19.7zm105.1-38.3l-10.4-35.3 42.6-34.9 2.7-46.5 32.7-30.6"/><path class="st21" d="M194.3 395.5l-19.2-25.7 51.4-22-13.6-34.8 58.9-46.6 1.5-40.2"/></g><circle class="st19" cx="140.4" cy="488" r="11.1"/><circle class="st19" cx="92.6" cy="488" r="11.1"/><circle class="st19" cx="44.7" cy="488" r="11.1"/><g id="XMLID_3_"><path class="st8" d="M260.3 372.5v52.2L224 476.9h-94.8V372.5z"/><path class="st4" d="M237 458.1l-13 18.8h-94.8v-18.7z"/><path class="st22" d="M129.2 372.5h131.1v52.2L224 476.9h-94.8z"/></g><path class="st18" d="M81.8 395.5l47.4-23v104.4H81.8z"/><path class="st19" d="M35.5 474h46.3v-78.4H67.3c-17.6 0-31.9 14.3-31.9 31.9V474z"/><path class="st4" d="M38.4 450.8h40.3v8.8H38.4zm0-19h40.3v8.8H38.4zm40.3-10.4H39.1s.8-3.9 2.3-8.8h37.3v8.8z"/><path class="st18" d="M81.8 414.5H38.2m43.6 19H35.5m46.3 19H35.5"/><path class="st22" d="M209.3 372.5l183-310.6L162 372.5z"/><path class="st22" d="M81.8 395.5L392.3 61.9 162 372.5h-31.7z"/><path class="st23" d="M438.8 268.4l-27.9-29.5c8.3-2.2 14.4-9.7 14.4-18.7 0-10.7-8.7-19.3-19.3-19.3s-19.3 8.7-19.3 19.3c0 8.3 5.2 15.3 12.5 18.1l-25.3 30.1c-1.3.6-2.2 2-2.2 3.6v52.7c0 2 1.6 3.7 3.7 3.7h61.9c2 0 3.7-1.6 3.7-3.7v-53.1c-.2-1.4-1.1-2.6-2.2-3.2zM404.6 241l25.5 27H382l22.6-27z"/><path class="st22" d="M209.3 372.5l-7.1-54.2 55.9-28.8 4.4-52.6 38.3-19.7M162 372.5L141.4 334l60.8-15.7-10.4-41 70.7-40.4 6.1-42.1M392.3 61.9v140.6"/><circle class="st18" cx="392.3" cy="212.4" r="16.3"/><path class="st24" d="M400.1 212.4c0-4.3-3.5-7.8-7.8-7.8"/><path class="st18" d="M362 317.6h61c.6 0 1.1-.5 1.1-1.1v-52.1c0-.6-.5-1.1-1.1-1.1h-60.4c-.9 0-1.7.7-1.7 1.7v51.6c0 .5.5 1 1.1 1z"/><path class="st8" d="M375.2 299.3l10.5-14c.6-.8 1.8-.8 2.5 0l5.3 7c.5.7 1.5.8 2.2.3l2.1-1.8c.6-.5 1.5-.5 2.1.1l7.9 8.2c1 1.1.3 2.9-1.1 2.9h-30.2c-1.4.1-2.2-1.6-1.3-2.7z"/><ellipse class="st8" cx="403.1" cy="284.7" rx="3" ry="3.2"/><path class="st22" d="M423.4 263.2l-32.6-34.5-28.9 34.5z"/><path class="st25" d="M211.3 407.5c-1.1-4-4.2-7.2-8.3-8.3-3.7-1-7.8-1.5-12-1.5s-8.2.5-11.8 1.5c-4.1 1.1-7.4 4.3-8.4 8.4-1 3.7-1.5 7.7-1.5 11.8 0 4.2.5 8.3 1.5 12 1.1 4 4.2 7.2 8.3 8.3 3.7 1 7.8 1.5 12 1.5s8.3-.5 12-1.5c4-1.1 7.2-4.2 8.3-8.3 1-3.7 1.5-7.8 1.5-12s-.6-8.2-1.6-11.9zm-21 14.7h.1c.8.3 1.5.3 2.3 0 .5-.2.6-.3 1-.5 1.9-1.3 4.2-1.1 5.7.6.2.2.4.5.6.7.7.7 1.3 1.3 1.7 2.3 0 .1.1.1.1.2.2.5.3 1 .3 1.5 0 1-.4 2-1.2 2.7l-.6.6c-.2.2-.5.4-.7.6-2.3 1.7-5.1 2.5-8 2.5-1.3 0-2.6-.2-3.9-.6l-1.2-.3v-.1c-2.4-.9-4.4-2.5-6-4.5-1.9-2.4-2.9-5.3-2.9-8.4 0-3.3 1.2-6.5 3.3-9 2.1-2.5 5-4.1 8.2-4.7h.3c3.6-.5 7.2.3 10.1 2.4.2.2.5.4.7.6.1.1.4.3.6.6.8.7 1.2 1.7 1.2 2.7 0 .5-.1 1-.3 1.5 0 .1 0 .1-.1.2-.4.9-1.1 1.6-1.7 2.3-.2.2-.4.4-.6.7-1.5 1.6-3.8 1.9-5.7.6-.3-.2-.5-.3-1-.5-.3-.1-.7-.2-1.1-.2h-.7c-.1 0-.1 0-.2.1h-.1c-.1 0-.2 0-.2.1-1.2.4-1.9 1.6-1.9 2.8.1.9.9 2 1.9 2.5z"/><path class="st24" d="M524 436.2c-2.1 3.7-6.1 6.2-10.7 6.2"/></svg>