<svg width="749" height="482" viewBox="0 0 749 482" xmlns="http://www.w3.org/2000/svg" xmlns:xlink="http://www.w3.org/1999/xlink"><title>chat</title><defs><rect id="a" width="749" height="481.851" rx="5"/><mask id="d" x="0" y="0" width="749" height="481.851" fill="#fff"><use xlink:href="#a"/></mask><rect id="b" x="49" y="192" width="418" height="70" rx="3.638"/><mask id="e" x="0" y="0" width="418" height="70" fill="#fff"><use xlink:href="#b"/></mask><rect id="c" x="49" y="339" width="418" height="70" rx="3.638"/><mask id="f" x="0" y="0" width="418" height="70" fill="#fff"><use xlink:href="#c"/></mask><rect id="h" width="217" height="337" rx="6"/><filter x="-50%" y="-50%" width="200%" height="200%" filterUnits="objectBoundingBox" id="g"><feOffset dy="12" in="SourceAlpha" result="shadowOffsetOuter1"/><feGaussianBlur stdDeviation="15" in="shadowOffsetOuter1" result="shadowBlurOuter1"/><feColorMatrix values="0 0 0 0 0.196078431 0 0 0 0 0.196078431 0 0 0 0 0.364705882 0 0 0 0.1 0" in="shadowBlurOuter1"/></filter><path d="M0 297.423h217V331a6 6 0 0 1-6.002 6H6.002A6.003 6.003 0 0 1 0 331v-33.577z" id="j"/><filter x="-50%" y="-50%" width="200%" height="200%" filterUnits="objectBoundingBox" id="i"><feOffset dy="12" in="SourceAlpha" result="shadowOffsetOuter1"/><feGaussianBlur stdDeviation="15" in="shadowOffsetOuter1" result="shadowBlurOuter1"/><feColorMatrix values="0 0 0 0 0.196078431 0 0 0 0 0.196078431 0 0 0 0 0.364705882 0 0 0 0.1 0" in="shadowBlurOuter1"/></filter></defs><g fill="none" fill-rule="evenodd"><path d="M1.273 30.423h747.31" stroke="#E5E7EA" stroke-linecap="square"/><use stroke="#E5E7EA" mask="url(#d)" stroke-width="4" fill="#FFF" xlink:href="#a"/><ellipse fill="#E5E7EA" cx="17.14" cy="15.426" rx="5.999" ry="5.999"/><ellipse fill="#E5E7EA" cx="37.707" cy="15.426" rx="5.999" ry="5.999"/><ellipse fill="#E5E7EA" cx="59.132" cy="15.426" rx="5.999" ry="5.999"/><g transform="translate(2 31)"><path fill="#209AF5" d="M0 0h745v32H0z"/><rect fill="#DAEEFC" x="382" y="13" width="35" height="5" rx="1.125"/><rect fill="#DAEEFC" x="432" y="13" width="35" height="5" rx="1.125"/><rect fill="#DAEEFC" x="481" y="13" width="35" height="5" rx="1.125"/><rect fill="#DAEEFC" x="532" y="13" width="35" height="5" rx="1.125"/><rect fill="#DAEEFC" x="582" y="13" width="35" height="5" rx="1.125"/><rect fill="#DAEEFC" x="633" y="13" width="35" height="5" rx="1.125"/><rect fill="#AEBCC5" x="50" y="73" width="149" height="13" rx="1.92"/><rect fill="#E0E7ED" x="50" y="95" width="370" height="6" rx="1.2"/><g transform="translate(50 152)"><rect fill="#AEBCC5" width="119" height="10" rx="1.536"/><rect fill="#E0E7ED" y="19" width="190" height="6" rx="1.2"/></g><rect fill="#AEBCC5" x="600" y="73" width="79" height="10" rx="1.536"/><rect fill="#AEBCC5" x="600" y="127" width="79" height="10" rx="1.536"/><rect fill="#E0E7ED" x="600" y="92" width="110" height="6" rx="1.2"/><rect fill="#E0E7ED" x="600" y="146" width="97" height="6" rx="1.2"/><g transform="translate(642 213)"><rect fill="#AEBCC5" width="55" height="7" rx="1.075"/><rect fill="#E0E7ED" y="13" width="68" height="4" rx=".84"/></g><rect fill="#E0E7ED" x="600" y="159" width="110" height="6" rx="1.2"/><rect fill="#E0E7ED" x="600" y="172" width="41" height="6" rx="1.2"/><g transform="translate(50 299)"><rect fill="#AEBCC5" width="119" height="10" rx="1.536"/><rect fill="#E0E7ED" y="19" width="190" height="6" rx="1.2"/></g><rect fill="#E0E7ED" x="50" y="108" width="320" height="6" rx="1.2"/><g transform="translate(683 8)"><rect fill="#FFF" width="44" height="16" rx="1.936"/><rect fill="#2B9CF2" x="7" y="6" width="30" height="4" rx=".968"/></g><path d="M83.801 14.402a1.1 1.1 0 0 1 .1-.036l.018-.005a1.158 1.158 0 0 1 .153-.032l.038-.006c.038-.004.076-.006.115-.006h.025c.143.002.286.032.423.09.143.061.212.108.304.176.114.083.256.097.357-.024.18-.21.31-.322.374-.469l.002-.005a.172.172 0 0 0-.039-.2 2.179 2.179 0 0 0-.196-.186 2.035 2.035 0 0 0-1.557-.387l-.027.004-.036.006c-1.01.186-1.78 1.121-1.78 2.243 0 1.038.66 1.916 1.557 2.189l.001.002c.655.2 1.327.067 1.842-.322a2.168 2.168 0 0 0 .196-.187.172.172 0 0 0 .039-.2l-.002-.004c-.065-.147-.195-.26-.374-.47-.101-.12-.243-.106-.357-.023a1.317 1.317 0 0 1-.304.175c-.282.12-.588.124-.877.004l-.011-.003a1.256 1.256 0 0 1-.739-1.16c0-.53.314-.984.755-1.164m-14.731 0c.033-.014.067-.026.1-.036l.018-.005a1.153 1.153 0 0 1 .152-.032l.039-.006c.037-.004.076-.006.114-.006h.025c.144.002.287.032.424.09.143.061.211.108.304.176.114.083.255.097.357-.024.18-.21.31-.322.374-.469l.001-.005a.172.172 0 0 0-.039-.2 2.194 2.194 0 0 0-.195-.186 2.035 2.035 0 0 0-1.558-.387l-.026.004-.036.006c-1.01.186-1.78 1.121-1.78 2.243 0 1.038.66 1.916 1.557 2.189l.001.002c.655.2 1.326.067 1.842-.322a2.183 2.183 0 0 0 .196-.187.172.172 0 0 0 .038-.2l-.001-.004c-.065-.147-.195-.26-.374-.47-.102-.12-.243-.106-.357-.023a1.318 1.318 0 0 1-.304.175c-.282.12-.588.124-.877.004l-.011-.003a1.256 1.256 0 0 1-.739-1.16c0-.53.314-.984.755-1.164m9.838 2.412c-.65 0-1.178-.56-1.178-1.249 0-.688.529-1.248 1.178-1.248.65 0 1.179.56 1.179 1.248 0 .689-.529 1.249-1.179 1.249m2.653.237a1.223 1.223 0 0 1-.246-.24.523.523 0 0 0-.037-.068 1.284 1.284 0 0 1-.215-.711l.002-.096-.009-.329.002-.042c0-1.255-.964-2.277-2.15-2.277-1.185 0-2.149 1.022-2.149 2.277 0 1.256.964 2.278 2.15 2.278.56 0 1.07-.229 1.453-.602l.033-.03c.112.194.251.37.413.52.095.09.237.093.337.01l.421-.35c.105-.087.104-.26-.005-.34m9.407.005V15.8c0-1.255-.964-2.277-2.149-2.277-.435 0-.84.138-1.178.374v-.616h.001v-.617a.193.193 0 0 0-.185-.198h-.6a.192.192 0 0 0-.185.193v.3a.539.539 0 0 0-.002.04v4.217c0 .018 0 .036.002.054v.394c0 .109.083.197.185.198h.601a.192.192 0 0 0 .184-.193v-.612h-.001V15.8c0-.688.528-1.248 1.178-1.248.65 0 1.178.56 1.178 1.248v1.516l.001.017v.331c0 .109.082.197.185.198h.6a.192.192 0 0 0 .185-.193v-.612zM75.08 15.565c0 .689-.53 1.249-1.179 1.249-.65 0-1.178-.56-1.178-1.249 0-.688.528-1.248 1.178-1.248.65 0 1.178.56 1.178 1.248m-3.316-.01c0 1.252.958 2.267 2.14 2.267 1.181 0 2.139-1.015 2.139-2.267 0-.782-.374-1.471-.942-1.879a2.054 2.054 0 0 0-1.16-.387h-.037c-1.182 0-2.14 1.014-2.14 2.266m-14.846.775a.803.803 0 0 0 .677.01 1.1 1.1 0 0 0 .273-.159c.531-.388 1.19-.317 1.604.17.064.075.124.14.182.205.188.206.365.4.49.684a1.171 1.171 0 0 1-.228 1.305 3.93 3.93 0 0 1-.176.179 2.109 2.109 0 0 1-.2.173 3.703 3.703 0 0 1-3.354.592l-.328-.1-.013-.025a3.988 3.988 0 0 1-1.69-1.347 4.266 4.266 0 0 1-.806-2.516c0-.982.331-1.935.932-2.683a3.879 3.879 0 0 1 2.307-1.401l.01-.002a2.8 2.8 0 0 1 .052-.01l.006-.001.041-.006.006-.001a3.7 3.7 0 0 1 2.837.71c.066.05.135.11.2.173.04.04.102.1.177.18a1.17 1.17 0 0 1 .228 1.305c-.126.283-.303.477-.49.683-.059.064-.119.13-.183.204-.413.489-1.073.559-1.605.17a1.095 1.095 0 0 0-.272-.158.827.827 0 0 0-.297-.067c-.035.001-.068 0-.108.004l-.004.001-.028.004-.006.001-.046.007a.87.87 0 0 0-.06.016h-.003l-.02.006a.91.91 0 0 0-.612.865c0 .354.203.683.507.828m5.927-4.412c-.299-1.205-1.19-2.15-2.327-2.466A12.64 12.64 0 0 0 57.135 9a12.65 12.65 0 0 0-3.34.44c-1.169.32-2.077 1.283-2.38 2.521A14.951 14.951 0 0 0 51 15.5c0 1.265.151 2.474.426 3.583.299 1.205 1.19 2.15 2.327 2.466 1.047.29 2.188.451 3.382.451s2.335-.16 3.382-.451c1.137-.317 2.028-1.26 2.327-2.466a14.94 14.94 0 0 0 .426-3.583 14.94 14.94 0 0 0-.426-3.583" fill="#FFF"/><use stroke="#E0E7ED" mask="url(#e)" stroke-width="3.638" fill="#FFF" xlink:href="#b"/><use stroke="#E0E7ED" mask="url(#f)" stroke-width="3.638" fill="#FFF" xlink:href="#c"/><g transform="translate(87 216)"><rect fill="#AEBCC5" x="15" width="45" height="9" rx="2.183"/><rect fill="#E0E7ED" y="17" width="75.62" height="4.13" rx="1.819"/></g><g transform="translate(87 363)"><rect fill="#AEBCC5" x="15" width="45" height="9" rx="2.183"/><rect fill="#E0E7ED" y="17" width="75.62" height="4.13" rx="1.819"/></g><g transform="translate(220 216)"><rect fill="#AEBCC5" x="15" width="45" height="9" rx="2.183"/><rect fill="#E0E7ED" y="17" width="75.62" height="4.13" rx="1.819"/></g><g transform="translate(220 363)"><rect fill="#AEBCC5" x="15" width="45" height="9" rx="2.183"/><rect fill="#E0E7ED" y="17" width="75.62" height="4.13" rx="1.819"/></g><g transform="translate(361 216)"><rect fill="#AEBCC5" x="15" width="45" height="9" rx="2.183"/><rect fill="#E0E7ED" y="17" width="75.62" height="4.13" rx="1.819"/></g><g transform="translate(361 363)"><rect fill="#AEBCC5" x="15" width="45" height="9" rx="2.183"/><rect fill="#E0E7ED" y="17" width="75.62" height="4.13" rx="1.819"/></g><g transform="translate(400 157)"><rect fill="#E0E7ED" width="63.634" height="14.269" rx="2.474"/><rect fill="#FFF" x="9.79" y="4.756" width="43.588" height="4.756" rx="1.237"/></g><g transform="translate(400 304)"><rect fill="#E0E7ED" width="63.634" height="14.269" rx="2.474"/><rect fill="#FFF" x="9.79" y="4.756" width="43.588" height="4.756" rx="1.237"/></g><path d="M194 193.5v67.12m0 79.88v67.12M327 193.5v67.12M568 33v417M327 340.5v67.12" stroke="#E0E7ED" stroke-width="2" stroke-linecap="square"/><circle fill="#E0E7ED" cx="617.5" cy="221.5" r="15.5"/><rect fill-opacity=".39" fill="#000" width="745" height="450" rx="1.5"/><g transform="translate(50 101)"><use fill="#000" filter="url(#g)" xlink:href="#h"/><use fill="#FFF" xlink:href="#h"/><use fill="#000" filter="url(#i)" xlink:href="#j"/><use fill="#E0E7ED" xlink:href="#j"/><path d="M173.559 68.478c0 7.183-5.825 13.01-13.013 13.01H56.638c-8.761.64-16.407 2.188-22.027 3.64-3.208.832-5.795-2.651-4.106-5.501 7.26-12.264 7.88-21.2 7.88-21.2v-16.64c0-7.183 5.826-13.004 13.013-13.004h109.148c7.188 0 13.013 5.821 13.013 13.005v26.69zm0 190.687c0 7.183-5.825 13.01-13.013 13.01H56.638c-8.761.64-16.407 2.188-22.027 3.64-3.208.832-5.795-2.651-4.106-5.502 7.26-12.263 7.88-21.2 7.88-21.2v.151c0-7.183 5.826-13.004 13.013-13.004h109.148c7.188 0 13.013 5.821 13.013 13.004v9.9z" fill="#E0E7ED"/><rect fill="#36434D" x="58.746" y="249.452" width="43.16" height="8.395" rx="1.8"/><rect fill="#36434D" x="106.702" y="249.452" width="19.182" height="8.395" rx="1.8"/><path d="M49.155 148.83c0 7.184 5.825 13.011 13.012 13.011h103.908c8.761.639 16.407 2.188 22.027 3.64 3.208.832 5.795-2.651 4.107-5.502-7.26-12.264-7.881-21.2-7.881-21.2v-16.64c0-7.182-5.826-13.004-13.013-13.004H62.167c-7.187 0-13.012 5.822-13.012 13.005v26.69zm27.575 57.566c0 7.183 5.824 13.01 13.012 13.01h76.333c8.761.64 16.407 2.188 22.027 3.64 3.208.832 5.795-2.65 4.107-5.501-7.26-12.264-7.881-21.2-7.881-21.2v.15c0-7.183-5.826-13.004-13.013-13.004H89.742c-7.188 0-13.013 5.821-13.013 13.005v9.9z" fill="#209AF5"/><rect fill="#FFF" x="65.939" y="123.527" width="19.182" height="8.395" rx="1.8"/><rect fill="#FFF" x="65.939" y="137.918" width="9.591" height="8.395" rx="1.8"/><rect fill="#FFF" x="89.917" y="123.527" width="27.575" height="8.395" rx="1.8"/><rect fill="#FFF" x="80.326" y="137.918" width="27.575" height="8.395" rx="1.8"/><rect fill="#FFF" x="122.287" y="123.527" width="17.983" height="8.395" rx="1.8"/><path d="M163.899 127.28a5.503 5.503 0 0 1-5.504 5.502 5.503 5.503 0 0 1-5.504-5.501c0-3.038 2.464-5.5 5.504-5.5a5.502 5.502 0 0 1 5.504 5.5" fill="#F4DE85"/><path d="M163.899 127.28a5.503 5.503 0 0 1-5.504 5.502 5.503 5.503 0 0 1-5.504-5.501c0-3.038 2.464-5.5 5.504-5.5a5.502 5.502 0 0 1 5.504 5.5z" stroke="#3C4249" stroke-width="1.8" stroke-linecap="round" stroke-linejoin="round"/><path d="M156.659 127.884s.352 2.485 1.809 2.485c1.407 0 1.708-2.485 1.708-2.485s-1.633.674-3.517 0" fill="#3C4249"/><path d="M156.206 128.563a.98.98 0 0 1-1.755-.872c.178-.357.954-.72 1.349-.887a.22.22 0 0 1 .3.149c.106.415.284 1.253.106 1.61m4.7 0a.98.98 0 0 0 1.755-.872c-.178-.357-.954-.72-1.35-.887a.219.219 0 0 0-.298.149c-.107.415-.285 1.253-.107 1.61" fill="#5EB0E2"/><path d="M156.986 126.364a.94.94 0 0 1 .687.3.936.936 0 0 0 .256-.641.943.943 0 1 0-1.886 0c0 .248.099.473.256.641a.938.938 0 0 1 .687-.3m3.052 0a.94.94 0 0 1 .688.3.936.936 0 0 0 .256-.641.943.943 0 1 0-1.886 0c0 .248.098.473.256.641a.938.938 0 0 1 .686-.3" fill="#3C4249"/><path d="M149.512 254.405a5.502 5.502 0 0 1-5.504 5.501 5.503 5.503 0 0 1-5.504-5.5c0-3.038 2.464-5.5 5.504-5.5a5.502 5.502 0 0 1 5.504 5.5" fill="#F4DE85"/><path d="M149.512 254.405a5.502 5.502 0 0 1-5.504 5.501 5.503 5.503 0 0 1-5.504-5.5c0-3.038 2.464-5.5 5.504-5.5a5.502 5.502 0 0 1 5.504 5.5z" stroke="#3C4249" stroke-width="1.8" stroke-linecap="round" stroke-linejoin="round"/><path d="M142.272 255.008s.352 2.486 1.81 2.486c1.406 0 1.708-2.486 1.708-2.486s-1.633.674-3.518 0" fill="#3C4249"/><path d="M141.82 255.688a.98.98 0 0 1-1.756-.872c.178-.357.954-.72 1.349-.887a.22.22 0 0 1 .3.149c.106.415.284 1.252.106 1.61m4.701 0a.98.98 0 0 0 1.754-.872c-.177-.357-.954-.72-1.35-.887a.219.219 0 0 0-.298.149c-.106.415-.285 1.252-.107 1.61" fill="#5EB0E2"/><path d="M142.6 253.489a.94.94 0 0 1 .686.3.936.936 0 0 0 .256-.642.943.943 0 1 0-1.885 0c0 .249.098.474.255.642a.938.938 0 0 1 .687-.3m3.053 0a.94.94 0 0 1 .687.3.936.936 0 0 0 .256-.642.943.943 0 1 0-1.886 0c0 .249.099.474.256.642a.938.938 0 0 1 .687-.3" fill="#3C4249"/><path d="M145.99 129.18a.896.896 0 0 1-.807-.918l.173-5.737a.657.657 0 0 1 .722-.634l1.262.124a.657.657 0 0 1 .583.764l-.96 5.66a.896.896 0 0 1-.973.741m1.287 1.448a1.105 1.105 0 1 1-2.21 0 1.105 1.105 0 0 1 2.21 0" fill="#FFF"/><path d="M131.603 256.305a.896.896 0 0 1-.807-.919l.174-5.737a.657.657 0 0 1 .721-.634l1.262.125c.38.038.647.389.583.764l-.96 5.659a.896.896 0 0 1-.973.742m1.287 1.448a1.105 1.105 0 1 1-2.209 0 1.105 1.105 0 0 1 2.21 0" fill="#36434D"/><rect fill="#FFF" x="92.315" y="196.683" width="19.182" height="8.395" rx="1.8"/><rect fill="#FFF" x="116.293" y="196.683" width="27.575" height="8.395" rx="1.8"/><path d="M160.52 200.682c0 3.038-2.465 5.5-5.505 5.5a5.502 5.502 0 1 1 0-11 5.503 5.503 0 0 1 5.504 5.5" fill="#F4DE85"/><path d="M160.52 200.682c0 3.038-2.465 5.5-5.505 5.5a5.502 5.502 0 1 1 0-11 5.503 5.503 0 0 1 5.504 5.5z" stroke="#3C4249" stroke-width="1.8" stroke-linecap="round" stroke-linejoin="round"/><path d="M153.113 202.156a2.611 2.611 0 0 0 4.032.006" stroke="#3C4249" stroke-width="1.2" stroke-linecap="round" stroke-linejoin="round"/><path d="M156.597 198.938l-.002-.003h-.001a.587.587 0 0 0-.83.83l.733.734a.138.138 0 0 0 .195 0l.693-.693a.586.586 0 0 0-.788-.868m-3.112 0l-.001-.003h-.001a.588.588 0 0 0-.83.83l.733.734a.137.137 0 0 0 .195 0l.693-.693a.586.586 0 0 0-.789-.868" fill="#E75957"/><rect fill="#36434D" x="58.746" y="45.573" width="43.16" height="8.395" rx="1.8"/><rect fill="#36434D" x="58.746" y="58.765" width="26.376" height="8.395" rx="1.8"/><rect fill="#36434D" x="106.702" y="45.573" width="19.182" height="8.395" rx="1.8"/><rect fill="#36434D" x="89.917" y="58.765" width="11.989" height="8.395" rx="1.8"/><rect fill="#36434D" x="130.68" y="45.573" width="22.779" height="8.395" rx="1.8"/><rect fill="#FFF" x="16.785" y="314.214" width="73.133" height="9.594" rx="1.8"/></g></g></g></svg>