<svg xmlns="http://www.w3.org/2000/svg" viewBox="0 0 694.81 518.13"><defs><style>.cls-1,.cls-2{fill:#ffefbe}.cls-1{opacity:.2}.cls-20,.cls-3{fill:#e2eaf0}.cls-4{fill:#d6c796}.cls-10,.cls-18,.cls-21,.cls-24,.cls-27,.cls-28,.cls-29,.cls-5,.cls-6,.cls-7{fill:none}.cls-19,.cls-20,.cls-21,.cls-23,.cls-24,.cls-26,.cls-5,.cls-6,.cls-7{stroke:#3d4349}.cls-10,.cls-17,.cls-18,.cls-19,.cls-20,.cls-21,.cls-23,.cls-24,.cls-25,.cls-26,.cls-27,.cls-28,.cls-29,.cls-30,.cls-5,.cls-6,.cls-7{stroke-linecap:round;stroke-linejoin:round}.cls-19,.cls-20,.cls-23,.cls-25,.cls-29,.cls-30,.cls-5,.cls-6,.cls-7{stroke-width:3px}.cls-6{stroke-dasharray:15.21 15.21}.cls-7{stroke-dasharray:15}.cls-17,.cls-8{fill:#e5ebed}.cls-9{fill:#c0cbce}.cls-10,.cls-17{stroke:#3c4249;stroke-width:5px}.cls-11,.cls-19,.cls-25,.cls-30{fill:#fff}.cls-12{fill:#e4e7e9}.cls-13{fill:#cecfd2}.cls-14{fill:#e5e9eb}.cls-15{fill:#4f98cf}.cls-16{fill:#e1e8ee}.cls-18,.cls-27,.cls-28{stroke:#fff}.cls-18{stroke-width:4px}.cls-21{stroke-width:2.26px}.cls-22{fill:#4f97cf}.cls-23,.cls-26{fill:#afbdc6}.cls-24{stroke-width:2.83px}.cls-25{stroke:#4e99cd}.cls-26{stroke-width:3.03px}.cls-27{stroke-width:2px}.cls-28{stroke-width:1.5px}.cls-29,.cls-30{stroke:#e2eaf0}</style></defs><title>Artboard 1 copy 5</title><g id="Layer_10" data-name="Layer 10"><path class="cls-1" d="M110.88 66.8c-.22.18-.51.44-.8.72l.11-.09z"/><path class="cls-2" d="M357.55 339.63c-8-15.36-19.55-26.78-33-37.41a194.09 194.09 0 0 1-15.42-13.07c-.36-.35-.83-1-1.29-1.39-.63-.75-1.25-1.5-1.84-2.29-.88-1.18-1.61-2.5-2.5-3.67-.13-.26-.26-.52-.37-.77a40.73 40.73 0 0 0-1.27-4.06c-.07-.41-.14-.83-.18-1.24s-.05-1.14-.08-1.72c.29-1.62.41-4.78.54-5.46s1.06-3.85 1.05-4.13c.37-.95.79-2 .93-2.32 1.47-3.45 3.17-8 5.68-10.81-.14.15-2.39 3.39-.71 1.19.58-.76 1.1-1.59 1.66-2.37 1.31-1.83 2.68-3.63 4.06-5.41 2.58-3.31 5.25-6.55 7.93-9.79 5.07-6.15 10.12-12.31 14.58-18.92 10.36-15.34 18.78-31.72 22.27-50.08 3.19-16.77 2-35.3-4.52-51.18C347.45 96.15 334 83.43 317 73.19c-14.41-8.76-30-15.88-45-23.61l-24.12-12.4c-3.68-1.89-7.35-3.93-11.05-5.88-3-2-6-4-9.09-5.86a84.62 84.62 0 0 0-10.16-5.29c-1.71-.74-3.45-1.38-5.21-2-1.59-.54-3.23-1-4.82-1.52-.87-.38-4.15-1.68-4.85-1.83-17.35-3.63-36.24 2.64-50.48 12.33-11.8 8-21.55 19-31.26 29.33-2.15 2.3-4.32 4.59-6.53 6.84q-1.64 1.66-3.32 3.29l-.19.18c.46-.39.55-.41-.64.58h-.06l-.39.37.28-.28c-4.93 4.11-9.91 8.12-15.05 12-11.53 8.61-23 17-33.46 26.94A88.38 88.38 0 0 0 37.46 146c-9.92 34 7.91 67.07 16.91 99 .51 1.82.95 3.66 1.45 5.48-1-3.8 0-.1.31 1.61.74 4 1.23 8 1.57 12q.47 5.59.47 11.2c0 .59-.09 3.24-.09 4.05v.4c-.11 1.24-.21 2.48-.34 3.72A141.79 141.79 0 0 1 53 307.29l-.22.81c-.09.21-.2.51-.37.95-.65 1.75-1.3 3.51-2 5.24-1.52 3.74-3.24 7.39-5.07 11-7.91 15.55-17 32.4-14.13 50.51 2.94 18.59 15.69 33.88 30 45.46 25.37 20.57 59.35 28 89.31 12.88 11.8-6 22.26-13.43 32.66-21.51 4.64-3.61 9.27-7.23 14.07-10.64 2.25-1.6 4.54-3.16 6.88-4.63 1.15-.73 2.33-1.41 3.5-2.12l.4-.24c2.38-1.08 4.73-2.18 7.2-3.05 1.21-.43 2.45-.76 3.67-1.17h.1c1.11-.14 8.63-1.55 9.15-.63.16.28-4.31-.6-1.54 0 .83.19 1.76.22 2.6.36 2 .33 4 .78 6 1.31l.85.2.38.17c1.62.72 3.33 1.28 5 2 3.6 1.52 7.12 3.22 10.62 5 6.76 3.35 13.42 6.9 20.36 9.86a92.66 92.66 0 0 0 32.6 7.37 55 55 0 0 1 13.2-1.07 116.39 116.39 0 0 0 10.8-4.61 237.91 237.91 0 0 0 26-16.11c.47-.66.93-1.32 1.37-2 10.15-16.08 9.82-36.32 1.16-53z"/><path class="cls-1" d="M269.05 310.24c.15.24.36.57.59.9l-.07-.12z"/><path class="cls-2" d="M575.84 107.36c-16.38 5.57-29.41 15.31-41.94 27a194.09 194.09 0 0 1-15.24 13.28c-.4.31-1.09.67-1.57 1.06-.84.51-1.67 1-2.54 1.47-1.3.7-2.72 1.21-4 1.92-.28.09-.55.18-.82.25a40.73 40.73 0 0 0-4.21.64h-1.25c-.41 0-1.14-.12-1.71-.18-1.55-.53-4.66-1.12-5.31-1.36s-3.65-1.63-3.93-1.66l-2.16-1.27c-3.18-2-7.41-4.33-9.83-7.24.13.16 3 2.87 1.07.88-.67-.69-1.41-1.33-2.1-2a154.23 154.23 0 0 1-4.74-4.83c-2.89-3-5.69-6.18-8.49-9.31-5.32-5.94-10.65-11.85-16.52-17.26C437 96.21 422 85.43 404.4 79.21c-16.1-5.68-34.6-7.3-51.27-3.22-19.52 4.77-34.12 16.2-46.79 31.38-10.83 13-20.21 27.33-30.11 41l-15.88 22c-2.42 3.36-5 6.68-7.48 10-2.45 2.64-4.85 5.32-7.16 8.1a84.62 84.62 0 0 0-6.75 9.25c-1 1.58-1.88 3.2-2.74 4.85-.77 1.49-1.45 3-2.22 4.54-.5.81-2.29 3.85-2.54 4.52-6.2 16.61-2.84 36.22 4.61 51.76 6.17 12.88 15.51 24.16 24.3 35.31 1.95 2.48 3.89 5 5.78 7.48q1.4 1.87 2.75 3.77l.15.22c-.31-.52-.33-.61.48.72v.06l.31.45-.23-.32c3.32 5.49 6.54 11 9.56 16.68 6.78 12.7 13.34 25.32 21.61 37.13a88.38 88.38 0 0 0 35.47 29.76c32.1 14.91 67.5 2.26 100.43-1.84 1.88-.23 3.76-.39 5.63-.61-3.92.46-.1 0 1.63-.06 4-.13 8.11 0 12.14.26q5.6.37 11.14 1.22c.58.09 3.19.57 4 .7l.39.09c1.21.3 2.42.58 3.63.9a141.79 141.79 0 0 1 22.83 8.23l.77.34.88.5c1.63.91 3.27 1.81 4.88 2.76 3.47 2.07 6.82 4.32 10.1 6.67 14.18 10.16 29.48 21.67 47.82 21.56 18.82-.11 35.85-10.42 49.44-22.8 24.15-22 36.6-54.47 26.15-86.36-4.11-12.56-9.93-24-16.36-35.52-2.87-5.13-5.76-10.26-8.41-15.51-1.24-2.47-2.44-5-3.55-7.5-.54-1.25-1-2.52-1.57-3.78l-.18-.43c-.71-2.51-1.44-5-1.93-7.58-.24-1.26-.39-2.53-.6-3.8v-.12c0-1.12-.24-8.76.75-9.14.3-.11-1.24 4.17-.19 1.53.32-.8.48-1.7.74-2.52a61.8 61.8 0 0 1 2.19-5.72c.11-.25.22-.53.33-.81l.23-.35c1-1.49 1.76-3.1 2.69-4.61 2-3.33 4.25-6.55 6.49-9.75 4.33-6.18 8.84-12.24 12.81-18.65a92.66 92.66 0 0 0 12.19-31.12 55 55 0 0 1 .92-13.21 116.39 116.39 0 0 0-2.93-11.37 237.91 237.91 0 0 0-12-28.09c-.58-.56-1.16-1.12-1.78-1.66-14.25-12.5-34.32-15.2-52.11-9.14z"/><path class="cls-3" d="M624.85 162.11h28.44a6.69 6.69 0 0 0 6.68-6.68v-7.36c0-3.61-4-5.78-7-7.1a21.1 21.1 0 0 0-2-.88c-5.09-2.13-6-3.59-6-6.62a1.42 1.42 0 0 1 .45-1.15 8.8 8.8 0 0 0 1.83-4.54c1.1-.62 1.82-1.56 2-4.41a4.4 4.4 0 0 0-.68-2.53c.13-.88.34-2.4.44-3.69a10 10 0 1 0-20 0c.11 1.3.32 2.82.45 3.7a4.62 4.62 0 0 0-.68 2.62c.18 2.74.89 3.69 2 4.31a8.83 8.83 0 0 0 1.84 4.55 1.41 1.41 0 0 1 .45 1.15c0 3-.91 4.48-6 6.61-.61.25-1.33.54-2 .87-3 1.32-7 3.5-7 7.12v7.36a6.69 6.69 0 0 0 6.78 6.67z"/><path class="cls-4" d="M642 146.32a237.93 237.93 0 0 0-12-28.09l-.64-.6c.12 1.17.29 2.44.41 3.21a4.62 4.62 0 0 0-.68 2.62c.18 2.74.89 3.69 2 4.31a8.83 8.83 0 0 0 1.84 4.55 1.41 1.41 0 0 1 .45 1.15c0 3-.91 4.48-6 6.61-.61.25-1.33.54-2 .87-3 1.32-7 3.5-7 7.12v7.36a6.69 6.69 0 0 0 6.69 6.68h19.23c.16-1.48.36-2.95.65-4.42a116.37 116.37 0 0 0-2.95-11.37z"/><path class="cls-3" d="M79.64 224.87H25.95a1.5 1.5 0 0 0-1.5 1.5v56a1.5 1.5 0 0 0 1.5 1.5h53.7a1.5 1.5 0 0 0 1.5-1.5v-56a1.5 1.5 0 0 0-1.51-1.5z"/><path class="cls-4" d="M58.29 279.76c-.11 1.24-.21 2.48-.34 3.72v.34h22a1.5 1.5 0 0 0 1.5-1.5v-56a1.5 1.5 0 0 0-1.5-1.5H48.18c2.31 6.75 4.57 13.45 6.44 20.1.51 1.82.95 3.66 1.45 5.48-1-3.8 0-.1.31 1.61.74 4 1.23 8 1.57 12q.47 5.59.47 11.2c0 .59-.09 3.24-.09 4.05zm29.3-60.28a1 1 0 1 0-1.46-1.37L82 222.56a1 1 0 0 0 1.46 1.37zm-7.95 3.59a1 1 0 0 0 1-1v-4.45a1 1 0 0 0-2 0v4.45a1 1 0 0 0 1 1zm8.76 2.3h-4.45a1 1 0 1 0 0 2h4.45a1 1 0 1 0 0-2z"/><path class="cls-3" d="M22.59 285l-4.18 4.45a1 1 0 0 0 1.46 1.37l4.13-4.43a1 1 0 1 0-1.41-1.39zm3.76.87a1 1 0 0 0-1 1v4.45a1 1 0 0 0 2 0v-4.45a1 1 0 0 0-1-1zM23 282.58a1 1 0 0 0-1-1h-4.4a1 1 0 1 0 0 2H22a1 1 0 0 0 1-1zM11.94 68.41l16.3 5.51L35.5 95a131.21 131.21 0 0 0 .2.38 1.49 1.49 0 0 0 .33.34h.08a1.49 1.49 0 0 0 .32.16 3196.26 3196.26 0 0 1 .43.08 1.49 1.49 0 0 0 .48-.08l.13-.06a1.48 1.48 0 0 0 .3-.17h.06l15.85-13.34 8.38 2.88a1.49 1.49 0 0 0 .45.07h.07a1.49 1.49 0 0 0 .37-.05h.07a1.5 1.5 0 0 0 .31-.14 1.49 1.49 0 0 0 .28-.25l.06-.07a1.48 1.48 0 0 0 .21-.34l14.38-32.8v-.11a1.42 1.42 0 0 0 0-.15 1.5 1.5 0 0 0 0-.19v-.06a1.48 1.48 0 0 0 0-.25v-.05a1.49 1.49 0 0 0-.09-.33v-.08a1.52 1.52 0 0 0-.08-.16v-.05s0-.07-.06-.1a1.46 1.46 0 0 0-.26-.23 1.48 1.48 0 0 0-.29-.15h-.08a1.48 1.48 0 0 0-.38-.07h-.44l-64.5 16a1.5 1.5 0 0 0-.12 2.88zm-1.09 4.08l-7.6 3.95a1 1 0 0 0 .92 1.78l7.59-3.94a1 1 0 0 0-.92-1.78z"/><path class="cls-3" d="M19.49 74.89a1 1 0 0 0-1.35-.43l-4.48 2.33a1 1 0 0 0 .92 1.78l4.48-2.33a1 1 0 0 0 .43-1.35zM9.29 79.8l-4.48 2.32a1 1 0 0 0 .92 1.78l4.48-2.33a1 1 0 0 0-.92-1.78zm42.89 22a1 1 0 0 0 .72-.31l5.91-6.21a1 1 0 1 0-1.45-1.38l-5.91 6.21a1 1 0 0 0 .72 1.69zm3.29-11.43A1 1 0 1 0 54 89l-3.49 3.67A1 1 0 0 0 52 94zm164.89-17.93a1 1 0 0 0 .26 0 1 1 0 0 0 1-.74l2-7.17a1 1 0 1 0-1.93-.53l-2 7.17a1 1 0 0 0 .67 1.27z"/><path class="cls-4" d="M223.69 74.4a16.32 16.32 0 0 0-4.49.63 20.09 20.09 0 1 0-15.78 32.51h20.27a16.57 16.57 0 0 0 0-33.14z"/><path class="cls-3" d="M225.49 72a1 1 0 0 0 .63-.22l2.8-2.27a1 1 0 0 0-1.26-1.51l-2.8 2.27a1 1 0 0 0 .63 1.78zm-9.58-4a1 1 0 1 0 1.94-.5l-.79-3.06a1 1 0 0 0-1.94.5zm147.48-56.47a23 23 0 1 0 23 23 23 23 0 0 0-23-23zm178.79 68.84V47.86a1.5 1.5 0 0 0-1.5-1.5h-53.29a1.5 1.5 0 0 0-1.5 1.5v32.5l-4.69 7.27a1.5 1.5 0 0 0-.33.93v4.75a1.51 1.51 0 0 0 1.51 1.51h63.29a1.51 1.51 0 0 0 1.51-1.51v-4.74a1.5 1.5 0 0 0-.33-.93zm3.23-36.06a1 1 0 0 0 .73-.31l4.18-4.45a1 1 0 1 0-1.46-1.37l-4.18 4.45a1 1 0 0 0 .73 1.69zm-3.04-1.17a1 1 0 0 0 1-1v-4.45a1 1 0 0 0-2 0v4.45a1 1 0 0 0 1 1zm8.75 2.29h-4.45a1 1 0 0 0 0 2h4.45a1 1 0 0 0 0-2zm121.03 169.09a6.3 6.3 0 0 0-7.42 4 1.5 1.5 0 0 0-.1.39 6.5 6.5 0 0 0 1.93 5.77l-10.18 18.94-13.65-1.62a6 6 0 1 0-9.11 5.85L630.09 259l-14.67-1.34a6 6 0 1 0-11.1 4l.07.11-8.39 8.68a6.37 6.37 0 1 0-5 11.55 6 6 0 0 0 1.54.2 8.1 8.1 0 0 0 6.21-3.67c.09-.17.17-.35.24-.53l20.22 2.49a6 6 0 1 0 11.65-2.63 5.93 5.93 0 0 0-2.54-3.21l3.92-12.43 10 .91a6 6 0 1 0 10-5.35l5.76-10.9 1.28.16a6 6 0 0 0 6 5.21 6 6 0 0 0 5.7-7.85 6 6 0 0 0-11.05-.88q-.13.26-.24.54h-.12l9.62-17.9a5.85 5.85 0 0 0 1.39.17 6.38 6.38 0 0 0 5.93-4.23 1.5 1.5 0 0 0 .1-.39 6.29 6.29 0 0 0-4.46-7.19zm-46.69 59.24a6 6 0 0 0-5.89 3.79l-20.22-2.49a5.62 5.62 0 0 0-1.05-2.64l8.25-8.53a6 6 0 0 0 3 .78 5.93 5.93 0 0 0 5.61-4l14.01 1.33zm24.08-17.38a5.94 5.94 0 0 0-7 3.8l-9.34-.85 3.33-10.57h.31a6 6 0 0 0 5.59-3.81l12.48 1.52z"/><path class="cls-4" d="M614.75 276.9l-14.91-1.83a6 6 0 0 0-.24-1.07 6 6 0 0 0-.81-1.57l8.25-8.53a6 6 0 0 0 2 .69l-.24-.6-.18-.43c-.71-2.51-1.44-5-1.93-7.58-.13-.67-.23-1.35-.33-2a5.94 5.94 0 0 0-1.53 7.74l.07.11-8.37 8.66a6.37 6.37 0 1 0-5 11.58 6 6 0 0 0 1.54.2 8.1 8.1 0 0 0 6.21-3.67c.09-.17.17-.35.24-.53l17 2.09q-.94-1.64-1.77-3.26z"/><path class="cls-5" d="M512.01 57.35l-4.61 5.91"/><path class="cls-6" d="M498.05 75.26L353.08 261.11"/><path class="cls-5" d="M348.4 267.11l-4.61 5.91"/><path class="cls-7" d="M345.84 272.45l11.2-255.2m4.85 254.02L193.37 67.96m161 213l278.92-142.04M337.37 282.96l-300-218m312.79 199.79L46.37 241.99m284.87 22.81l251.45.07"/><g id="_Group_" data-name="&lt;Group&gt;"><path class="cls-8" d="M371.85 379.79l20 108h-100l20-108h60z"/><path class="cls-9" d="M371.85 379.79l7.94 42.89-75.86-.89 7.92-42h60z"/><path class="cls-10" d="M391.85 487.79h-100l20-108h60l20 108z"/></g><path class="cls-11" d="M150.34 95.38a11.25 11.25 0 1 1 4-15.4 11.26 11.26 0 0 1-4 15.4zM142 81.15a5.25 5.25 0 1 0 7.17 1.85 5.26 5.26 0 0 0-7.17-1.85zM605.43 382a11.25 11.25 0 1 1 4-15.4 11.26 11.26 0 0 1-4 15.4zm-8.35-14.23a5.25 5.25 0 1 0 7.18 1.87 5.26 5.26 0 0 0-7.18-1.85zM93.3 352.84a11.25 11.25 0 1 1 4-15.4 11.26 11.26 0 0 1-4 15.4zm-8.35-14.23a5.25 5.25 0 1 0 7.18 1.87 5.26 5.26 0 0 0-7.18-1.87zm9.54-172.78a2.86 2.86 0 0 1-1.83-3l2.53-23.49a2.86 2.86 0 0 1 5.69.61l-2.53 23.49a2.86 2.86 0 0 1-3.86 2.37zm495.44 46.48a2.86 2.86 0 0 1-1.83-3l2.53-23.49a2.86 2.86 0 0 1 5.69.61l-2.53 23.49a2.86 2.86 0 0 1-3.86 2.37z"/><g id="_Group_2" data-name="&lt;Group&gt;"><rect class="cls-12" x="138.87" y="138.04" width="409.83" height="258.35" rx="20.49" ry="20.49"/><path class="cls-13" d="M548.71 352v23.9a20.55 20.55 0 0 1-20.49 20.49H159.36a20.55 20.55 0 0 1-20.49-20.49V352z"/><g id="_Group_3" data-name="&lt;Group&gt;"><path class="cls-14" d="M548.7 158.53V375.9a20.55 20.55 0 0 1-20.49 20.49H159.36a20.55 20.55 0 0 1-20.49-20.49V158.53A20.55 20.55 0 0 1 159.36 138h368.85a20.55 20.55 0 0 1 20.49 20.53z"/><path class="cls-10" d="M138.87 201.22v-42.69A20.55 20.55 0 0 1 159.36 138h368.85a20.55 20.55 0 0 1 20.49 20.49V375.9a20.55 20.55 0 0 1-20.49 20.49H159.36a20.55 20.55 0 0 1-20.49-20.49v-82.47"/></g><path class="cls-10" d="M138.87 267.21V224.1"/></g><rect class="cls-11" x="158.29" y="161.21" width="371" height="212" rx="7.02" ry="7.02"/><path class="cls-15" d="M373.9 254.84a17.92 17.92 0 0 0-12.77-12.77 74.83 74.83 0 0 0-36.88-.06 18.17 18.17 0 0 0-13.06 13.06 74.83 74.83 0 0 0 .06 36.88A17.92 17.92 0 0 0 324 304.72a74.81 74.81 0 0 0 37.11 0 17.92 17.92 0 0 0 12.77-12.77 74.81 74.81 0 0 0 0-37.11zm-32.52 22.85l.2.07a4.65 4.65 0 0 0 3.52 0 6.12 6.12 0 0 0 1.49-.82 6.56 6.56 0 0 1 8.8.88c.35.38.68.73 1 1.06a12.93 12.93 0 0 1 2.69 3.54l.12.27a5.77 5.77 0 0 1 .46 2.26 5.83 5.83 0 0 1-1.82 4.23c-.41.41-.74.72-1 .93a11.38 11.38 0 0 1-1.1.9 21.12 21.12 0 0 1-12.31 3.93 22.06 22.06 0 0 1-6.09-.86l-1.8-.52-.07-.13a21.71 21.71 0 0 1-9.27-7 21.43 21.43 0 0 1 .69-26.92 21.53 21.53 0 0 1 12.66-7.26h.56a21.22 21.22 0 0 1 15.56 3.68 11.37 11.37 0 0 1 1.1.9c.23.2.56.51 1 .93a5.83 5.83 0 0 1 1.82 4.23 5.77 5.77 0 0 1-.46 2.26l-.12.27a12.93 12.93 0 0 1-2.69 3.54c-.32.33-.65.67-1 1.06a6.56 6.56 0 0 1-8.81.88 6.12 6.12 0 0 0-1.49-.82 4.77 4.77 0 0 0-1.63-.34h-1l-.33.08h-.11l-.36.12a4.68 4.68 0 0 0-.22 8.65z"/><path class="cls-16" d="M688.34 488.77c-1.67-.83-4.78-2.51-7.78-2.87-2.51-.3-4.92-.32-7.43-.38-3.09-.08-6.59-.3-10.05-.62-8.46-.78-16.72-2.61-25.12-3.76a198.8 198.8 0 0 0-27.18-1.74 17 17 0 0 0-8.69-8.18c-5.08-4.39-11-4.42-17.87-2.93q-1.34.29-2.66.62c-9 1.1-17.95 3.51-26.84 5.08-10.45 1.84-21 3.24-31.54 4.47-10.12 1.19-21.24.71-31.19 3.22-25.7-3.42-51.7-4-77.67-4.65-33.49-.78-67.26.7-100.68 2.7s-66.89 5.32-100.34 8.17c-16.37 1.4-32.87 2.45-49.31 1.69-16.21-.75-32.06-4.38-48.2-5.72-18.31-1.52-36 1.33-53.94 4.61-8.4 1.53-16.82 3-25.33 3.71-8.94.79-17.9.46-26.85 1.14-10.42.78-13.58 16.22-3.67 20.43 15.22 6.47 32.15 4.43 48.13 2.17 15.69-2.22 31.44-5.16 47.34-5.17 15.29 0 30.49 3.8 45.68 5.48 17.21 1.91 34.61 1.92 51.89 1.11 33.85-1.6 67.56-5.34 101.42-7q50.28-2.49 100.66-3.35c24.67-.42 49.54-.65 74.23-2.36.49.36 1 .72 1.48 1.05a57.33 57.33 0 0 0 17.39 7.59c12.39 3.25 25.55 2.59 37.93-.19a188.48 188.48 0 0 0 27.64-8.92 197.19 197.19 0 0 1 26.67-3.17 120.79 120.79 0 0 1 24.54 1.31c8.73 1.5 17.15 4.09 25.75 6.11s17.05 4.26 25.75 5.11a63 63 0 0 0 14.91 0 31.65 31.65 0 0 0 7.18-1.59c3.31-1.33 5.05-3.71 7.48-6 5.39-5.11 2.08-14.28-3.73-17.17z"/><path class="cls-10" d="M53.51 495.38h171m409 0h41m-420 0h31m24 0h259"/><path class="cls-17" d="M272.18 481.79h142.13v13.23H272.18z"/><g id="_Group_4" data-name="&lt;Group&gt;"><path class="cls-11" d="M649.86 136.54v7.36a5.18 5.18 0 0 1-5.18 5.18h-28.44a5.18 5.18 0 0 1-5.19-5.18v-7.36c0-2 1.79-3.85 6.13-5.75.68-.35 1.37-.63 1.92-.85 5.24-2.2 6.92-4 6.92-8 0-2.38-1.6-1.6-2.31-5.95-.29-1.8-1.7 0-2-4.15 0-1.64.77-2 .77-2s-.39-2.43-.55-4.3c-.19-2.33 1.18-8.35 8.45-8.35h.09c7.28 0 8.64 6 8.45 8.35-.15 1.87-.54 4.3-.54 4.3s.77.41.77 2c-.27 4.12-1.69 2.35-2 4.15-.7 4.35-2.3 3.57-2.3 5.95 0 4 1.67 5.8 6.92 8 .54.22 1.24.5 1.91.85 4.39 1.9 6.18 3.78 6.18 5.75z"/><path class="cls-3" d="M631.1 139.75a65.75 65.75 0 0 0 18.77-3.21v7.36a5.18 5.18 0 0 1-5.18 5.18h-28.45a5.18 5.18 0 0 1-5.19-5.18v-7.36a76.64 76.64 0 0 0 20.05 3.21z"/><path class="cls-5" d="M644.68 149.08a5.18 5.18 0 0 0 5.18-5.18v-7.36c0-2-1.79-3.85-6.13-5.75-.67-.35-1.37-.63-1.91-.85-5.25-2.2-6.92-4-6.92-8 0-2.38 1.6-1.6 2.3-5.95.29-1.8 1.71 0 2-4.15 0-1.64-.77-2-.77-2s.39-2.43.54-4.3c.19-2.33-1.17-8.35-8.45-8.35h-.09c-7.27 0-8.64 6-8.45 8.35.16 1.87.55 4.3.55 4.3s-.77.41-.77 2c.27 4.12 1.68 2.35 2 4.15.71 4.35 2.31 3.57 2.31 5.95 0 4-1.68 5.8-6.92 8-.55.22-1.24.5-1.92.85-4.34 1.9-6.13 3.78-6.13 5.75v7.36a5.18 5.18 0 0 0 5.19 5.18z"/></g><path class="cls-18" d="M366.11 451.8l2.07 12.99m-5-31.33l1.57 9.82"/><path class="cls-19" d="M17.33 214.84h53.7v55.95h-53.7z"/><path class="cls-20" d="M17.33 214.84h53.7v27.85h-53.7z"/><path class="cls-21" d="M28.12 226.63h32.12m-26.97 5.32h21.82"/><rect class="cls-16" x="28.12" y="250.77" width="32.12" height="12.04" rx="1.7" ry="1.7"/><path class="cls-22" d="M39.81 255.15h8.74v3.28h-8.74z"/><path class="cls-20" d="M3.81 55.45l64.5-16-14.38 32.8-18.75-6.46-6.87 17.16-7.5-21.75-17-5.75z"/><path class="cls-19" d="M68.31 39.45L20.81 61.2l-17-5.75 64.5-16-33.13 26.34 18.75 6.46 14.38-32.8z"/><path class="cls-23" d="M28.31 82.95l16.44-13.86-9.57-3.3-6.87 17.16z"/><g id="_Group_5" data-name="&lt;Group&gt;"><path class="cls-11" d="M215.08 64.28a15.16 15.16 0 0 1 0 30.31h-20.27a18.68 18.68 0 1 1 15.25-29.44 14.92 14.92 0 0 1 5.02-.87z"/><path class="cls-3" d="M230.23 79.43a15.15 15.15 0 0 1-15.15 15.16h-20.27a18.68 18.68 0 0 1-18.68-18.68 31 31 0 0 0 14.11 12.37c3.43 1.48 8.53 2.11 12.94 2.21 6.74-.29 11.84-.7 15.81-2.29 8.22-3.29 11.24-8.77 11.24-8.77z"/><path class="cls-24" d="M215.08 64.28a14.92 14.92 0 0 0-5 .87 18.67 18.67 0 1 0-15.25 29.44h20.27a15.16 15.16 0 0 0 0-30.31z"/></g><path class="cls-25" d="M203.18 71.21v12.64m0 0l5.67-5.67m-11.34-.05l5.67 5.66"/><g id="_Group_6" data-name="&lt;Group&gt;"><path class="cls-11" d="M354.78 1.5A21.46 21.46 0 1 1 333.32 23a21.46 21.46 0 0 1 21.46-21.5z"/><path class="cls-3" d="M354.78 37.3c19.27 0 21.46-14.3 21.46-14.3a21.46 21.46 0 1 1-42.92 0s0 14.3 21.46 14.3z"/><path class="cls-5" d="M376.24 23a21.46 21.46 0 1 1-21.46-21.5A21.46 21.46 0 0 1 376.24 23z"/></g><path class="cls-22" d="M350.4 27.65l.43-.61a.74.74 0 0 1 1.14-.18 5 5 0 0 0 2.82 1c1.06 0 2-.55 2-1.69 0-2.36-6.65-2.13-6.65-6.36a4.08 4.08 0 0 1 3.7-4v-1c0-.53.24-.81.79-.81h.14c.51 0 .77.24.77.69v1.11a5.67 5.67 0 0 1 2.85 1 .74.74 0 0 1 .24 1.1l-.33.67c-.26.47-.63.53-1.12.26a4.6 4.6 0 0 0-2.36-.73c-1.18 0-2.13.69-2.13 1.67 0 2.34 6.65 1.93 6.65 6.34a4.06 4.06 0 0 1-3.8 4v1c0 .53-.26.83-.77.83h-.14c-.55 0-.79-.26-.79-.69v-1.12a6.72 6.72 0 0 1-3.35-1.34.75.75 0 0 1-.09-1.14z"/><g id="_Group_7" data-name="&lt;Group&gt;"><path class="cls-11" d="M478.78 36.33h53.29v32.95h-53.29z"/><path class="cls-16" d="M478.78 36.33h13.32v32.95h-13.32z"/><path class="cls-5" d="M478.78 36.33h53.29v32.95h-53.29z"/></g><path class="cls-23" d="M537.07 77.04h-63.29l5-7.76h53.29l5 7.76z"/><rect class="cls-16" x="495.34" y="42.57" width="32.12" height="20.47" rx="1.7" ry="1.7"/><path class="cls-22" d="M513.66 53.48l-3.84 1.7a.73.73 0 0 1-1-.67V51.1a.73.73 0 0 1 1-.67l3.84 1.7a.73.73 0 0 1 0 1.35z"/><path class="cls-26" d="M473.78 77.04h63.29v4.75h-63.29z"/><path class="cls-27" d="M536.8 31.78l4.18-4.45m-7.22 3.27v-4.44m4.31 8.74h4.44"/><path class="cls-28" d="M483.51 42.63h5.67m-5.67 3.83h4.17m-4.17 3.83h5.09m-5.09 3.84h2.84m-2.84 3.83h4.5m-4.5 3.83h5.67"/><path class="cls-29" d="M662 208.79l-22.51 41.88-38.61-3.53-16.98 17.56"/><path class="cls-30" d="M657.5 207.6c2.32-5.59 9.76-3.63 9 2.38-2.3 5.59-9.75 3.63-9-2.38z"/><circle class="cls-30" cx="600.88" cy="247.14" r="4.5" transform="matrix(.86 -.5 .5 .86 -42.74 335.95)"/><circle class="cls-30" cx="583.9" cy="264.7" r="4.5" transform="matrix(.86 -.5 .5 .86 -53.89 329.79)"/><circle class="cls-30" cx="639.49" cy="250.67" r="4.5" transform="matrix(.86 -.5 .5 .86 -39.27 355.86)"/><path class="cls-5" d="M584.78 264.31l31.75 3.91 11.64-36.98 28.49 3.48"/><circle class="cls-19" cx="584.78" cy="264.31" r="4.5" transform="rotate(-17.95 584.792 264.302)"/><circle class="cls-19" cx="628.18" cy="231.24" r="4.5" transform="rotate(-17.95 628.204 231.247)"/><circle class="cls-19" cx="656.66" cy="234.72" r="4.5" transform="rotate(-17.95 656.693 234.74)"/><circle class="cls-19" cx="616.53" cy="268.22" r="4.5" transform="rotate(-17.95 616.557 268.215)"/></g></svg>