<svg id="Layer_1" xmlns="http://www.w3.org/2000/svg" viewBox="0 0 417 368"><style>.st0{fill:#65bdff}.st1{fill:#fbe3d5}.st2{fill:#c3996b}.st3{fill:#3b4249}.st4{fill:#e4c09d}.st5{fill:#d5b6a5}.st6{fill:#edd4c6}.st7{fill:#84bde1}.st8{fill:#b5def2}.st9{fill:#e4e6e9}.st10{fill:#cdcfd2}.st11{fill:#fefefe}.st12{fill:#fbe4d6}.st13,.st14,.st15{opacity:.1;fill:#010202}.st14,.st15{opacity:7e-2;enable-background:new}.st15{opacity:.1;fill:#be1e2c}.st16{fill:#3c4349}.st17{fill:#e1e9f0}.st18{fill:#e0e7ee}.st19{fill:#4b96d1}.st20{fill:#aebcc5}.st21{fill:#4a98ce}</style><title>Page 1</title><path class="st0" d="M305.8 214.6c-.7-8.4-2.1-16.8-4.7-24.9-1.1-3.5-2.5-6.9-3.8-10.3-.7-1.7-1.3-3.4-1.9-5.1l-.6-2.1c-.2-.7-.3-1.4-.5-2.1v-2c.1 2.5.1-.1.3-.9.5-.9 1-1.7 1.5-2.6 2.2-3.6 4.2-7.4 5.2-11.5 1.9-7.9 2-17.8-.5-25.6-.2-.8-.5-1.5-.8-2.2 2-2.7 2.7-6.3 2.1-10.2-2.1-15.2-9-29.4-18.9-41.1-5.3-6.3-12-11.8-20.1-14-8.3-2.3-17.2-1.1-25.3 1.4-7.1 2.2-13.8 5.7-21 7.7-1 .3-2.1.5-3.1.7-.2 0-.5.1-.8.1-1.5.1-3 .1-4.5.1h-.4c-.2 0-.3-.1-.5-.1-.6-.2-1.3-.3-1.9-.5-.9-.3-1.9-.6-2.8-.9l-.4-.1c-.1-.1-.3-.1-.4-.2-6.3-3.1-12.1-7.1-18.6-9.9-8.4-3.7-17.2-5.8-26.4-3.8s-15.6 8.8-20.9 16.1c-4.6 6.3-9.3 13.8-11.1 21.4-2.1 8.6.4 16.6 6 23.1 3.2 3.8 7.4 6.4 11.2 9.6.9.8 1.8 1.6 2.6 2.4.2.2.7 1 1.1 1.3.2.4.5.8.7 1.2v.1c.2 1-.1 2.3-.1.2 0 .5-.2 2.3-.1 1.9-.1.5-.2 1-.4 1.4-.1.3-.4 1-.5 1.3-.5.9-1.1 1.9-1.7 2.8.2-.3-1 1.4-1.2 1.6-.4.5-.9 1-1.4 1.5-1.4 1.5-2.8 2.9-4.2 4.4-11.3 11.4-23.8 22.2-33.5 35.2-17.1 23-14.8 56.7 4.2 77.9 22.1 24.7 58.4 25.9 89 25.3 16.7-.3 33.1-2.5 49.1-7.4 7.5-2.3 14.8-5 22.1-7.9 7.4-2.9 15.5-5.5 22.3-9.6 15.2-9.3 16.9-27.6 15.6-43.7M413 349.9c-1-.5-2.9-1.5-4.7-1.7-1.5-.2-3-.2-4.5-.2-2-.1-4-.2-6-.4-5.1-.5-10-1.6-15.1-2.3-5.3-.7-10.8-1.1-16.3-1-1.1-2.3-2.9-3.9-5.2-4.9-3-2.6-6.6-2.7-10.7-1.8-.5.1-1.1.2-1.6.4-5.4.7-10.8 2.1-16.1 3.1-6.3 1.1-12.6 1.9-18.9 2.7-6.1.7-12.7.4-18.7 1.9-15.4-2.1-31-2.4-46.6-2.8-20.1-.5-40.4.4-60.4 1.6-20.1 1.2-40.1 3.2-60.2 4.9-9.8.8-19.7 1.5-29.6 1-9.7-.4-19.2-2.6-28.9-3.4-11-.9-21.6.8-32.4 2.8-5 .9-10.1 1.8-15.2 2.2-5.4.5-10.7.3-16.1.7-6.3.5-8.1 9.7-2.2 12.3 9.1 3.9 19.3 2.7 28.9 1.3 9.4-1.3 18.9-3.1 28.4-3.1 9.2 0 18.3 2.3 27.4 3.3 10.3 1.1 20.8 1.2 31.1.7 20.3-1 40.5-3.2 60.9-4.2 20.1-1 40.3-1.7 60.4-2 14.8-.2 29.7-.4 44.5-1.4l.9.6c3.2 2.1 6.7 3.6 10.4 4.6 7.4 2 15.3 1.6 22.8-.1 5.7-1.3 11.2-3.2 16.6-5.4 5.3-.9 10.6-1.7 16-1.9 4.9-.2 9.9 0 14.7.8 5.2.9 10.3 2.5 15.5 3.7 5.1 1.2 10.2 2.6 15.5 3.1 2.9.3 6 .4 8.9 0 1.4-.2 3-.4 4.3-1 2-.8 3-2.2 4.5-3.6 3.2-3.3 1.2-8.8-2.3-10.5"/><path class="st1" d="M259.1 250.3v97H152.7v-97c0-18.1 14.8-33 33-33h4.7c2.6 0 4.6-2.1 4.6-4.6v-16.6h21.2v16.6c0 2.6 2.1 4.6 4.6 4.6h5.3c18.2 0 33 14.8 33 33"/><path class="st2" d="M246.9 94.8c-3.4-4.4-6.6-5.6-9.9-7.4-9-5-13.8-15.2-23.1-16.2-14.1-1.5-17 9-35.8 17.7-11.7 5.4-12.3 6.2-16.4 10.4-12.4 12.7 0 46.4 0 46.4l14.5-16 64.5 3.3 7.4 12.7c1.1.3 9.3-37.4-1.2-50.9"/><path class="st3" d="M211.3 72.4c-6.3 0-10.1 2.9-15.6 7.1-4.1 3.2-9.3 7.1-17 10.7-11.3 5.2-12 6-15.9 9.9l-.2.2c-10 10.3-2.7 35.8-.3 43.1l13.1-14.4c.2-.3.6-.4 1-.4l64.5 3.3c.4 0 .8.3 1 .6l6 10.4c.9-3.5 2.3-10.6 2.9-18.9.6-9.3.3-21.8-4.8-28.4-2.7-3.5-5.3-4.9-7.9-6.3-.5-.3-1-.5-1.5-.8-3.8-2.1-6.8-5.1-9.8-7.9-4-3.9-7.8-7.6-12.9-8.1-.9-.1-1.7-.1-2.6-.1M161.8 147c-.5 0-1-.3-1.2-.8-.5-1.4-12.6-34.6.2-47.7l.2-.2c4-4.1 4.9-5 16.6-10.4 7.5-3.5 12.3-7.1 16.5-10.4 6.1-4.7 11-8.4 19.9-7.4 5.9.6 10 4.6 14.4 8.8 2.8 2.7 5.7 5.6 9.2 7.5.5.3 1 .5 1.5.8 2.8 1.5 5.7 3 8.8 6.9 10.3 13.2 3.3 49.2 1.4 52.2-.5.8-1.3.7-1.5.7-.3-.1-.6-.3-.8-.6l-7-12.1-63.2-3.2-14.1 15.6c-.2.2-.6.3-.9.3"/><path class="st4" d="M186.5 98.8c-.7 0-1.2-.6-1.3-1.2 0-.5.3-1 .8-1.2.1 0 11.3-4.2 20.4-17.1.4-.6 1.2-.7 1.7-.3.6.4.7 1.2.3 1.7-9.6 13.6-21.1 17.9-21.6 18 0 .1-.1.1-.3.1m11.1 0c-.7 0-1.2-.6-1.2-1.3 0-.4.2-.7.5-1 .1-.1 6.3-5.1 9.2-8.2.5-.5 1.3-.5 1.8-.1.5.5.5 1.3.1 1.8-3 3.2-9.1 8.2-9.4 8.4-.4.3-.7.4-1 .4m12.7-10.2c-.7 0-1.2-.6-1.2-1.2 0-.4.2-.7.4-1 .1-.1 2.6-2.3 4-6.8.2-.7.9-1 1.6-.8.7.2 1 .9.8 1.6-1.7 5.3-4.7 7.9-4.8 8-.2.1-.5.2-.8.2M207 98.8c-.7 0-1.2-.6-1.2-1.3 0-.5.3-.9.7-1.1.1 0 7.9-4 10.2-11.1.2-.7.9-1 1.6-.8s1 .9.8 1.6c-2.7 8.1-11.1 12.4-11.5 12.6-.2 0-.4.1-.6.1m-40.2 5.4c-.7 0-1.2-.6-1.2-1.3 0-.3.1-.6.3-.8 1.2-1.4 2.6-2.6 4.1-3.6.6-.4 1.4-.2 1.7.4.3.6.2 1.3-.3 1.7-1.3.9-2.6 2-3.6 3.2-.3.3-.7.4-1 .4m-6.5 13.9c-.7 0-1.2-.6-1.2-1.2v-.2c0-.2.9-5.8 4.4-11.3.4-.6 1.1-.8 1.7-.4s.8 1.1.4 1.7c-3.2 5-4 10.3-4 10.3-.2.6-.7 1.1-1.3 1.1m78.5-20.9c-.3 0-.6-.1-.9-.4-1.1-1.1-2.4-2.1-3.8-2.9-.6-.4-.8-1.1-.4-1.7.3-.5 1.1-.7 1.6-.4 1.6.9 3 2 4.3 3.3.5.5.5 1.3 0 1.8-.2.2-.5.3-.8.3m6.8 11.5c-.6 0-1.1-.4-1.2-1 0-.1-.7-3.3-4.1-8.1-.4-.6-.2-1.4.4-1.7.5-.3 1.2-.2 1.6.3 3.8 5.2 4.6 8.9 4.6 9.1.1.7-.3 1.3-1 1.5-.1-.1-.2-.1-.3-.1"/><path class="st5" d="M205.6 203.8c-7.9 0-10.6-4.3-10.6-4.3V196h21.2v3.5s-2.7 4.3-10.6 4.3"/><path class="st6" d="M226.1 217.9h-.2v.9c0 11.1-9 20.1-20 20.1s-20-9-20-20.1v-.9h-.2c-18.1 0-33 14.8-33 33v97h106.4v-97c0-18.2-14.8-33-33-33"/><path class="st3" d="M154.2 345.7h103.4v-95.5c0-17.4-14.1-31.5-31.5-31.5h-5.3c-3.4 0-6.1-2.7-6.1-6.1v-15.1h-18.2v15.1c0 3.4-2.7 6.1-6.1 6.1h-4.7c-17.4 0-31.5 14.1-31.5 31.5v95.5zm104.9 3H152.7c-.8 0-1.5-.7-1.5-1.5v-97c0-19 15.5-34.5 34.5-34.5h4.7c1.7 0 3.1-1.4 3.1-3.1V196c0-.8.7-1.5 1.5-1.5h21.2c.8 0 1.5.7 1.5 1.5v16.6c0 1.7 1.4 3.1 3.1 3.1h5.3c19 0 34.5 15.5 34.5 34.5v97c0 .9-.7 1.5-1.5 1.5z"/><path class="st7" d="M259.1 250.3v97H152.7v-97c0-16.3 12-30 27.6-32.5.1 14 11.5 25.4 25.6 25.4 14 0 25.5-11.3 25.6-25.4 15.6 2.5 27.6 16.2 27.6 32.5"/><path class="st1" d="M248.9 133.9v25.8c0 21.4-17.5 38.8-38.8 38.8H201c-21.3 0-38.8-17.5-38.8-38.8V133c0-3.6 1.8-10.2 4.6-15.8s6.4-10.3 10-10.3c0 0 14.9 5.8 30.4 5.8 14.6 0 29.8-5.8 29.8-5.8 7.3 0 11.9 19.7 11.9 27"/><path class="st5" d="M248.9 129.1l-9.9-12.9c-2-2.5-5.1-3.8-8.3-3.3l-13.4 3.7c-1.1.3-2.2.5-3.3.7-5.4.7-10.8.7-16.2 0-1.4-.2-2.8-.5-4.1-.9l-12.6-3.6c-3-.5-6 .6-8 2.9l-10.9 12.5c0-3.6 3.1-7.7 5.8-13.3 2.7-5.6 5.2-8 8.8-8 0 0 14.9 5.8 30.4 5.8 14.6 0 31-6.3 31-6.3 7.3.1 10.7 15.4 10.7 22.7m-43.3 61.4c36.8 0 43.3-30.9 43.3-30.9 0 21.4-17.5 38.8-38.8 38.8H201c-21.3 0-38.8-17.5-38.8-38.8 0 0 6.5 30.9 43.4 30.9"/><path class="st3" d="M176.5 108.4c-2.5.2-5.6 3.7-8.4 9.5-2.6 5.3-4.4 11.6-4.4 15.1v26.6c0 20.6 16.7 37.3 37.3 37.3h9.1c20.6 0 37.3-16.7 37.3-37.3v-25.8c0-8-4.7-24.9-10.1-25.4-2.3.8-16.3 5.8-30.1 5.8-14.6.1-28.4-4.9-30.7-5.8M210 200h-9c-22.2 0-40.3-18.1-40.3-40.3V133c0-4 1.9-10.7 4.7-16.4 2-4.2 6.2-11.2 11.4-11.2.2 0 .4 0 .5.1.1.1 14.8 5.7 29.9 5.7 14.1 0 29.1-5.7 29.3-5.7.2-.1.4-.1.5-.1 8.7 0 13.3 21.1 13.3 28.4v25.8c.1 22.3-18 40.4-40.3 40.4"/><path class="st8" d="M181.6 218.2c-2.3.4-4.5 1-6.7 1.9 0 16.3 13.9 29.5 31 29.5s31-13.2 31-29.5v-.2c-2-.8-4-1.3-6.1-1.7-.1 13.5-11.1 24.4-24.6 24.4-13.5 0-24.5-10.9-24.6-24.4"/><path class="st3" d="M154.2 345.7h103.4v-95.5c0-14.7-10.5-27.6-24.7-30.7-1.1 14-12.8 25-27 25s-26-11.1-27-25c-14.2 3.2-24.7 16.1-24.7 30.7v95.5zm104.9 3H152.7c-.8 0-1.5-.7-1.5-1.5v-97c0-8.2 3-16.1 8.3-22.4 5.3-6.2 12.6-10.3 20.6-11.6.8-.1 1.6.4 1.7 1.2v.2c.1 13.2 10.9 23.9 24.1 23.9 13.2 0 24-10.7 24.1-23.9 0-.8.7-1.5 1.5-1.5h.2c7.9 1.3 15.2 5.4 20.5 11.6 5.4 6.2 8.3 14.2 8.3 22.4v97c.1 1-.6 1.6-1.4 1.6zm-124.4 6.6H32.1c-.8 0-1.5-.7-1.5-1.5s.7-1.5 1.5-1.5h102.6c.8 0 1.5.7 1.5 1.5s-.7 1.5-1.5 1.5m270 0h-24.6c-.8 0-1.5-.7-1.5-1.5s.7-1.5 1.5-1.5h24.6c.8 0 1.5.7 1.5 1.5s-.7 1.5-1.5 1.5m-233.4 0h-18.6c-.8 0-1.5-.7-1.5-1.5s.7-1.5 1.5-1.5h18.6c.8 0 1.5.7 1.5 1.5s-.7 1.5-1.5 1.5m169.8 0H185.7c-.8 0-1.5-.7-1.5-1.5s.7-1.5 1.5-1.5h155.4c.8 0 1.5.7 1.5 1.5s-.7 1.5-1.5 1.5"/><path class="st9" d="M277.9 263.6V340c0 4-3.2 7.2-7.2 7.2H141.1c-4 0-7.2-3.2-7.2-7.2v-76.4c0-4 3.2-7.2 7.2-7.2h129.6c4 0 7.2 3.2 7.2 7.2"/><path class="st10" d="M277.9 331.6v8.4c0 4-3.2 7.2-7.2 7.2H141.1c-4 0-7.2-3.2-7.2-7.2v-8.4h144z"/><path class="st3" d="M133.9 303.3c-.8 0-1.5-.7-1.5-1.5v-15.2c0-.8.7-1.5 1.5-1.5s1.5.7 1.5 1.5v15.2c0 .8-.7 1.5-1.5 1.5"/><path class="st3" d="M270.7 348.7H141.1c-4.8 0-8.7-3.9-8.7-8.7v-29c0-.8.7-1.5 1.5-1.5s1.5.7 1.5 1.5v29c0 3.1 2.6 5.7 5.7 5.7h129.6c3.1 0 5.7-2.6 5.7-5.7v-76.4c0-3.1-2.6-5.7-5.7-5.7H141.1c-3.1 0-5.7 2.6-5.7 5.7v15c0 .8-.7 1.5-1.5 1.5s-1.5-.7-1.5-1.5v-15c0-4.8 3.9-8.7 8.7-8.7h129.6c4.8 0 8.7 3.9 8.7 8.7V340c0 4.8-3.9 8.7-8.7 8.7"/><path class="st11" d="M268.1 287.9c-.7 0-1.2-.5-1.2-1.2V273c0-3.3-2.7-6-6-6h-15.5c-.7 0-1.2-.5-1.2-1.2s.5-1.2 1.2-1.2h15.5c4.6 0 8.4 3.8 8.4 8.4v13.7c0 .7-.5 1.2-1.2 1.2M236.9 267H226c-.7 0-1.2-.5-1.2-1.2s.5-1.2 1.2-1.2h10.8c.7 0 1.2.5 1.2 1.2s-.5 1.2-1.1 1.2M210 307.9c5.7 6.8 1.3 9.8-4.1 9.8s-9.8-4.4-9.8-9.8 4.4-9.8 9.8-9.8 8 4.9 4.1 9.8"/><path class="st3" d="M205.9 299.5c-4.6 0-8.3 3.7-8.3 8.3 0 4.6 3.7 8.3 8.3 8.3 2.6 0 4.6-.8 5.1-1.9.6-1.2-.2-3.1-2.1-5.4-.5-.5-.5-1.3 0-1.9 1.5-1.9 1.9-3.8 1.2-5.3-.7-1.3-2.2-2.1-4.2-2.1m0 19.7c-6.2 0-11.3-5.1-11.3-11.3 0-6.2 5.1-11.3 11.3-11.3 3.1 0 5.7 1.4 6.9 3.8 1.1 2.2.7 4.9-.9 7.4 2.2 3 2.8 5.5 1.8 7.7-1 2.3-4 3.7-7.8 3.7"/><path class="st9" d="M204.4 292.2s1.1-3.9 4.1-4.8"/><path class="st3" d="M204.4 293.7c-.8 0-1.5-.7-1.5-1.5 0-.1 0-.3.1-.4.1-.2 1.4-4.7 5.1-5.8.8-.2 1.6.3 1.8 1.1.2.8-.2 1.5-1 1.8-2.2.6-3.1 3.7-3.1 3.8-.2.5-.7 1-1.4 1"/><path class="st12" d="M183.2 138.7c1.2-2.2 3.6-3.5 6.1-3.5 2.5 0 4.8 1.3 6.1 3.5"/><path class="st3" d="M195.4 139.9c-.4 0-.8-.2-1-.6-1-1.8-3-2.9-5-2.9-2.1 0-4 1.1-5 2.9-.3.6-1.1.8-1.6.4s-.8-1.1-.4-1.6c1.5-2.5 4.2-4.1 7.1-4.1 2.9 0 5.6 1.6 7.1 4.1.3.6.1 1.3-.4 1.6-.4.2-.6.2-.8.2"/><path class="st12" d="M213.9 138.7c1.2-2.2 3.6-3.5 6.1-3.5 2.5 0 4.8 1.3 6.1 3.5"/><path class="st3" d="M226 139.9c-.4 0-.8-.2-1-.6-1-1.8-3-2.9-5-2.9-2.1 0-4 1.1-5 2.9-.3.6-1.1.8-1.6.4s-.8-1.1-.4-1.6c1.5-2.5 4.2-4.1 7.1-4.1 2.9 0 5.6 1.6 7.1 4.1.3.6.1 1.3-.4 1.6-.3.2-.6.2-.8.2m-21.7 22.2c-.7 0-1.2-.5-1.2-1.2s.5-1.2 1.2-1.2c1.4 0 3-.9 4.1-1.6-1.5-2.4-2.3-5.8-2.4-6.3-.1-.7.3-1.3.9-1.4.6-.1 1.2.3 1.4.9.3 1.3 1.3 4.8 2.6 6.3.4.5.4 1.2-.1 1.7-.1 0-3.4 2.8-6.5 2.8m-2.1 15.9s-.1 0 0 0c-9.4-.8-11.3-7.7-11.4-8-.2-.6.2-1.3.9-1.5.6-.2 1.3.2 1.5.9.1.2 1.6 5.6 9.1 6.2.7 0 1.2.6 1.1 1.3 0 .7-.5 1.2-1.2 1.1"/><path class="st13" d="M206.2 229.5c-.3 0-.6-.1-.8-.3l-4-3.6c-.5-.4-.5-1.2-.1-1.7s1.2-.5 1.7-.1l3.1 2.8 2.7-2.8c.5-.5 1.2-.5 1.7 0s.5 1.2 0 1.7l-3.5 3.6c-.2.3-.5.4-.8.4"/><path class="st3" d="M182.6 240.6c-.2 0-.5-.1-.7-.3-1.2-1.2-2.2-2.6-3.2-4-.3-.4-.2-1 .2-1.3.4-.3 1-.2 1.3.2.9 1.3 1.9 2.6 3 3.7.3.4.3.9 0 1.3-.1.3-.3.4-.6.4m19.6 9.8h-.1c-5.4-.6-10.5-2.6-14.9-5.7-.4-.3-.5-.8-.2-1.3.3-.4.8-.5 1.3-.2 4.2 2.9 9 4.8 14.1 5.4.5.1.9.5.8 1-.2.5-.6.8-1 .8m6.5.1c-.5 0-.9-.4-.9-.9s.4-.9.8-.9c8.8-.7 16.8-5.2 22.1-12.3.3-.4.9-.5 1.3-.2s.5.9.2 1.3c-5.7 7.5-14.2 12.2-23.5 13m24.3-14.9c-.5 0-.9-.4-.9-.9 0-.2 0-.3.1-.5.5-.8 1-1.6 1.4-2.5.2-.4.8-.6 1.2-.3.4.2.6.7.4 1.2-.5.9-.9 1.8-1.5 2.6-.1.2-.4.4-.7.4m2.8-5.5c-.5 0-.9-.4-.9-.9 0-.1 0-.2.1-.3.4-1.1.8-2.3 1.1-3.5.1-.5.6-.7 1.1-.6.4.1.7.6.6 1-.3 1.2-.7 2.5-1.2 3.7-.1.4-.5.6-.8.6m-58.7 2.4c-.3 0-.7-.2-.8-.5-.7-1.4-1.2-2.8-1.7-4.3-.2-.5.1-1 .6-1.1s1 .1 1.1.6c.4 1.4 1 2.7 1.6 4 .2.4 0 1-.4 1.2-.1.1-.3.1-.4.1"/><path class="st14" d="M208.5 151.8s2.3 2.9 4 5.6c1 1.6.2 3.7-1.5 4.4-1.9.7-4.4 1.1-6.6 0l5.8-3.4-1.7-6.6z"/><path class="st15" d="M236.9 159.5c0 4-3.2 7.2-7.2 7.2s-7.2-3.2-7.2-7.2 3.2-7.2 7.2-7.2c3.9-.1 7.2 3.2 7.2 7.2m-47 0c0 4-3.2 7.2-7.2 7.2s-7.2-3.2-7.2-7.2 3.2-7.2 7.2-7.2c3.9-.1 7.2 3.2 7.2 7.2"/><path class="st11" d="M70.6 108.3h32.2V74.7H70.6v33.6z"/><path class="st16" d="M71.5 107.4h30.4V75.6H71.5v31.8zm31.3 1.8H70.6c-.5 0-.9-.4-.9-.9V74.7c0-.5.4-.9.9-.9h32.2c.5 0 .9.4.9.9v33.6c0 .5-.4.9-.9.9z"/><path class="st17" d="M70.6 91.5h32.2V74.7H70.6v16.8z"/><path class="st16" d="M71.5 90.6h30.4v-15H71.5v15zm31.3 1.8H70.6c-.5 0-.9-.4-.9-.9V74.7c0-.5.4-.9.9-.9h32.2c.5 0 .9.4.9.9v16.7c0 .6-.4 1-.9 1z"/><path class="st16" d="M96.3 82.5H77.1c-.4 0-.7-.3-.7-.7 0-.4.3-.7.7-.7h19.3c.4 0 .7.3.7.7-.1.4-.4.7-.8.7m-3.1 3.2h-13c-.4 0-.7-.3-.7-.7s.3-.7.7-.7h13.1c.4 0 .7.3.7.7s-.4.7-.8.7"/><path class="st18" d="M95.3 103.5H78.1c-.6 0-1-.5-1-1v-5.2c0-.6.5-1 1-1h17.2c.6 0 1 .5 1 1v5.2c0 .6-.4 1-1 1"/><path class="st19" d="M84.1 100.9h5.2v-2h-5.2v2z"/><path class="st11" d="M104.6 73.5c-.3 0-.6-.3-.6-.6 0-.2.1-.3.2-.4l2.5-2.7c.2-.2.6-.3.8 0 .2.2.3.6 0 .8l-2.5 2.7c0 .1-.2.2-.4.2m-1.8-.7c-.3 0-.6-.3-.6-.6v-2.7c0-.3.3-.6.6-.6s.6.3.6.6v2.7c0 .3-.3.6-.6.6m5.3 2.5h-2.7c-.3 0-.6-.3-.6-.6s.3-.6.6-.6h2.7c.3 0 .6.3.6.6s-.3.6-.6.6m-41.6 38.3c-.3 0-.6-.3-.6-.6 0-.2.1-.3.2-.4l2.5-2.7c.2-.2.6-.3.8 0s.3.6 0 .8l-2.5 2.7c-.1.2-.2.2-.4.2m4.3.7c-.3 0-.6-.3-.6-.6V111c0-.3.3-.6.6-.6s.6.3.6.6v2.7c0 .4-.2.6-.6.6m-2.6-5.2h-2.7c-.3 0-.6-.3-.6-.6s.3-.6.6-.6h2.7c.3 0 .6.3.6.6s-.2.6-.6.6"/><path class="st17" d="M111.9 31.6l38.7-9.6-8.6 19.7-11.2-3.9-4.1 10.3-4.5-13.1-10.3-3.4z"/><path class="st16" d="M115.1 31.8l7.3 2.5c.3.1.5.3.6.6l3.7 10.8 3.2-8.1c.2-.4.7-.7 1.1-.5l10.5 3.6 7.6-17.3-34 8.4zM126.6 49c-.4 0-.7-.3-.9-.6l-4.4-12.6-9.8-3.3c-.5-.2-.7-.7-.6-1.1.1-.3.3-.5.6-.6l38.7-9.6c.2-.5.7-.7 1.2-.5s.7.7.5 1.2c-.1.3-.3.4-.6.5l-8.6 19.7c-.2.4-.7.6-1.1.5L131.2 39l-3.8 9.5c-.1.3-.4.5-.8.5z"/><path class="st11" d="M150.6 22l-28.5 13.1-10.2-3.5 38.7-9.6-19.9 15.8 11.2 3.9 8.7-19.7z"/><path class="st16" d="M115.1 31.8l6.9 2.4 19.4-8.9-26.3 6.5zm17.5 5.7l8.9 3.1 6.8-15.6-15.7 12.5zm9.4 5.1h-.3l-11.2-3.9c-.5-.2-.7-.7-.6-1.1.1-.2.2-.3.3-.4L144.3 26l-21.8 10c-.2.1-.4.1-.7 0l-10.2-3.5c-.5-.2-.7-.7-.6-1.1.1-.3.3-.5.6-.6l38.7-9.6h.5c.5.2.7.7.6 1.1v.1l-8.6 19.7c-.2.3-.5.5-.8.5z"/><path class="st20" d="M126.6 48.1l9.9-8.3-5.7-2-4.2 10.3z"/><path class="st16" d="M131.2 39l-2.5 6.2 5.9-5-3.4-1.2zm-4.6 10c-.5 0-.9-.4-.9-.9 0-.1 0-.2.1-.3l4.1-10.3c.2-.4.7-.7 1.1-.5l5.7 2c.5.2.7.7.6 1.1-.1.2-.1.3-.3.4l-9.9 8.3c-.1.2-.3.2-.5.2z"/><path class="st11" d="M106.7 38.4c-.3 0-.6-.3-.6-.6 0-.2.1-.4.3-.5l4.6-2.4c.3-.2.7 0 .8.3s0 .7-.3.8l-4.6 2.4h-.2m6.2.2c-.3 0-.6-.3-.6-.6 0-.2.1-.4.3-.5l2.7-1.4c.3-.2.7 0 .8.3s0 .7-.3.8l-2.7 1.4h-.2m-5.3 3.2c-.3 0-.6-.3-.6-.6 0-.2.1-.4.3-.5l2.7-1.4c.3-.2.7 0 .8.3s0 .7-.3.8l-2.7 1.4h-.2m28.1 10.7c-.3 0-.6-.3-.6-.6 0-.2.1-.3.2-.4l3.5-3.7c.2-.2.6-.2.8 0 .2.2.2.6 0 .8l-3.5 3.7c0 .2-.2.2-.4.2m-.5-4.5c-.3 0-.6-.3-.6-.6 0-.2.1-.3.2-.4l2.1-2.2c.2-.2.6-.2.8 0 .2.2.2.6 0 .8l-2.1 2.2c-.1.2-.2.2-.4.2m80.1-41.9c-.3 0-.6-.3-.6-.6v-.2l1.2-4.3c.1-.3.4-.5.7-.4.3.1.5.4.4.7l-1.2 4.3c.1.3-.2.5-.5.5m1.9 2c5 0 9.1 4.1 9.1 9.1s-4.1 9.1-9.1 9.1H205c-6.2 0-11.2-5-11.2-11.2 0-6.2 5-11.2 11.2-11.2 3.8 0 7.1 1.9 9.1 4.8 1-.4 2.1-.6 3.1-.6"/><path class="st17" d="M226.3 17.2c0 5-4.1 9.1-9.1 9.1H205c-6.2 0-11.2-5-11.2-11.2 0 0 2.6 4.9 8.5 7.4 2.1.9 5.1 1.3 7.8 1.3 4-.2 7.1-.4 9.5-1.4 4.9-1.9 6.7-5.2 6.7-5.2"/><path class="st16" d="M205 4.7c-5.7 0-10.4 4.6-10.4 10.4 0 5.7 4.6 10.4 10.4 10.4h12.2c4.5 0 8.2-3.7 8.2-8.2 0-4.5-3.7-8.2-8.2-8.2-.9 0-1.8.2-2.7.5-.4.1-.8 0-1-.3-2-2.9-5.1-4.6-8.5-4.6m12.2 22.5H205c-6.6 0-12.1-5.4-12.1-12.1C193 8.4 198.4 3 205 3c3.7 0 7.2 1.7 9.5 4.6.9-.3 1.8-.4 2.7-.4 5.5 0 9.9 4.5 9.9 9.9 0 5.6-4.4 10.1-9.9 10.1"/><path class="st11" d="M210 12.3v7.6"/><path class="st21" d="M210 20.8c-.5 0-.9-.4-.9-.9v-7.6c0-.5.4-.9.9-.9s.9.4.9.9v7.6c0 .5-.4.9-.9.9"/><path class="st11" d="M210 19.9l3.4-3.4"/><path class="st21" d="M210 20.8c-.5 0-.9-.4-.9-.9 0-.2.1-.5.3-.6l3.4-3.4c.4-.4.9-.4 1.3 0s.4.9 0 1.3l-3.4 3.4c-.2.1-.4.2-.7.2"/><path class="st11" d="M210 19.8l-3.4-3.4"/><path class="st21" d="M210 20.7c-.2 0-.5-.1-.6-.3L206 17c-.3-.4-.3-.9 0-1.3.3-.3.9-.3 1.2 0l3.4 3.4c.4.4.3.9 0 1.3-.1.2-.3.3-.6.3"/><path class="st11" d="M218.3 5.8c-.3 0-.6-.3-.6-.6 0-.2.1-.4.2-.5l1.7-1.4c.3-.2.6-.2.8.1.2.3.2.6-.1.8l-1.7 1.4c-.1.2-.2.2-.3.2m-5.2-1.9c-.3 0-.5-.2-.6-.5l-.5-1.8c-.1-.3.1-.6.4-.7s.6.1.7.4l.5 1.8c.1.3-.1.6-.4.7 0 .1-.1.1-.1.1m107.6 60.7c-.2 0-.3-.1-.4-.2-4.4-4.5-9.1-8.7-14.1-12.6-.3-.2-.3-.6-.1-.8.2-.3.6-.3.8-.1 5 3.9 9.8 8.1 14.2 12.7.2.2.2.6 0 .8 0 .1-.2.2-.4.2m-64.4-38.5h-.2c-5.7-1.7-11.5-3.2-17.4-4.3-.3-.1-.5-.4-.5-.7.1-.3.4-.5.7-.5 5.9 1.1 11.8 2.5 17.5 4.3.3.1.5.4.4.8 0 .2-.3.4-.5.4m-96-.7c-.3 0-.6-.3-.6-.6s.2-.5.4-.6c7.5-2.2 15.2-3.8 22.9-4.9.3 0 .6.2.7.5 0 .3-.2.6-.5.6-7.7 1.1-15.3 2.7-22.8 4.9 0 .1-.1.1-.1.1m-71 43.8c-.3 0-.6-.3-.6-.6 0-.1.1-.3.2-.4 5.4-6.1 11.6-11.9 18.2-17 .3-.2.6-.1.8.2.2.2.1.6-.1.8-6.5 5.1-12.6 10.8-18 16.9-.1.1-.3.1-.5.1M331.5 75c-.3 0-.6-.3-.6-.6v-6.2c0-.3.3-.6.6-.6s.6.3.6.6v6.2c0 .3-.3.6-.6.6m3.4-1.5c-.3 0-.6-.3-.6-.6 0-.1 0-.2.1-.3l1.3-2.7c.1-.3.5-.4.8-.3.3.1.4.5.3.8l-1.3 2.7c-.2.3-.4.4-.6.4m-6.5 0c-.2 0-.4-.1-.5-.3l-1.3-2.7c-.1-.3 0-.7.3-.8s.7 0 .8.3l1.3 2.7c.1.3 0 .7-.3.8h-.3m6.4 10.6c4.8 1.4 8.2 6.3 8.1 12l-.1 6.5c0 2.2-1.7 4-3.6 4l-16.4-.3c-2 0-3.5-1.9-3.5-4.1l.1-6.7c.1-5.5 3.5-10.3 8.3-11.6l-4.5-3.1c0-2.2 1.7-3.9 3.5-3.9.3 0 .7.1 1 .2 1.2.4 2.5.8 3.8.8 2 0 4-.6 5.5-1.2 1.3-.6 2.6.5 2.6 2l-.1 3.1-5.2 2.2.5.1z"/><path class="st17" d="M330.9 104c8.9 0 11.8-3.6 11.8-3.6.1 3.9-1.7 6.3-3.6 6.3l-16.4-.3c-2 0-3.5-2.4-3.5-6.3.1-.1 3.2 3.9 11.7 3.9"/><path class="st16" d="M339.1 105.6c1.4 0 2.6-1.3 2.6-3l.1-6.5c.1-5.2-3-9.8-7.3-11l-.5-.1c-.5-.2-.9-.7-.7-1.3.1-.3.3-.5.6-.7l4.6-1.9v-2.4c0-.5-.2-.9-.5-1-.2-.1-.4-.2-.6-.1-2.1.9-4.1 1.4-5.9 1.3-1.2 0-2.6-.3-4.1-.8-.2-.1-.5-.1-.7-.1-1.2 0-2.2 1-2.4 2.4l4 2.7c.5.3.6 1 .3 1.4-.1.2-.3.3-.6.4-4.3 1.2-7.4 5.5-7.5 10.6l-.1 6.7c0 1.7 1.1 3 2.5 3.1l16.2.3zm.1 2c-.1 0-.1 0 0 0l-16.4-.3c-2.5-.1-4.5-2.4-4.5-5.2l.1-6.7c.1-5.2 2.9-9.8 7.1-11.8l-2.9-1.9c-.3-.2-.5-.5-.4-.9 0-2.7 2.1-4.9 4.5-4.9.5 0 1 .1 1.4.2 1.3.5 2.4.7 3.5.7 1.5 0 3.2-.4 5-1.2.8-.4 1.8-.3 2.6.2.9.6 1.4 1.6 1.4 2.8l-.1 3.1c0 .4-.3.8-.6.9l-2.8 1.2c4.2 2.1 7 6.9 6.8 12.2l-.1 6.5c-.1 2.9-2.1 5.1-4.6 5.1z"/><path class="st3" d="M330.6 85.4c-3.1-.2-5.6-2.1-5.7-2.2-.4-.4-.5-1-.1-1.4.3-.4 1-.5 1.4-.2.1 0 2.1 1.6 4.5 1.7.6 0 1 .5 1 1.1-.1.5-.6 1-1.1 1"/><path class="st19" d="M328.8 97.6l.2-.3c.2-.2.4-.2.6-.1.3.2.8.5 1.5.5.6 0 1.1-.3 1.1-.9 0-1.2-3.4-1.1-3.4-3.3 0-1.1.8-1.9 1.9-2.1v-.5c0-.3.1-.4.4-.4h.1c.3 0 .4.1.4.4v.6c.5 0 1 .2 1.5.5.2.1.2.3.1.6l-.2.3c-.1.2-.3.3-.6.1-.3-.2-.7-.4-1.2-.4-.6 0-1.1.4-1.1.9 0 1.2 3.4 1 3.4 3.3 0 1-.7 1.9-2 2.1v.5c0 .3-.1.4-.4.4h-.1c-.3 0-.4-.1-.4-.4v-.6c-.6-.1-1.2-.3-1.7-.7-.2-.1-.2-.3-.1-.5"/><path class="st11" d="M264.7 44.4h32V24.6h-32v19.8z"/><path class="st18" d="M264.7 44.4h8V24.6h-8v19.8z"/><path class="st16" d="M265.6 43.5h30.2v-18h-30.2v18zm31 1.8h-32c-.5 0-.9-.4-.9-.9V24.6c0-.5.4-.9.9-.9h32c.5 0 .9.4.9.9v19.8c0 .5-.4.9-.9.9z"/><path class="st20" d="M299.6 49h-38l3-4.7h32l3 4.7z"/><path class="st16" d="M263.3 48.1H298l-1.8-2.9h-31l-1.9 2.9zm36.3 1.8h-38c-.3.4-.8.5-1.2.3-.4-.3-.5-.8-.3-1.2.2-.3.4-.4.8-.4l3-4.7c.2-.3.5-.4.8-.4h32c.3 0 .6.2.8.4l3 4.7c.3.4.2 1-.3 1.2-.2.1-.4.1-.6.1z"/><path class="st18" d="M292.9 40.6h-17.2c-.6 0-1-.5-1-1V29.3c0-.6.5-1 1-1h17.2c.6 0 1 .5 1 1v10.2c0 .7-.5 1.1-1 1.1"/><path class="st19" d="M285.6 34.9l-2.3 1c-.2.1-.5 0-.6-.2v-2.2c0-.2.2-.4.4-.4h.2l2.3 1c.2.1.3.4.2.6l-.2.2"/><path class="st20" d="M261.7 51.9h38V49h-38v2.9z"/><path class="st16" d="M262.6 51h36.2v-1h-36.2v1zm37 1.8h-38c-.5 0-.9-.4-.9-.9V49c0-.5.4-.9.9-.9h38c.5 0 .9.4.9.9v2.9c.1.5-.3.9-.9.9z"/><path class="st11" d="M299.5 22.4c-.3 0-.6-.3-.6-.6 0-.2.1-.3.2-.4l2.5-2.7c.2-.2.6-.3.8 0 .2.2.3.6 0 .8l-2.5 2.7c-.1.2-.2.2-.4.2m-1.8-.7c-.3 0-.6-.3-.6-.6v-2.7c0-.3.3-.6.6-.6s.6.3.6.6v2.7c0 .4-.3.6-.6.6m5.2 2.6h-2.7c-.3 0-.6-.3-.6-.6s.3-.6.6-.6h2.7c.3 0 .6.3.6.6s-.3.6-.6.6m-32 4.5h-3.4c-.2 0-.4-.2-.4-.5 0-.2.2-.4.4-.4h3.4c.2 0 .4.2.4.5.1.2-.1.4-.4.4m-.9 2.3h-2.5c-.2 0-.4-.2-.4-.5 0-.2.2-.4.4-.4h2.5c.2 0 .4.2.4.5.1.2-.1.4-.4.4m.6 2.3h-3c-.2 0-.5-.2-.5-.5s.2-.5.5-.5h3c.2 0 .5.2.5.5s-.3.5-.5.5m-1.4 2.3h-1.7c-.2 0-.5-.2-.5-.5s.2-.5.5-.5h1.7c.2 0 .5.2.5.5s-.2.5-.5.5m1 2.3h-2.7c-.2 0-.5-.2-.5-.5s.2-.5.5-.5h2.7c.2 0 .5.2.5.5s-.2.5-.5.5m.7 2.3h-3.4c-.2 0-.5-.2-.5-.5s.2-.5.5-.5h3.4c.2 0 .5.2.5.5s-.2.5-.5.5M140.7 257.9c-2.1 0-3.7 1.7-3.7 3.7 0 2.1 1.7 3.7 3.7 3.7 2.1 0 3.7-1.7 3.7-3.7s-1.7-3.7-3.7-3.7m-12.8-66.7c-.3-.6-.1-1.4.5-1.8l10.2-8.3c.7-.6 1.7-.5 2.2.1.5.6.4 1.6-.2 2.1l-10.2 8.3c-.7.6-1.7.5-2.2-.1-.2-.1-.3-.2-.3-.3M271.5 112c-.7 0-1.3-.5-1.4-1.2L267 98c-.2-.9.3-1.7 1.1-1.9.8-.2 1.6.3 1.8 1.1L273 110c.2.9-.3 1.7-1.1 1.9-.1.1-.3.1-.4.1m2.1 120.6c-.3-.6-.1-1.4.5-1.8l10.4-8.1c.7-.5 1.7-.5 2.2.2.5.6.4 1.6-.3 2.1l-10.4 8.1c-.7.5-1.7.5-2.2-.2-.1 0-.2-.1-.2-.3M159 70.7c-3.4 0-6.1 2.7-6.1 6.1 0 3.4 2.7 6.1 6.1 6.1 3.4 0 6.1-2.7 6.1-6.1 0-3.4-2.7-6.1-6.1-6.1zm0 8.9c-1.6 0-2.8-1.3-2.8-2.8 0-1.6 1.3-2.8 2.8-2.8 1.6 0 2.8 1.3 2.8 2.8 0 1.5-1.2 2.8-2.8 2.8zm115.3 80.1c-3.4 0-6.1 2.7-6.1 6.1 0 3.4 2.7 6.1 6.1 6.1 3.4 0 6.1-2.7 6.1-6.1 0-3.3-2.7-6.1-6.1-6.1zm0 9c-1.6 0-2.8-1.3-2.8-2.8 0-1.6 1.3-2.8 2.8-2.8 1.6 0 2.8 1.3 2.8 2.8.1 1.5-1.2 2.8-2.8 2.8zm-149.9 62.6c-3.4 0-6.1 2.7-6.1 6.1 0 3.4 2.7 6.1 6.1 6.1 3.4 0 6.1-2.7 6.1-6.1 0-3.4-2.7-6.1-6.1-6.1zm0 8.9c-1.6 0-2.8-1.3-2.8-2.8 0-1.6 1.3-2.8 2.8-2.8 1.6 0 2.8 1.3 2.8 2.8.1 1.5-1.2 2.8-2.8 2.8z"/></svg>