<svg id="Layer_1" xmlns="http://www.w3.org/2000/svg" viewBox="0 0 1180 531.8"><style>.st0{fill:#4d5468;stroke:#3c4249;stroke-width:3.7602;stroke-linecap:round;stroke-linejoin:round;stroke-miterlimit:10}.st1{fill:#a86d45}.st2{fill:none;stroke:#e2bf9c;stroke-width:4.0548;stroke-linecap:round;stroke-linejoin:round;stroke-miterlimit:10}.st3{fill:#91593a}.st4{fill:none;stroke:#3c4249;stroke-width:4.8734;stroke-linecap:round;stroke-linejoin:round;stroke-miterlimit:10}.st5{fill:#b4ddf1}.st6,.st7,.st8{fill:#aa6c45;stroke:#3c4249;stroke-width:3.8987;stroke-linecap:round;stroke-linejoin:round;stroke-miterlimit:10}.st7,.st8{fill:none}.st8{stroke-width:2.924}.st9{fill:#b57957}.st10{fill:#b194e0}.st11,.st12{stroke:#3c4249}.st11{stroke-linecap:round;stroke-linejoin:round;stroke-miterlimit:10;fill:#84bde0;stroke-width:4.8734}.st12{fill:none;stroke-width:4.7363}.st12,.st13,.st14,.st15{stroke-linecap:round;stroke-linejoin:round;stroke-miterlimit:10}.st13{opacity:7e-2;fill:none;stroke:#000;stroke-width:3.8987}.st14,.st15{fill:#566e76;stroke:#3c5460;stroke-width:3.7602}.st15{fill:none;stroke:#3c4249}.st16{fill:#c3b2a5}.st17,.st18{fill:#69584c;stroke:#3c4249;stroke-width:4.0729;stroke-linecap:round;stroke-linejoin:round;stroke-miterlimit:10}.st18{fill:none;stroke:#e4c09d}.st19{fill:#9a8a7e}.st20{fill:none;stroke:#3c4249;stroke-width:4.8951;stroke-linecap:round;stroke-linejoin:round;stroke-miterlimit:10}.st21{fill:#df8384}.st22{fill:#c3b2a5;stroke-linecap:round;stroke-linejoin:round;stroke-miterlimit:10}.st22,.st23{stroke:#3c4249;stroke-width:3.9161}.st23,.st24,.st25{fill:none;stroke-linecap:round;stroke-linejoin:round;stroke-miterlimit:10}.st24{opacity:7e-2;stroke:#000;stroke-width:3.9161}.st25{stroke:#3c4249;stroke-width:2.937}.st26{opacity:7e-2}.st27{opacity:.6;fill:#dac9bf}.st28,.st29,.st30{fill:#85bee1;stroke:#3c4249;stroke-width:4.8951;stroke-linecap:round;stroke-linejoin:round;stroke-miterlimit:10}.st29,.st30{fill:none;stroke-width:4.7574}.st30{stroke:#75645a;stroke-width:2.1756}.st31{fill:#ffeeba}.st32{fill:#f9e2d4}.st33,.st34{fill:#c1976b;stroke:#3c4249;stroke-width:4.1539;stroke-linecap:round;stroke-linejoin:round;stroke-miterlimit:10}.st34{fill:none;stroke:#e2bf9c}.st35{fill:#d3b5a4}.st36{fill:#ecd1c3}.st37{fill:none;stroke:#3c4249;stroke-width:4.9924;stroke-linecap:round;stroke-linejoin:round;stroke-miterlimit:10}.st38{fill:#57b3e5}.st39{fill:#6fc8ef}.st40,.st41{stroke:#3c4249}.st40{fill:#fae2d5;stroke-linecap:round;stroke-linejoin:round;stroke-miterlimit:10;stroke-width:3.4532}.st41{stroke-width:3.9939}.st41,.st42,.st43{fill:none;stroke-linecap:round;stroke-linejoin:round;stroke-miterlimit:10}.st42{opacity:7e-2;stroke:#000;stroke-width:3.9939}.st43{stroke:#3c4249;stroke-width:2.9954}.st44{opacity:.1;fill:#bc202e}.st45{opacity:.2;fill:#feb}.st46,.st47,.st48{fill:#84bde0;stroke:#3c4249;stroke-width:4.9924;stroke-linecap:round;stroke-linejoin:round;stroke-miterlimit:10}.st47,.st48{fill:none;stroke-width:4.852}.st48{fill:#f3dd84;stroke-width:4.0548}.st49{fill:#fbe8b3}.st50{fill:#d2c08b}.st51{fill:#f2dd8a}.st52{fill:#fae9b5;stroke:#3c4249;stroke-width:3.8987;stroke-linecap:round;stroke-linejoin:round;stroke-miterlimit:10}.st53{fill:#bfdeb0}.st54,.st55{fill:none;stroke:#3c4249;stroke-width:4.0546;stroke-linecap:round;stroke-linejoin:round;stroke-miterlimit:10}.st55{stroke:#d2bb73;stroke-width:4.0548}.st56{fill:#dfe6ed}.st57,.st58{fill:none;stroke:#3c4249;stroke-width:4.1752;stroke-linecap:round;stroke-linejoin:round;stroke-miterlimit:10}.st58{stroke-width:4.2161}.st59{fill:#d3c590}.st60{fill:#fff}.st61{fill:#e5eaed}.st62{fill:none;stroke:#3c4249;stroke-width:4.0982;stroke-linecap:round;stroke-linejoin:round;stroke-miterlimit:10}.st63{fill:#209ef2}.st64{fill:#f3dd84;stroke:#3c4249;stroke-width:3;stroke-linecap:round;stroke-linejoin:round;stroke-miterlimit:10}.st65{fill:#3c4249}.st66,.st67,.st68{fill:none;stroke:#3c4249;stroke-width:2;stroke-linecap:round;stroke-linejoin:round;stroke-miterlimit:10}.st67,.st68{stroke:#fff;stroke-width:5.0562}.st68{stroke-width:4.8237}.st69{fill:#76c05c}.st70,.st71{fill:#fff;stroke:#3d5660;stroke-width:4;stroke-linecap:round;stroke-linejoin:round;stroke-miterlimit:10}.st71{stroke-width:7}</style><path class="st0" d="M924.8 386.7s12.8 36 29.9 32.2c17.1-3.8 14.4-15.5 24.6-5.4 10.2 10.2 15.3 23 27.7 15.6 12.4-7.4 5.7-19.7 16.9-10.3 11.2 9.4 11.1 16 19.7 9.4s8.6-19.7 23.2-14.8c14.6 4.9 1 17.4 14.2 14 13.2-3.4 17.4-19 27.7-18.2 10.4.8 22.5 15.1 22.5-.3s-26.6-123.5-26.6-123.5l-167 7.4-12.8 93.9z"/><path class="st1" d="M1116.6 416.3v70.5h-144l-9.7-70.5c0-29.4 5-53.5 34.4-53.5h7.6c4.2 0 7.5-3.4 7.5-7.5v-26.9h34.4v26.9c0 4.2 3.4 7.5 7.5 7.5h8.6c29.6-.1 53.7 24.1 53.7 53.5z"/><path class="st3" d="M1029.7 342.8c-12.8 0-17.2-7-17.2-7v-5.7h34.4v5.7s-4.4 7-17.2 7zM1063.1 364.7h-.3v1.5c.5 12-19.4 28.1-32 31.9-12.3-5.5-34.3-18.6-33.2-31.9v-1.5h-.4c-29.5 0-15.2 53.3-15.2 82.7v39.4l134.5 1.9v-70.5c.1-29.4-24-53.5-53.4-53.5z"/><path class="st4" d="M1063.1 362.7h-8.6c-4.2 0-7.5-3.4-7.5-7.5v-26.9h-34.4v26.9c0 4.2-3.4 7.5-7.5 7.5h-7.6c-29.5 0-53.2 24.1-53.2 53.5v70.5h172.5v-70.5c-.2-29.3-24.3-53.5-53.7-53.5z"/><g id="XMLID_15_"><path class="st1" d="M1100 227.3v41.8c0 34.7-28.4 63.1-63.1 63.1h-14.7c-34.7 0-63.1-28.4-63.1-63.1V226c0-5.9 3-16.5 7.4-25.6 4.5-9.1 10.4-16.8 16.3-16.8 0 0 24.4-3.7 49.7-3.7 23.6 0 48.2 3.7 48.2 3.7 11.9 0 19.3 31.9 19.3 43.7z"/><path class="st3" d="M1029.7 319.3c59.8 0 70.3-50.1 70.3-50.1 0 34.7-28.4 63.1-63.1 63.1h-14.7c-34.7 0-63.1-28.4-63.1-63.1 0 0 10.6 50.1 70.6 50.1z"/><path class="st4" d="M1036.9 332.2h-14.7c-34.7 0-63.1-28.4-63.1-63.1V226c0-5.9 3-16.5 7.4-25.6 4.5-9.1 10.4-16.8 16.3-16.8 0 0 24.4-3.7 49.7-3.7 23.6 0 48.2 3.7 48.2 3.7 11.8 0 19.2 31.9 19.2 43.7v41.8c.1 34.7-28.3 63.1-63 63.1z"/></g><path class="st5" d="M990.7 364.2c-3.8.6-7.4 1.7-10.8 3 0 26.5 22.5 47.9 50.3 47.9 27.8 0 50.3-21.5 50.3-47.9v-.4c-3.2-1.2-6.5-2.1-9.9-2.7-.2 21.9-18 39.5-39.9 39.5-22 .2-39.7-17.5-40-39.4z"/><path class="st3" d="M1030.9 265.8s3.8 4.8 6.4 9.2c1.6 2.7.4 6.1-2.5 7.2-3.1 1.1-7.1 1.9-10.8 0l9.4-5.7-2.5-10.7z"/><path class="st6" d="M990.4 240.6c1.8-3.5 5.4-5.9 9.6-6.1 4.2-.2 8 2 10.1 5.3M1049.4 238c2.6-2.9 6.7-4.4 10.8-3.6 4.1.9 7.3 3.8 8.5 7.6"/><path class="st7" d="M1029.5 265.6s1.8 7.8 4.7 11c0 0-5 4.2-9.4 4.2M1053.9 288.5s-2.6 10.4-16.6 11.5"/><path class="st8" d="M992.4 399.1c-1.8-1.9-3.5-4-5-6.3M1024.1 415c-8.7-1-16.7-4.2-23.6-9M1071.7 394.7c-8.6 11.4-21.9 19.2-37 20.5M1076.5 386.9c-.7 1.4-1.5 2.8-2.3 4.1M982.8 376.3c.5 2 1.1 3.9 1.8 5.8M983.4 386c-1-2.2-1.9-4.4-2.7-6.7"/><circle class="st9" cx="1068.8" cy="265.9" r="11.8"/><circle class="st9" cx="992.4" cy="265.9" r="11.8"/><path class="st10" d="M1116.6 416.3v70.5H982.1v-39.4l-38.2-.5v-36.4s4.3-20.1 15.9-32.3c10.7-11.3 28.8-14.8 28.8-14.8.2 22.8 32.5 41.5 41.6 41.2 8.8 0 41.3-18.4 41.6-41.2 25.3 4.3 44.8 26.4 44.8 52.9z"/><path class="st4" d="M1071.8 363.5c-.2 22.6-33.3 40.9-41.4 41.1-8.1-.3-41.2-18.5-41.4-41.1-25.4 4.2-44.8 26.3-44.8 52.8v30.6l37.9.5v39.4l48.1.6h.4l48.1-.6v-39.4l37.9-.5v-30.6c0-26.5-19.5-48.6-44.8-52.8z"/><path class="st11" d="M1078.7 426.4v60.4M982.8 426.4v60.4"/><g id="XMLID_14_"><path class="st1" d="M1078.7 447.4h37.9v40h-37.9z"/><path class="st3" d="M1078.7 445.5h37.9v9.2h-37.9z"/><path class="st12" d="M1078.7 447.4h37.9v39h-37.9z"/></g><g id="XMLID_10_"><path class="st1" d="M944.3 447.4h37.9v40h-37.9z"/><path class="st3" d="M944.3 445.5h37.9v9.2h-37.9z"/><path class="st12" d="M944.3 447.4h37.9v39h-37.9z"/></g><path class="st13" d="M1018.1 440c-3.5 8.1-13 11.8-21.1 8.2M1070.1 440c-3.5 8.1-13 11.8-21.1 8.2"/><path class="st3" d="M979.8 144.2c3.5-1.7-.9-10.9 9.1-14.8 10-3.9 16.5.9 19.6 2.6 3.1 1.7 12.6-3 16.9-5.7 4.3-2.6 7-3 10 0s8.3 2.2 15.7 2.2c7.4 0 11.7 4.8 13.3 7s1.5 4.3 11.9 7.4c10.3 3 11.4 14.3 8.5 20.4s-13.6 9.1-19.1 8.7c-5.6-.4-17.1 1.6-21.6 5.3s-14.1-1-18.9 5.6c-4.8 6.5-5.2 9.1-12.7 10-7.5.9-11.2 3-14.7 7.8s-9.5 7.4-16 9.6c-6.4 2.2-9.1 5-11 12.9-2.8 11.8-14.7 17.8-8.7 15.3l-11.9-3.3 6.3-58.1 23.3-32.9z"/><path class="st3" d="M1101.4 244.6s-12.7-7.8-15.2-15.2c-2.5-7.4-4.3-10.3-10.5-12.4-6.2-2.1-11.9-4.6-15.3-9.2-3.4-4.6-6.9-6.7-14.1-7.5s-7.6-3.3-12.2-9.6-13.8-1.8-18.1-5.3c-4.3-3.5-15.4-5.5-20.7-5.1s-15.5-2.5-18.3-8.3-1.8-16.7 8.1-19.6c9.9-2.9 9.9-5 11.4-7.1 1.5-2.1 5.6-6.7 12.7-6.7s12.1.8 15-2.1c2.9-2.9 5.4-2.5 9.6 0 4.2 2.5 13.2 7.1 16.2 5.4 3-1.7 9.2-6.2 18.8-2.5s5.4 12.5 8.7 14.2 10-7.5 15.4-3.3 3.2 13.7 8.5 20.8c5.2 7.2 0 73.5 0 73.5z"/><path class="st0" d="M1089.4 315.5c-9.6-4 .7-14.8.7-14.8 15.2-32.3 7.3-63.7 7.3-63.7 5.7 2.4 9.4 3.3 9.4 3.3s-12.7-7.8-15.2-15.2c-2.5-7.4-4.3-10.3-10.5-12.4-6.2-2.1-11.9-4.6-15.3-9.2-3.4-4.6-6.9-6.7-14.1-7.5s-7.6-3.3-12.2-9.6-13.8-1.8-18.1-5.3c-4.3-3.5-15.4-5.5-20.7-5.1s-15.5-2.5-18.3-8.3-1.8-16.7 8.1-19.6c9.9-2.9 9.9-5 11.4-7.1 1.5-2.1 5.6-6.7 12.7-6.7s12.1.8 15-2.1c2.9-2.9 5.4-2.5 9.6 0s13.2 7.1 16.2 5.4c3-1.7 9.2-6.2 18.8-2.5s5.4 12.5 8.7 14.2 10-7.5 15.4-3.3 3.2 13.7 8.5 20.8c5.2 7.1 12.3-7.9 18.6-2.5 6.2 5.4-2.9 13.7 0 21.7s15.4 8.3 18.7 16.2c3.3 7.9-7.9 9.4-5.8 18.9 2.1 9.4 13.7 6.8 13.7 14.6 0 7.7-10.4 5.7-9.6 13.4.8 7.7 13.7 8.5 13.7 18.5s-16.7 5-14.6 14c2.1 9 15 4.5 14.6 13.4-.4 8.9-10 6.4-10 16s13.3 7.3 13.3 13.8-8.7 4.3-8.7 14 9.2 11.3 8.7 19c-.4 7.7-12.5-2.3-14.2 6.5s5 12.2 5 17.7c0 5.6-8.7-1.9-14.6 3.5-5.8 5.4-.4 12.9-6.2 13.3s-16.2-1.2-17.1-9.6c-.8-8.4-1.2-15.9-6.7-19.2s-8.3 6.7-13.7.4c-5.4-6.2 6.2-10.4 5-18.3s-10-1.6-10-9.5 8.7-3.8 9.6-9.2c.8-5.4-6.7-6.7-7.3-10.8-.4-4.1 9.8-3.2.2-7.1z"/><path class="st0" d="M964.4 294.2c-9.3-27.3-3.3-65.3-3.3-65.3-6 2.5-13.7 4.9-13.7 4.9s16.9-5.5 19.7-17.3c1.9-7.9 4.5-10.8 11-12.9 6.4-2.2 12.4-4.8 16-9.6 3.5-4.8 7.3-7 14.7-7.8 7.5-.9 7.9-3.5 12.7-10s14.4-1.9 18.9-5.6 16.1-5.8 21.6-5.3c5.6.4 16.2-2.6 19.1-8.7 2.9-6.1 1.9-17.4-8.5-20.4s-10.3-5.2-11.9-7.4c-1.5-2.2-5.9-7-13.3-7s-12.6.9-15.7-2.2-5.7-2.6-10 0-13.8 7.4-16.9 5.7-9.6-6.5-19.6-2.6c-10 3.9-5.7 13-9.1 14.8s-10.4-7.8-16.1-3.5-3.4 14.3-8.9 21.7-12.9-8.3-19.4-2.6c-6.5 5.7 3 14.3 0 22.6s-16.1 8.7-19.6 17 8.3 9.9 6.1 19.7c-2.2 9.9-14.3 7.1-14.3 15.2s10.9 5.9 10 14-14.3 8.9-14.3 19.4c0 10.4 17.4 5.2 15.2 14.6-2.2 9.3-15.7 4.6-15.2 14 .4 9.3 10.4 6.7 10.4 16.7s-13.9 7.6-13.9 14.5c0 6.8 9.1 4.5 9.1 14.6s-9.6 11.8-9.1 19.9 13-2.4 14.8 6.8c1.7 9.1-5.2 12.7-5.2 18.5 0 5.8 9.1-2 15.2 3.7s-1.1 10 2.6 14.8c2.9 3.8 10.8 5.3 14.3-.9"/><path class="st15" d="M952.7 371.9s-18.3-1.6-17.9-13c.4-11.4 17.9-5.7 17.8-22.6 0-15.8-19.1-5.9-19.9-20.2s17.2-5.3 17.2-24.2M1113.8 360.8s18.3-1.6 17.9-13-17.9-5.7-17.8-22.6c0-15.8 19.1-5.9 19.9-20.2.9-14.3-17.2-5.3-17.2-24.2M944.5 224.9s-14-11.9-7.1-20.9c6.9-9 17.9 5.6 27.6-8.2 9.1-12.9-12.2-15.8-4.6-28s17.1 5.6 28.1-9.9M973.1 322.8s-9.8 5.9-7 13c3.8 9.9 11.6-1.7 18 10.1 5.1 9.4-6.2 11.7-6.2 11.7M1049.3 133.5s-10.5-7.7-15.8-3.4c-7.4 6-1.9 11-10.2 18.4-7.8 6.9-18 0-18 0M1128.5 208.3s-11.8 5.6-10.5 12.3c1.8 9.3 8.8 6.9 11.3 17.7 2.4 10.2-8.6 15.9-8.6 15.9M931.3 243.2s11.5 5.7 8.6 12.2c-4.4 9.6-11.7.5-14.5 10.7-2.6 9.5 7.6 9.5 7.6 9.5"/><path class="st0" d="M1102.9 186.8s-4.2-11.9-14.5-21.2c-11.1.4-12-4-12-4s5.1-1.6 6-10.1"/><path class="st16" d="M868.4 413.8v81H694.8v-81c0-29.6 24.2-53.8 53.8-53.8h7.7c4.2 0 7.6-3.4 7.6-7.6v-27h34.6v27c0 4.2 3.4 7.6 7.6 7.6h8.6c29.5 0 53.7 24.2 53.7 53.8z"/><path class="st17" d="M845.1 170.9c-5.6-7.2-28.5-24.8-61.4-25.5-29.2-.6-54.7 18.6-61.4 25.5-20.3 20.7-12.7 72.5-12.7 72.5l23.6-26.1 105.2 5.4 12 20.7c1.8.4 11.8-50.6-5.3-72.5z"/><path class="st19" d="M781.1 337.9c-12.9 0-17.3-7-17.3-7v-5.7h34.6v5.7s-4.4 7-17.3 7zM814.6 360.9h-.3v1.5c0 18.1-14.6 32.7-32.7 32.7s-32.7-14.6-32.7-32.7v-1.5h-.4c-29.6 0-53.8 24.2-53.8 53.8v81h173.6v-81c.1-29.5-24.1-53.8-53.7-53.8z"/><path class="st20" d="M814.6 360H806c-4.2 0-7.6-3.4-7.6-7.6v-27h-34.6v27c0 4.2-3.4 7.6-7.6 7.6h-7.7c-29.6 0-53.8 24.2-53.8 53.8v81h173.6v-81c.1-29.6-24.1-53.8-53.7-53.8z"/><path class="st21" d="M868.4 413.8v81H694.8v-81c0-26.6 19.6-48.9 45-53.1.2 22.9 18.8 41.3 41.8 41.3 22.9 0 41.5-18.5 41.8-41.3 25.4 4.2 45 26.5 45 53.1z"/><g id="XMLID_13_"><path class="st16" d="M851.7 223.9v42c0 34.8-28.5 63.3-63.3 63.3h-14.8c-34.8 0-63.3-28.5-63.3-63.3v-43.4c0-5.9 3-16.6 7.5-25.7 4.5-9.2 8.8-11.1 14.7-11.1 0 0 25.9 3.8 51.3 3.8 23.7 0 47.1-3.8 47.1-3.8 11.7.1 20.8 26.4 20.8 38.2z"/><path class="st19" d="M851.7 214.9l-14-18.5c-3.2-4.1-10.5-4.7-15.7-3.9 0 0-25 3.9-41 4.4-16.5.5-39.9-4.4-39.9-4.4-4.9-.8-15 .4-18.3 4.1l-12.6 16.9c0-5.9 5.4-12.3 9.4-21.7 2.6-6.1 6.3-7.3 12.2-7.3 0 0 26.5 3.7 51.8 3.7 23.7 0 48.4-4.5 48.4-4.5 12 .1 19.7 19.3 19.7 31.2zM781.1 316.3c60 0 70.6-50.4 70.6-50.4 0 34.8-28.5 63.3-63.3 63.3h-14.8c-34.8 0-63.3-28.5-63.3-63.3-.1.1 10.6 50.4 70.8 50.4z"/><path class="st20" d="M788.4 329.3h-14.8c-34.8 0-63.3-28.5-63.3-63.3v-43.4c0-5.9 3-16.6 7.5-25.7 4.5-9.2 10.9-11.8 16.9-11.8 0 0 23.8 4.5 49.2 4.5 23.7 0 49.2-4.5 49.2-4.5 11.9 0 18.8 27.1 18.8 38.9v42c-.2 34.8-28.7 63.3-63.5 63.3z"/></g><path class="st20" d="M823.4 360.7c-.2 22.9-18.8 41.3-41.8 41.3-22.9 0-41.5-18.5-41.8-41.3-25.5 4.2-45 26.5-45 53.1v81h173.6v-81c0-26.6-19.6-48.9-45-53.1z"/><path class="st22" d="M744.6 231.9c2-3.4 5.7-5.7 9.9-5.7s7.9 2.3 9.9 5.7M794.7 231.9c2-3.4 5.7-5.7 9.9-5.7s7.9 2.3 9.9 5.7"/><path class="st23" d="M783.7 252.6s1.8 7.8 4.7 11.1c0 0-5 4.2-9.5 4.2M758.9 282.4s2.6 10.4 16.6 11.6"/><path class="st24" d="M775.5 372l6.5 5.9 5.7-5.9"/><path class="st25" d="M743.6 396.5c-1.8-2-3.5-4.1-5.1-6.3M775.5 412.5c-8.7-1-16.8-4.2-23.7-9M823.3 392.1c-8.7 11.5-22 19.3-37.2 20.6M828.2 384.2c-.7 1.4-1.5 2.8-2.3 4.1M832.2 373.6c-.5 2-1.1 3.9-1.9 5.8M734.6 383.3c-1-2.2-1.9-4.4-2.7-6.7"/><path class="st26" d="M785.8 253.1s3.8 4.8 6.4 9.1c1.6 2.6.4 6.1-2.5 7.1-3.1 1.1-7.1 1.8-10.8 0l9.5-5.6-2.6-10.6z"/><circle class="st27" cx="820.3" cy="265.7" r="11.8"/><circle class="st27" cx="743.6" cy="265.7" r="11.8"/><path class="st28" d="M733.1 433.6v60.7"/><g id="XMLID_12_"><path class="st16" d="M695 454.7h38.1v40.2H695z"/><path class="st26" d="M695 454.7h38.1v9.3H695z"/><path class="st29" d="M695 454.7h38.1v40.2H695z"/></g><path class="st28" d="M829.7 433.6v60.7"/><g id="XMLID_11_"><path class="st16" d="M829.7 454.7h38.1v40.2h-38.1z"/><path class="st26" d="M829.7 454.7h38.1v9.3h-38.1z"/><path class="st29" d="M829.7 454.7h38.1v40.2h-38.1z"/></g><path class="st30" d="M796.3 175c6.4-1 10.4-3.9 10.4-3.9M756.5 175.3c2.7-1.6 14.3-5.4 27.4-1.3M765.6 163.3c1.7-1 9-3.7 17.5-1.3s14.5-2.2 14.5-2.2"/><path class="st31" d="M621.1 260.6c-3.1-6.7-6.9-13.1-11.3-19-6.4-8.8-13.3-17.4-20.7-25.3-4.5-4.8-9.2-9.4-13.6-14.3-.9-1.3-1.7-2.7-2.5-4.1-.4-1.4-.8-2.9-1.1-4.3-.8-11.5.6-23 1.2-34.5 1-18.2-.8-36.5-7.9-53.5-4.4-10.5-9.5-18.2-16.8-27.2-5.8-7.1-12.8-12.3-20.3-17.7-15-10.9-34.9-16.1-53.3-16.3-21-.3-40.9 6.3-59.6 15.4-10.4 5.1-20 11.5-29.4 18.1-2.4-.6-4.8-1-7.5-1.2-11-.9-21.5-1.4-32.5-.5-14.4 1.2-28.2 5.2-41.7 10.2-23 8.7-45.8 19-67.3 31-20.5 11.5-39.8 25.9-57.1 41.7-7.5 6.8-14.5 14.2-21 22-8.2 10-17 20.7-22.5 32.5-8.3 17.8-11.4 37.4-4.8 56.5 4.3 12.3 11 23.2 16.6 34.9.5 1.4.9 2.8 1.3 4.3.1 2.6-.1 5.3-.3 7.9-.8 4.8-1.6 9.5-2.3 14.3-.9 6.3-2 12.7-2 19.1-.1 6 .8 12.1 1.8 18.1 3 18.3 14.7 36.9 29.3 48.3 10.3 8.1 19.5 13.3 31.9 17.9 9 3.3 18.8 4.6 28.3 5.4 12.7 1.2 25.2-2.1 37.8-1.8.6.3 1.2.7 1.7 1 3.7 3.3 7.2 6.8 10.7 10.4 6.7 6.8 13.7 12.7 21.5 18.3 8 5.6 17.6 9.5 27 12 9.7 2.6 20.2 3.7 30.2 3.5 18.6-.3 37.7-4.2 55.3-10.1 18.5-6.2 36.8-14.3 53.3-24.8 16.4-10.4 30.6-23.6 45.5-35.9 3.2-2.3 6.5-4.4 9.9-6.3 2.4-.7 4.9-1.3 7.4-1.8 8.4-.9 16.8-1.6 25.2-2.8 9.8-1.5 19.6-5.1 28.2-10 7.7-4.5 15.1-10.5 20.6-17.4 8.1-10.1 12.9-18.8 17.6-30.9 6.7-17.4 6.5-36.3 3.3-54.3-1.7-10.1-5.9-19.6-10.1-28.8z"/><g><path class="st32" d="M241.9 404.4V487H64.8v-82.6c0-30.2 24.7-54.9 54.9-54.9h7.8c4.3 0 7.7-3.4 7.7-7.7v-27.6h35.3v27.6c0 4.3 3.5 7.7 7.7 7.7h8.8c30.2 0 54.9 24.7 54.9 54.9z"/><path class="st33" d="M221.6 145.9c-5.7-7.4-11-9.3-16.4-12.3-15-8.3-23-25.2-38.5-26.9-23.4-2.5-28.3 15-59.5 29.5-19.5 9-20.5 10.3-27.4 17.3-20.7 21.1.1 77.2.1 77.2l24.1-26.6 107.3 5.5 12.2 21.1c1.9.3 15.6-62.4-1.9-84.8z"/><path class="st34" d="M121.1 150.3s19.1-6.9 34.9-29.3M139.5 150.3s10.5-8.6 15.5-13.8M160.7 133.4s4.7-4 7.4-12.3M155.2 150.3s13.9-6.9 18.1-19.7M88.2 159.4c1.8-2.1 4-4 6.4-5.6M77.4 182.4s1.3-9.2 7-18M208.1 147.8c-2-1.9-4.2-3.7-6.7-5.2M219.4 166.8s-1.1-5.8-7.3-14.3"/><path class="st35" d="M152.8 327c-13.1 0-17.6-7.2-17.6-7.2V314h35.3v5.8c0 .1-4.5 7.2-17.7 7.2z"/><path class="st36" d="M187 350.5h-.4v1.5c0 18.4-14.9 33.4-33.4 33.4-18.4 0-33.4-14.9-33.4-33.4v-1.5h-.4c-30.2 0-54.9 24.7-54.9 54.9V488h177.1v-82.6c.3-30.2-24.4-54.9-54.6-54.9z"/><path class="st37" d="M187 349.5h-8.8c-4.3 0-7.7-3.4-7.7-7.7v-27.6h-35.3v27.6c0 4.3-3.5 7.7-7.7 7.7h-7.8c-30.2 0-54.9 24.7-54.9 54.9V487h177.1v-82.6c0-30.2-24.7-54.9-54.9-54.9z"/><path class="st38" d="M241.9 404.4V487H64.8v-82.6c0-27.1 20-49.8 45.9-54.1.2 23.3 19.2 42.2 42.6 42.2 23.4 0 42.4-18.8 42.6-42.2 26 4.2 46 26.9 46 54.1z"/><g id="XMLID_33_"><path class="st32" d="M224.8 210.8v42.9c0 35.5-29.1 64.6-64.6 64.6h-15.1c-35.5 0-64.6-29.1-64.6-64.6v-44.2c0-6.1 3.1-16.9 7.6-26.2 4.6-9.3 10.6-17.2 16.7-17.2 0 0 24.8 9.7 50.7 9.7 24.2 0 49.6-9.7 49.6-9.7 12.1-.1 19.7 32.6 19.7 44.7z"/><path class="st35" d="M224.8 202.8l-16.5-21.5c-3.2-4.2-8.5-6.3-13.8-5.5l-22.3 6.2c-1.8.5-3.6.9-5.5 1.2-8.9 1.2-18 1.2-26.9.1-2.3-.3-4.6-.8-6.9-1.4l-20.9-6.1c-5-.8-10 1-13.3 4.8l-18.2 20.9c0-6.1 5.1-12.8 9.6-22.1 4.6-9.3 8.6-13.3 14.7-13.3 0 0 24.8 9.7 50.7 9.7 24.2 0 51.6-10.5 51.6-10.5 12.1-.1 17.7 25.4 17.7 37.5zM152.8 305c61.2 0 72-51.4 72-51.4 0 35.5-29.1 64.6-64.6 64.6h-15.1c-35.5 0-64.6-29.1-64.6-64.6 0 0 10.9 51.4 72.3 51.4z"/><path class="st37" d="M160.2 318.2h-15.1c-35.5 0-64.6-29.1-64.6-64.6v-44.2c0-6.1 3.1-16.9 7.6-26.2 4.6-9.3 10.6-17.2 16.7-17.2 0 0 24.8 9.7 50.7 9.7 24.2 0 49.6-9.7 49.6-9.7 12.1 0 19.7 32.7 19.7 44.8v42.9c0 35.5-29.1 64.5-64.6 64.5z"/></g><path class="st39" d="M112.9 351c-3.8.6-7.6 1.7-11.1 3.1 0 27.1 23.1 49.1 51.5 49.1 28.5 0 51.5-22 51.5-49.1v-.4c-3.2-1.2-6.6-2.2-10.1-2.8-.2 22.4-18.5 40.5-40.9 40.5-22.4.1-40.7-18-40.9-40.4z"/><path class="st37" d="M195.9 350.3c-.2 23.3-19.2 42.2-42.6 42.2-23.4 0-42.4-18.8-42.6-42.2-26 4.3-45.9 27-45.9 54.1V487h177.1v-82.6c0-27.2-20-49.9-46-54.1z"/><path class="st40" d="M115.6 218.9c2-3.5 5.8-5.8 10.1-5.8s8.1 2.3 10.1 5.8M166.7 218.9c2-3.5 5.8-5.8 10.1-5.8s8.1 2.3 10.1 5.8"/><path class="st41" d="M155.5 240.1s1.8 8 4.8 11.3c0 0-5.1 4.3-9.7 4.3M130.2 270.4s2.7 10.7 17 11.8"/><path class="st42" d="M147.1 361.8l6.7 6 5.8-6"/><path class="st43" d="M114.6 386.7c-1.9-2-3.6-4.1-5.2-6.4M147.1 403.1c-8.9-1-17.2-4.3-24.2-9.2M195.8 382.3c-8.8 11.7-22.4 19.7-37.9 21M200.8 374.3c-.7 1.4-1.5 2.9-2.4 4.2M204.9 363.4c-.5 2-1.1 4-1.9 5.9M105.4 373.3c-1.1-2.2-2-4.5-2.7-6.9"/><path class="st26" d="M157.7 240.5s3.9 4.9 6.6 9.2c1.6 2.7.4 6.2-2.5 7.3-3.1 1.1-7.3 1.9-11 0l9.7-5.7-2.8-10.8z"/><circle class="st44" cx="192.9" cy="253.3" r="12"/><circle class="st44" cx="114.6" cy="253.3" r="12"/><path class="st45" d="M201.9 215.6c-.5-.7-.9-1.5-1.3-2.2-.1-.2-.2-.4-.3-.7-.7.1-1.4.1-2.1-.3 1.2 1.4 2.6 2.7 4.1 3.6-.2-.1-.3-.3-.4-.4z"/><path class="st46" d="M103.8 424.6v61.9"/><g id="XMLID_32_"><path class="st32" d="M65 446.1h38.9v41H65z"/><path class="st26" d="M65 446.1h38.9v9.4H65z"/><path class="st47" d="M65 446.1h38.9v41H65z"/></g><path class="st46" d="M202.4 424.6v61.9"/><g id="XMLID_31_"><path class="st32" d="M202.4 446.1h38.9v41h-38.9z"/><path class="st26" d="M202.4 446.1h38.9v9.4h-38.9z"/><path class="st47" d="M202.4 446.1h38.9v41h-38.9z"/></g></g><g><path class="st48" d="M597.2 138.2c-16.5-4.9-46.4-2.7-64.6 6.8-14.8 7.7-40.2 25.5-54.1 60.1-12.3 30.8-22.2 68.5 1.2 95.6 9.1-10.8 17.2-20.6 17.4-35.8 14.6-24 35.5 58.7 47.9 48.8 20-5.4 71.4-7.2 71.4-7.2s-1.7-77.3 21.2-57.4c2.4-24.7-1.9 34.8 13.1 47.3 8.4-20.4 18.2-32 16.2-59.1-1.4-18.6-.8-31.6-12.1-53.2-12.3-23.2-28.7-37.3-57.6-45.9z"/><path class="st49" d="M654.6 416.3v70.5h-144l-9.7-70.5c0-29.4 5-53.5 34.4-53.5h7.6c4.2 0 7.5-3.4 7.5-7.5v-26.9h34.4v26.9c0 4.2 3.4 7.5 7.5 7.5h8.6c29.6-.1 53.7 24.1 53.7 53.5z"/><path class="st50" d="M567.7 342.8c-12.8 0-17.2-7-17.2-7v-5.7h34.4v5.7s-4.4 7-17.2 7zM601 364.7h-.3v1.5c.5 12-19.4 28.1-32 31.9-12.3-5.5-34.3-18.6-33.2-31.9v-1.5h-.4c-29.5 0-15.2 53.3-15.2 82.7v39.4l134.5 1.9v-70.5c.2-29.4-23.9-53.5-53.4-53.5z"/><path class="st4" d="M601 362.7h-8.6c-4.2 0-7.5-3.4-7.5-7.5v-26.9h-34.4v26.9c0 4.2-3.4 7.5-7.5 7.5h-7.6c-29.5 0-53.2 24.1-53.2 53.5v70.5h172.5v-70.5c-.1-29.3-24.2-53.5-53.7-53.5z"/><g id="XMLID_30_"><path class="st49" d="M637.9 227.3v41.8c0 34.7-28.4 63.1-63.1 63.1h-14.7c-34.7 0-63.1-28.4-63.1-63.1V226c0-5.9 3-16.5 7.4-25.6 4.5-9.1 10.4-16.8 16.3-16.8 0 0 24.4-3.7 49.7-3.7 23.6 0 48.2 3.7 48.2 3.7 11.9 0 19.3 31.9 19.3 43.7z"/><path class="st50" d="M496.7 229.4l16.1-21c3.2-4.1-21.3 27.9-16.1 28.8 0 0 21.1-11.1 34.6-15.4 20.7-6.6 41.6-15.2 52.8-28.2 12.2 1.9 21 7.1 32 13 4.3 2.3 21.4 21.5 21.4 21.5 0-5.9-5-12.5-9.4-21.6-4.5-9.1-8.4-13-14.3-13 0 0-21.8-10.9-47.1-10.9-23.6 0-52.8 10.1-52.8 10.1-11.7 0-17.2 24.9-17.2 36.7zM567.7 319.3c59.8 0 70.3-50.1 70.3-50.1 0 34.7-28.4 63.1-63.1 63.1h-14.7c-34.7 0-63.1-28.4-63.1-63.1 0 0 10.6 50.1 70.6 50.1z"/><path class="st4" d="M574.9 332.2h-14.7c-34.7 0-63.1-28.4-63.1-63.1V226c0-5.9 3-16.5 7.4-25.6 4.5-9.1 10.4-16.8 16.3-16.8 0 0 24.4-3.7 49.7-3.7 23.6 0 48.2 3.7 48.2 3.7 11.8 0 19.2 31.9 19.2 43.7v41.8c0 34.7-28.3 63.1-63 63.1z"/></g><path class="st5" d="M528.7 364.2c-3.8.6-7.4 1.7-10.8 3 0 26.5 22.5 47.9 50.3 47.9 27.8 0 50.3-21.5 50.3-47.9v-.4c-3.2-1.2-6.5-2.1-9.9-2.7-.2 21.9-18 39.5-39.9 39.5-22 .2-39.8-17.5-40-39.4z"/><path class="st51" d="M484.7 271.2c.8-30.7 17.4-50.6 59.3-64.3 41.9-13.6 42.4-38.5 42.4-38.5l-48-9.1-34.8 24.4-19 24.6-9.4 45.5 9.5 17.4z"/><path class="st52" d="M528.3 240.6c1.8-3.5 5.4-5.9 9.6-6.1 4.2-.2 8 2 10.1 5.3M587.4 238c2.6-2.9 6.7-4.4 10.8-3.6 4.1.9 7.3 3.8 8.5 7.6"/><path class="st7" d="M567.4 265.6s1.8 7.8 4.7 11c0 0-5 4.2-9.4 4.2M591.8 288.5s-2.6 10.4-16.6 11.5"/><path class="st8" d="M530.4 399.1c-1.8-1.9-3.5-4-5-6.3M562.1 415c-8.7-1-16.7-4.2-23.6-9M609.6 394.7c-8.6 11.4-21.9 19.2-37 20.5M614.5 386.9c-.7 1.4-1.5 2.8-2.3 4.1M520.8 376.3c.5 2 1.1 3.9 1.8 5.8M521.4 386c-1-2.2-1.9-4.4-2.7-6.7"/><path class="st26" d="M568.9 265.8s3.8 4.8 6.4 9.2c1.6 2.7.4 6.1-2.5 7.2-3.1 1.1-7.1 1.9-10.8 0l9.4-5.7-2.5-10.7z"/><circle class="st44" cx="606.7" cy="265.9" r="11.8"/><circle class="st44" cx="530.4" cy="265.9" r="11.8"/><path class="st53" d="M654.6 416.3v70.5H520.1v-39.4l-38.2-.5v-36.4s4.3-20.1 15.9-32.3c10.7-11.3 28.8-14.8 28.8-14.8.2 22.8 32.5 41.5 41.6 41.2 8.8 0 41.3-18.4 41.6-41.2 25.3 4.3 44.8 26.4 44.8 52.9z"/><path class="st4" d="M609.7 363.5c-.2 22.6-33.3 40.9-41.4 41.1-8.1-.3-41.2-18.5-41.4-41.1-25.4 4.2-44.8 26.3-44.8 52.8v30.6l37.9.5v39.4l48.1.6h.4l48.1-.6v-39.4l37.9-.5v-30.6c.1-26.5-19.4-48.6-44.8-52.8z"/><path class="st11" d="M616.6 426.4v60.4M520.8 426.4v60.4"/><g id="XMLID_23_"><path class="st49" d="M616.6 447.4h37.9v40h-37.9z"/><path class="st50" d="M616.6 445.5h37.9v9.2h-37.9z"/><path class="st12" d="M616.6 447.4h37.9v39h-37.9z"/></g><g id="XMLID_22_"><path class="st49" d="M482.3 447.4h37.9v40h-37.9z"/><path class="st50" d="M482.3 445.5h37.9v9.2h-37.9z"/><path class="st12" d="M482.3 447.4h37.9v39h-37.9z"/></g><path class="st51" d="M580.6 183.9s25.4 7.8 40 19.7c10.7 8.7 21.5 22.4 21.5 22.4h5.2l1-44.6-34.2-17.9-28.8-14-18.7 25 14 9.4z"/><path class="st54" d="M587.5 168.4s-.5 24.9-42.4 38.5c-32.7 10.6-61.6 28-60.4 64.3"/><path class="st54" d="M580.6 183.9s25.4 7.8 40 19.7c10.7 8.7 25.1 31 25.1 31"/><path class="st55" d="M648.9 211.5c0 .5 3.2 1.5-3-15.3M524.7 182.8s18.7-6.8 34.1-28.6M542.7 182.8s10.3-8.4 15.1-13.5M563.3 166.2s4.6-3.9 7.2-12M558 182.8s13.5-6.8 17.6-19.2M499.9 208.6c1.9-1.9 4.1-3.6 6.6-5.1M488.8 227.2s1.1-5.7 7.1-13.9M622.5 167.2s-4.2-4-13.8-7.3M479 253.5c0-2.7.4-5.5 1.2-8.2M484.1 274.5s-3.2-4.8-4.7-14.9M652.6 248.8c1-2.5 2.2-5 3.9-7.3M650.1 270.3s-1.4-5.6.7-15.6M642.4 189.6c-1.3-2.3-2.9-4.6-4.9-6.7"/><path class="st13" d="M556.1 440c-3.5 8.1-13 11.8-21.1 8.2M608.1 440c-3.5 8.1-13 11.8-21.1 8.2"/></g><path class="st56" d="M28.2 496.1c2.6.8 7.5 2.5 12.2 2.9 3.9.3 7.7.3 11.6.4 4.8.1 10.3.3 15.7.6 13.2.8 26.1 2.6 39.3 3.8 13.9 1.2 28.2 1.8 42.5 1.7 2.7 3.8 7.7 6.4 13.6 8.2 7.9 4.4 17.1 4.4 27.9 2.9l4.2-.6c14.1-1.1 28-3.5 42-5.1 16.3-1.8 32.8-3.2 49.3-4.5 15.8-1.2 33.2-.7 48.8-3.2 40.2 3.4 80.8 4 121.4 4.7 52.3.8 105.1-.7 157.4-2.7 52.4-2 104.5.7 156.8-2.2 25.6-1.4 51.4-2.4 77.1-1.7 25.3.7 50.1-1.6 75.3-.3 28.6 1.5 56.2-1.3 84.3-4.6 13.1-1.5 26.3 1 39.6.3 14-.8 78-.5 92-1.1 16.3-.8 21.2-20.2 5.7-24.4-23.8-6.5-100.3-4.4-125.2-2.2-24.5 2.2-49.1 5.2-74 5.2-23.9 0-47.7-3.8-71.4-5.5-26.9-1.9-54.1-1.9-81.1-1.1-52.9 1.6-105.6 5.3-158.5 7-52.4 1.7-104.9 2.8-157.3 3.3-38.6.4-77.4.7-116 2.4-.8-.4-1.5-.7-2.3-1.1-8.3-3.6-17.5-6-27.2-7.6-19.4-3.2-39.9-2.6-59.3.2-14.9 2.1-29.1 5.4-43.2 8.9-13.8 1.5-27.6 2.9-41.7 3.2-12.8.3-25.7.1-38.4-1.3-13.6-1.5-26.8-4.1-40.2-6.1-13.3-2-26.6-4.3-40.2-5.1-7.7-.5-15.7-.7-23.3 0-3.7.3-7.7.7-11.2 1.6-5.2 1.3-7.9 3.7-11.7 6-8.7 5-3.6 14.2 5.5 17.1z"/><path class="st57" d="M676.3 486.6h32.4M25.6 487.9H58M493 487.1h161.6M760.3 487.1h206.9M998.7 487.1h130.8M202.4 487.1H438"/><path class="st58" d="M89.4 487.9h82.4"/><path class="st59" d="M434.3 151.7c0-.2.1-.4.1-.6.1-.5.2-.9.2-1.4 0-.2 0-.4.1-.6.1-.7.1-1.3.1-2v-44.3c0-11.9-9.7-21.6-21.6-21.6H311.7c-11.9 0-21.6 9.7-21.6 21.6v27.6s-1 14.8-13.1 35.2c-2.8 4.7 1.5 10.5 6.8 9.1 9.3-2.4 22-5 36.5-6h92.8c.6 0 1.2 0 1.8-.1h.2c.2 0 .4-.1.6-.1.3 0 .6-.1.9-.1.2 0 .3-.1.5-.1s.4-.1.7-.1c.2 0 .4-.1.5-.1.2-.1.5-.1.7-.2h.1c.2-.1.4-.1.6-.2.1 0 .2-.1.3-.1.2-.1.5-.2.7-.3.3-.1.5-.2.8-.3h.2c.2-.1.5-.2.7-.3.3-.1.6-.3.8-.4.1 0 .1-.1.2-.1.2-.1.3-.2.5-.3.3-.1.5-.3.8-.5.1-.1.3-.2.4-.3.2-.1.3-.2.5-.3.2-.1.3-.2.5-.3.2-.1.4-.3.6-.5.2-.1.3-.2.5-.4.1-.1.2-.1.3-.2.2-.2.4-.4.6-.5.2-.1.3-.3.5-.4l.1-.1.1-.1c.2-.2.4-.4.5-.6l.6-.6c0-.1.1-.1.1-.1.1-.1.2-.2.2-.3 0-.1.1-.1.1-.2.2-.2.4-.5.5-.7.1-.1.2-.2.2-.4.1-.2.2-.3.3-.5.1-.2.2-.4.4-.6l.3-.6c.1-.2.2-.3.3-.5.1-.1.1-.2.2-.4s.2-.5.3-.7c.1-.2.1-.3.2-.5 0-.1.1-.1.1-.2s0-.1.1-.2c.1-.3.2-.5.3-.8.1-.2.2-.4.3-.7 0-.1.1-.2.1-.3v-.1c.1-.4.3-1 .4-1.6zM434.3 267.8c0-.2.1-.4.1-.6.1-.5.2-.9.2-1.4 0-.2 0-.4.1-.6.1-.7.1-1.3.1-2v-44.3c0-11.9-9.7-21.6-21.6-21.6H311.7c-11.9 0-21.6 9.7-21.6 21.6v27.6s-1 14.8-13.1 35.2c-2.8 4.7 1.5 10.5 6.8 9.1 9.3-2.4 22-5 36.5-6h92.8c.6 0 1.2 0 1.8-.1h.2c.2 0 .4-.1.6-.1.3 0 .6-.1.9-.1.2 0 .3-.1.5-.1s.4-.1.7-.1c.2 0 .4-.1.5-.1.2-.1.5-.1.7-.2h.1c.2-.1.4-.1.6-.2.1 0 .2-.1.3-.1.2-.1.5-.2.7-.3.3-.1.5-.2.8-.3h.2c.2-.1.5-.2.7-.3.3-.1.6-.3.8-.4.1 0 .1-.1.2-.1.2-.1.3-.2.5-.3.3-.1.5-.3.8-.5.1-.1.3-.2.4-.3.2-.1.3-.2.5-.3.2-.1.3-.2.5-.3.2-.1.4-.3.6-.5.2-.1.3-.2.5-.4.1-.1.2-.1.3-.2.2-.2.4-.4.6-.5.2-.1.3-.3.5-.4l.1-.1.1-.1c.2-.2.4-.4.5-.6l.6-.6c0-.1.1-.1.1-.1.1-.1.2-.2.2-.3 0-.1.1-.1.1-.2.2-.2.4-.5.5-.7.1-.1.2-.2.2-.4.1-.2.2-.3.3-.5.1-.2.2-.4.4-.6l.3-.6c.1-.2.2-.3.3-.5.1-.1.1-.2.2-.4s.2-.5.3-.7c.1-.2.1-.3.2-.5 0-.1.1-.1.1-.2s0-.1.1-.2c.1-.3.2-.5.3-.8.1-.2.2-.4.3-.7 0-.1.1-.2.1-.3v-.1c.1-.4.3-1 .4-1.6zM434.3 427.8c0-.2.1-.4.1-.6.1-.5.2-.9.2-1.4 0-.2 0-.4.1-.6.1-.7.1-1.3.1-2V379c0-11.9-9.7-21.6-21.6-21.6H311.7c-11.9 0-21.6 9.7-21.6 21.6v27.6s-1 14.8-13.1 35.2c-2.8 4.7 1.5 10.5 6.8 9.1 9.3-2.4 22-5 36.5-6h92.8c.6 0 1.2 0 1.8-.1h.2c.2 0 .4-.1.6-.1.3 0 .6-.1.9-.1.2 0 .3-.1.5-.1s.4-.1.7-.1c.2 0 .4-.1.5-.1.2-.1.5-.1.7-.2h.1c.2-.1.4-.1.6-.2.1 0 .2-.1.3-.1.2-.1.5-.2.7-.3.3-.1.5-.2.8-.3h.2c.2-.1.5-.2.7-.3.3-.1.6-.3.8-.4.1 0 .1-.1.2-.1.2-.1.3-.2.5-.3.3-.1.5-.3.8-.5.1-.1.3-.2.4-.3.2-.1.3-.2.5-.3.2-.1.3-.2.5-.3.2-.1.4-.3.6-.5.2-.1.3-.2.5-.4.1-.1.2-.1.3-.2.2-.2.4-.4.6-.5.2-.1.3-.3.5-.4l.1-.1.1-.1c.2-.2.4-.4.5-.6l.6-.6c0-.1.1-.1.1-.1.1-.1.2-.2.2-.3 0-.1.1-.1.1-.2.2-.2.4-.5.5-.7.1-.1.2-.2.2-.4.1-.2.2-.3.3-.5.1-.2.2-.4.4-.6l.3-.6c.1-.2.2-.3.3-.5.1-.1.1-.2.2-.4s.2-.5.3-.7c.1-.2.1-.3.2-.5 0-.1.1-.1.1-.2s0-.1.1-.2c.1-.3.2-.5.3-.8.1-.2.2-.4.3-.7 0-.1.1-.2.1-.3v-.1c.1-.5.3-1.1.4-1.7z"/><g id="XMLID_21_"><path class="st60" d="M426.6 210.1v44.3c0 11.9-9.7 21.6-21.6 21.6h-92.8c-14.5 1.1-27.2 3.6-36.5 6-5.3 1.4-9.6-4.4-6.8-9.1 12-20.4 13.1-35.2 13.1-35.2v-27.6c0-11.9 9.7-21.6 21.6-21.6H405c11.9.1 21.6 9.7 21.6 21.6z"/><path class="st61" d="M425.5 261.2c-2.8 8.6-10.9 14.8-20.5 14.8h-92.8c-14.5 1.1-27.2 3.6-36.5 6 6.9-29.9 149.8-20.8 149.8-20.8z"/><path class="st62" d="M405 188.6H303.5c-11.9 0-21.6 9.7-21.6 21.6v27.6s-1 14.8-13.1 35.2c-2.8 4.7 1.5 10.5 6.8 9.1 9.3-2.4 22-5 36.5-6H405c9.7 0 17.9-6.4 20.6-15.1.6-2 1-4.2 1-6.4v-44.3c0-12.1-9.7-21.7-21.6-21.7z"/></g><path class="st63" d="M339.9 223.1h-37.1c-2 0-3.7-1.6-3.7-3.7v-7.1c0-2 1.6-3.7 3.7-3.7h37.1c2 0 3.7 1.6 3.7 3.7v7.1c0 2-1.7 3.7-3.7 3.7zM361.8 223.1h-7.2c-2 0-3.7-1.6-3.7-3.7v-7.1c0-2 1.6-3.7 3.7-3.7h7.2c2 0 3.7 1.6 3.7 3.7v7.1c0 2-1.7 3.7-3.7 3.7zM393.6 223.1h-17.2c-2 0-3.7-1.6-3.7-3.7v-7.1c0-2 1.6-3.7 3.7-3.7h17.2c2 0 3.7 1.6 3.7 3.7v7.1c0 2-1.6 3.7-3.7 3.7zM330.2 247.6h-27.3c-2 0-3.7-1.6-3.7-3.7v-7.1c0-2 1.6-3.7 3.7-3.7h27.3c2 0 3.7 1.6 3.7 3.7v7.1c0 2-1.7 3.7-3.7 3.7zM360.9 247.6h-15.5c-2 0-3.7-1.6-3.7-3.7v-7.1c0-2 1.6-3.7 3.7-3.7h15.5c2 0 3.7 1.6 3.7 3.7v7.1c0 2-1.6 3.7-3.7 3.7z"/><circle class="st64" cx="384.7" cy="239.4" r="9.1"/><circle class="st65" cx="387.6" cy="237.4" r="1.2"/><circle class="st65" cx="382.1" cy="237.4" r="1.2"/><path class="st66" d="M381.6 241.8c.9 1.1 2.3 1.7 3.8 1.6 1.2-.1 2.2-.7 2.9-1.6"/><ellipse transform="rotate(-70.918 469.522 144.796)" class="st67" cx="469.5" cy="144.8" rx="7" ry="7"/><ellipse transform="rotate(-70.918 224.82 325.234)" class="st67" cx="224.8" cy="325.2" rx="7" ry="7"/><ellipse transform="rotate(-70.918 318.02 404.292)" class="st67" cx="318" cy="404.3" rx="7" ry="7"/><ellipse transform="rotate(-70.918 362.977 123.436)" class="st67" cx="363" cy="123.4" rx="7" ry="7"/><path class="st68" d="M484.9 71.3l-1.6 19.9M242.1 172.4l18.5 7.3M288.7 131.9l-1.5 19.8M456.8 326.7l17.3 9.8"/><g><path class="st60" d="M425.4 321.5v94.3c0 11.9-9.7 21.6-21.6 21.6H311c-14.5 1.1-27.2 3.6-36.5 6-5.3 1.4-9.6-4.4-6.8-9.1 12-20.3 13.1-35.2 13.1-35.2v-77.6c0-11.9 9.7-21.6 21.6-21.6h101.5c11.8 0 21.5 9.6 21.5 21.6z"/><path class="st63" d="M425.4 321.5v33.1H280.8v-33.1c0-11.9 9.7-21.6 21.6-21.6h101.5c11.8 0 21.5 9.6 21.5 21.6z"/><path class="st61" d="M424.3 422.5c-2.8 8.6-10.9 14.8-20.5 14.8H311c-14.5 1.1-27.2 3.6-36.5 6 6.9-29.9 149.8-20.8 149.8-20.8z"/><path class="st62" d="M403.8 299.9H302.3c-11.9 0-21.6 9.7-21.6 21.6v77.6s-1 14.8-13.1 35.2c-2.8 4.7 1.5 10.5 6.8 9.1 9.3-2.4 22-5 36.5-6h92.8c9.7 0 17.9-6.4 20.6-15.1.6-2 1-4.2 1-6.4v-94.3c.1-12.1-9.6-21.7-21.5-21.7z"/><path class="st63" d="M344.5 386.3h-37.1c-2 0-3.7-1.6-3.7-3.7v-7.1c0-2 1.6-3.7 3.7-3.7h37.1c2 0 3.7 1.6 3.7 3.7v7.1c0 2.1-1.7 3.7-3.7 3.7zM366.4 386.3h-7.2c-2 0-3.7-1.6-3.7-3.7v-7.1c0-2 1.6-3.7 3.7-3.7h7.2c2 0 3.7 1.6 3.7 3.7v7.1c0 2.1-1.7 3.7-3.7 3.7zM398.3 386.3h-17.2c-2 0-3.7-1.6-3.7-3.7v-7.1c0-2 1.6-3.7 3.7-3.7h17.2c2 0 3.7 1.6 3.7 3.7v7.1c-.1 2.1-1.7 3.7-3.7 3.7zM334.8 410.8h-27.3c-2 0-3.7-1.6-3.7-3.7V400c0-2 1.6-3.7 3.7-3.7h27.3c2 0 3.7 1.6 3.7 3.7v7.1c0 2.1-1.6 3.7-3.7 3.7zM365.5 410.8H350c-2 0-3.7-1.6-3.7-3.7V400c0-2 1.6-3.7 3.7-3.7h15.5c2 0 3.7 1.6 3.7 3.7v7.1c0 2.1-1.6 3.7-3.7 3.7z"/><path class="st62" d="M425.4 354.6H280.8"/><path class="st60" d="M372.7 336.9l-12.6-16.8c-.8-1-2.2-1-3 0l-6.3 8.5c-.6.9-1.8 1-2.6.3l-2.6-2.1c-.7-.6-1.8-.6-2.5.1l-9.5 9.8c-1.2 1.3-.4 3.5 1.3 3.5h36.3c1.6 0 2.5-1.9 1.5-3.3z"/><ellipse class="st60" cx="339.1" cy="319.4" rx="3.6" ry="3.9"/></g><g><path class="st60" d="M425.4 46v94.3c0 11.9-9.7 21.6-21.6 21.6H311c-14.5 1.1-27.2 3.6-36.5 6-5.3 1.4-9.6-4.4-6.8-9.1 12-20.4 13.1-35.2 13.1-35.2V46c0-11.9 9.7-21.6 21.6-21.6h101.5c11.8 0 21.5 9.6 21.5 21.6z"/></g><g><path class="st63" d="M425.4 46v53.1H280.8V46c0-11.9 9.7-21.6 21.6-21.6h101.5c11.8 0 21.5 9.6 21.5 21.6z"/></g><g><path class="st61" d="M424.3 147c-2.8 8.6-10.9 14.8-20.5 14.8H311c-14.5 1.1-27.2 3.6-36.5 6 6.9-29.9 149.8-20.8 149.8-20.8z"/></g><g><path class="st62" d="M403.8 24.4H302.3c-11.9 0-21.6 9.7-21.6 21.6v77.6s-1 14.8-13.1 35.2c-2.8 4.7 1.5 10.5 6.8 9.1 9.3-2.4 22-5 36.5-6h92.8c9.7 0 17.9-6.4 20.6-15.1.6-2 1-4.2 1-6.4V46c.1-12-9.6-21.6-21.5-21.6z"/></g><path class="st63" d="M334.8 135.3h-27.3c-2 0-3.7-1.6-3.7-3.7v-7.1c0-2 1.6-3.7 3.7-3.7h27.3c2 0 3.7 1.6 3.7 3.7v7.1c0 2.1-1.6 3.7-3.7 3.7zM365.5 135.3H350c-2 0-3.7-1.6-3.7-3.7v-7.1c0-2 1.6-3.7 3.7-3.7h15.5c2 0 3.7 1.6 3.7 3.7v7.1c0 2.1-1.6 3.7-3.7 3.7zM395.4 135.3h-15.5c-2 0-3.7-1.6-3.7-3.7v-7.1c0-2 1.6-3.7 3.7-3.7h15.5c2 0 3.7 1.6 3.7 3.7v7.1c0 2.1-1.7 3.7-3.7 3.7z"/><path class="st62" d="M425.4 99.1H280.8"/><g><path class="st61" d="M409 80.5c0 2-1.9 3.6-4.3 3.6H301.5c-2.4 0-4.3-1.6-4.3-3.6s1.9-3.6 4.3-3.6h103.3c2.3 0 4.2 1.6 4.2 3.6z"/></g><g><path class="st60" d="M315.3 80.5s-1.9 3.6-4.3 3.6h-9.6c-2.4 0-4.3-1.6-4.3-3.6s1.9-3.6 4.3-3.6h9.6c2.4 0 4.3 1.6 4.3 3.6z"/></g><circle class="st69" cx="313.5" cy="80.2" r="4.2"/><path class="st60" d="M358.2 57.5l-11 5.7c-1.2.6-2.6-.3-2.5-1.6l.2-11.6c0-1.3 1.4-2.1 2.6-1.5l10.8 6c1.2.6 1.2 2.4-.1 3z"/><g><path class="st61" d="M580.8 84.4l-.7 1c-.5.7-1.1.8-1.8.3-1-.7-2.6-1.6-4.5-1.6-1.7 0-3.3.9-3.3 2.7 0 3.8 10.7 3.4 10.7 10.2 0 3.3-2.4 5.8-6 6.4v1.7c0 .9-.4 1.3-1.3 1.3h-.2c-.8 0-1.2-.4-1.2-1.1v-1.8c-2.2-.2-3.7-1-4.6-1.6-.7-.4-.8-1.1-.4-1.8l.5-1.1c.4-.8 1-.9 1.8-.4s2.2 1.2 3.8 1.2c1.9 0 3.4-1.1 3.4-2.7 0-3.8-10.7-3.1-10.7-10.2 0-3.2 2.2-6 6.1-6.5v-1.6c0-.9.4-1.3 1.2-1.3h.2c.9 0 1.3.4 1.3 1.1v1.8c2.6.3 4.4 1.4 5.4 2.2.8.4.8 1.1.3 1.8z"/></g><g><path class="st61" d="M604.3 95.3l-.8.4c-.6.3-1 .1-1.3-.4-.4-.7-1.2-1.8-2.5-2.5-1.1-.5-2.4-.5-3 .7-1.2 2.5 5.9 5.6 3.8 10.1-1 2.1-3.4 3-5.9 2.3l-.5 1.1c-.3.6-.7.7-1.2.5l-.1-.1c-.5-.3-.7-.6-.5-1.1l.6-1.2c-1.4-.8-2.1-1.8-2.5-2.5-.3-.5-.2-.9.3-1.3l.7-.5c.5-.4.9-.2 1.3.3.4.6 1.1 1.5 2.1 2 1.2.6 2.6.4 3.1-.7 1.2-2.5-6-5.4-3.8-10.1 1-2.1 3.4-3.2 6.1-2.3l.5-1c.3-.6.7-.7 1.2-.5l.1.1c.6.3.7.7.5 1.1l-.6 1.2c1.6 1 2.5 2.3 2.8 3.1.3.6.1 1.1-.4 1.3z"/></g><g><path class="st59" d="M552.2 90.9l-.1.9c-.1.6-.5.9-1.1.8-.8-.1-2.2-.2-3.5.4-1.1.5-1.9 1.6-1.3 2.8 1.2 2.5 8.1-1.2 10.3 3.2 1 2.1.3 4.6-1.8 6.1l.5 1.1c.3.6.2 1-.4 1.3l-.1.1c-.5.3-.9.1-1.2-.3l-.6-1.2c-1.5.6-2.8.6-3.5.4-.6 0-.8-.5-.8-1v-.9c0-.6.4-.9 1-.8.7.1 1.8.1 2.9-.5 1.2-.6 1.9-1.8 1.4-2.9-1.2-2.5-8 1.4-10.3-3.2-1-2.1-.5-4.6 1.9-6.2l-.5-1c-.3-.6-.2-1 .4-1.3l.1-.1c.6-.3 1-.1 1.2.3l.6 1.2c1.8-.6 3.4-.5 4.2-.3.6 0 .8.5.7 1.1z"/></g><g><path class="st61" d="M787.8 84.4l-.7 1c-.5.7-1.1.8-1.8.3-1-.7-2.6-1.6-4.5-1.6-1.7 0-3.3.9-3.3 2.7 0 3.8 10.7 3.4 10.7 10.2 0 3.3-2.4 5.8-6 6.4v1.7c0 .9-.4 1.3-1.3 1.3h-.2c-.8 0-1.2-.4-1.2-1.1v-1.8c-2.2-.2-3.7-1-4.6-1.6-.7-.4-.8-1.1-.4-1.8l.5-1.1c.4-.8 1-.9 1.8-.4s2.2 1.2 3.8 1.2c1.9 0 3.4-1.1 3.4-2.7 0-3.8-10.7-3.1-10.7-10.2 0-3.2 2.2-6 6.1-6.5v-1.6c0-.9.4-1.3 1.2-1.3h.2c.9 0 1.3.4 1.3 1.1v1.8c2.6.3 4.4 1.4 5.4 2.2.7.4.8 1.1.3 1.8z"/></g><g><path class="st61" d="M811.3 95.3l-.8.4c-.6.3-1 .1-1.3-.4-.4-.7-1.2-1.8-2.5-2.5-1.1-.5-2.4-.5-3 .7-1.2 2.5 5.9 5.6 3.8 10.1-1 2.1-3.4 3-5.9 2.3l-.5 1.1c-.3.6-.7.7-1.2.5l-.1-.1c-.5-.3-.7-.6-.5-1.1l.6-1.2c-1.4-.8-2.1-1.8-2.5-2.5-.3-.5-.2-.9.3-1.3l.7-.5c.5-.4.9-.2 1.3.3.4.6 1.1 1.5 2.1 2 1.2.6 2.6.4 3.1-.7 1.2-2.5-6-5.4-3.8-10.1 1-2.1 3.4-3.2 6.1-2.3l.5-1c.3-.6.7-.7 1.2-.5l.1.1c.6.3.7.7.5 1.1l-.6 1.2c1.6 1 2.5 2.3 2.8 3.1.3.6.1 1.1-.4 1.3z"/></g><g><path class="st61" d="M759.2 90.9l-.1.9c-.1.6-.5.9-1.1.8-.8-.1-2.2-.2-3.5.4-1.1.5-1.9 1.6-1.3 2.8 1.2 2.5 8.1-1.2 10.3 3.2 1 2.1.3 4.6-1.8 6.1l.5 1.1c.3.6.2 1-.4 1.3l-.1.1c-.5.3-.9.1-1.2-.3l-.6-1.2c-1.5.6-2.8.6-3.5.4-.6 0-.8-.5-.8-1v-.9c0-.6.4-.9 1-.8.7.1 1.8.1 2.9-.5 1.2-.6 1.9-1.8 1.4-2.9-1.2-2.5-8 1.4-10.3-3.2-1-2.1-.5-4.6 1.9-6.2l-.5-1c-.3-.6-.2-1 .4-1.3l.1-.1c.6-.3 1-.1 1.2.3l.6 1.2c1.8-.6 3.4-.5 4.2-.3.5 0 .8.5.7 1.1z"/></g><g><path class="st61" d="M1031.6 76.2l-.7 1c-.5.7-1.1.8-1.8.3-1-.7-2.6-1.6-4.5-1.6-1.7 0-3.3.9-3.3 2.7 0 3.8 10.7 3.4 10.7 10.2 0 3.3-2.4 5.8-6 6.4v1.7c0 .9-.4 1.3-1.3 1.3h-.2c-.8 0-1.2-.4-1.2-1.1v-1.8c-2.2-.2-3.7-1-4.6-1.6-.7-.4-.8-1.1-.4-1.8l.5-1.1c.4-.8 1-.9 1.8-.4s2.2 1.2 3.8 1.2c1.9 0 3.4-1.1 3.4-2.7 0-3.8-10.7-3.1-10.7-10.2 0-3.2 2.2-6 6.1-6.5v-1.6c0-.9.4-1.3 1.2-1.3h.2c.9 0 1.3.4 1.3 1.1v1.8c2.6.3 4.4 1.4 5.4 2.2.8.5.8 1.2.3 1.8z"/></g><g><path class="st61" d="M1055.1 87.2l-.8.4c-.6.3-1 .1-1.3-.4-.4-.7-1.2-1.8-2.5-2.5-1.1-.5-2.4-.5-3 .7-1.2 2.5 5.9 5.6 3.8 10.1-1 2.1-3.4 3-5.9 2.3l-.5 1.1c-.3.6-.7.7-1.2.5l-.1-.1c-.5-.3-.7-.6-.5-1.1l.6-1.2c-1.4-.8-2.1-1.8-2.5-2.5-.3-.5-.2-.9.3-1.3l.7-.5c.5-.4.9-.2 1.3.3.4.6 1.1 1.5 2.1 2 1.2.6 2.6.4 3.1-.7 1.2-2.5-6-5.4-3.8-10.1 1-2.1 3.4-3.2 6.1-2.3l.5-1c.3-.6.7-.7 1.2-.5l.1.1c.6.3.7.7.5 1.1l-.6 1.2c1.6 1 2.5 2.3 2.8 3.1.3.5.1 1-.4 1.3z"/></g><g><path class="st61" d="M1003 82.7l-.1.9c-.1.6-.5.9-1.1.8-.8-.1-2.2-.2-3.5.4-1.1.5-1.9 1.6-1.3 2.8 1.2 2.5 8.1-1.2 10.3 3.2 1 2.1.3 4.6-1.8 6.1l.5 1.1c.3.6.2 1-.4 1.3l-.1.1c-.5.3-.9.1-1.2-.3l-.6-1.2c-1.5.6-2.8.6-3.5.4-.6 0-.8-.5-.8-1v-.9c0-.6.4-.9 1-.8.7.1 1.8.1 2.9-.5 1.2-.6 1.9-1.8 1.4-2.9-1.2-2.5-8 1.4-10.3-3.2-1-2.1-.5-4.6 1.9-6.2l-.5-1c-.3-.6-.2-1 .4-1.3l.1-.1c.6-.3 1-.1 1.2.3l.6 1.2c1.8-.6 3.4-.5 4.2-.3.6.1.8.5.7 1.1z"/></g></svg>