<svg width="531" height="367" viewBox="0 0 531 367" xmlns="http://www.w3.org/2000/svg" xmlns:xlink="http://www.w3.org/1999/xlink"><title>party-illustration</title><defs><path d="M9.196.212L.973 14.596c-1.84 3.219-.634 7.33 2.657 9.036 15.341 7.955 31.89 6.943 40.785 5.519 3.681-.59 6.212-4.019 5.731-7.715L47.387.212H9.197z" id="a"/><path d="M23.701.84L.973 40.597c-1.84 3.219-.634 7.33 2.657 9.036 15.341 7.955 31.89 6.943 40.785 5.519 3.681-.59 6.212-4.019 5.731-7.715L44.09.841H23.7z" id="c"/><path d="M.767 52.21L29.416 2.098C30.155.805 31.592.2 33.003.2c1.786-.001 3.53.97 3.76 2.741l6.404 49.269H.767z" id="e"/><path d="M.773 27.712L15.416 2.098C16.155.805 17.592.2 19.003.2c1.786-.001 3.53.97 3.76 2.741l3.22 24.77H.773z" id="g"/></defs><g fill="none" fill-rule="evenodd"><path d="M457.65 168.555c3.27 7.19 6.51 14.59 7.915 22.418 2.527 14.082 2.703 28.806-2.538 42.36-3.647 9.429-7.44 16.145-13.733 24.057-4.324 5.437-10.12 10.106-16.085 13.585-6.664 3.887-14.327 6.673-21.97 7.832-6.53.99-13.074 1.516-19.617 2.2-1.95.367-3.863.834-5.75 1.416-2.69 1.445-5.248 3.1-7.727 4.894-11.672 9.558-22.688 19.838-35.504 27.968-12.866 8.165-27.104 14.53-41.54 19.332-13.755 4.575-28.62 7.6-43.125 7.866-7.84.143-15.992-.761-23.56-2.751-7.349-1.931-14.848-4.976-21.078-9.371a122.654 122.654 0 0 1-16.783-14.238c-2.717-2.751-5.413-5.52-8.31-8.072a39.121 39.121 0 0 0-1.363-.813c-9.83-.266-19.605 2.28-29.496 1.383-7.402-.67-15.047-1.636-22.067-4.244-9.668-3.591-16.799-7.582-24.867-13.93-11.309-8.897-20.43-23.424-22.805-37.685-.77-4.624-1.482-9.377-1.424-14.092.062-4.984.906-10 1.598-14.907.526-3.728 1.203-7.43 1.811-11.144.183-2.058.271-4.113.226-6.174a43.36 43.36 0 0 0-.989-3.336c-4.354-9.064-9.572-17.553-12.922-27.178-5.172-14.856-2.733-30.11 3.732-44.022 4.29-9.233 11.132-17.56 17.54-25.346 5.022-6.102 10.511-11.814 16.343-17.145 13.495-12.338 28.574-23.55 44.541-32.495 16.75-9.385 34.487-17.417 52.45-24.163 10.541-3.96 21.302-7.083 32.543-7.981 8.625-.69 16.76-.274 25.361.399 2.087.164 4.02.45 5.852.919 7.358-5.158 14.828-10.173 22.918-14.113C311.772 4.899 327.307-.2 343.687.007c14.312.18 29.808 4.245 41.514 12.735 5.793 4.2 11.288 8.262 15.79 13.804 5.652 6.96 9.636 13.008 13.077 21.18 5.552 13.185 6.96 27.445 6.183 41.666-.49 8.96-1.53 17.94-.932 26.902.246 1.136.52 2.26.848 3.37a48.103 48.103 0 0 0 1.946 3.162c3.396 3.84 7.058 7.433 10.565 11.178 5.8 6.19 11.17 12.899 16.174 19.732 3.4 4.64 6.413 9.579 8.797 14.819z" fill="#FEB"/><path d="M379.379 180.88a5.418 5.418 0 0 0-7.495-1.534c-.123.08-12.413 8.057-24.086 7.545a707.12 707.12 0 0 1-3.757-.178c-10.77-.525-14.398-.702-28.776 3.396-15.035 4.288-18.985 5.12-26.657 4.2a5.355 5.355 0 0 0-1.614.049 5.385 5.385 0 0 0-4.401 4.676 5.418 5.418 0 0 0 4.725 6.017c3.287.395 6.11.508 8.956.329 5.848-.367 11.779-1.964 21.958-4.866 12.663-3.61 15.085-3.492 25.319-2.993 1.159.056 2.407.118 3.769.178 15.207.672 29.907-8.916 30.526-9.325a5.416 5.416 0 0 0 1.533-7.494" fill="#D3C498"/><path d="M354.22 114.646a5.233 5.233 0 1 1-9.89-3.422 5.233 5.233 0 0 1 9.89 3.422z" stroke="#F9305F" stroke-width="3.01" stroke-linecap="round" stroke-linejoin="round"/><path d="M362.915 237.288a5.231 5.231 0 0 1-6.655 3.233 5.23 5.23 0 0 1-3.235-6.655 5.233 5.233 0 0 1 9.89 3.422zM213.375 65.92a5.233 5.233 0 1 1-9.888-3.423 5.233 5.233 0 0 1 9.888 3.423z" stroke="#F9305F" stroke-width="3.763" stroke-linecap="round" stroke-linejoin="round"/><path d="M161.082 265.566a5.232 5.232 0 1 1-9.89-3.422 5.232 5.232 0 0 1 9.89 3.422z" stroke="#46C3D3" stroke-width="3.01" stroke-linecap="round" stroke-linejoin="round"/><path d="M322.539 43.158l14.821-2.194" stroke="#46C3D3" stroke-width="3.763" stroke-linecap="round" stroke-linejoin="round"/><path d="M158.402 115.13l14.822-2.194" stroke="#842F6D" stroke-width="3.763" stroke-linecap="round" stroke-linejoin="round"/><path d="M403.843 232.436l-1.193 14.936" stroke="#46C3D3" stroke-width="3.763" stroke-linecap="round" stroke-linejoin="round"/><path d="M117.702 212.106l10.57 10.618" stroke="#FBDC30" stroke-width="3.763" stroke-linecap="round" stroke-linejoin="round"/><path d="M329.95 285.233v58.657H204.251v-58.657c0-21.414 17.522-38.943 38.943-38.943h5.557a5.472 5.472 0 0 0 5.472-5.473v-19.57h25.043v19.57a5.474 5.474 0 0 0 5.48 5.473h6.26c21.42 0 38.942 17.53 38.942 38.943" fill="#FBE3D6"/><path d="M315.586 101.71c-4.076-5.25-7.826-6.633-11.65-8.74-10.661-5.879-16.325-17.91-27.33-19.09-16.618-1.781-20.073 10.659-42.235 20.92-13.838 6.407-14.58 7.291-19.433 12.252-14.674 14.994.055 54.8.055 54.8l17.1-18.913 76.16 3.903 8.687 15.01c1.293.292 11.015-44.216-1.354-60.142" fill="#C3996B"/><path d="M315.586 101.71c-4.076-5.25-7.826-6.633-11.65-8.74-10.661-5.879-16.325-17.91-27.33-19.09-16.618-1.781-20.073 10.659-42.235 20.92-13.838 6.407-14.58 7.291-19.433 12.252-14.674 14.994.055 54.8.055 54.8l17.1-18.913 76.16 3.903 8.687 15.01c1.293.292 11.015-44.216-1.354-60.142z" stroke="#3C4249" stroke-width="2.949" stroke-linecap="round" stroke-linejoin="round"/><path d="M244.207 104.894s13.58-4.912 24.797-20.772M257.3 104.894s7.457-6.076 10.973-9.824m4.021-2.217s3.35-2.832 5.229-8.73m-9.131 20.771s9.84-4.912 12.834-13.98m-60.37 20.436a23.618 23.618 0 0 1 4.558-3.978m-12.197 20.303s.955-6.508 4.95-12.759m87.793-11.834a23.638 23.638 0 0 0-4.79-3.694m12.85 17.212s-.79-4.129-5.159-10.124" stroke="#E4C09D" stroke-width="2.949" stroke-linecap="round" stroke-linejoin="round"/><path d="M266.748 230.343c-9.334 0-12.523-5.08-12.523-5.08v-4.135h25.042v4.136s-3.187 5.079-12.52 5.079" fill="#D4B6A5"/><path d="M291.006 246.998h-.252c.017.359.027.72.027 1.083 0 13.076-10.6 23.677-23.676 23.677-13.077 0-23.678-10.601-23.678-23.677 0-.363.01-.724.028-1.083h-.26c-21.42 0-38.943 17.53-38.943 38.944V344.6h125.697v-58.658c0-21.414-17.522-38.944-38.943-38.944" fill="#ECD2C4"/><path d="M291.006 246.29h-6.26a5.473 5.473 0 0 1-5.478-5.473v-19.571h-25.043v19.571a5.472 5.472 0 0 1-5.472 5.473h-5.558c-21.42 0-38.943 17.529-38.943 38.943v58.658h125.697v-58.658c0-21.414-17.522-38.943-38.943-38.943z" stroke="#3C4249" stroke-width="3.544" stroke-linecap="round" stroke-linejoin="round"/><path d="M329.95 285.233v58.657H204.251v-58.657c0-19.26 14.177-35.37 32.613-38.412.17 16.558 13.638 29.934 30.24 29.934 16.593 0 30.068-13.376 30.231-29.934 18.436 3.041 32.613 19.152 32.613 38.412" fill="#83BDE1"/><path d="M317.843 147.804v30.423c0 25.221-20.634 45.855-45.854 45.855H261.27c-25.22 0-45.855-20.634-45.855-45.855V146.82c0-4.296 2.169-11.994 5.408-18.629 3.24-6.635 7.557-12.192 11.845-12.192 0 0 17.6 6.876 35.974 6.876 17.189 0 35.236-6.876 35.236-6.876 8.584 0 13.964 23.222 13.964 31.806" fill="#FBE3D6"/><path d="M317.843 142.152l-11.741-15.266a10.32 10.32 0 0 0-9.798-3.9l-15.811 4.406c-1.283.358-2.585.651-3.906.824a74.807 74.807 0 0 1-19.081.056 31.712 31.712 0 0 1-4.88-1.009l-14.858-4.307a10.32 10.32 0 0 0-9.454 3.404l-12.898 14.807c0-4.296 3.603-9.072 6.842-15.706 3.239-6.635 6.123-9.463 10.41-9.463 0 0 17.602 6.876 35.975 6.876 17.189 0 36.618-7.422 36.618-7.422 8.584 0 12.582 18.116 12.582 26.7m-51.097 72.538c43.477 0 51.097-36.463 51.097-36.463 0 25.22-20.634 45.855-45.855 45.855H261.27c-25.22 0-45.854-20.635-45.854-45.855 0 0 7.719 36.462 51.33 36.462" fill="#D4B6A5"/><path d="M271.988 224.082H261.27c-25.22 0-45.854-20.634-45.854-45.854v-31.409c0-4.296 2.17-11.994 5.408-18.629 3.24-6.634 7.556-12.191 11.845-12.191 0 0 17.6 6.875 35.973 6.875 17.19 0 35.237-6.875 35.237-6.875 8.584 0 13.963 23.221 13.963 31.805v30.424c0 25.22-20.633 45.854-45.854 45.854z" stroke="#3C4249" stroke-width="3.544" stroke-linecap="round" stroke-linejoin="round"/><path d="M315.012 187.814c-11.694 3.335-16.473 4.491-21.245 4.523a2.16 2.16 0 0 0-2.618-1.863l-24.763 5.594a2.158 2.158 0 0 0-1.678 2.239l.155 2.466a2.156 2.156 0 0 0 1.848 1.999l25.34 3.609a2.155 2.155 0 0 0 1.769-.551 2.159 2.159 0 0 0 .69-1.68c3.604-.086 7.062-.617 11.23-1.585 8.168-11.056 9.272-14.751 9.272-14.751" fill="#D3B6A6"/><path d="M238.398 247.372a36.995 36.995 0 0 0-7.869 2.216c0 19.25 16.374 34.854 36.571 34.854 20.198 0 36.571-15.605 36.571-34.855 0-.088-.005-.175-.006-.263a37.052 37.052 0 0 0-7.18-1.952c-.158 15.905-13.102 28.754-29.04 28.754-15.947 0-28.883-12.849-29.047-28.754" fill="#B4DEF3"/><path d="M297.336 246.821c-.163 16.56-13.638 29.935-30.231 29.935-16.602 0-30.07-13.376-30.24-29.935-18.436 3.041-32.613 19.152-32.613 38.412v58.657h125.697v-58.657c0-19.26-14.176-35.37-32.613-38.412z" stroke="#3C4249" stroke-width="3.544" stroke-linecap="round" stroke-linejoin="round"/><path d="M240.328 153.552a8.267 8.267 0 0 1 7.163-4.134 8.267 8.267 0 0 1 7.163 4.134" fill="#FBE4D6"/><path d="M240.328 153.552a8.267 8.267 0 0 1 7.163-4.134 8.267 8.267 0 0 1 7.163 4.134" stroke="#3C4249" stroke-width="2.451" stroke-linecap="round" stroke-linejoin="round"/><path d="M276.553 153.552a8.27 8.27 0 0 1 7.163-4.134 8.267 8.267 0 0 1 7.163 4.134" fill="#FBE4D6"/><path d="M276.553 153.552a8.27 8.27 0 0 1 7.163-4.134 8.267 8.267 0 0 1 7.163 4.134" stroke="#3C4249" stroke-width="2.451" stroke-linecap="round" stroke-linejoin="round"/><path d="M268.638 168.585s1.3 5.67 3.426 8.033c0 0-3.634 3.072-6.852 3.072m-.674 23.273s4.473-6.382-1.56-14.6" stroke="#3C4249" stroke-width="2.835" stroke-linecap="round" stroke-linejoin="round"/><path stroke="#000" stroke-width="2.835" stroke-linecap="round" stroke-linejoin="round" opacity=".1" d="M262.674 255.034l4.726 4.253 4.134-4.253"/><path d="M239.615 272.712a38.001 38.001 0 0 1-3.669-4.55m26.728 16.162a37.546 37.546 0 0 1-17.153-6.514m51.745-8.269c-6.28 8.323-15.926 13.965-26.913 14.901m30.459-20.586a37.759 37.759 0 0 1-1.697 3.002m4.589-10.714a37.428 37.428 0 0 1-1.342 4.221m-69.298 2.827a37.348 37.348 0 0 1-1.944-4.882" stroke="#3C4249" stroke-width="2.127" stroke-linecap="round" stroke-linejoin="round"/><path d="M270.174 168.935s2.74 3.445 4.669 6.563c1.17 1.895.295 4.393-1.797 5.157-2.224.81-5.172 1.332-7.834.002l6.852-4.038-1.89-7.684z" fill="#000" opacity=".1"/><path d="M303.704 178.007a8.551 8.551 0 1 1-17.102 0 8.551 8.551 0 0 1 17.102 0m-55.537 0a8.551 8.551 0 1 1-17.103 0 8.551 8.551 0 0 1 17.103 0" fill="#BE1E2D" opacity=".1"/><path d="M301.558 151.216a9.987 9.987 0 0 1-.9-1.584 9.153 9.153 0 0 1-.233-.477 2.244 2.244 0 0 1-1.511-.205c.843.992 1.818 1.897 2.894 2.573a3.288 3.288 0 0 1-.25-.307" fill="#FFEFBB"/><path d="M231.96 299.611v43.948" fill="#85BEE1"/><path d="M231.96 299.611v43.948" stroke="#3C4249" stroke-width="3.544" stroke-linecap="round" stroke-linejoin="round"/><path fill="#FBE3D6" d="M204.373 343.976h27.588v-29.091h-27.588z"/><path fill="#000" opacity=".1" d="M204.373 321.585h27.588v-6.7h-27.588z"/><path stroke="#3C4249" stroke-width="3.444" stroke-linecap="round" stroke-linejoin="round" d="M204.373 343.976h27.588v-29.091h-27.588z"/><path d="M301.922 299.611v43.948" fill="#85BEE1"/><path d="M301.922 299.611v43.948" stroke="#3C4249" stroke-width="3.544" stroke-linecap="round" stroke-linejoin="round"/><path fill="#FBE3D6" d="M301.922 343.976h27.588v-29.091h-27.588z"/><path fill="#000" opacity=".1" d="M301.922 321.585h27.588v-6.7h-27.588z"/><path stroke="#3C4249" stroke-width="3.444" stroke-linecap="round" stroke-linejoin="round" d="M301.922 343.976h27.588v-29.091h-27.588z"/><path d="M12.194 350.14c1.256.628 3.597 1.894 5.86 2.163 1.888.225 3.704.239 5.592.285 2.325.057 4.961.226 7.565.466 6.364.587 12.586 1.964 18.906 2.833 6.671.917 13.567 1.319 20.452 1.312 1.322 2.855 3.7 4.84 6.538 6.155 3.822 3.3 8.255 3.329 13.452 2.207a64.65 64.65 0 0 0 2-.467c6.773-.825 13.506-2.644 20.203-3.826 7.861-1.388 15.807-2.436 23.735-3.368 7.614-.896 15.984-.537 23.476-2.421 19.34 2.572 38.91 3.046 58.46 3.5 25.202.587 50.621-.53 75.775-2.028 25.226-1.504 50.342-4.004 75.515-6.15 12.321-1.051 24.742-1.845 37.11-1.274 12.201.562 24.126 3.297 36.274 4.305 13.78 1.144 27.085-1.002 40.597-3.468 6.32-1.154 12.66-2.223 19.063-2.791 6.731-.598 13.471-.35 20.208-.86 7.844-.593 10.218-12.213 2.756-15.385-11.456-4.873-24.199-3.338-36.225-1.637-11.807 1.67-23.666 3.885-35.627 3.892-11.507.007-22.948-2.86-34.379-4.125-12.955-1.433-26.046-1.447-39.052-.834-25.473 1.202-50.85 4.019-76.328 5.279a2334.568 2334.568 0 0 1-75.759 2.519c-18.567.315-37.28.49-55.866 1.78a24.037 24.037 0 0 0-1.113-.793c-4.018-2.672-8.426-4.492-13.088-5.714-9.326-2.446-19.23-1.947-28.55.142-7.169 1.607-14.009 4.049-20.8 6.715-6.633 1.132-13.277 2.172-20.072 2.398-6.185.205-12.379.047-18.487-1.005-6.57-1.132-12.903-3.076-19.379-4.601-6.388-1.504-12.833-3.203-19.38-3.847-3.688-.363-7.549-.558-11.223-.032-1.794.257-3.727.526-5.407 1.198-2.492.999-3.8 2.79-5.633 4.543-4.032 3.858-1.538 10.754 2.831 12.935" fill="#E0E7EE"/><path d="M495.831 345.17h24.588m-518.834.636h24.588m413.632-.636h45.244m-128.483 0h61.383m-142.215 0h24.588m-80.614 0h45.244" stroke="#3C4249" stroke-width="3.171" stroke-linecap="round" stroke-linejoin="round"/><path d="M50.028 345.806h62.59" stroke="#3C4249" stroke-width="3.202" stroke-linecap="round" stroke-linejoin="round"/><path d="M248.21 106.538c-3.426-1.695-4.672-5.802-2.74-9.03l35.113-58.637c1.76-2.939 7.247-2.354 7.666.818l8.51 64.486c.49 3.695-2.164 7.131-6.007 7.734-9.286 1.461-26.565 2.532-42.541-5.37" fill="#896646"/><path d="M295.144 100.664c.483 3.696-2.048 7.122-5.728 7.71-8.894 1.429-25.447 2.44-40.785-5.517-3.29-1.706-4.498-5.817-2.657-9.037l33.442-58.496c1.676-2.933 6.937-2.33 7.35.844l8.378 64.496z" fill="#F4DE85"/><g transform="translate(245 79.226)"><mask id="b" fill="#fff"><use xlink:href="#a"/></mask><path fill="#F94854" mask="url(#b)" d="M90.462 56.08l-124.47-45.045L-30.091.212l124.47 45.045z"/></g><g transform="translate(245 53.226)"><mask id="d" fill="#fff"><use xlink:href="#c"/></mask><path fill="#F94854" mask="url(#d)" d="M88.338 56.709l-124.47-45.045L-32.215.84 92.254 45.886z"/></g><g transform="translate(250 33.226)"><mask id="f" fill="#fff"><use xlink:href="#e"/></mask><path fill="#F94854" mask="url(#f)" d="M81.286 52.21L-43.183 7.165l3.917-10.823 124.47 45.045z"/></g><g transform="translate(264 33.226)"><mask id="h" fill="#fff"><use xlink:href="#g"/></mask><path fill="#F94854" mask="url(#h)" d="M65.235 27.712L-59.234-17.334l3.916-10.823L69.152 16.89z"/></g><path d="M295.144 100.664c.483 3.696-4.151 9.03-18.526 9.004l2.797-74.344c1.677-2.933 6.937-2.33 7.35.844l8.38 64.496z" fill="#FFF" opacity=".4"/><path d="M248.631 102.857c-3.29-1.707-4.498-5.817-2.658-9.038l33.443-58.496c1.676-2.932 6.936-2.328 7.35.845l8.378 64.496c.484 3.695-2.049 7.122-5.728 7.71-8.894 1.428-25.448 2.44-40.785-5.517z" stroke="#3C4249" stroke-width="3.292" stroke-linecap="round" stroke-linejoin="round"/><path d="M289.481 32.916a6.216 6.216 0 1 1-12.389 1.037 6.216 6.216 0 1 1 12.39-1.038" fill="#F4DE85"/><path d="M289.481 32.916a6.216 6.216 0 1 1-12.389 1.037 6.216 6.216 0 1 1 12.39-1.038z" stroke="#3C4249" stroke-width="3.292" stroke-linecap="round" stroke-linejoin="round"/><path d="M286.302 91.15l.476 5.682m-2.196-26.224l.91 10.875m-2.918-34.856l1.254 14.97m-.68-29.817a1.659 1.659 0 0 1 1.792 1.516" stroke="#FFF" stroke-width="3.219" stroke-linecap="round" stroke-linejoin="round"/><path stroke="#842F6D" stroke-width="3.763" stroke-linecap="round" stroke-linejoin="round" d="M378.975 62.278l2.38 4.352 4.35 2.38-4.35 2.38-2.38 4.351-2.38-4.352-4.351-2.38 4.35-2.379zm50.092 110.68l2.38 4.352 4.351 2.38-4.35 2.38-2.38 4.352-2.38-4.352-4.352-2.38 4.351-2.38z"/><path stroke="#F9305F" stroke-width="3.01" stroke-linecap="round" stroke-linejoin="round" d="M165.813 180.51l4.941.43 4.392-2.303-.43 4.94 2.303 4.393-4.94-.43-4.393 2.303.43-4.94z"/><path d="M374.516 178.3s-13.684 9.036-27.305 8.434c-13.621-.602-15.782-1.267-30.811 3.018-15.03 4.285-19.921 5.433-28.784 4.368" fill="#F64A58"/><path d="M374.516 178.3s-13.684 9.036-27.305 8.434c-13.621-.602-15.782-1.267-30.811 3.018-15.03 4.285-19.921 5.433-28.784 4.368" stroke="#3C4249" stroke-width="3.292" stroke-linecap="round" stroke-linejoin="round"/><path d="M286.94 190.417c.361-.066.74-.08 1.124-.034 7.968.957 12.003.113 27.303-4.251 14.118-4.024 17.677-3.85 28.245-3.335 1.156.057 2.403.118 3.765.178 12.26.543 24.938-7.732 25.065-7.815a3.763 3.763 0 0 1 4.147 6.28c-.6.396-14.874 9.702-29.545 9.054a702.953 702.953 0 0 1-3.799-.18c-10.16-.496-12.89-.629-25.814 3.057-14.892 4.245-20.537 5.654-30.265 4.485a3.764 3.764 0 0 1-.226-7.439" fill="#F64A58"/><path d="M286.94 190.417c.361-.066.74-.08 1.124-.034 7.968.957 12.003.113 27.303-4.251 14.118-4.024 17.677-3.85 28.245-3.335 1.156.057 2.403.118 3.765.178 12.26.543 24.938-7.732 25.065-7.815a3.763 3.763 0 0 1 4.147 6.28c-.6.396-14.874 9.702-29.545 9.054a702.953 702.953 0 0 1-3.799-.18c-10.16-.496-12.89-.629-25.814 3.057-14.892 4.245-20.537 5.654-30.265 4.485a3.764 3.764 0 0 1-.226-7.439z" stroke="#3C4249" stroke-width="3.292" stroke-linecap="round" stroke-linejoin="round"/><path fill="#F4DE85" d="M292.12 200.491l-25.34-3.609-.156-2.467 24.764-5.593z"/><path stroke="#3C4249" stroke-width="4.313" stroke-linecap="round" stroke-linejoin="round" d="M292.12 200.491l-25.34-3.609-.156-2.467 24.764-5.593z"/><path d="M372.392 165.69l-.835-13.323m12.333 18.882l7.874-7.841M386 183.164l18.205 1.702" stroke="#D4C595" stroke-width="3.292" stroke-linecap="round" stroke-linejoin="round"/></g></svg>