<svg id="Layer_1" xmlns="http://www.w3.org/2000/svg" viewBox="0 0 800 600"><style>.st0{fill:#e0e7ee}.st1{fill:none;stroke:#3c4249;stroke-width:4.1919;stroke-linecap:round;stroke-linejoin:round;stroke-miterlimit:10}.st2{fill:#ffefbb}.st3{fill:#dbd1b4}.st4{fill:#fff}.st5{opacity:.25}.st6{fill:#d6dbe8}.st7{fill:#b6bdcc}.st8,.st9{fill:none;stroke:#4c4f59;stroke-width:4.787;stroke-linecap:round;stroke-linejoin:round;stroke-miterlimit:10}.st9{fill:#d6dbe8}.st10{fill:#e4e6e9}.st11{fill:#cdcfd1}.st12,.st13{fill:#51585e;stroke:#3c4249;stroke-width:4.3529;stroke-linecap:round;stroke-linejoin:round;stroke-miterlimit:10}.st13{fill:none}.st14{fill:#e9eaf3}.st15{fill:#2e9df2}.st16{fill:#5d6069}.st17{fill:#9ba0bc}.st18{fill:none;stroke:#fff;stroke-width:3.5903;stroke-linecap:round;stroke-linejoin:round;stroke-miterlimit:10}.st19{fill:#75d379}.st20{fill:#63b763}.st21{fill:#ffd487}.st22{fill:#edbf74}.st23,.st24{opacity:.3;fill:#3c4249}.st24{opacity:.5}.st25{fill:#fdd56f}.st26{fill:#e7bc5d}.st27{fill:none;stroke:#3c4249;stroke-width:5.4823;stroke-linecap:round;stroke-linejoin:round;stroke-miterlimit:10}.st28{fill:#3d4349}.st29,.st30{fill:none;stroke:#fff;stroke-width:4;stroke-linecap:round;stroke-linejoin:round;stroke-miterlimit:10}.st30{fill:#fdd56f;stroke:#3c4249;stroke-width:5.4823}.st31{fill:#f9d592}.st32{fill:#fff3e1}.st33{opacity:.5}</style><path class="st0" d="M750.9 540.2c-1.7-.8-4.8-2.5-7.9-2.9-2.5-.3-5-.3-7.5-.4-3.1-.1-6.7-.3-10.2-.6-8.5-.8-16.9-2.6-25.4-3.8-9-1.2-18.2-1.8-27.5-1.8-1.8-3.8-5-6.5-8.8-8.3-5.1-4.4-11.1-4.5-18.1-3l-2.7.6c-9.1 1.1-18.1 3.5-27.1 5.1-10.6 1.9-21.2 3.3-31.9 4.5-10.2 1.2-21.5.7-31.5 3.3-26-3.5-52.2-4.1-78.5-4.7-33.8-.8-68 .7-101.7 2.7-33.9 2-67.6 5.4-101.4 8.3-16.5 1.4-33.2 2.5-49.8 1.7-16.4-.8-32.4-4.4-48.7-5.8-18.5-1.5-36.4 1.3-54.5 4.7-8.5 1.5-17 3-25.6 3.7-9 .8-18.1.5-27.1 1.2-10.5.8-13.7 16.4-3.7 20.7 15.4 6.5 32.5 4.5 48.6 2.2 15.8-2.2 31.8-5.2 47.8-5.2 15.4 0 30.8 3.8 46.2 5.5 17.4 1.9 35 1.9 52.4 1.1 34.2-1.6 68.3-5.4 102.5-7.1 33.9-1.7 67.8-2.8 101.7-3.4 24.9-.4 50-.7 75-2.4.5.4 1 .7 1.5 1.1 5.4 3.6 11.3 6 17.6 7.7 12.5 3.3 25.8 2.6 38.3-.2 9.6-2.2 18.8-5.4 27.9-9 8.9-1.5 17.8-2.9 26.9-3.2 8.3-.3 16.6-.1 24.8 1.3 8.8 1.5 17.3 4.1 26 6.2 8.6 2 17.2 4.3 26 5.2 5 .5 10.1.7 15.1 0 2.4-.3 5-.7 7.3-1.6 3.3-1.3 5.1-3.7 7.6-6.1 5.7-5.1 2.3-14.4-3.6-17.3z"/><path class="st1" d="M109.5 546.9h172.8m413.2 0H737m-424.4 0h31.3m24.3 0h261.7"/><path class="st2" d="M157 92c-.2.2-.6.5-.9.8l.1-.1c.3-.2.6-.5.8-.7z"/><path class="st2" d="M716.4 292.7c.4-.9.5-1.9.8-2.8.7-2.2 1.5-4.3 2.5-6.5.1-.3.2-.6.4-.9.1-.1.2-.2.3-.4 1.1-1.7 2-3.5 3-5.2 2.3-3.8 4.8-7.4 7.3-11 4.9-7 10-13.8 14.5-21.1 6.5-10.4 11.4-22.7 13.8-35.2-.2-5 .1-10 1-14.9-1-4.4-1.9-8.7-3.3-12.8-3.7-10.9-8.5-21.4-13.6-31.7-.7-.6-1.3-1.3-2-1.9-16.1-14.3-38.8-17.3-58.9-10.5-18.5 6.3-33.2 17.3-47.4 30.5-5.6 5.2-11.1 10.4-17.2 15-.5.3-1.2.8-1.8 1.2-.9.6-1.9 1.1-2.9 1.7-1.5.8-3.1 1.4-4.5 2.2l-.9.3c-.9.2-3.6.3-4.8.7h-1.4c-.6 0-1.3-.1-1.9-.2-1.8-.6-5.3-1.3-6-1.5-.8-.3-4.1-1.8-4.4-1.9-1-.6-2.1-1.2-2.4-1.4-3.6-2.2-8.4-4.9-11.1-8.2.1.2 3.4 3.2 1.2 1-.8-.8-1.6-1.5-2.4-2.3-1.8-1.8-3.6-3.6-5.4-5.5-3.3-3.4-6.4-7-9.6-10.5-6-6.7-12-13.4-18.7-19.5-15.4-14.2-32.2-26.3-52.1-33.4-18.2-6.4-39.1-8.2-57.9-3.6-1.8.4-3.6.9-5.3 1.5-11.6 3.6-24.2 2.2-34.6-4.1-.3-.2-.6-.3-.8-.5-16.3-9.9-33.9-17.9-50.9-26.7-9.1-4.7-18.2-9.3-27.2-14-4.2-2.1-8.3-4.4-12.5-6.6-3.4-2.3-6.8-4.5-10.3-6.6-3.7-2.2-7.5-4.3-11.5-6-1.9-.8-3.9-1.6-5.9-2.2-1.8-.6-3.6-1.1-5.4-1.7-1-.4-4.7-1.9-5.5-2.1-19.6-4.1-40.9 3-57 13.9-13.3 9.1-24.3 21.4-35.3 33.1-2.4 2.6-4.9 5.2-7.4 7.7-1.2 1.3-2.5 2.5-3.7 3.7l-.2.2c.5-.4.6-.5-.7.7l-.1.1c-.2.1-.3.3-.4.4l.3-.3c-5.6 4.6-11.2 9.2-17 13.5-13 9.7-26 19.2-37.8 30.4-13 12.4-22.2 27.5-27.2 44.7-11.2 38.4 8.9 75.8 19.1 111.8.6 2.1 1.1 4.1 1.6 6.2-1.2-4.3 0-.1.3 1.8.8 4.5 1.4 9.1 1.8 13.6.4 4.2.5 8.4.5 12.7 0 .7-.1 3.7-.1 4.6v.5c-.1 1.4-.2 2.8-.4 4.2-1 9.1-2.8 18.1-5.3 26.9-.1.4-.2.7-.3.9-.1.2-.2.6-.4 1.1-.7 2-1.5 4-2.3 5.9-1.7 4.1-3.7 8.2-5.7 12.3-9 17.5-19.2 36.6-16 57 3.3 21 17.7 38.3 33.9 51.3 28.7 23.2 67 31.6 100.9 14.6 13.3-6.7 25.1-15.2 36.9-24.3 5.2-4.1 10.5-8.2 15.9-12 2.5-1.8 5.1-3.6 7.8-5.2 1.3-.8 2.6-1.6 4-2.4.2-.1.3-.2.5-.3 2.7-1.2 5.3-2.5 8.1-3.4 1.4-.5 2.8-.9 4.1-1.3h.1c1.3-.2 9.7-1.8 10.3-.7.2.3-4.9-.7-1.7 0 .9.2 2 .2 2.9.4 2.3.4 4.5.9 6.8 1.5.3.1.6.2 1 .2.1.1.3.1.4.2 1.8.8 3.8 1.4 5.6 2.2 4.1 1.7 8 3.6 12 5.6 7.6 3.8 15.2 7.8 23 11.1 11.3 4.8 24.1 7.9 36.8 8.3 4.9-1 9.9-1.4 14.9-1.2 4.2-1.6 8.3-3.2 12.2-5.2 7.6-3.9 14.8-8.4 21.9-13.1 32.5 8.6 67.2-2.9 99.8-7 2.1-.3 4.2-.4 6.4-.7-4.4.5-.1 0 1.8-.1 4.6-.1 9.2 0 13.7.3 4.2.3 8.4.7 12.6 1.4.7.1 3.6.6 4.5.8.2 0 .4.1.4.1 1.4.3 2.7.7 4.1 1 8.9 2.3 17.4 5.5 25.8 9.3.4.2.6.3.9.4.2.1.5.3 1 .6 1.8 1 3.7 2 5.5 3.1 3.9 2.3 7.7 4.9 11.4 7.5 16 11.5 33.3 24.5 54 24.4 21.3-.1 40.5-11.8 55.8-25.8 27.3-24.8 41.3-61.5 29.5-97.5-4.6-14.2-11.2-27.1-18.5-40.1-3.2-5.8-6.5-11.6-9.5-17.5-1.4-2.8-2.8-5.6-4-8.5-.6-1.4-1.2-2.8-1.8-4.3-.1-.2-.1-.3-.2-.5-.8-2.8-1.6-5.7-2.2-8.6-.3-1.4-.4-2.9-.7-4.3v-.1c0-1.3-.3-9.9.9-10.3.5-.1-1.3 4.7-.1 1.8z"/><path class="st3" d="M156.8 91.9c1.3-1.1 1.2-1.1.7-.7-.3.2-.5.5-.7.7-.1 0 0 0 0 0zm-.1 0l-.1.1-.3.3.4-.4z"/><path class="st3" d="M157.5 91.2c-.2.2-.6.5-.9.8l.1-.1c.3-.2.5-.5.8-.7zM365 307.9h36.7L389 283.8c-5.1 10.4-13.6 18.9-24 24.1zm35.9-21l11.1 21h8l-2.4-4.6c-6.6-4.4-12.2-9.9-16.7-16.4zm-7.7-15.2c0 .1 0 .2-.1.3l.6 1.1c-.2-.4-.4-.9-.5-1.4z"/><path class="st4" d="M318.9 127.3c-5.6 3.3-12.7 1.4-16-4.2-3.3-5.6-1.4-12.7 4.2-16s12.7-1.4 16 4.2 1.4 12.7-4.2 16zm-8.7-14.8c-2.6 1.5-3.5 4.9-1.9 7.5 1.5 2.6 4.9 3.5 7.5 1.9 2.6-1.5 3.5-4.9 1.9-7.5-1.5-2.6-4.9-3.4-7.5-1.9zm-168.1 81.9c-5.6 3.3-12.7 1.4-16-4.2-3.3-5.6-1.4-12.7 4.2-16 5.6-3.3 12.7-1.4 16 4.2 3.2 5.5 1.3 12.7-4.2 16zm-8.7-14.8c-2.6 1.5-3.5 4.9-1.9 7.5 1.5 2.6 4.9 3.5 7.5 1.9 2.6-1.5 3.5-4.9 1.9-7.5a5.52 5.52 0 0 0-7.5-1.9zm556.4 271.7c-5.6 3.3-12.7 1.4-16-4.2s-1.4-12.7 4.2-16c5.6-3.3 12.7-1.4 16 4.2s1.3 12.7-4.2 16zm-8.7-14.8c-2.6 1.5-3.5 4.9-1.9 7.5s4.9 3.5 7.5 1.9c2.6-1.5 3.5-4.9 1.9-7.5s-4.9-3.4-7.5-1.9zm-550.7-18.7c-5.6 3.3-12.7 1.4-16-4.2s-1.4-12.7 4.2-16 12.7-1.4 16 4.2 1.4 12.7-4.2 16zm-8.7-14.8c-2.6 1.5-3.5 4.9-1.9 7.5 1.5 2.6 4.9 3.5 7.5 1.9 2.6-1.5 3.5-4.9 1.9-7.5-1.5-2.5-4.9-3.4-7.5-1.9zm346.1-261.8c-.7 1.3-2.3 2-3.8 1.6l-27-7.3c-1.8-.5-2.9-2.3-2.4-4.1.5-1.8 2.3-2.9 4.1-2.4l27 7.3c1.8.5 2.9 2.3 2.4 4.1-.1.3-.2.6-.3.8zm232.8 62.2c-1.2-.9-1.7-2.5-1.1-4l10.3-26c.7-1.7 2.7-2.6 4.4-1.9 1.7.7 2.6 2.7 1.9 4.4l-10.3 26c-.7 1.7-2.7 2.6-4.4 1.9-.3-.1-.6-.2-.8-.4zM692.7 347c-1.3.8-3 .7-4.1-.4l-20.4-19.1c-1.4-1.3-1.4-3.4-.2-4.8 1.3-1.4 3.4-1.4 4.8-.2l20.4 19.1c1.4 1.3 1.4 3.4.2 4.8-.2.2-.5.4-.7.6zM216.9 132.3c-1.1-1-1.5-2.6-.8-4.1l12.4-25c.8-1.7 2.9-2.4 4.5-1.5 1.7.8 2.4 2.9 1.5 4.5l-12.4 25c-.8 1.7-2.9 2.4-4.5 1.5-.3-.1-.5-.2-.7-.4zM154 296.5c-1.4.6-3 .2-4-1l-17.1-22.1c-1.1-1.5-.9-3.6.6-4.7s3.6-.9 4.7.6l17.1 22.1c1.1 1.5.9 3.6-.6 4.7-.2.2-.4.3-.7.4z"/><path class="st5" d="M617.1 191.8H235.9c-13.1 0-23.8 10.3-23.8 22.9v42.5c0 1.4 1.2 2.5 2.6 2.5v17.8c-1.4 0-2.6 1.1-2.6 2.5v43c0 1.4 1.2 2.5 2.6 2.5v21.1c-1.4 0-2.6 1.1-2.6 2.5v82.2c0 12.6 10.7 22.9 23.8 22.9H617c13.1 0 23.8-10.3 23.8-22.9V214.7c0-12.7-10.6-22.9-23.7-22.9z"/><g id="XMLID_5_"><path class="st6" d="M442.9 365.7L479 540.2H337.2l36.1-174.5h69.6zm-20 87.3c0-8.2-6.7-14.9-14.9-14.9s-14.9 6.7-14.9 14.9 6.7 14.9 14.9 14.9 14.9-6.7 14.9-14.9z"/><path class="st7" d="M473.9 515.9l5 24.4H337.2l11-53.2 125.7 28.8z"/><path class="st8" d="M442.9 365.7h-69.6l-36.1 174.5h141.7z"/><circle class="st8" cx="408.1" cy="453" r="14.9"/></g><path class="st9" d="M492.3 546H324.9c-3 0-5.4-2.4-5.4-5.4v-2.2c0-3 2.4-5.4 5.4-5.4h167.3c3 0 5.4 2.4 5.4 5.4v2.2c.1 3-2.3 5.4-5.3 5.4z"/><path class="st4" d="M591.5 265.9c-5.6 3.3-12.7 1.4-16-4.2-3.3-5.6-1.4-12.7 4.2-16 5.6-3.3 12.7-1.4 16 4.2 3.2 5.6 1.4 12.8-4.2 16zm-8.7-14.7c-2.6 1.5-3.5 4.9-1.9 7.5 1.5 2.6 4.9 3.5 7.5 1.9 2.6-1.5 3.5-4.9 1.9-7.5-1.5-2.6-4.9-3.5-7.5-1.9z"/><g id="XMLID_4_"><path class="st10" d="M622 191.6v228c0 11.8-9.7 21.5-21.5 21.5h-387c-11.8 0-21.5-9.7-21.5-21.5v-228c0-11.8 9.7-21.5 21.5-21.5h387c11.9 0 21.5 9.7 21.5 21.5z"/><path class="st11" d="M622 394.6v25.1c0 11.8-9.7 21.5-21.5 21.5h-387c-11.8 0-21.5-9.7-21.5-21.5v-25.1h430z"/><path class="st12" d="M192.1 236.4v-44.8c0-11.8 9.7-21.5 21.5-21.5h387c11.8 0 21.5 9.7 21.5 21.5v228c0 11.8-9.7 21.5-21.5 21.5h-387c-11.8 0-21.5-9.7-21.5-21.5v-86.5"/><path class="st13" d="M192.1 305.7v-45.3"/></g><path class="st4" d="M597.1 425H216.6c-3.9 0-7-3.1-7-7V194.7c0-3.9 3.1-7 7-7h380.5c3.9 0 7 3.1 7 7V418c0 3.9-3.1 7-7 7z"/><path class="st14" d="M299 425h-82.4c-3.9 0-7-3.1-7-7V194.7c0-3.9 3.1-7 7-7H299V425zm254.8-58.5H351c-1.8 0-3.2-1.4-3.2-3.2V258.7c0-1.8 1.4-3.2 3.2-3.2h202.9c1.8 0 3.2 1.4 3.2 3.2v104.5c0 1.8-1.5 3.3-3.3 3.3z"/><path class="st15" d="M604.1 206.7H299v-19h298c3.9 0 7.1 3.2 7.1 7.1v11.9z"/><path class="st4" d="M480.4 200.5H411c-1 0-1.9-.8-1.9-1.9v-1c0-1 .8-1.9 1.9-1.9h69.3c1 0 1.9.8 1.9 1.9v1c0 1.1-.8 1.9-1.8 1.9zm107.1 1h-18.2c-.6 0-1.2-.5-1.2-1.2v-6.2c0-.6.5-1.2 1.2-1.2h18.2c.6 0 1.2.5 1.2 1.2v6.2c0 .7-.5 1.2-1.2 1.2z"/><path class="st16" d="M583.8 198.6H573c-.3 0-.5-.2-.5-.5v-1.9c0-.3.2-.5.5-.5h10.9c.3 0 .5.2.5.5v1.9c-.1.3-.3.5-.6.5z"/><path class="st15" d="M234.8 219.9h-10.9c-.3 0-.5-.2-.5-.5v-1.9c0-.3.2-.5.5-.5h10.9c.3 0 .5.2.5.5v1.9c0 .2-.2.5-.5.5z"/><path class="st17" d="M270.4 227H224c-.3 0-.5-.2-.5-.5v-1.9c0-.3.2-.5.5-.5h46.4c.3 0 .5.2.5.5v1.9c-.1.3-.3.5-.5.5z"/><path class="st16" d="M270.4 205.9H224c-.3 0-.5-.2-.5-.5v-7.3c0-.3.2-.5.5-.5h46.4c.3 0 .5.2.5.5v7.3c-.1.3-.3.5-.5.5zm236.7 26.5H397.8c-.3 0-.5-.2-.5-.5v-7.3c0-.3.2-.5.5-.5h109.3c.3 0 .5.2.5.5v7.3c-.1.3-.3.5-.5.5z"/><path class="st17" d="M284.7 233.8h-60.8c-.3 0-.5-.2-.5-.5v-1.9c0-.3.2-.5.5-.5h60.8c.3 0 .5.2.5.5v1.9c0 .3-.2.5-.5.5zm-23.1 7.2h-37.7c-.3 0-.5-.2-.5-.5v-1.9c0-.3.2-.5.5-.5h37.7c.3 0 .5.2.5.5v1.9c0 .3-.2.5-.5.5z"/><path class="st15" d="M234.8 268.8h-10.9c-.3 0-.5-.2-.5-.5v-1.9c0-.3.2-.5.5-.5h10.9c.3 0 .5.2.5.5v1.9c0 .3-.2.5-.5.5z"/><path class="st17" d="M270.4 275.9H224c-.3 0-.5-.2-.5-.5v-1.9c0-.3.2-.5.5-.5h46.4c.3 0 .5.2.5.5v1.9c-.1.3-.3.5-.5.5zm-25.5 6.8h-21c-.3 0-.5-.2-.5-.5v-1.9c0-.3.2-.5.5-.5h21c.3 0 .5.2.5.5v1.9c0 .3-.2.5-.5.5zm16.7 7.3h-37.7c-.3 0-.5-.2-.5-.5v-1.9c0-.3.2-.5.5-.5h37.7c.3 0 .5.2.5.5v1.9c0 .2-.2.5-.5.5z"/><path class="st15" d="M234.8 302.2h-10.9c-.3 0-.5-.2-.5-.5v-1.9c0-.3.2-.5.5-.5h10.9c.3 0 .5.2.5.5v1.9c0 .3-.2.5-.5.5z"/><path class="st17" d="M270.4 309.4H224c-.3 0-.5-.2-.5-.5V307c0-.3.2-.5.5-.5h46.4c.3 0 .5.2.5.5v1.9c-.1.2-.3.5-.5.5zm7.5 6.8h-54c-.3 0-.5-.2-.5-.5v-1.9c0-.3.2-.5.5-.5h54c.3 0 .5.2.5.5v1.9c0 .3-.2.5-.5.5zm-11 7.2H224c-.3 0-.5-.2-.5-.5V321c0-.3.2-.5.5-.5h42.9c.3 0 .5.2.5.5v1.9c-.1.3-.3.5-.5.5zm17.8 6.8h-60.8c-.3 0-.5-.2-.5-.5v-1.9c0-.3.2-.5.5-.5h60.8c.3 0 .5.2.5.5v1.9c0 .3-.2.5-.5.5zm-30.3 7.3h-30.5c-.3 0-.5-.2-.5-.5v-1.9c0-.3.2-.5.5-.5h30.5c.3 0 .5.2.5.5v1.9c0 .2-.3.5-.5.5z"/><path class="st15" d="M234.8 352.4h-10.9c-.3 0-.5-.2-.5-.5V350c0-.3.2-.5.5-.5h10.9c.3 0 .5.2.5.5v1.9c0 .3-.2.5-.5.5z"/><path class="st17" d="M270.4 359.5H224c-.3 0-.5-.2-.5-.5v-1.9c0-.3.2-.5.5-.5h46.4c.3 0 .5.2.5.5v1.9c-.1.3-.3.5-.5.5z"/><path class="st14" d="M522.6 386.2H382.3c-.3 0-.5-.2-.5-.5v-3.9c0-.3.2-.5.5-.5h140.3c.3 0 .5.2.5.5v3.9c-.1.3-.3.5-.5.5zm-31.2-148.1h-78c-.3 0-.5.2-.5.5v1.5c0 .3.2.5.5.5h78c.3 0 .5-.2.5-.5v-1.5c0-.2-.2-.5-.5-.5zm8.2 159.7H382.3c-.3 0-.5-.2-.5-.5v-3.9c0-.3.2-.5.5-.5h117.3c.3 0 .5.2.5.5v3.9c0 .3-.2.5-.5.5zm9.6 11.5h-127c-.3 0-.5-.2-.5-.5v-3.9c0-.3.2-.5.5-.5h127c.3 0 .5.2.5.5v3.9c0 .3-.2.5-.5.5z"/><path class="st17" d="M244.9 366.3h-21c-.3 0-.5-.2-.5-.5v-1.9c0-.3.2-.5.5-.5h21c.3 0 .5.2.5.5v1.9c0 .3-.2.5-.5.5zm16.7 7.2h-37.7c-.3 0-.5-.2-.5-.5v-1.9c0-.3.2-.5.5-.5h37.7c.3 0 .5.2.5.5v1.9c0 .3-.2.5-.5.5z"/><path class="st15" d="M234.8 385.8h-10.9c-.3 0-.5-.2-.5-.5v-1.9c0-.3.2-.5.5-.5h10.9c.3 0 .5.2.5.5v1.9c0 .3-.2.5-.5.5z"/><path class="st17" d="M270.4 392.9H224c-.3 0-.5-.2-.5-.5v-1.9c0-.3.2-.5.5-.5h46.4c.3 0 .5.2.5.5v1.9c-.1.3-.3.5-.5.5zm7.5 6.8h-54c-.3 0-.5-.2-.5-.5v-1.9c0-.3.2-.5.5-.5h54c.3 0 .5.2.5.5v1.9c0 .3-.2.5-.5.5zm-11 7.3H224c-.3 0-.5-.2-.5-.5v-1.9c0-.3.2-.5.5-.5h42.9c.3 0 .5.2.5.5v1.9c-.1.3-.3.5-.5.5zm-1.4-151.5h-41.6c-.3 0-.5-.2-.5-.5v-1.9c0-.3.2-.5.5-.5h41.6c.3 0 .5.2.5.5v1.9c0 .3-.2.5-.5.5zm3.1-7.2h-44.7c-.3 0-.5-.2-.5-.5v-1.9c0-.3.2-.5.5-.5h44.7c.3 0 .5.2.5.5v1.9c0 .3-.2.5-.5.5z"/><path class="st4" d="M314.3 201.9h-7.5c-.1 0-.2-.1-.2-.2v-1c0-.1.1-.2.2-.2h7.5c.1 0 .2.1.2.2v1c0 .1 0 .2-.2.2zm2.6-4h-10.1c-.1 0-.2-.1-.2-.2v-1c0-.1.1-.2.2-.2h10.1c.1 0 .2.1.2.2v1c0 .1-.1.2-.2.2zm3.6-4h-13.6c-.1 0-.2-.1-.2-.2v-1c0-.1.1-.2.2-.2h13.6c.1 0 .2.1.2.2v1c0 .1-.1.2-.2.2zm118.6 102v26.6c0 1.5 1.6 2.5 2.9 1.8l26.6-13.3c1.5-.7 1.5-2.9 0-3.6L442 294.1c-1.4-.6-2.9.3-2.9 1.8z"/><path class="st18" d="M428.4 469.8c-2.6 4.4-7.4 7.4-12.9 7.4"/><g id="XMLID_1_"><path class="st19" d="M198.9 523.6h137v23.2h-137z"/><path class="st20" d="M198.9 537.4h137v9.5h-137z"/><path class="st13" d="M198.9 523.6h137v23.2h-137z"/></g><g id="XMLID_2_"><path class="st21" d="M251.5 523.6h31.7v23.2h-31.7z"/><path class="st22" d="M251.5 537.4h31.7v9.5h-31.7z"/><path class="st13" d="M251.5 523.6h31.7v23.2h-31.7z"/></g><g id="XMLID_6_"><path class="st19" d="M206.3 500.4h137v23.2h-137z"/><path class="st20" d="M206.3 514.1h137v9.5h-137z"/><path class="st13" d="M206.3 500.4h137v23.2h-137z"/></g><g id="XMLID_3_"><path class="st21" d="M258.9 500.4h31.7v23.2h-31.7z"/><path class="st22" d="M258.9 514.1h31.7v9.5h-31.7z"/><path class="st13" d="M258.9 500.4h31.7v23.2h-31.7z"/></g><g id="XMLID_18_"><path class="st19" d="M474.3 523.6h137v23.2h-137z"/><path class="st20" d="M474.3 537.4h137v9.5h-137z"/><path class="st13" d="M474.3 523.6h137v23.2h-137z"/></g><g id="XMLID_17_"><path class="st21" d="M526.9 523.6h31.7v23.2h-31.7z"/><path class="st22" d="M526.9 537.4h31.7v9.5h-31.7z"/><path class="st13" d="M526.9 523.6h31.7v23.2h-31.7z"/></g><g id="XMLID_16_"><path class="st19" d="M481.7 500.4h137v23.2h-137z"/><path class="st20" d="M481.7 514.1h137v9.5h-137z"/><path class="st13" d="M481.7 500.4h137v23.2h-137z"/></g><g id="XMLID_15_"><path class="st21" d="M534.3 500.4H566v23.2h-31.7z"/><path class="st22" d="M534.3 514.1H566v9.5h-31.7z"/><path class="st13" d="M534.3 500.4H566v23.2h-31.7z"/></g><g id="XMLID_8_"><path class="st19" d="M194.7 477.2h137v23.2h-137z"/><path class="st20" d="M194.7 490.9h137v9.5h-137z"/><path class="st13" d="M194.7 477.2h137v23.2h-137z"/></g><g id="XMLID_7_"><path class="st21" d="M247.3 477.2H279v23.2h-31.7z"/><path class="st22" d="M247.3 490.9H279v9.5h-31.7z"/><path class="st13" d="M247.3 477.2H279v23.2h-31.7z"/></g><path class="st23" d="M242.8 399.8c-2.5-1.6-5.5-1.9-8.2-.7-5.8 2.5-11.2 3.8-16.1 3.7-3.3-.1-7-.8-11.1-2.3-1.4-.5-2.9-.8-4.4-.8-3.3 0-6.4 1.3-8.9 3.5v17.2l6.4 4.4c-.4 3.1-.8 5.9-1.4 8.6 4 4.7 9.9 7.8 16.5 7.8h26.5c-2.3-6.5-4.2-12.4-5.5-16.4l8.4-3.5c1.1-.5 1.9-1.6 1.9-2.8l.2-9.9c.1-3.7-1.5-6.9-4.3-8.8z"/><path class="st24" d="M257.6 485.7c0-.1 0-.1-.1-.2-1.1-2.7-2.4-5.4-3.9-7.9-.7-1.1-1.3-2.1-1.8-3h-59.1c-1.4 0-2.5 1.1-2.5 2.5v23.2c0 1.4 1.1 2.5 2.5 2.5h9.1v18.3h-4.9c-1.4 0-2.5 1.1-2.5 2.5V545c5 2.4 10.5 3.8 16.2 4.2 1.1.1 2.2.1 3.3.1 11.9 0 23.1-4.4 31.9-12.6 9.4-8.8 14.9-21.3 14.9-34.2 0-5.8-1.1-11.4-3.1-16.8z"/><g id="XMLID_138_"><path class="st25" d="M235.4 486.9c1.9 4.9 2.9 10.1 2.9 15.7 0 25.1-21.2 45.3-46.8 43.6-22.1-1.5-39.7-19.8-40.6-41.9-.4-9.6 2.4-18.5 7.3-25.9 1.6-2.4 3.1-4.9 4.4-7.6 7.1-15 16.3-25.1 18.1-50v-.2h27.9s11 34.8 18.9 51.3c1.2 2.6 2.7 5.1 4.2 7.5 1.5 2.3 2.7 4.8 3.7 7.5z"/><path class="st26" d="M238.3 502.5c0 25.1-21.2 45.3-46.8 43.6-22.1-1.5-39.7-19.8-40.6-41.9 24.6 30 66.3 28.1 87.4-1.7z"/><path class="st27" d="M235.4 486.9c-1-2.6-2.3-5.1-3.7-7.5-1.5-2.4-3-4.9-4.2-7.5-7.9-16.5-18.9-51.3-18.9-51.3h-27.9v.2c-1.8 24.9-11 35-18.1 50-1.3 2.6-2.8 5.1-4.4 7.6-4.9 7.4-7.6 16.3-7.3 25.9.9 22.1 18.5 40.3 40.6 41.9 25.5 1.8 46.8-18.4 46.8-43.6 0-5.6-1-10.9-2.9-15.7z"/></g><path class="st28" d="M186.4 506.8l.9-1.3c.7-.9 1.5-1 2.5-.4 1.3.9 3.5 2.1 6.1 2.1 2.3 0 4.4-1.2 4.4-3.7 0-5.1-14.4-4.6-14.4-13.8 0-4.4 3.3-7.8 8-8.6V479c0-1.2.5-1.7 1.7-1.7h.3c1.1 0 1.7.5 1.7 1.5v2.4c2.9.2 5 1.3 6.2 2.1.9.6 1 1.4.5 2.4l-.7 1.4c-.6 1-1.4 1.2-2.4.6-1.1-.7-2.9-1.6-5.1-1.6-2.6 0-4.6 1.5-4.6 3.6 0 5.1 14.4 4.2 14.4 13.7 0 4.3-3 8.1-8.2 8.7v2.1c0 1.2-.6 1.8-1.7 1.8h-.3c-1.2 0-1.7-.6-1.7-1.5v-2.4c-3.5-.4-6-1.9-7.2-2.9-1-.5-1-1.5-.4-2.4z"/><path class="st29" d="M222.1 488.1c1.7 3.4 2.9 7.1 3.3 11.1m-9.5-23.5c-1.4-2.7-2.4-5.6-3-8.5"/><path class="st30" d="M182.9 424.9l-14.3-9.7c.1-7 5.3-12.4 11.1-12.4 1.1 0 2.2.2 3.3.6 3.8 1.4 8 2.4 12.1 2.5 6.4.1 12.7-1.9 17.4-3.9 4-1.8 8.3 1.6 8.2 6.5l-.2 9.9-16.6 7-21-.5z" id="XMLID_142_"/><path class="st23" d="M617.8 546.9v-20.8h4.9c1.4 0 2.5-1.1 2.5-2.5v-23.2c0-1.4-1.1-2.5-2.5-2.5h-28.9c-.6 1.4-.9 2.8-.9 4.3 0 2.6.9 5.1 2.5 7-1.3.5-2.5 1.3-3.5 2.4-2.1 2.1-3.3 4.9-3.3 7.8 0 4.4 2.6 8.2 6.3 10-.1.1-.2.1-.2.2-2.1 2.1-3.3 4.9-3.3 7.8 0 6.1 5 11.1 11.1 11.1h14.6c.5-.4.7-1 .7-1.6z"/><g id="XMLID_9_"><path class="st31" d="M653.5 528.9c4.7 0 8.6 3.9 8.6 8.6 0 2.4-1 4.5-2.5 6.1-1.6 1.5-3.7 2.5-6.1 2.5H612c-4.7 0-8.6-3.9-8.6-8.6 0-2.4 1-4.5 2.5-6.1 1.5-1.6 3.7-2.5 6.1-2.5h41.5z"/><path class="st32" d="M617.3 528.9h5.3v17.2h-5.3zm7.7 0h2.6v17.2H625z"/><path class="st13" d="M653.5 546H612c-4.7 0-8.6-3.9-8.6-8.6 0-2.4 1-4.5 2.5-6.1 1.5-1.6 3.7-2.5 6.1-2.5h41.4c4.7 0 8.6 3.9 8.6 8.6 0 2.4-1 4.5-2.5 6.1-1.5 1.5-3.7 2.5-6 2.5z"/></g><g class="st5"><path d="M674.9 494.1c1.7-2 2.6-4.5 2.6-7.1 0-6.1-5-11.1-11.1-11.1H625c-3 0-5.7 1.2-7.8 3.2-2.1 2.1-3.3 4.9-3.3 7.8 0 1.4.3 2.7.7 3.9 14.1 10 29.3 19.5 47.1 19.4 6.6 0 13-1.2 19.2-3.2.3-1 .4-1.9.4-3 .1-4.3-2.6-8.1-6.4-9.9z"/><path class="st33" d="M674.9 494.1c1.7-2 2.6-4.5 2.6-7.1 0-6.1-5-11.1-11.1-11.1H625c-3 0-5.7 1.2-7.8 3.2-2.1 2.1-3.3 4.9-3.3 7.8 0 1.4.3 2.7.7 3.9 14.1 10 29.3 19.5 47.1 19.4 6.6 0 13-1.2 19.2-3.2.3-1 .4-1.9.4-3 .1-4.3-2.6-8.1-6.4-9.9z"/></g><g id="XMLID_10_"><path class="st31" d="M650.6 510.8c4.7 0 8.6 3.9 8.6 8.6 0 2.4-1 4.5-2.5 6.1-1.6 1.5-3.7 2.5-6.1 2.5h-41.4c-4.7 0-8.6-3.9-8.6-8.6 0-2.4 1-4.5 2.5-6.1 1.5-1.6 3.7-2.5 6.1-2.5h41.4z"/><path class="st32" d="M618.6 510.8h2.6V528h-2.6z"/><path class="st13" d="M650.6 528h-41.4c-4.7 0-8.6-3.9-8.6-8.6 0-2.4 1-4.5 2.5-6.1 1.5-1.6 3.7-2.5 6.1-2.5h41.4c4.7 0 8.6 3.9 8.6 8.6 0 2.4-1 4.5-2.5 6.1-1.6 1.5-3.7 2.5-6.1 2.5z"/></g><g id="XMLID_11_"><path class="st31" d="M654.9 493.7c4.7 0 8.6 3.9 8.6 8.6 0 2.4-1 4.5-2.5 6.1-1.6 1.5-3.7 2.5-6.1 2.5h-41.4c-4.7 0-8.6-3.9-8.6-8.6 0-2.4 1-4.5 2.5-6.1 1.5-1.6 3.7-2.5 6.1-2.5h41.4z"/><path class="st32" d="M617.5 493.7h5.3v17.2h-5.3zm7.6 0h2.6v17.2h-2.6z"/><path class="st13" d="M654.9 510.8h-41.4c-4.7 0-8.6-3.9-8.6-8.6 0-2.4 1-4.5 2.5-6.1 1.5-1.6 3.7-2.5 6.1-2.5h41.4c4.7 0 8.6 3.9 8.6 8.6 0 2.4-1 4.5-2.5 6.1-1.6 1.6-3.8 2.5-6.1 2.5z"/></g><g id="XMLID_14_"><path class="st31" d="M651 476.5c4.7 0 8.6 3.9 8.6 8.6 0 2.4-1 4.5-2.5 6.1-1.6 1.5-3.7 2.5-6.1 2.5h-41.4c-4.7 0-8.6-3.9-8.6-8.6 0-2.4 1-4.5 2.5-6.1 1.5-1.6 3.7-2.5 6.1-2.5H651z"/><path class="st32" d="M617.3 476.5h5.3v17.2h-5.3z"/><path class="st13" d="M651 493.7h-41.4c-4.7 0-8.6-3.9-8.6-8.6 0-2.4 1-4.5 2.5-6.1 1.5-1.6 3.7-2.5 6.1-2.5H651c4.7 0 8.6 3.9 8.6 8.6 0 2.4-1 4.5-2.5 6.1-1.6 1.5-3.8 2.5-6.1 2.5z"/></g><path class="st23" d="M179.8 526.7c1.3-1.9 2-4.1 2-6.4 0-6.1-5-11.1-11.1-11.1h-41.4c-2.9 0-5.7 1.2-7.8 3.2-2.1 2.1-3.3 4.9-3.3 7.8 0 5.3 3.7 9.7 8.6 10.8-1.3 1.9-2.1 4.1-2.1 6.4 0 6.1 5 11.1 11.1 11.1h41.4c2.9 0 5.7-1.1 7.8-3.2 2.1-2.1 3.2-4.9 3.2-7.8.2-5.3-3.5-9.7-8.4-10.8z"/><g id="XMLID_13_"><path class="st31" d="M164.9 528.9c4.7 0 8.6 3.9 8.6 8.6 0 2.4-1 4.5-2.5 6.1-1.6 1.5-3.7 2.5-6.1 2.5h-41.4c-4.7 0-8.6-3.9-8.6-8.6 0-2.4 1-4.5 2.5-6.1 1.5-1.6 3.7-2.5 6.1-2.5h41.4z"/><path class="st32" d="M128.7 528.9h5.3v17.2h-5.3zm7.7 0h2.6v17.2h-2.6z"/><path class="st13" d="M164.9 546h-41.4c-4.7 0-8.6-3.9-8.6-8.6 0-2.4 1-4.5 2.5-6.1 1.5-1.6 3.7-2.5 6.1-2.5h41.4c4.7 0 8.6 3.9 8.6 8.6 0 2.4-1 4.5-2.5 6.1-1.6 1.5-3.8 2.5-6.1 2.5z"/></g><g id="XMLID_12_"><path class="st31" d="M158.3 511.7c4.7 0 8.6 3.9 8.6 8.6 0 2.4-1 4.5-2.5 6.1-1.6 1.5-3.7 2.5-6.1 2.5h-41.4c-4.7 0-8.6-3.9-8.6-8.6 0-2.4 1-4.5 2.5-6.1 1.5-1.6 3.7-2.5 6.1-2.5h41.4z"/><path class="st32" d="M123 511.7h5.3v17.2H123z"/><path class="st13" d="M158.3 528.9h-41.4c-4.7 0-8.6-3.9-8.6-8.6 0-2.4 1-4.5 2.5-6.1 1.5-1.6 3.7-2.5 6.1-2.5h41.4c4.7 0 8.6 3.9 8.6 8.6 0 2.4-1 4.5-2.5 6.1-1.6 1.5-3.7 2.5-6.1 2.5z"/></g></svg>