<svg id="Layer_1" xmlns="http://www.w3.org/2000/svg" viewBox="0 0 800 600"><style>.st0{fill:#feb}.st1{fill:#dac99d}.st2{fill:#fbe3d6}.st3{fill:#e5ccc1}.st4{fill:none;stroke:#3d434a;stroke-width:8.1233;stroke-linecap:round;stroke-linejoin:round;stroke-miterlimit:10}.st5{fill:#fffaf8}.st6{fill:none;stroke:#3d434a;stroke-width:8.6428;stroke-linecap:round;stroke-linejoin:round;stroke-miterlimit:10}.st7{opacity:.15}.st10,.st11,.st12,.st8,.st9{stroke:#3d434a;stroke-linecap:round;stroke-linejoin:round;stroke-miterlimit:10}.st8{fill:#aab0ba;stroke-width:4.61}.st9{fill:#d5d7db;stroke-width:4.424}.st10{fill:#aab0ba;stroke-width:6.9206}.st11,.st12{fill:#d5d7db;stroke-width:9.2275}.st12{stroke-width:6.6149}.st13{fill:#fff}.st14{fill:#d5d7db}.st15{fill:#3d434a}.st16{opacity:.4;fill:#fff}.st17{fill:none;stroke:#fff;stroke-width:2.3069;stroke-linecap:round;stroke-linejoin:round;stroke-miterlimit:10}.st18{opacity:.1}.st19{fill:none;stroke:#e2c7bc;stroke-width:3.4603;stroke-linecap:round;stroke-linejoin:round;stroke-miterlimit:10}.st20{fill:#efe3df}.st21,.st22{fill:#fbe3d6;stroke:#3d434a;stroke-width:8.6428;stroke-linecap:round;stroke-linejoin:round;stroke-miterlimit:10}.st22{fill:none;stroke:#fff;stroke-width:9.2275}.st23{fill:#e0e7ee}.st24,.st25{fill:none;stroke:#3c4249;stroke-width:6.9206;stroke-linecap:round;stroke-linejoin:round;stroke-miterlimit:10}.st25{stroke:#ddc997;stroke-width:6.2751}</style><path class="st0" d="M684.9 319.5c-2.1-8.3-5-16.3-8.7-24-5.9-12.1-12.3-24.1-19.7-35.4-4.3-6.6-8.8-13-12.9-19.7-.8-1.7-1.5-3.5-2.1-5.3-.2-1.8-.3-3.5-.4-5.3 1.5-13.7 5.5-26.9 8.7-40.2 5-21.2 6.8-43 2-64.4-3-13.2-7.3-23.4-14-35.4-5.3-9.6-12.5-17.2-20-25.1-15.3-15.9-37.6-26.3-59.1-30.4-24.6-4.7-49.4-1.3-73.2 5.5-10.7 3-20.9 7.2-31 11.7-4.4 2-9.4 2.2-14.1.9-.6-.2-1.2-.3-1.8-.5-12.8-3.3-24.9-6.2-38.1-7.5-17.2-1.7-34.2.1-51.2 3.2-28.7 5.4-57.6 12.7-85.3 22.3-26.3 9.1-51.9 21.8-75.4 36.6-11 7-21.5 14.7-31.5 23.2-11.2 9.5-22.9 19.8-31.4 31.9-13.5 19.2-21.3 41.5-17.5 65.3 2.4 15.4 8 29.6 12.1 44.4.3 1.8.5 3.5.6 5.3-.5 3.1-1.2 6.2-2 9.2-1.9 5.4-3.9 10.8-5.7 16.3-2.4 7.2-5 14.5-6.4 22-1.4 7.1-1.6 14.4-1.7 21.6-.3 22.1 9.5 46.4 24.1 62.9 10.4 11.7 20.1 19.7 33.7 27.7 9.9 5.8 21.1 9.3 32.1 12.4 14.6 4 30.1 2.8 44.8 5.9.6.5 1.2 1 1.8 1.6 3.7 4.6 7 9.5 10.3 14.4 6.4 9.4 13.4 17.8 21.4 26 8.2 8.3 18.7 14.9 29.2 19.8 10.9 5 22.9 8.6 34.7 10.5 21.9 3.5 45.1 3 67-.2 23-3.3 46.2-9.1 67.8-17.9 21.5-8.8 40.9-21.3 61-32.5 4.2-2 8.5-3.8 13-5.3 3-.4 6-.6 9-.6 10 .7 20 1.7 30.1 2 11.8.3 24.1-1.8 35.2-5.9 9.9-3.6 19.9-9.1 27.9-16.1 11.6-10.2 19.1-19.3 27.2-32.5 11.6-19 15.3-41.2 15.3-63.1-.1-11.9-2.9-23.7-5.8-35.3z"/><path class="st1" d="M585 236l-56.1-56.1c-8.1-8.1-21.2-9.1-30.1-1.8-2.3 1.9-4 4.1-5.3 6.5 0 .1-.1.2-.1.2-3.4 6.4-3.5 14.1-.3 20.5.2.9.4 1.5.4 1.5l1.3 1.2c.7 1 1.5 2.1 2.5 3l48.7 48.7c-.3 1.8-.7 4.5-1.1 7.7L543 274c-1.5 5.7-3.7 10.5-6.1 14.7-6.5.3-14 2.4-21.5 6-2.2-16.6-8.8-31.8-18.6-44.4l10.4-10.4 5.8 5.8 8.2-8.2-23.4-23.4-8.2 8.2 5.8 5.8-10 10a91.098 91.098 0 0 0-48.6-22.4V198H456v-13.5h-48.4l-66.2-66.2c-4.3-4.3-10-6.5-15.7-6.5-5.7 0-11.4 2.2-15.7 6.5-2.6 2.6-4.4 5.8-5.5 9.1v.2c0 .1-.1.3-.1.4-.1.5-.3 1-.4 1.5 0 .2-.1.3-.1.5-.1.6-.2 1.2-.3 1.9v.2c0 .6-.1 1.1-.1 1.7v.5c0 .6 0 1.2.1 1.7v.2c.1.6.2 1.3.3 1.9 0 .2.1.3.1.5.1.5.2 1 .4 1.5 0 .1.1.3.1.4l.6 1.8c.1.1.1.3.2.4.2.5.4 1 .7 1.4.1.1.1.3.2.4.3.6.6 1.1 1 1.7.1.1.1.2.2.3.3.5.6.9 1 1.4.1.1.2.3.3.4.4.5.9 1 1.4 1.5l38.1 38.1c-3.8-2.7-8.3-4.1-12.9-4.1-5.7 0-11.4 2.2-15.7 6.5-2 2-3.5 4.2-4.5 6.6l-1.1-1.1c-4.4-1.3.6-.6-1.7 1.7-4.6 4.6-1.3 15.4 7.3 24.1l1.9 1.9-1.5-.6c-3.6-2.2-7.6-3.3-11.6-3.3-5.7 0-11.4 2.2-15.7 6.5-2 2-3.5 4.2-4.5 6.6l-1.1-1.1c-4.4-1.3.6-.6-1.7 1.7-4.6 4.6-1.3 15.4 7.3 24.1l24.1 24.1c-4.3-4.3-8.7-5.1-14.4-5.1-5.7 0-11.4 2.2-15.7 6.5-2 2-3.5 4.2-4.5 6.6l-1.1-1.1c-4.4-1.3.6-.6-1.7 1.7-4.6 4.6-1.3 15.4 7.3 24.1l28.7 28.7c5.7 5.7 12.4 9.1 17.6 9.4 2.5 2.2 5.1 4 7.7 5.4 10.7 18.3 20.6 42 22.8 69.1 5.5 66 .3 115.8.3 115.8h137.4v-31.9c.1-10.8 4.9-75.6 31.5-122.2 4.7-8.2 11.2-16.8 18.1-24.9 25.6-30 30.8-66.6 42.1-104.4 2.3-8.8-1.1-17.9-7.9-23.2z"/><g id="XMLID_1_"><path class="st2" d="M402.3 186.3c8.6 8.6 8.6 22.8 0 31.4-8.6 8.6-22.8 8.6-31.4 0l-87.2-87.2c-8.6-8.6-8.6-22.8 0-31.4 4.3-4.3 10-6.5 15.7-6.5 5.7 0 11.4 2.2 15.7 6.5l87.2 87.2z"/><path class="st3" d="M390.7 220.8c-8.5 5-12.5 4.2-19.8-3.1l-87.2-87.2c-6-6-7.8-14.7-5.5-22.3.1 0 114.1 111.7 112.5 112.6z"/><path class="st4" d="M402.3 217.7c-8.6 8.6-22.8 8.6-31.4 0l-87.2-87.2c-8.6-8.6-8.6-22.8 0-31.4 4.3-4.3 10-6.5 15.7-6.5 5.7 0 11.4 2.2 15.7 6.5l87.2 87.2c8.6 8.7 8.6 22.8 0 31.4z"/></g><path class="st2" d="M558.7 216.8c6.8 5.3 10.2 14.4 7.8 23.2-11.2 37.8-16.5 74.4-42.1 104.4-6.9 8.1-13.4 16.7-18.1 24.9-26.6 46.6-31.4 111.4-31.5 122.2v51.1H337.5s5.1-68.9-.3-135c-5.4-64.9-54.3-109.8-54.3-109.8L464.4 275v27.7l6.6-7.9s35.5-2.5 45.6-40l3.6-13.7-49.4-49.4c-9.1-9.1-8.6-24.5 1.6-32.9 8.9-7.3 22-6.3 30.1 1.8l56.2 56.2z"/><path class="st3" d="M467.1 165.3l61.1 60.8c6.7 6.6 9.1 16.5 6.3 25.4-2.9 9-8.7 18.9-20.7 21.4 2.1-5.3 6.1-34.6 6.1-34.6l-52.7-50.8c-.1.1-4-13.5-.1-22.2z"/><path class="st5" d="M481 157.3l21 20.6c3.8 3.8 9.9 3.8 13.8 0 0 0-22.2-30.6-34.8-20.6z"/><path class="st6" d="M558.7 216.8l-56.1-56.1c-8.1-8.1-21.2-9.1-30.1-1.8-10.2 8.4-10.8 23.7-1.6 32.9l49.4 49.4-3.6 13.7c-10.1 37.5-45.6 40-45.6 40l-6.6 7.9v-27.7L283 297.9s48.9 44.9 54.3 109.8c5.5 66 .3 135 .3 135H475v-51.1c.1-10.8 4.9-75.6 31.5-122.2 4.7-8.2 11.2-16.8 18.1-24.9 25.6-30 30.8-66.6 42.1-104.4 2.2-8.9-1.2-18-8-23.3z"/><path class="st7" d="M446.9 302.6c0 50.8 42.9 92.1-45.3 92.1-50.8 0-92.1-41.2-92.1-92.1s41.2-92.1 92.1-92.1 45.3 41.3 45.3 92.1z"/><path transform="rotate(45.001 468.943 220.822)" class="st8" d="M460.6 212.5h16.7v16.7h-16.7z"/><path transform="rotate(45.001 478.96 210.803)" class="st9" d="M462.4 205h33.1v11.6h-33.1z"/><path class="st10" d="M385.2 177.9h25.1V203h-25.1z"/><circle class="st11" cx="397.8" cy="287.8" r="92.1"/><path class="st12" d="M365.9 165.3h63.8v13.5h-63.8z"/><circle class="st13" cx="397.8" cy="287.8" r="73.6"/><path class="st14" d="M405.4 227l.9.1c1.7.2 2.9 1.8 2.7 3.5l-7.7 59.5c-.2 1.7-1.8 2.9-3.5 2.7l-.9-.1c-1.7-.2-2.9-1.8-2.7-3.5l7.7-59.5c.2-1.7 1.8-2.9 3.5-2.7z"/><circle class="st15" cx="397.8" cy="287.8" r="7.1"/><circle class="st14" cx="397.8" cy="231" r="3.6"/><ellipse transform="rotate(-30 369.413 238.654)" class="st14" cx="369.4" cy="238.6" rx="3.6" ry="3.6"/><ellipse transform="rotate(-60 348.676 259.407)" class="st14" cx="348.7" cy="259.4" rx="3.6" ry="3.6"/><circle class="st14" cx="341.1" cy="287.8" r="3.6"/><ellipse transform="rotate(-30 348.652 316.12)" class="st14" cx="348.7" cy="316.1" rx="3.6" ry="3.6"/><ellipse transform="rotate(-60 369.433 336.877)" class="st14" cx="369.4" cy="336.9" rx="3.6" ry="3.6"/><circle class="st14" cx="397.8" cy="344.5" r="3.6"/><ellipse transform="rotate(-30 426.118 336.88)" class="st14" cx="426.1" cy="336.9" rx="3.6" ry="3.6"/><ellipse transform="rotate(-60 446.903 316.12)" class="st14" cx="446.9" cy="316.1" rx="3.6" ry="3.6"/><circle class="st14" cx="454.5" cy="287.8" r="3.6"/><ellipse transform="rotate(-30 446.879 259.415)" class="st14" cx="446.9" cy="259.4" rx="3.6" ry="3.6"/><ellipse transform="rotate(-60 426.146 238.65)" class="st14" cx="426.1" cy="238.6" rx="3.6" ry="3.6"/><path class="st15" d="M397.3 222.8h.9c1.7 0 3.1 1.4 3.1 3.1v60c0 1.7-1.4 3.1-3.1 3.1h-.9c-1.7 0-3.1-1.4-3.1-3.1v-60c0-1.7 1.4-3.1 3.1-3.1z"/><path class="st16" d="M484.7 287.8c0 48-38.9 86.9-86.9 86.9s-86.9-38.9-86.9-86.9c0 0 19 31.9 86.9 31.9 69.4 0 86.9-31.9 86.9-31.9z"/><path class="st17" d="M400.9 287.3c0 1.7-1.4 3.1-3.1 3.1"/><g class="st18"><path d="M333.3 336.4l-.3.3.3-.3zm15.6-45.7c0 .1-.1.2-.3.3.2-.1.3-.2.3-.3zm-.4.5l-.4.4c.1 0 .2-.2.4-.4z"/><path d="M300.5 207.9c-4.5-4.1-10.3-6-16-5.7-5.7.3-11.3 2.7-15.4 7.3-1.9 2.1-3.2 4.4-4.2 6.9l-1.1-1c-4.4-1.1.5-.6-1.7 1.8-4.4 4.8-.5 15.5 8.5 23.7l34 30.8c-4.5-4.1-8.9-4.7-14.6-4.4-5.7.3-11.3 2.7-15.4 7.3-1.9 2.1-3.2 4.4-4.2 6.9l-1.1-1c-4.4-1.1.5-.6-1.7 1.8-4.4 4.8-.5 15.5 8.5 23.7l30.1 27.2c9.1 8.2 20 10.9 24.4 6.1 1-1.1 5.1-5.6 7-7.7 8.2-9.1 7.5-23.2-1.6-31.4l-14.1-12.8c9.1 8.2 20 10.9 24.4 6.1.7-.8 5.1-5.6 7-7.7 8.2-9.1 7.5-23.2-1.6-31.4l-8.9-8-29.6-26.8-12.7-11.7zm69.4 41.9c0 .1-.1.2-.3.3.1-.1.2-.3.3-.3zm-.5.4l-.4.4c.1 0 .3-.1.4-.4z"/><path d="M372.8 213.4l-38.4-34.8c-4.5-4.1-10.3-6-16-5.7-5.7.3-11.3 2.7-15.4 7.3-1.9 2.1-3.2 4.4-4.2 6.9l-1.1-1c-4.4-1.1.5-.6-1.7 1.8-4.4 4.8-.5 15.5 8.5 23.7l38.4 34.8c9.1 8.2 20 10.9 24.4 6.1.7-.8 1.3-1.4 1.7-1.8 0 0 3.4-3.8 5.3-5.9 8.3-9.1 7.6-23.2-1.5-31.4z"/></g><path class="st2" d="M290.4 262.4l30.1 30.1c8.6 8.6 8.6 22.8 0 31.4-8.6 8.6-22.8 8.6-31.4 0l-28.7-28.7c-8.6-8.6-8.6-22.8 0-31.4 4.3-4.3 10-6.5 15.7-6.5 5.6-.1 10 .7 14.3 5.1z"/><path class="st3" d="M314.9 329.4l-1.7 1.7c-4.6 4.6-15.4 1.3-24.1-7.3l-28.7-28.7c-8.6-8.6-11.9-19.5-7.3-24.1 2.3-2.3-2.6-3.1 1.7-1.7l60.1 60.1z"/><path class="st6" d="M320.5 323.8c-8.6 8.6-22.8 8.6-31.4 0l-28.7-28.7c-8.6-8.6-8.6-22.8 0-31.4 4.3-4.3 10-6.5 15.7-6.5 5.7 0 11.4 2.2 15.7 6.5l28.7 28.7c8.6 8.7 8.6 22.8 0 31.4z"/><path class="st5" d="M293 293.9l-2.4 2.4c-4.3 4.3-4.3 11.4 0 15.8l5 5c4.3 4.3 11.4 4.3 15.8 0l2.4-2.4c4.3-4.3 4.3-11.4 0-15.8l-5-5c-4.4-4.3-11.5-4.3-15.8 0z"/><path class="st19" d="M270.9 289.9l13.2-13.3m-10.5.4l9.3-9.3"/><path class="st20" d="M291.8 313.3l2.6 2.6c2.9 2.9 6.9 4.1 10.6 3.6l-16.9-16.9c-.4 3.8.8 7.8 3.7 10.7z"/><path class="st2" d="M310.1 219.2l28.3 28.3c8.6 8.6 8.6 22.8 0 31.4-8.6 8.6-22.8 8.6-31.4 0l-40.7-40.7c-8.6-8.6-8.6-22.8 0-31.4 4.3-4.3 10-6.5 15.7-6.5 5.7.1 23.7 14.6 28.1 18.9z"/><path class="st3" d="M332.8 284.5l-1.7 1.7c-4.6 4.6-15.4 1.3-24.1-7.3l-40.7-40.7c-8.6-8.6-11.9-19.5-7.3-24.1 2.3-2.3-2.6-3.1 1.7-1.7l72.1 72.1z"/><path class="st6" d="M338.4 278.9c-8.6 8.6-22.8 8.6-31.4 0l-40.7-40.7c-8.6-8.6-8.6-22.8 0-31.4 4.3-4.3 10-6.5 15.7-6.5 5.7 0 11.4 2.2 15.7 6.5l40.7 40.7c8.6 8.7 8.6 22.8 0 31.4z"/><path class="st5" d="M310.9 249l-2.4 2.4c-4.3 4.3-4.3 11.4 0 15.8l5 5c4.3 4.3 11.4 4.3 15.8 0l2.4-2.4c4.3-4.3 4.3-11.4 0-15.8l-5-5c-4.4-4.3-11.5-4.3-15.8 0z"/><path class="st19" d="M288.8 245l13.2-13.3m-10.5.4l9.3-9.3"/><path class="st20" d="M309.7 268.4l2.6 2.6c2.9 2.9 6.9 4.1 10.6 3.6L306 257.8c-.4 3.7.8 7.7 3.7 10.6z"/><path class="st2" d="M324.7 171l36.7 36.7c8.6 8.6 8.6 22.8 0 31.4-8.6 8.6-22.8 8.6-31.4 0l-36.7-36.7c-8.6-8.6-8.6-22.8 0-31.4 4.3-4.3 10-6.5 15.7-6.5 5.7 0 11.3 2.2 15.7 6.5z"/><path class="st3" d="M355.7 244.7l-1.7 1.7c-4.6 4.6-15.4 1.3-24.1-7.3l-36.7-36.7c-8.6-8.6-11.9-19.5-7.3-24.1 2.3-2.3-2.6-3.1 1.7-1.7l68.1 68.1z"/><path class="st6" d="M361.3 239.1c-8.6 8.6-22.8 8.6-31.4 0l-36.7-36.7c-8.6-8.6-8.6-22.8 0-31.4 4.3-4.3 10-6.5 15.7-6.5 5.7 0 11.4 2.2 15.7 6.5l36.7 36.7c8.7 8.6 8.7 22.7 0 31.4z"/><path class="st5" d="M333.8 209.2l-2.4 2.4c-4.3 4.3-4.3 11.4 0 15.8l5 5c4.3 4.3 11.4 4.3 15.8 0l2.4-2.4c4.3-4.3 4.3-11.4 0-15.8l-5-5c-4.3-4.4-11.4-4.4-15.8 0z"/><path class="st19" d="M311.7 205.1l13.3-13.2m-10.5.3l9.3-9.3"/><path class="st20" d="M332.6 228.5l2.6 2.6c2.9 2.9 6.9 4.1 10.6 3.6L329 217.9c-.5 3.8.7 7.7 3.6 10.6z"/><path class="st19" d="M326.9 154l13.3-13.3m-13.3 2.7l4.7-4.6m6.8 17l9.3-9.3"/><path class="st21" d="M454.5 386.2c-10.1-14.2-16.3-52.1 1.1-80.7 13.3-21.9 37.6-35.1 55-36"/><path class="st2" d="M525.2 272.3s-18.1.4-24.6 2.8c-6.5 2.3-48.5 40.6-42.6 82.3 5.9 41.7 19.5 22.5 19.5 22.5s73.9-90.4 47.7-107.6z"/><path class="st22" d="M494.9 300.9c3.1-2.3 6.7-4.3 10.7-6.1m-31.4 38.4c1.3-5.7 3.5-11.6 6.8-17.1m-7.1 51.8s-3.9-16.6.3-34.7m39.9-134.7l24.6 24.3"/><path class="st23" d="M749.8 535.5c-1.7-.8-4.8-2.5-7.8-2.9-2.5-.3-4.9-.3-7.4-.4-3.1-.1-6.6-.3-10-.6-8.4-.8-16.6-2.6-25-3.7-8.8-1.2-17.9-1.7-27.1-1.7-1.7-3.8-4.9-6.4-8.6-8.1-5.1-4.4-10.9-4.4-17.8-2.9-.9.2-1.8.4-2.6.6-9 1.1-17.9 3.5-26.7 5.1-10.4 1.8-20.9 3.2-31.4 4.5-10.1 1.2-21.1.7-31.1 3.2-25.6-3.4-51.5-4-77.3-4.6-33.3-.8-67 .7-100.2 2.7-33.4 2-66.6 5.3-99.9 8.1-16.3 1.4-32.7 2.4-49.1 1.7-16.1-.7-31.9-4.4-48-5.7-18.2-1.5-35.8 1.3-53.7 4.6-8.4 1.5-16.7 2.9-25.2 3.7-8.9.8-17.8.5-26.7 1.1-10.4.8-13.5 16.2-3.6 20.4 15.2 6.4 32 4.4 47.9 2.2 15.6-2.2 31.3-5.1 47.1-5.1 15.2 0 30.4 3.8 45.5 5.5 17.1 1.9 34.5 1.9 51.7 1.1 33.7-1.6 67.3-5.3 101-7 33.4-1.6 66.8-2.8 100.2-3.3 24.6-.4 49.3-.6 73.9-2.4.5.4 1 .7 1.5 1 5.3 3.5 11.1 5.9 17.3 7.6 12.3 3.2 25.4 2.6 37.8-.2 9.5-2.1 18.5-5.4 27.5-8.9 8.8-1.5 17.6-2.9 26.6-3.2 8.2-.3 16.4-.1 24.5 1.3 8.7 1.5 17.1 4.1 25.6 6.1s17 4.2 25.6 5.1c4.9.5 10 .7 14.8 0 2.4-.3 4.9-.7 7.2-1.6 3.3-1.3 5-3.7 7.5-6 5.1-5.3 1.8-14.4-4-17.3z"/><path class="st24" d="M117.7 542.1H288m407.2 0H736m-418.2 0h30.9m23.9 0h257.9"/><path class="st22" d="M484.7 125.7l5.1-38.1m48.9 61l49.4-51.7m-30.9 95l36.1.3"/><circle class="st25" cx="614.3" cy="151.1" r="8.1"/><path class="st25" d="M535.6 71.4l1.7 6.5 6.4 1.6-6.4 1.6-1.7 6.5-1.6-6.5-6.5-1.6 6.5-1.6z"/></svg>