<svg id="Layer_1" xmlns="http://www.w3.org/2000/svg" viewBox="0 0 162 395"><style>.st0{fill:#e0e7ee}.st1{fill:#505f67}.st2{fill:#3d4349}.st3{fill:#3e4b52}.st4{fill:#f7e0d5}.st5{fill:#d3c0b6}.st6{fill:#e8d1c9}.st7{fill:#3c4249}.st8{fill:#dde2ee}.st9{fill:#6fa2c0}.st10{fill:#d0c0b7}.st11{fill:#fff}.st12{fill:#85bee1}.st13{fill:#e1e9f0}.st14{fill:#5a709e;stroke:#3d4349;stroke-width:4.9893;stroke-linecap:round;stroke-linejoin:round;stroke-miterlimit:10}.st15{fill:#363c41}.st16{fill:#474e53}.st17{fill:none;stroke:#e4c09d;stroke-width:3.9633;stroke-linecap:round;stroke-linejoin:round;stroke-miterlimit:10}.st18{fill:#f4e1d6}.st19{opacity:.1;fill:#be1e2d}.st20{opacity:7e-2}.st21{fill:none;stroke:#474e53;stroke-width:3;stroke-linecap:round;stroke-linejoin:round;stroke-miterlimit:10}.st22{fill:#555f65}.st23{fill:#3d4248}.st24{fill:#535f66}.st25{fill:#444d51}.st26{fill:#fff;stroke:#3d5660;stroke-width:4.0105;stroke-linecap:round;stroke-linejoin:round;stroke-miterlimit:10}.st27{fill:#c3b2a6}.st28{fill:#3e4449}.st29{opacity:.4}.st30{fill:#dce2ef}.st31{fill:#bcc2cc}</style><title>Stories Mackenzie</title><ellipse class="st0" cx="81" cy="385.1" rx="81" ry="9.3"/><path class="st1" d="M115.3 263.6H42.6l.1 118.2h31.1l.4-85.7 10.3-.1-.1 85.8h31.1z"/><path class="st2" d="M115.5 383.6H84.4c-.5 0-1-.2-1.3-.5-.3-.3-.5-.8-.5-1.3l.1-83.9h-6.6l-.4 83.9c0 1-.8 1.8-1.8 1.8H42.7c-1 0-1.8-.8-1.8-1.8l-.1-118.2c0-.5.2-1 .5-1.3.3-.3.8-.5 1.3-.5h72.8c1 0 1.8.8 1.8 1.8l.2 118.2c0 .5-.2 1-.5 1.3-.4.3-.9.5-1.4.5zm-29.3-3.7h27.4l-.2-114.5h-69l.1 114.5H72l.4-83.9c0-1 .8-1.8 1.8-1.8h10.3c.5 0 1 .2 1.3.5.3.3.5.8.5 1.3l-.1 83.9z"/><path class="st3" d="M95.9 263.9c0 7.7 6.3 14 14 14l10.1-14.1-24.1.1"/><path class="st2" d="M109.9 279.6c-8.7 0-15.7-7-15.7-15.7 0-.9.8-1.7 1.7-1.7l24-.1c.6 0 1.2.4 1.5.9.3.6.2 1.3-.1 1.8l-10.1 14.1c-.2.4-.8.7-1.3.7zm-12.2-14c.8 5.7 5.5 10.1 11.3 10.5l7.6-10.6-18.9.1z"/><path class="st3" d="M65.1 263.9c0 7.7-6.3 14-14 14L41 263.8l24.1.1"/><path class="st2" d="M51.1 279.6c-.6 0-1.1-.3-1.4-.7l-10.1-14.1c-.4-.5-.4-1.2-.1-1.8.3-.6.9-.9 1.5-.9l24 .1c.9 0 1.7.8 1.7 1.7.1 8.6-7 15.7-15.6 15.7zm-6.8-14.1l7.6 10.6c5.8-.4 10.5-4.9 11.3-10.5l-18.9-.1z"/><path class="st4" d="M137.4 194v69H21.2v-69c0-20.2 16.5-36.7 36.7-36.7h5.2c2.8 0 5.2-2.3 5.2-5.2v-18.4h23.6v18.4c0 2.8 2.3 5.2 5.2 5.2h5.9c20 0 34.4 16.5 34.4 36.7z"/><path class="st5" d="M78.6 144.1c-8.8 0-11.8-2-11.8-2v-3.9h23.6v3.9s-3 2-11.8 2z"/><path class="st6" d="M101.4 158h-.2v1c0 12.3-10 22.3-22.3 22.3s-22.3-10-22.3-22.3v-1h-.2c-20.2 0-36.7 16.5-36.7 36.7l.7 69H136v-69c0-20.2-14.4-36.7-34.6-36.7z"/><path class="st7" d="M136 264.6H20.5c-.9 0-1.7-.7-1.7-1.7l-.7-69c0-21.1 17.2-38.3 38.3-38.3h5.2c1.9 0 3.5-1.6 3.5-3.5v-18.4c0-.9.7-1.7 1.7-1.7h23.6c.9 0 1.7.7 1.7 1.7v18.4c0 1.9 1.6 3.5 3.5 3.5h5.9c10.1 0 19.3 4 26.1 11.3 6.5 7.1 10.2 16.7 10.2 27v69c-.2 1-.9 1.7-1.8 1.7zm-113.9-3.3h112.2V194c0-19.9-14.1-35-32.9-35h-5.9c-3.8 0-6.8-3.1-6.8-6.8v-16.8H68.5v16.8c0 3.8-3.1 6.8-6.8 6.8h-5.2c-19.3 0-35 15.7-35 35l.6 67.3z"/><path class="st8" d="M136.7 194v69H20.5v-69c0-18.1 13.3-33.3 30.7-36.2.1 12-.5 19.2 8.9 22.2 1.2.4 9.9-6.7 11.2-6.5 1.8.3 1.9 8.8 4 8.8 2.9 0 7.7-8.9 10.6-9.5 1.3-.3 5.4 6.3 6.7 5.9 11-3.4 11.9-10 12-21.3 17.3 2.8 32.1 18.5 32.1 36.6z"/><path class="st9" d="M42.7 206.1s3.2 7.3 3.5 20.4c.2 8.2.2 36.1.2 36.1 0-1.2-4.7 1.3-4.7 1.3s-3-54.6 1-57.8z"/><path class="st7" d="M136 264.6H21.2c-.9 0-1.6-.7-1.6-1.6l-1.4-69c0-18.5 13.8-34.7 32-37.8.9-.1 1.7.4 1.8 1.3.1.9-.4 1.7-1.3 1.8C34 162.2 21.4 177 21.4 194l1.4 67.4h111.6V194c0-9.2-2.6-17.2-7.5-23.2-5.5-6.8-13.7-10.8-24.3-11.8-.9-.1-1.5-.9-1.4-1.7.1-.9.9-1.5 1.7-1.4 21.6 2.2 34.6 16.5 34.6 38.2v69c.1.7-.6 1.5-1.5 1.5z"/><path class="st10" d="M78.7 169.1c-.3 0-.6-.1-.9-.3l-4.4-4c-.5-.5-.6-1.3-.1-1.9.5-.5 1.3-.6 1.9-.1l3.5 3.1 3-3.1c.5-.5 1.4-.5 1.9 0s.5 1.4 0 1.9l-3.9 4c-.3.3-.6.4-1 .4z"/><path class="st11" d="M53.1 183.2c-.3 0-.5-.1-.7-.3-1.3-1.4-2.5-2.9-3.5-4.4-.3-.5-.2-1.1.3-1.4.5-.3 1.1-.2 1.4.3 1 1.5 2.1 2.9 3.4 4.2.4.4.4 1 0 1.4-.4.1-.7.2-.9.2zm49.2 2.4c-.3 0-.6-.1-.8-.3-.4-.4-.3-1 .1-1.4 1.8-1.6 3.4-3.3 4.9-5.2.3-.4 1-.5 1.4-.2s.5 1 .2 1.4c-1.5 2-3.2 3.9-5.1 5.5-.2.1-.4.2-.7.2zm6.8-7.9c-.2 0-.4 0-.5-.2-.5-.3-.6-.9-.3-1.4.6-.9 1.1-1.8 1.6-2.7.2-.5.9-.7 1.3-.4.5.2.7.9.4 1.3-.5 1-1.1 2-1.6 2.9-.3.3-.6.5-.9.5zm3-6.1c-.1 0-.2 0-.4-.1-.5-.2-.8-.8-.6-1.3.5-1.3.9-2.6 1.2-3.9.1-.5.7-.9 1.2-.7.5.1.9.7.7 1.2-.4 1.4-.8 2.8-1.3 4.1 0 .4-.4.7-.8.7zm-65.2 2.6c-.4 0-.7-.2-.9-.6-.7-1.5-1.4-3.1-1.9-4.7-.2-.5.1-1.1.6-1.3.5-.2 1.1.1 1.3.6.5 1.5 1.1 3 1.8 4.5.2.5 0 1.1-.5 1.3-.1.2-.3.2-.4.2z"/><path class="st12" d="M41.3 262.6v-55.1"/><path class="st7" d="M41.3 264.3c-.9 0-1.7-.7-1.7-1.7v-55.1c0-.9.7-1.7 1.7-1.7.9 0 1.7.7 1.7 1.7v55.1c0 1-.8 1.7-1.7 1.7z"/><g id="XMLID_42_"><path class="st11" d="M117.6 385.1H82.4c0-8.9 7.9-16.1 17.6-16.1s17.6 7.2 17.6 16.1z"/><path class="st13" d="M117.6 385.1H82.4c0-8.9 7.9-3.7 17.6-3.7s17.6-5.2 17.6 3.7z"/><path class="st2" d="M117.6 386.7H82.4c-.9 0-1.6-.7-1.6-1.6 0-9.8 8.6-17.7 19.2-17.7s19.2 7.9 19.2 17.7c0 .9-.7 1.6-1.6 1.6zm-33.5-3.2h31.7c-.9-7.2-7.7-12.8-15.9-12.8s-14.9 5.6-15.8 12.8z"/></g><g id="XMLID_41_"><path class="st11" d="M75.9 385.1H40.8c0-8.9 7.9-16.1 17.6-16.1s17.5 7.2 17.5 16.1z"/><path class="st13" d="M75.9 385.1H40.8c0-8.9 7.9-3.7 17.6-3.7s17.5-5.2 17.5 3.7z"/><path class="st2" d="M75.9 386.8H40.8c-.9 0-1.6-.7-1.6-1.6 0-9.8 8.6-17.7 19.2-17.7s19.2 7.9 19.2 17.7c0 .8-.7 1.6-1.7 1.6zm-33.4-3.3h31.7c-.9-7.2-7.7-12.8-15.9-12.8s-14.9 5.6-15.8 12.8z"/></g><circle class="st3" cx="99.9" cy="326.2" r="6.9"/><circle class="st3" cx="58.3" cy="326.3" r="6.9"/><circle class="st11" cx="79.8" cy="269" r="1.8"/><path class="st15" d="M109.2 29.4s32-12.8 17.6 43.2c-.1 0-12.3-35.1-17.6-43.2z"/><path class="st7" d="M126.7 74c-.6 0-1.1-.4-1.3-.9-.1-.3-12.3-35-17.4-42.9-.2-.3-.3-.8-.2-1.2.1-.4.4-.7.8-.9.4-.2 10.3-4 17.2 2 7.2 6.3 7.9 20.7 2.2 42.8-.1.7-.6 1.1-1.3 1.1.1 0 .1 0 0 0zm-15.4-43.8c4.4 8 12 28.5 15.2 37.5 5.2-22.8 1.6-31.9-2.5-35.5-4.1-3.6-10-2.7-12.7-2z"/><path class="st15" d="M49.1 31.2S11.8 21.1 30.2 74.4c0 0 6.5-33.2 18.9-43.2z"/><path class="st7" d="M30.2 76c-.7 0-1.3-.4-1.5-1.1-6.8-19.8-6.9-33.5-.2-40.7 7.6-8.1 20.5-4.7 21.1-4.6.6.2 1.1.6 1.2 1.2.1.6-.1 1.2-.6 1.6-11.9 9.6-18.3 42-18.4 42.3-.1.7-.8 1.3-1.5 1.3h-.1zm12.4-43.9c-3.8 0-8.5.8-11.8 4.3-5.1 5.5-5.4 16.4-.9 31.7 2.3-9.3 7.5-27 15.7-35.9-.8-.1-1.9-.1-3-.1z"/><path class="st15" d="M74.7 1.9c-15-2.2-31.8 27.5-31.8 27.5L46 61.2l71.9 3.7-4.4-36.3c1.1.2-28.3-25.1-38.8-26.7z"/><path class="st7" d="M117.8 66.3l-72-3.7c-.7 0-1.2-.6-1.3-1.3l-3.1-31.8c0-.3 0-.6.2-.8C42.3 27.5 59-1.7 74.8.6c5.7.8 16 7.9 23.7 13.7 5.2 3.9 15.7 12.4 16.2 13.7.1.2.1.4.1.6l4.4 36c0 .4-.1.8-.4 1.1-.2.4-.6.6-1 .6zm-70.6-6.4l69 3.5-4.1-34.4c-2.9-3-28.5-24.4-37.6-25.7-7.1-1-15 6.2-20.3 12.4-5.2 6.1-9 12.4-9.9 14l2.9 30.2z"/><path class="st16" d="M100.4 30.8c-.2 0-.3 0-.5-.1-.5-.2-13.4-5-24.1-20.1-.4-.6-.3-1.5.3-1.9.6-.4 1.5-.3 1.9.3 10.2 14.4 22.6 19.1 22.7 19.1.7.3 1.1 1.1.8 1.8 0 .5-.6.9-1.1.9zm-12.4 0c-.3 0-.6-.1-.9-.3-.3-.2-7.2-5.8-10.5-9.4-.5-.6-.5-1.4.1-2 .6-.5 1.4-.5 2 .1 3.2 3.4 10.2 9.1 10.2 9.1.6.5.7 1.4.2 2-.3.3-.7.5-1.1.5zM73.9 19.4c-.3 0-.6-.1-.9-.3-.1-.1-3.5-3-5.4-8.9-.2-.7.2-1.5.9-1.7.7-.2 1.5.2 1.7.9 1.6 5.1 4.5 7.6 4.5 7.6.6.5.7 1.4.2 2-.3.2-.6.4-1 .4zm3.6 11.4c-.2 0-.4 0-.6-.1-.4-.2-9.8-5-12.8-14-.2-.7.2-1.5.9-1.8.7-.2 1.5.2 1.8.9 2.6 7.9 11.3 12.3 11.4 12.4.7.3 1 1.2.6 1.9-.3.4-.7.7-1.3.7z"/><g id="XMLID_49_"><path class="st4" d="M126.9 65.8v28.7c0 23.8-19.5 43.3-43.3 43.3H73.5c-23.8 0-43.3-19.5-43.3-43.3V64.8c0-4.1 2-14.8 5.1-21.1s7.1-11.5 11.2-11.5c0 0 16.6 6.5 34 6.5 16.2 0 33.3-6.5 33.3-6.5 8 0 13.1 25.5 13.1 33.6z"/><path class="st5" d="M125.6 56.9l-9.8-14.4c-2.2-2.8-5.7-4.2-9.2-3.7l-15 4.2c-1.2.3-2.4.6-3.7.8-6 .8-12 .8-18 .1-1.6-.2-3.1-.5-4.6-1l-14-4.1c-3.3-.5-6.7.7-8.9 3.2L30.2 56c0-4.1 3.4-8.6 6.5-14.8s5.8-8.9 9.8-8.9c0 0 16.6 6.5 34 6.5 16.2 0 34.6-7 34.6-7 4.7-.1 10.5 17 10.5 25.1zm-47 72c41 0 48.2-34.4 48.2-34.4 0 23.8-19.5 43.3-43.3 43.3h-10c-23.8 0-43.3-19.5-43.3-43.3 0 0 7.3 34.4 48.4 34.4z"/><path class="st7" d="M83.6 139.4H73.5c-24.8 0-45-20.2-45-45V64.8c0-4.4 2.1-15.3 5.3-21.8 2.3-4.6 6.9-12.4 12.7-12.4.2 0 .4 0 .6.1.2.1 16.5 6.4 33.3 6.4 15.7 0 32.5-6.3 32.7-6.4.2-.1.4-.1.6-.1 10.2 0 14.9 28 14.9 35.2v28.7c-.1 24.8-20.2 44.9-45 44.9zM46.2 33.9c-2.8.2-6.3 4.2-9.4 10.6-2.8 5.8-4.9 16.3-4.9 20.4v29.6c0 22.9 18.7 41.6 41.6 41.6h10.1c22.9 0 41.6-18.7 41.6-41.6V65.8c0-8.8-5.3-31.2-11.2-31.8-2.5.9-18.2 6.5-33.5 6.5-16.4-.1-31.8-5.6-34.3-6.6z"/></g><path class="st18" d="M52.9 73.9c1.3-2.3 3.9-3.9 6.8-3.9s5.4 1.6 6.8 3.9"/><path class="st7" d="M66.4 75.3c-.5 0-.9-.2-1.2-.7-1.1-2-3.3-3.2-5.6-3.2s-4.4 1.2-5.6 3.2c-.4.7-1.2.9-1.9.5s-.9-1.2-.5-1.9c1.6-2.8 4.7-4.6 7.9-4.6 3.3 0 6.3 1.8 7.9 4.6.4.7.2 1.5-.5 1.9 0 .1-.3.2-.5.2z"/><path class="st18" d="M87.9 74c1.3-2.3 3.9-3.9 6.8-3.9s5.4 1.6 6.8 3.9"/><path class="st7" d="M101.4 75.4c-.5 0-.9-.2-1.2-.7-1.1-2-3.3-3.2-5.6-3.2s-4.4 1.2-5.6 3.2c-.4.7-1.2.9-1.9.5s-.9-1.2-.5-1.9c1.6-2.8 4.7-4.6 7.9-4.6 3.3 0 6.3 1.8 7.9 4.6.4.7.2 1.5-.5 1.9 0 .1-.2.2-.5.2zm-26.2 40.5c-6.7 0-9.8-4.4-10-4.6-.4-.6-.3-1.4.3-1.9.6-.4 1.4-.3 1.9.3.2.2 3.8 5.2 12 2.9.7-.2 1.5.2 1.7.9.2.7-.2 1.5-.9 1.7-1.9.5-3.5.7-5 .7z"/><circle class="st19" cx="49.8" cy="91.4" r="8.4"/><circle class="st19" cx="106.4" cy="91.4" r="8.4"/><path class="st20" d="M81 80.6s5.1 11.1 5.9 14.6c.5 2-.3 3-2.3 3.7-2.1.8-4.9 1.3-7.4 0l6.5-3.8L81 80.6z"/><path class="st7" d="M77.2 99.3c-.7 0-1.3-.6-1.3-1.3s.6-1.3 1.3-1.3c2.7 0 5-1 5.1-1.5-.5-5.5-3.8-14-3.8-14.1-.3-.7.1-1.5.8-1.7.7-.3 1.5.1 1.7.8.1.4 3.4 8.9 4 14.8.1.5 0 1.3-.8 2.1-1.4 1.5-4.5 2.2-7 2.2z"/><path class="st16" d="M74.1 120.6c-.6 0-1.1-.5-1.1-1.1v-1.9c0-.6.5-1.1 1.1-1.1.6 0 1.1.5 1.1 1.1v1.9c0 .7-.5 1.1-1.1 1.1zm2.8.8c-.6 0-1.1-.5-1.1-1.1v-2.7c0-.6.5-1.1 1.1-1.1s1.1.5 1.1 1.1v2.7c0 .7-.5 1.1-1.1 1.1zm2.9-.8c-.6 0-1.1-.5-1.1-1.1v-1.9c0-.6.5-1.1 1.1-1.1.6 0 1.1.5 1.1 1.1v1.9c-.1.7-.6 1.1-1.1 1.1zm-22.8-.8c-.6 0-1.1-.5-1.1-1.1V116c0-.6.5-1.1 1.1-1.1.6 0 1.1.5 1.1 1.1v2.7c0 .6-.5 1.1-1.1 1.1zm-3.8 0c-.6 0-1.1-.5-1.1-1.1V116c0-.6.5-1.1 1.1-1.1.6 0 1.1.5 1.1 1.1v2.7c-.1.6-.6 1.1-1.1 1.1zm-3.9 0c-.6 0-1.1-.5-1.1-1.1V116c0-.6.5-1.1 1.1-1.1.6 0 1.1.5 1.1 1.1v2.7c0 .6-.5 1.1-1.1 1.1zm7.7 10.4c-.6 0-1.1-.5-1.1-1.1v-1.7c0-.6.5-1.1 1.1-1.1.6 0 1.1.5 1.1 1.1v1.7c0 .6-.5 1.1-1.1 1.1zm4.1 1.4c-.6 0-1.1-.5-1.1-1.1v-3.1c0-.6.5-1.1 1.1-1.1.6 0 1.1.5 1.1 1.1v3.1c0 .7-.5 1.1-1.1 1.1zm4.5 0c-.6 0-1.1-.5-1.1-1.1v-3.1c0-.6.5-1.1 1.1-1.1s1.1.5 1.1 1.1v3.1c0 .7-.5 1.1-1.1 1.1zm4.6 0c-.6 0-1.1-.5-1.1-1.1v-3.1c0-.6.5-1.1 1.1-1.1s1.1.5 1.1 1.1v3.1c-.1.7-.6 1.1-1.1 1.1zm4.5 0c-.6 0-1.1-.5-1.1-1.1v-3.1c0-.6.5-1.1 1.1-1.1s1.1.5 1.1 1.1v3.1c-.1.7-.5 1.1-1.1 1.1zm4.5 0c-.6 0-1.1-.5-1.1-1.1v-3.1c0-.6.5-1.1 1.1-1.1s1.1.5 1.1 1.1v3.1c0 .7-.5 1.1-1.1 1.1zM68 134.1h-.2c-.1 0-.1 0-.2-.1-.1 0-.1-.1-.2-.1s-.1-.1-.2-.1c0 0-.1-.1-.1-.2s-.1-.1-.1-.2 0-.1-.1-.2v-.4c0-.1 0-.1.1-.2 0-.1.1-.1.1-.2s.1-.1.1-.2c0 0 .1-.1.2-.1s.1-.1.2-.1.1 0 .2-.1c.3-.1.7 0 .9.3 0 0 .1.1.1.2s.1.1.1.2 0 .1.1.2v.4c0 .1 0 .1-.1.2 0 .1-.1.1-.1.2s-.1.1-.1.2c0 0-.1.1-.2.1s-.1.1-.2.1-.1 0-.2.1H68zm4.6 1c-.6 0-1.1-.5-1.1-1.1v-1c0-.6.5-1.1 1.1-1.1.6 0 1.1.5 1.1 1.1v1c0 .6-.5 1.1-1.1 1.1zm4.6 0c-.6 0-1.1-.5-1.1-1.1v-1c0-.6.5-1.1 1.1-1.1.6 0 1.1.5 1.1 1.1v1c0 .6-.5 1.1-1.1 1.1zm-24-6.3c-.6 0-1.1-.5-1.1-1.1v-.3c0-.6.5-1.1 1.1-1.1.6 0 1.1.5 1.1 1.1v.3c-.1.7-.6 1.1-1.1 1.1zm-7.8-9c-.6 0-1.1-.5-1.1-1.1V116c0-.6.5-1.1 1.1-1.1.6 0 1.1.5 1.1 1.1v2.7c0 .6-.5 1.1-1.1 1.1zm-4-1.1c-.6 0-1.1-.5-1.1-1.1V116c0-.6.5-1.1 1.1-1.1.6 0 1.1.5 1.1 1.1v1.6c0 .7-.5 1.1-1.1 1.1zm74.8 0c-.6 0-1.1-.5-1.1-1.1V116c0-.6.5-1.1 1.1-1.1.6 0 1.1.5 1.1 1.1v1.6c0 .7-.5 1.1-1.1 1.1zm-61.1 7c-.6 0-1.1-.5-1.1-1.1v-2.7c0-.6.5-1.1 1.1-1.1.6 0 1.1.5 1.1 1.1v2.7c-.1.6-.5 1.1-1.1 1.1zm4.1 0c-.6 0-1.1-.5-1.1-1.1v-2.7c0-.6.5-1.1 1.1-1.1.6 0 1.1.5 1.1 1.1v2.7c0 .6-.5 1.1-1.1 1.1zm3.6 0c-.6 0-1.1-.5-1.1-1.1v-2.7c0-.6.5-1.1 1.1-1.1.6 0 1.1.5 1.1 1.1v2.7c0 .6-.5 1.1-1.1 1.1zm-3.6-12.2c-.6 0-1.1-.5-1.1-1.1v-2.7c0-.6.5-1.1 1.1-1.1.6 0 1.1.5 1.1 1.1v2.7c0 .7-.5 1.1-1.1 1.1zm2.4-6.3c-.6 0-1.1-.5-1.1-1.1v-2.7c0-.6.5-1.1 1.1-1.1.6 0 1.1.5 1.1 1.1v2.7c0 .6-.5 1.1-1.1 1.1zm4.1-1.3c-.6 0-1.1-.5-1.1-1.1v-2.7c0-.6.5-1.1 1.1-1.1.6 0 1.1.5 1.1 1.1v2.7c-.1.6-.5 1.1-1.1 1.1zm4.5 0c-.6 0-1.1-.5-1.1-1.1v-2.7c0-.6.5-1.1 1.1-1.1s1.1.5 1.1 1.1v2.7c0 .6-.5 1.1-1.1 1.1zm4.5 0c-.6 0-1.1-.5-1.1-1.1v-2.7c0-.6.5-1.1 1.1-1.1s1.1.5 1.1 1.1v2.7c0 .6-.5 1.1-1.1 1.1zm4.5 0c-.6 0-1.1-.5-1.1-1.1v-2.7c0-.6.5-1.1 1.1-1.1s1.1.5 1.1 1.1v2.7c0 .6-.5 1.1-1.1 1.1zm-28 19.8c-.6 0-1.1-.5-1.1-1.1v-2.7c0-.6.5-1.1 1.1-1.1.6 0 1.1.5 1.1 1.1v2.7c0 .6-.5 1.1-1.1 1.1zm-3.8-1.6c-.6 0-1.1-.5-1.1-1.1v-1.2c0-.6.5-1.1 1.1-1.1.6 0 1.1.5 1.1 1.1v1.2c-.1.7-.5 1.1-1.1 1.1zm54-4.3c-.6 0-1.1-.5-1.1-1.1V116c0-.6.5-1.1 1.1-1.1s1.1.5 1.1 1.1v2.7c0 .6-.5 1.1-1.1 1.1zm3.9 0c-.6 0-1.1-.5-1.1-1.1V116c0-.6.5-1.1 1.1-1.1.6 0 1.1.5 1.1 1.1v2.7c-.1.6-.5 1.1-1.1 1.1zm3.8 0c-.6 0-1.1-.5-1.1-1.1V116c0-.6.5-1.1 1.1-1.1s1.1.5 1.1 1.1v2.7c0 .6-.5 1.1-1.1 1.1zm-7.7 10.4c-.6 0-1.1-.5-1.1-1.1v-1.7c0-.6.5-1.1 1.1-1.1s1.1.5 1.1 1.1v1.7c0 .6-.5 1.1-1.1 1.1zm-4.1 1.4c-.6 0-1.1-.5-1.1-1.1v-3.1c0-.6.5-1.1 1.1-1.1s1.1.5 1.1 1.1v3.1c0 .7-.5 1.1-1.1 1.1zm-4.5 0c-.6 0-1.1-.5-1.1-1.1v-3.1c0-.6.5-1.1 1.1-1.1s1.1.5 1.1 1.1v3.1c0 .7-.5 1.1-1.1 1.1zm-4.5 0c-.6 0-1.1-.5-1.1-1.1v-3.1c0-.6.5-1.1 1.1-1.1s1.1.5 1.1 1.1v3.1c-.1.7-.5 1.1-1.1 1.1zm-4.6 0c-.6 0-1.1-.5-1.1-1.1v-3.1c0-.6.5-1.1 1.1-1.1s1.1.5 1.1 1.1v3.1c0 .7-.5 1.1-1.1 1.1zm7.3 2.5h-.2c-.1 0-.1 0-.2-.1-.1 0-.1-.1-.2-.1s-.1-.1-.2-.1c-.2-.2-.3-.5-.3-.7v-.2c0-.1 0-.1.1-.2 0-.1.1-.1.1-.2s.1-.1.1-.2c0 0 .1-.1.2-.1s.1-.1.2-.1.1 0 .2-.1c.3-.1.7 0 .9.3 0 0 .1.1.1.2s.1.1.1.2 0 .1.1.2v.4c0 .1 0 .1-.1.2 0 .1-.1.1-.1.2s-.1.1-.1.2c-.2.1-.4.2-.7.2zm-4.6 1c-.6 0-1.1-.5-1.1-1.1v-1c0-.6.5-1.1 1.1-1.1s1.1.5 1.1 1.1v1c-.1.6-.5 1.1-1.1 1.1zm-4.6 0c-.6 0-1.1-.5-1.1-1.1v-1c0-.6.5-1.1 1.1-1.1.6 0 1.1.5 1.1 1.1v1c-.1.6-.5 1.1-1.1 1.1zm23.5-6.3c-.6 0-1.1-.5-1.1-1.1v-.3c0-.6.5-1.1 1.1-1.1.6 0 1.1.5 1.1 1.1v.3c-.1.7-.5 1.1-1.1 1.1zm7.7-9c-.6 0-1.1-.5-1.1-1.1V116c0-.6.5-1.1 1.1-1.1s1.1.5 1.1 1.1v2.7c-.1.6-.5 1.1-1.1 1.1zm-9.6 5.9c-.6 0-1.1-.5-1.1-1.1v-2.7c0-.6.5-1.1 1.1-1.1s1.1.5 1.1 1.1v2.7c-.1.6-.6 1.1-1.1 1.1zm-4.2 0c-.6 0-1.1-.5-1.1-1.1v-2.7c0-.6.5-1.1 1.1-1.1.6 0 1.1.5 1.1 1.1v2.7c0 .6-.5 1.1-1.1 1.1zm-3.6 0c-.6 0-1.1-.5-1.1-1.1v-2.7c0-.6.5-1.1 1.1-1.1.6 0 1.1.5 1.1 1.1v2.7c0 .6-.5 1.1-1.1 1.1zm3.6-12.2c-.6 0-1.1-.5-1.1-1.1v-2.7c0-.6.5-1.1 1.1-1.1.6 0 1.1.5 1.1 1.1v2.7c0 .7-.5 1.1-1.1 1.1zm-2.4-6.3c-.6 0-1.1-.5-1.1-1.1v-2.7c0-.6.5-1.1 1.1-1.1s1.1.5 1.1 1.1v2.7c0 .6-.5 1.1-1.1 1.1zm-4.1-1.3c-.6 0-1.1-.5-1.1-1.1v-2.7c0-.6.5-1.1 1.1-1.1s1.1.5 1.1 1.1v2.7c0 .6-.5 1.1-1.1 1.1zm-4.5 0c-.6 0-1.1-.5-1.1-1.1v-2.7c0-.6.5-1.1 1.1-1.1s1.1.5 1.1 1.1v2.7c0 .6-.5 1.1-1.1 1.1zm-4.5 0c-.6 0-1.1-.5-1.1-1.1v-2.7c0-.6.5-1.1 1.1-1.1s1.1.5 1.1 1.1v2.7c0 .6-.5 1.1-1.1 1.1zm23.5 19.8c-.6 0-1.1-.5-1.1-1.1v-2.7c0-.6.5-1.1 1.1-1.1.6 0 1.1.5 1.1 1.1v2.7c0 .6-.5 1.1-1.1 1.1zm3.9-1.6c-.6 0-1.1-.5-1.1-1.1v-1.2c0-.6.5-1.1 1.1-1.1s1.1.5 1.1 1.1v1.2c-.1.7-.6 1.1-1.1 1.1z"/><path class="st6" d="M30.8 246.1c-.6 0-1.1-.5-1.1-1.1v-2.5c0-.6.5-1.1 1.1-1.1s1.1.5 1.1 1.1v2.5c-.1.6-.5 1.1-1.1 1.1zm5.5-4c-.6 0-1.1-.5-1.1-1.1v-2.5c0-.6.5-1.1 1.1-1.1s1.1.5 1.1 1.1v2.5c0 .6-.5 1.1-1.1 1.1zm-11 0c-.6 0-1.1-.5-1.1-1.1v-2.5c0-.6.5-1.1 1.1-1.1s1.1.5 1.1 1.1v2.5c-.1.6-.6 1.1-1.1 1.1zm5.2 18.6c-.5 0-1-.4-1-.9l-.4-2.4c-.1-.6.3-1.1.9-1.2.6-.1 1.1.3 1.2.9l.4 2.4c.1.6-.3 1.1-.9 1.2h-.2zm5.8-10.2c-.6 0-1.1-.5-1.1-1.1V247c0-.6.5-1.1 1.1-1.1s1.1.5 1.1 1.1v2.5c0 .5-.5 1-1.1 1z"/><path class="st22" d="M56.6 264.2h14.3v5.4H56.6z"/><path class="st23" d="M70.9 271.4H56.6c-.9 0-1.7-.7-1.7-1.7v-5.4c0-.9.7-1.7 1.7-1.7h14.3c.9 0 1.7.7 1.7 1.7v5.4c-.1.9-.8 1.7-1.7 1.7zM58.3 268h10.9v-2.1H58.3v2.1z"/><path class="st6" d="M25.3 250.5c-.6 0-1.1-.5-1.1-1.1V247c0-.6.5-1.1 1.1-1.1s1.1.5 1.1 1.1v2.5c-.1.5-.6 1-1.1 1z"/><path class="st24" d="M55.1 157.4l14.7 62c1.1 4.8 1.4 9.8.8 14.7-2 16.6-7.4 54.9-15.5 61-10.4 7.9-32.3.8-33.9-32.2s-1.4-31.1-1.4-31.1-.9-38.5 0-49.7 3.3-24.3 35.3-24.7z"/><path class="st23" d="M46 299.8c-2.8 0-5.8-.6-8.6-2-10.5-4.9-17-17.6-17.9-34.8-.6-12.5-1-21.5-1.2-26.6-.1-2.1-.1-3.2-.1-3.8v-.7c0-1.6-.9-38.7 0-49.9.7-9.7 2-25.9 36.9-26.4.8 0 1.4.5 1.6 1.3l14.7 62c1.2 5 1.5 10.2.9 15.3-2.5 20.5-7.8 55.8-16.2 62.2-2.9 2.2-6.4 3.4-10.1 3.4zm-24.5-67.7c0 .7.1 4.9 1.4 30.8 1.1 22.6 11.5 29.8 16 31.9 5.3 2.5 11.2 2.1 15.3-1 5.3-4 10.9-26.4 14.9-59.9.6-4.7.3-9.5-.8-14.2L53.9 159c-28.2.7-31.4 11.4-32.3 23.3-.8 11 0 49.1 0 49.5-.1.1-.1.2-.1.3z"/><path class="st25" d="M45.9 198.4s4.9 51 7.3 62.2 10.3 29.9 1.2 30.6c-9 .7-15 3.5-21.3 2.5-4.7-.7-12.3-7.2-12-14.3.2-7.1 20.6-21 20.6-21l4.2-60z"/><path class="st18" d="M45.5 264.6c-1.2-.6-2-7.1-2-7.1l-21.3 3.3.9 6.9s-3.1 4.8-2.1 11.8c1.4 9.1 4.1 11.6 8.3 10.9 10.1-1.5 17.7-1.5 18.9-5.7 0 0-.3 2.9 3.9 3.9 8.9.8 3.1-13.8 1-16.7-1.9-2.6-.9-2.5-7.6-7.3z"/><path class="st2" d="M28.2 292.1c-2.2 0-4-.8-5.3-2.5-1.7-2-2.8-5.1-3.5-9.9-.9-6.2 1.2-10.9 2-12.4l-.8-6.3c-.1-.9.5-1.7 1.4-1.8l21.3-3.3c.4-.1.9 0 1.2.3s.6.7.6 1.1c.3 2.6.9 5.3 1.3 6 5.3 3.8 6 4.7 7.2 6.4.2.4.5.8.9 1.3 1.9 2.4 5.9 11.9 3.3 16.6-.7 1.4-2.3 2.9-5.7 2.7h-.2c-1.9-.4-3.2-1.3-4-2.2-2.6 2-7.1 2.6-12.9 3.3-1.7.2-3.5.4-5.4.7h-1.4zm-4.2-30l.7 5.3c.1.4 0 .8-.2 1.1 0 0-2.8 4.4-1.8 10.7.6 4.1 1.5 6.9 2.8 8.3.9 1.1 2.1 1.5 3.7 1.2 1.9-.3 3.7-.5 5.5-.7 6.4-.8 11.4-1.5 12.1-3.8.2-.8.9-1.3 1.7-1.2.9.1 1.5.9 1.4 1.8 0 .2.1 1.6 2.6 2.2 1.9.1 2.3-.7 2.5-1 1.6-2.9-1.4-11-3.1-13.1-.4-.6-.7-1-1-1.4-.9-1.3-1.3-1.9-6.3-5.5-.6-.3-1.7-1.3-2.5-6.7L24 262.1zm22.2 1.1z"/><path class="st27" d="M45.9 275.8c0 .2 3.6 3.8 2.5 8.9"/><path class="st2" d="M48.3 286.3h-.4c-.9-.2-1.4-1.1-1.2-2 .6-2.5-.1-4.9-2-7.3-.2-.3-.5-.6-.5-1.2 0-.9.7-1.7 1.6-1.7.6 0 1.2.3 1.5.8l.1.1c3.1 4 3.1 7.7 2.6 10-.2.8-.9 1.3-1.7 1.3zm-.8-10.6z"/><path class="st28" d="M35.6 289.2c-.7 0-1.3-.5-1.4-1.2l-.6-4.3c-.1-.8.4-1.5 1.2-1.6.8-.1 1.5.4 1.6 1.2l.6 4.3c.1.8-.4 1.5-1.2 1.6h-.2zm6.4-1c-.7 0-1.3-.5-1.4-1.2l-.4-2.6c-.1-.8.4-1.5 1.2-1.6.8-.1 1.5.4 1.6 1.2l.4 2.6c.1.8-.4 1.5-1.2 1.6H42zm-12.4 1.9c-.7 0-1.3-.5-1.4-1.2l-.4-2.9c-.1-.8.4-1.5 1.2-1.6.8-.1 1.5.4 1.6 1.2l.4 2.9c.1.8-.4 1.5-1.2 1.6h-.2z"/><path class="st24" d="M43.5 257.5s-.7-40.2.9-59.1"/><path class="st23" d="M43.5 259.1c-.9 0-1.7-.7-1.7-1.6 0-.4-.6-40.5.9-59.3.1-.9.9-1.6 1.8-1.5.9.1 1.6.9 1.5 1.8-1.5 18.7-.9 58.6-.9 59 .1.9-.7 1.6-1.6 1.6z"/><ellipse transform="rotate(-88.221 64.025 238.048) scale(.99998)" class="st23" cx="64" cy="238" rx="2" ry="2"/><ellipse transform="rotate(-88.221 61.63 256.842) scale(.99998)" class="st23" cx="61.6" cy="256.8" rx="2" ry="2"/><path class="st22" d="M85.5 264.2h14.3v5.4H85.5z"/><path class="st23" d="M99.8 271.4H85.5c-.9 0-1.7-.7-1.7-1.7v-5.4c0-.9.7-1.7 1.7-1.7h14.3c.9 0 1.7.7 1.7 1.7v5.4c-.1.9-.8 1.7-1.7 1.7zM87.2 268h10.9v-2.1H87.2v2.1z"/><path class="st3" d="M91.6 263.9c0 7.7 6.3 14 14 14l10.1-14.1-24.1.1"/><path class="st2" d="M105.6 279.6c-8.7 0-15.7-7-15.7-15.7 0-.9.8-1.7 1.7-1.7l24-.1c.6 0 1.2.4 1.5.9.3.6.2 1.3-.1 1.8l-10.1 14.1c-.3.4-.8.7-1.3.7zm-12.2-14c.8 5.7 5.5 10.1 11.3 10.5l7.6-10.6-18.9.1z"/><path class="st6" d="M126.1 260.7h-.2c-.6-.1-1-.6-.9-1.2l.4-2.4c.1-.6.6-1 1.2-.9.6.1 1 .6.9 1.2l-.4 2.4c0 .5-.5.9-1 .9z"/><path class="st24" d="M101.5 157.4l-14.7 62c-1.1 4.8-1.4 9.8-.8 14.7 2 16.6 7.4 54.9 15.5 61 10.4 7.9 33.2-1.4 34.8-34.4 1.6-33 .5-28.9.5-28.9s.9-38.5 0-49.7c-.8-11.1-3.2-24.3-35.3-24.7z"/><path class="st23" d="M109.9 299.4c-3.5 0-6.7-1-9.3-3-8.3-6.3-13.7-41.7-16.2-62.2-.6-5.1-.3-10.3.9-15.3l14.7-62c.2-.8.9-1.3 1.6-1.3 35 .5 36.2 16.7 36.9 26.4.8 10.5.1 43.8 0 49.2.6 2.2.5 8.8-.5 29.6-.8 17.6-8.1 31.3-19.4 36.6-2.9 1.4-5.9 2-8.7 2zm-7-140.3l-14.4 60.7c-1.1 4.7-1.4 9.4-.8 14.2 4 33.5 9.6 55.9 14.9 59.9 3.7 2.8 9.3 3.1 14.6.6 10.1-4.7 16.7-17.3 17.4-33.7 1-20.4.9-26.2.8-27.8-.2-.3-.3-.6-.3-1s.9-38.5 0-49.5c-.8-12-4-22.7-32.2-23.4z"/><path class="st25" d="M110.7 198.4s-4.9 51-7.3 62.2c-2.4 11.2-10.3 29.9-1.2 30.6 9 .7 15 3.5 21.3 2.5 4.7-.7 12.3-7.2 12-14.3-.2-7.1-20.6-21-20.6-21l-4.2-60z"/><path class="st18" d="M111.1 264.6c1.2-.6 2-7.1 2-7.1l21.3 3.3-.9 6.9s3.1 4.8 2.1 11.8c-1.4 9.1-4.1 11.6-8.3 10.9-10.1-1.5-17.7-1.5-18.9-5.7 0 0 .3 2.9-3.9 3.9-8.9.8-3.1-13.8-1-16.7 1.9-2.6 1-2.5 7.6-7.3z"/><path class="st2" d="M128.4 292.1c-.4 0-.9 0-1.4-.1-1.9-.3-3.7-.5-5.4-.7-5.7-.7-10.3-1.3-12.9-3.3-.8.9-2.1 1.8-4 2.2h-.2c-3.4.3-5-1.3-5.7-2.7-2.6-4.7 1.5-14.2 3.3-16.6.4-.5.7-.9.9-1.3 1.2-1.7 1.9-2.6 7.2-6.4.4-.7 1-3.4 1.3-6 .1-.4.3-.8.6-1.1.4-.3.8-.4 1.2-.3l21.3 3.3c.9.1 1.5.9 1.4 1.8l-.8 6.3c.8 1.5 2.9 6.2 2 12.4-.9 6-2.7 12.5-8.8 12.5zm-20.1-9.1c.7 0 1.4.5 1.6 1.2.7 2.4 5.7 3 12.1 3.8 1.7.2 3.6.5 5.5.7 2.4.4 5.1-.1 6.5-9.6.9-6.3-1.8-10.7-1.8-10.7-.2-.3-.3-.7-.2-1.1l.7-5.3-18.1-2.8c-.8 5.4-2 6.4-2.5 6.7-5 3.6-5.4 4.2-6.3 5.5-.3.4-.6.8-1 1.4-1.6 2.1-4.7 10.2-3.1 13.1.2.3.6 1.1 2.5 1 2.5-.6 2.6-1.9 2.6-2.2-.1-.8.5-1.6 1.3-1.7h.2zm2.2-19.8z"/><path class="st27" d="M110.7 275.8c0 .2-3.6 3.8-2.5 8.9"/><path class="st2" d="M108.3 286.3c-.7 0-1.4-.5-1.6-1.3-.6-2.4-.5-6.1 2.6-10l.1-.1c.3-.5.8-.8 1.5-.8.9 0 1.6.8 1.5 1.7 0 .5-.3.9-.5 1.2-1.9 2.4-2.5 4.8-2 7.3.2.9-.3 1.8-1.2 2h-.4zm.8-10.6z"/><path class="st28" d="M121.1 289.2h-.2c-.8-.1-1.3-.8-1.2-1.6l.6-4.3c.1-.8.8-1.3 1.6-1.2.8.1 1.3.8 1.2 1.6l-.6 4.3c-.2.7-.8 1.2-1.4 1.2zm-6.5-1h-.2c-.8-.1-1.3-.8-1.2-1.6l.4-2.6c.1-.8.8-1.3 1.6-1.2.8.1 1.3.8 1.2 1.6l-.4 2.6c-.1.7-.7 1.2-1.4 1.2zm12.4 1.9h-.2c-.8-.1-1.3-.8-1.2-1.6l.4-2.9c.1-.8.8-1.3 1.6-1.2.8.1 1.3.8 1.2 1.6l-.4 2.9c-.1.7-.7 1.2-1.4 1.2z"/><path class="st24" d="M113.1 257.5s.7-40.2-.9-59.1"/><path class="st23" d="M113.1 259.1c-.9 0-1.7-.8-1.7-1.7 0-.4.6-40.3-.9-59-.1-.9.6-1.7 1.5-1.8.9-.1 1.7.6 1.8 1.5 1.5 18.8.9 58.9.9 59.3.1 1-.6 1.7-1.6 1.7z"/><path class="st24" d="M107.2 157.6l4.3 12-5.2 5.7 6 2.6L86.4 237s-3-8.3 2.7-26.9c5.6-18.6 13.8-52.8 13.8-52.8l4.3.3z"/><path class="st23" d="M86.4 238.7c-.7 0-1.3-.5-1.6-1.1-.1-.4-3.1-9 2.6-27.9 5.6-18.3 13.7-52.4 13.7-52.7.2-.8.9-1.3 1.7-1.3l4.4.3c.7 0 1.2.5 1.5 1.1l4.3 12c.2.6.1 1.2-.3 1.7l-3.7 4 3.9 1.7c.8.4 1.2 1.4.9 2.2l-25.9 59.1c-.2.5-.8.9-1.5.9zm17.7-79.6c-1.6 6.6-8.5 35.2-13.5 51.5-2.8 9.4-3.5 16-3.4 20.2l22.8-52.1-4.5-2c-.5-.2-.9-.7-1-1.2-.1-.5 0-1.1.4-1.5l4.6-5-3.6-10-1.8.1z"/><path class="st24" d="M49.8 157.6l-4.3 12 5.2 5.7-6 2.6L70 235.7s2.5-10.7-2.1-25.5c-5.8-18.5-13.8-52.8-13.8-52.8l-4.3.2z"/><path class="st23" d="M70.1 237.4c-.7 0-1.3-.4-1.5-1l-25.3-57.8c-.2-.4-.2-.9 0-1.3s.5-.7.9-.9l3.9-1.7-3.7-4c-.4-.5-.5-1.1-.3-1.7l4.3-12c.2-.6.8-1.1 1.5-1.1l4.4-.3c.8 0 1.5.5 1.7 1.3.1.3 8 34.4 13.7 52.7 4.7 15.1 2.3 26 2.1 26.4-.2.7-.8 1.2-1.5 1.3-.1 0-.2.1-.2.1zm-23.2-58.6L69 229.3c.1-4.4-.3-10.9-2.7-18.6-5.1-16.3-11.9-45-13.5-51.6l-1.9.1-3.6 10 4.6 5c.4.4.5.9.4 1.5s-.5 1-1 1.2l-4.4 1.9z"/><path class="st29" d="M51.8 161.1s-3.4 12.4 5.7 23.5c.9 1.1 2.5 1.6 3.9 1.1 5.1-1.8 7.8-4.8 9.1-5.8.3-.2.6-.2.9 0l2.8 3.3-2.8-9.7-19.6-12.4zm53.6 0s3.4 12.4-5.7 23.5c-.9 1.1-2.5 1.6-3.9 1.1-5.1-1.8-9.2-4.9-10.5-6-.3-.2-.6-.2-.9 0l-8.5 3.4 9.8-9.7 19.7-12.3z"/><path class="st7" d="M75.3 183.7H75c-.4-.1-.8-.4-.9-.8l-3.2-7.7c-2.3 2.1-6.8 6-10.7 7.1-.5.1-1.1 0-1.4-.4-7.7-9.3-7.1-20.9-7.1-21.4 0-.4.2-.7.5-1L66 148.2c.6-.5 1.4-.4 1.9.2.5.6.4 1.4-.2 1.9l-13.3 10.9c0 2.3.4 11.1 5.9 18.3 4.5-1.7 10.1-7.4 10.1-7.5.3-.3.8-.5 1.2-.4.4.1.8.4 1 .8l3.2 7.8 9.2-8.3c.5-.5 1.4-.5 1.9.1.1.1 5.6 5.8 10.1 7.5 5.5-7.2 5.9-16 5.9-18.3l-13.3-10.9c-.6-.5-.7-1.3-.2-1.9.5-.6 1.3-.7 1.9-.2l13.8 11.3c.3.2.5.6.5 1 0 .5.6 12.1-7.1 21.4-.3.4-.9.6-1.4.4-4.3-1.2-9.2-5.6-11.2-7.6l-9.6 8.7c-.4.2-.7.3-1 .3z"/><path class="st30" d="M66.8 152.7s-7.3 7.7 4.5 20.1c0 0-6.6 7.1-11.6 8.1-2.7-4-4.9-4.9-6.8-20.5 9.2-8.8 11.9-9.7 11.9-9.7l2 2z"/><path class="st7" d="M59.8 182.3c-.4 0-.9-.2-1.1-.6-.4-.5-.7-1-1.1-1.5-2.3-3.1-4.3-5.8-6-19.6 0-.4.1-.8.4-1.1 9.1-8.8 12.1-9.9 12.4-10 .5-.2 1 0 1.4.3l2 1.9c.5.5.5 1.3 0 1.9-.3.3-6.2 7 4.5 18.3.5.5.5 1.3 0 1.8-.3.3-7 7.4-12.2 8.5-.1.1-.2.1-.3.1zM54.4 161c1.5 12.6 3.3 14.9 5.4 17.7.2.2.4.5.6.7 3.1-1.1 7.1-4.6 9.2-6.6-8.9-10-6-17.3-4.4-19.9l-.5-.4c-1.3.7-4.3 2.8-10.3 8.5z"/><path class="st30" d="M90.7 152.7s7.3 7.7-4.5 20.1c0 0 6.6 7.1 11.6 8.1 2.7-4 4.9-4.9 6.8-20.5-9.2-8.8-11.9-9.7-11.9-9.7l-2 2z"/><path class="st7" d="M97.7 182.3h-.3c-5.3-1.2-12-8.2-12.2-8.5-.5-.5-.5-1.3 0-1.8 10.7-11.2 4.8-18 4.5-18.3-.5-.5-.5-1.4 0-1.9l2-1.9c.4-.4.9-.5 1.3-.3.3.1 3.3 1.2 12.4 10 .3.3.5.7.4 1.1-1.6 13.9-3.6 16.5-6 19.6-.3.5-.7.9-1.1 1.5-.1.3-.5.5-1 .5zm-9.7-9.5c2.1 2.1 6 5.5 9.2 6.6.2-.3.4-.5.6-.7 2-2.7 3.8-5.1 5.4-17.7-6-5.7-9-7.8-10.2-8.5l-.5.4c1.6 2.6 4.5 9.9-4.5 19.9zm-12.7 92.1c-.7 0-1.3-.6-1.3-1.3v-81.2c0-.7.6-1.3 1.3-1.3s1.3.6 1.3 1.3v81.2c0 .7-.6 1.3-1.3 1.3z"/><circle class="st7" cx="79.8" cy="191.4" r="1.1"/><circle class="st7" cx="79.8" cy="204.8" r="1.1"/><circle class="st7" cx="79.8" cy="218.2" r="1.1"/><circle class="st7" cx="79.8" cy="231.6" r="1.1"/><circle class="st7" cx="79.8" cy="245.1" r="1.1"/><circle class="st7" cx="79.8" cy="258.5" r="1.1"/><path class="st31" d="M71.1 263.1h14.3v7.7H71.1z"/><path class="st23" d="M85.4 272.5H71.1c-.9 0-1.7-.7-1.7-1.7v-7.7c0-.9.7-1.7 1.7-1.7h14.3c.9 0 1.7.7 1.7 1.7v7.7c-.1.9-.8 1.7-1.7 1.7zm-12.6-3.4h10.9v-4.4H72.8v4.4z"/></svg>