<svg id="Layer_1" xmlns="http://www.w3.org/2000/svg" xmlns:xlink="http://www.w3.org/1999/xlink" viewBox="0 0 162 395"><style>.st0{fill:#e0e7ee}.st1{fill:#505f67}.st2{fill:#3d4349}.st3{fill:#3e4b52}.st4{fill:#fde5d9}.st5{fill:#e8d1c9}.st6{fill:#3c4249}.st7{fill:#d87760}.st8{fill:none}.st9{opacity:.5;fill:#5c3d3f;enable-background:new}.st10{opacity:.2;fill:#fff}.st10,.st11,.st12{enable-background:new}.st11{fill:#fff;opacity:.5}.st12{opacity:.4}.st13,.st14{fill:#fff}.st14{stroke:#3d5660;stroke-width:4.0105;stroke-linecap:round;stroke-linejoin:round;stroke-miterlimit:10}.st15{fill:#c3b2a6}.st16{fill:#3e4449}.st17{fill:#e1e9f0}.st18{fill:#5a709e;stroke:#3d4349;stroke-width:4.9893;stroke-linecap:round;stroke-linejoin:round;stroke-miterlimit:10}.st19{fill:#877366}.st20{fill:none;stroke:#e4c09d;stroke-width:3.9633;stroke-linecap:round;stroke-linejoin:round;stroke-miterlimit:10}.st21{fill:#fde5d8}.st22{fill:#e7d0c8}.st23{fill:#fbe4d6}.st24{fill:#fcdacb}.st25{fill:#706057}.st26{fill:#cc7b65}.st27,.st28{opacity:.2;clip-path:url(#SVGID_2_);fill:#fff;enable-background:new}.st28{clip-path:url(#SVGID_4_)}.st29{fill:#e4d1c9}</style><title>Stories Mackenzie</title><ellipse class="st0" cx="81" cy="385" rx="81.4" ry="9.3"/><path class="st1" d="M115.5 262.8H42.4l.1 118.9h31.3l.4-86.2h10.3l-.1 86.2h31.3z"/><path class="st2" d="M115.7 383.6H84.4c-.5 0-1-.2-1.3-.5s-.5-.8-.5-1.3l.1-84.3h-6.6l-.4 84.3c0 1-.8 1.9-1.9 1.9H42.5c-1 0-1.9-.8-1.9-1.9l-.1-118.9c0-.5.2-1 .5-1.3s.8-.5 1.3-.5h73.1c1 0 1.9.8 1.9 1.9l.2 118.9c0 .5-.2 1-.5 1.3-.3.2-.8.4-1.3.4zm-29.4-3.8h27.6l-.2-115.1H44.3l.1 115.1H72l.4-84.3c0-1 .8-1.8 1.9-1.9h10.3c.5 0 1 .2 1.3.5s.5.8.5 1.3l-.1 84.4z"/><path class="st3" d="M96 263.2c0 7.8 6.3 14.1 14.1 14.1l10.1-14.2-24.2.1"/><path class="st2" d="M110 278.9c-8.7 0-15.8-7.1-15.8-15.8 0-.9.8-1.7 1.7-1.7l24.2-.1c.6 0 1.2.4 1.5.9.3.6.2 1.3-.1 1.8l-10.1 14.2c-.3.5-.8.7-1.4.7zm-12.2-14c.8 5.7 5.5 10.2 11.4 10.6l7.6-10.7-19 .1z"/><path class="st3" d="M65 263.2c0 7.8-6.3 14.1-14.1 14.1l-10.1-14.2 24.2.1"/><path class="st2" d="M50.9 278.9c-.6 0-1.1-.3-1.4-.7L39.4 264c-.4-.5-.4-1.2-.1-1.8.3-.6.9-.9 1.5-.9l24.2.1c.9 0 1.7.8 1.7 1.7 0 8.8-7.1 15.8-15.8 15.8zm-6.7-14.1l7.6 10.7c5.8-.4 10.6-4.9 11.4-10.6l-19-.1z"/><path class="st4" d="M138.4 192.9v69.3H19.5v-69.3c0-20.3 16.6-36.8 36.8-36.8h5.3c2.9 0 5.2-2.3 5.2-5.2v-18.5h23.7v18.5c0 2.9 2.3 5.2 5.2 5.2h5.9c20.2 0 36.8 16.5 36.8 36.8z"/><path class="st5" d="M78.6 142.7c-8.8 0-11.8-2-11.8-2v-3.9h23.7v3.9c-.1.1-3.1 2-11.9 2zm22.9 14h-.2v1c0 12.4-10 22.4-22.4 22.4s-22.4-10-22.4-22.4v-1h-.2c-20.3 0-36.8 16.6-36.8 36.8v69.3h118.9v-69.3c0-20.2-16.6-36.8-36.9-36.8z"/><path class="st6" d="M138.4 263.9H19.5c-.9 0-1.7-.8-1.7-1.7v-69.3c0-21.2 17.3-38.5 38.5-38.5h5.3c1.9 0 3.5-1.6 3.5-3.5v-18.5c0-.9.8-1.7 1.7-1.7h23.7c.9 0 1.7.8 1.7 1.7v18.5c0 1.9 1.6 3.5 3.5 3.5h5.9c21.2 0 38.5 17.3 38.5 38.5v69.3c0 1-.8 1.7-1.7 1.7zm-117.3-3.3h115.6v-67.7c0-19.4-15.8-35.2-35.2-35.2h-5.9c-3.8 0-6.9-3.1-6.9-6.9V134H68.4v16.8c0 3.8-3.1 6.9-6.9 6.9h-5.3c-19.4 0-35.2 15.8-35.2 35.2v67.7h.1z"/><path class="st7" d="M138.4 192.9v69.3H19.5v-69.3c0-18.2 16-34 33.4-36.8.1 9.7 2.6 16.9 6.8 20.6 2.2 1.1 8.8-8.7 11.6-8.2 2.4.4 1.3 9.6 4 9.6 0 0 7.8-8.9 10.6-9.6 2.9-.6 9.4 9.6 11.6 8.2 5.2-3.3 6.7-11.5 6.8-20.1 21.2 0 34.1 18.1 34.1 36.3z"/><path class="st8" d="M20.2 184.3h-1v4h.1c.3-1.3.6-2.7.9-4zm35.1-13.6c-.1.1 0 .2 0 .3v-.3z"/><path class="st9" d="M47.8 157.1h-.4v.1c.1 0 .2 0 .4-.1zm63 0h-.5c.2 0 .4.1.5.1v-.1zm1.1.4v-.4h-1.1v.1c.4.1.8.2 1.1.3z"/><path class="st10" d="M111.9 157.5v-.4h-1.1v.1c.4.1.8.2 1.1.3z"/><path class="st9" d="M59.3 176.7c.9.4 2.5-.9 4.2-2.5H57c.7.9 1.4 1.7 2.3 2.5zm74.2-2.1v-.5h-.3c.1.2.2.4.3.5z"/><path class="st10" d="M19.3 188.3v.9c0-.3.1-.6.1-.9h-.1z"/><path class="st8" d="M23.8 221.7h12.8v12.5H23.8zm0-5.1h12.8v4H23.8zm0-13.6h12.8v3.4H23.8zm28.1 51h3.4v8.2h-3.4zm4.5 0h12.5v8.2H56.4zm-32.6-18.7h12.8v3.4H23.8zM37.7 254h4v8.2h-4zm31.2-79.9v-3.4H67c-1.1 1-2.4 2.3-3.5 3.4h5.4zm47.6 74.8h3.4v4h-3.4zm0-64.6h3.4v4h-3.4zM70 254h4v8.2h-4zm49.9-84.4v-9.1c-1.1-.6-2.2-1.1-3.4-1.6v10.7h3.4zm-3.4 1.1h3.4v3.4h-3.4zm-78.8 18.7h4v12.5h-4zm0 59.5h4v4h-4zm0-64.6h4v4h-4zm0 18.7h4v3.4h-4zm0-32.3h4v3.4h-4zm4-1.1v-10.1c-1.4.7-2.7 1.4-4 2.2v7.8h4v.1zm45.9 0v-.4c-.8-.5-1.5-.8-2.1-.7-.4.1-.8.3-1.3.6v.5h3.4zm-51-7.1c-3 2-5.7 4.4-8.1 7.1h8.1v-7.1zm-9.1 8.2c-.9 1.1-1.7 2.2-2.5 3.4h11.6v-3.4h-9.1zm27.8 3.4V171c0-.1-.1-.2-.1-.3h-3.3v3.4h3.4zm17.5 0c-.2-1.2-.3-2.4-.6-3.4H70v3.4h2.8zm-.9-4.5c-.3-.6-.6-1-1-1.1-.3 0-.6 0-.9.1v1h1.9zm-3-.4c-.2.1-.3.2-.5.4h.5v-.4zm15.3 52.5h3.4v12.5h-3.4zM70 235.3h4v3.4h-4zm-13.6 0h12.5v3.4H56.4zm27.8 0h3.4v3.4h-3.4zm4.5-45.9h12.5v12.5H88.7zm0 13.6h12.5v3.4H88.7zm0 32.3h12.5v3.4H88.7zm13.6-18.7h4v4h-4zM70 184.3h4v4h-4zm-13.6 0h12.5v4H56.4zm27.8 0h3.4v4h-3.4zm4.5 0h12.5v4H88.7zm13.6 37.4h4v12.5h-4zm-13.6 0h12.5v12.5H88.7zM84.2 203h3.4v3.4h-3.4zm-32.3-18.7h3.4v4h-3.4zm32.3 32.3h3.4v4h-3.4zM70 221.7h4v12.5h-4zm-13.6 0h12.5v12.5H56.4zm44.8-49.9c-.4.8-.9 1.6-1.4 2.3h1.4v-2.3zM70 203h4v3.4h-4zm14.2-32.3h3.4v3.4h-3.4zM56.4 203h12.5v3.4H56.4zm32.3 13.6h12.5v4H88.7zm-32.3-27.2h12.5v12.5H56.4zm0 27.2h12.5v4H56.4zM70 189.4h4v12.5h-4zm14.2 0h3.4v12.5h-3.4zM70 216.6h4v4h-4zm46.5 18.7h3.4v3.4h-3.4zm-14.2 13.6h4v4h-4zm-18.1 0h3.4v4h-3.4zm-32.3 0h3.4v4h-3.4zm18.1 0h4v4h-4zm-13.6 0h12.5v4H56.4zm32.3 0h12.5v4H88.7zm27.8-27.2h3.4v12.5h-3.4zm-64.6-32.3h3.4v12.5h-3.4zm40.9-15.3l-3.4-3.4h-.7v3.4h4.1zm23.7 15.3h3.4v12.5h-3.4zm0 13.6h3.4v3.4h-3.4zm0 13.6h3.4v4h-3.4zm-14.2-45.9h4v3.4h-4zm-50.4 51h3.4v12.5h-3.4zm0 13.6h3.4v3.4h-3.4zm50.4 0h4v3.4h-4zM51.9 203h3.4v3.4h-3.4zm50.4 0h4v3.4h-4zm-50.4 13.6h3.4v4h-3.4zm-14.2 5.1h4v12.5h-4zm0 13.6h4v3.4h-4zm0-18.7h4v4h-4zM57 174.1l-.6-.9v.9h.6zm45.3 15.3h4v12.5h-4zm0-5.1h4v4h-4zm-83 69.7h3.4v8.2h-3.4zM121 189.4h12.5v12.5H121zm13.6-1.1h3.1c-.2-1.3-.4-2.7-.7-4h-2.4v4zm0 14.7h3.4v3.4h-3.4zm-18.1 51h3.4v8.2h-3.4zm-92.7-64.6h12.8v12.5H23.8zM19.3 203h3.4v3.4h-3.4zm0-13.6h3.4v12.5h-3.4zM121 203h12.5v3.4H121zm-97.2-18.7h12.8v4H23.8zm97.2 64.6h12.5v4H121zM20.2 184.3c-.4 1.3-.6 2.6-.8 4h3.3v-4h-2.5zm100.8 51h12.5v3.4H121zm0-18.7h12.5v4H121zm0 5.1h12.5v12.5H121zm13.6-19.8h3.4v-9c0-1.2-.1-2.3-.2-3.5h-3.2v12.5zm0 33.4h3.4v3.4h-3.4zm-13.6-51h12.5v4H121zm13.6 64.6h3.4v4h-3.4zm0-27.2h3.4v12.5h-3.4zM121 174.1h12.2c-.6-1.2-1.3-2.3-2.1-3.4H121v3.4zm13.6 42.5h3.4v4h-3.4zm-115.3 5.1h3.4v12.5h-3.4zm0 13.6h3.4v3.4h-3.4zm0-18.7h3.4v4h-3.4zm83-47h4v-12.5h-2.4c-.1 4.2-.5 8.4-1.6 11.8v.7zm28 0c-2.5-3.3-5.6-6.2-9.3-8.4v8.4h9.3zm4.3 84.4h3.4v8.2h-3.4zm-115.3-5.1h3.4v4h-3.4zM121 254h12.5v8.2H121zm-36.8 0h3.4v8.2h-3.4zm18.1 0h4v8.2h-4zm-78.5-5.1h12.8v4H23.8zm64.9 5.1h12.5v8.2H88.7zm-64.9 0h12.8v8.2H23.8z"/><path class="st9" d="M19.1 216.6h.2v4h-.2zm0 18.7h.2v3.4h-.2zm0 13.6h.2v4h-.2zm0-45.9h.2v3.4h-.2zm.2-13.6c-.2 1.1-.2 2.3-.2 3.5v9h.2v-12.5zm-.2 64.6h.2v8.2h-.2zm0-32.3h.2v12.5h-.2z"/><path class="st10" d="M22.7 184.3h1.1v4h-1.1zm0 64.6h1.1v4h-1.1zm0-13.6h1.1v3.4h-1.1zm0-18.7h1.1v4h-1.1zm0 5.1h1.1v12.5h-1.1zm0-32.3h1.1v12.5h-1.1zm0 64.6h1.1v8.2h-1.1zm0-51h1.1v3.4h-1.1z"/><path class="st9" d="M46.2 169.6v-12c-1.5.5-3.1 1.2-4.5 1.9v10.1h4.5zm1.2 0h4.5v-12.5h-4.1c-.1 0-.3.1-.4.1v12.4zm-5.7 47h4.5v4h-4.5zm0 32.3h4.5v4h-4.5zm0-78.2h4.5v3.4h-4.5zm0 51h4.5v12.5h-4.5zm5.7-37.4h4.5v4h-4.5zm-5.7 51h4.5v3.4h-4.5zm5.7-32.3h4.5v3.4h-4.5zm-5.7 51h4.5v8.2h-4.5zm5.7-37.4h4.5v4h-4.5zM41.7 203h4.5v3.4h-4.5zm5.7 45.9h4.5v4h-4.5zm0 5.1h4.5v8.2h-4.5zm0-64.6h4.5v12.5h-4.5zm0-18.7h4.5v3.4h-4.5zm-5.7 18.7h4.5v12.5h-4.5zm5.7 32.3h4.5v12.5h-4.5zm-5.7-37.4h4.5v4h-4.5zm5.7 51h4.5v3.4h-4.5zM46.2 254h1.1v8.2h-1.1z"/><path class="st10" d="M46.2 254h1.1v8.2h-1.1z"/><path class="st9" d="M46.2 248.9h1.1v4h-1.1z"/><path class="st10" d="M46.2 248.9h1.1v4h-1.1z"/><path class="st9" d="M46.2 189.4h1.1v12.5h-1.1z"/><path class="st10" d="M46.2 189.4h1.1v12.5h-1.1z"/><path class="st9" d="M46.2 221.7h1.1v12.5h-1.1z"/><path class="st10" d="M46.2 221.7h1.1v12.5h-1.1z"/><path class="st9" d="M46.2 216.6h1.1v4h-1.1z"/><path class="st10" d="M46.2 216.6h1.1v4h-1.1z"/><path class="st9" d="M47.4 169.6v-12.3c-.4.1-.8.2-1.1.4v12l1.1-.1z"/><path class="st10" d="M47.4 169.6v-12.3c-.4.1-.8.2-1.1.4v12l1.1-.1z"/><path class="st9" d="M46.2 184.3h1.1v4h-1.1z"/><path class="st10" d="M46.2 184.3h1.1v4h-1.1z"/><path class="st9" d="M46.2 170.7h1.1v3.4h-1.1z"/><path class="st10" d="M46.2 170.7h1.1v3.4h-1.1z"/><path class="st9" d="M46.2 235.3h1.1v3.4h-1.1z"/><path class="st10" d="M46.2 235.3h1.1v3.4h-1.1z"/><path class="st9" d="M46.2 203h1.1v3.4h-1.1z"/><path class="st10" d="M46.2 203h1.1v3.4h-1.1zm10.2-29.8c-.4-.7-.8-1.4-1.1-2.1v3.1h1.1v-1zm-1.1 48.5h1.1v12.5h-1.1zm0 13.6h1.1v3.4h-1.1zm0 13.6h1.1v4h-1.1zm0-32.3h1.1v4h-1.1zm0-13.6h1.1v3.4h-1.1zm0-13.6h1.1v12.5h-1.1zm0 64.6h1.1v8.2h-1.1zm0-69.7h1.1v4h-1.1zM36.6 254h1.1v8.2h-1.1zm0-18.7h1.1v3.4h-1.1zm0-45.9h1.1v12.5h-1.1zm0 59.5h1.1v4h-1.1zm0-64.6h1.1v4h-1.1zm0 32.3h1.1v4h-1.1zm1.1-47v-7.8c-.4.2-.8.5-1.1.7v7.1h1.1zm-1.1 52.1h1.1v12.5h-1.1zm0-18.7h1.1v3.4h-1.1zm0-32.3h1.1v3.4h-1.1z"/><path class="st9" d="M74 254h4.5v8.2H74zm5.7 0h4.5v8.2h-4.5zm0-79.9h4.5v-3.4H82c-.8.7-1.6 1.4-2.4 2.2l.1 1.2zm0 42.5h4.5v4h-4.5zm4.5-47.5c-.2.2-.5.3-.8.5h.8v-.5zM79.7 203h4.5v3.4h-4.5zm-5.7 0h4.5v3.4H74zm5.7-18.7h4.5v4h-4.5zm-5.7 0h4.5v4H74zm0 37.4h4.5v12.5H74zm0-32.3h4.5v12.5H74zm5.7 0h4.5v12.5h-4.5zm0 32.3h4.5v12.5h-4.5zm-1.2-47.6zM74 235.3h4.5v3.4H74zm5.7 13.6h4.5v4h-4.5zm-5.7 0h4.5v4H74zm5.7-13.6h4.5v3.4h-4.5zM74 216.6h4.5v4H74zm4.5-27.2h1.1v12.5h-1.1z"/><path class="st10" d="M78.5 189.4h1.1v12.5h-1.1z"/><path class="st9" d="M78.5 248.9h1.1v4h-1.1z"/><path class="st10" d="M78.5 248.9h1.1v4h-1.1z"/><path class="st9" d="M78.5 184.3h1.1v4h-1.1z"/><path class="st10" d="M78.5 184.3h1.1v4h-1.1z"/><path class="st9" d="M78.5 221.7h1.1v12.5h-1.1z"/><path class="st10" d="M78.5 221.7h1.1v12.5h-1.1z"/><path class="st9" d="M78.5 203h1.1v3.4h-1.1z"/><path class="st10" d="M78.5 203h1.1v3.4h-1.1z"/><path class="st9" d="M79.7 174.1V173l-1.1 1.1h1.1z"/><path class="st10" d="M79.7 174.1V173l-1.1 1.1h1.1z"/><path class="st9" d="M78.5 235.3h1.1v3.4h-1.1z"/><path class="st10" d="M78.5 235.3h1.1v3.4h-1.1z"/><path class="st9" d="M78.5 216.6h1.1v4h-1.1z"/><path class="st10" d="M78.5 216.6h1.1v4h-1.1z"/><path class="st9" d="M78.5 254h1.1v8.2h-1.1z"/><path class="st10" d="M78.5 254h1.1v8.2h-1.1zm9.1-37.4h1.1v4h-1.1zm0 5.1h1.1v12.5h-1.1zm0 13.6h1.1v3.4h-1.1zm0-64.6h1.1v3.4h-1.1zm0 32.3h1.1v3.4h-1.1zm0-18.7h1.1v4h-1.1zm0 64.6h1.1v4h-1.1zm0-59.5h1.1v12.5h-1.1zm.5-19.8c-.2-.1-.4-.3-.6-.4v.4h.6zm-.5 84.4h1.1v8.2h-1.1zM70 169.6v-1c-.3.1-.7.3-1.1.6v.4H70zm-1.1 14.7H70v4h-1.1zm0 18.7H70v3.4h-1.1zm0-32.3H70v3.4h-1.1zm0 51H70v12.5h-1.1zm0-5.1H70v4h-1.1zm0 32.3H70v4h-1.1zm0-59.5H70v12.5h-1.1zm0 45.9H70v3.4h-1.1zm0 18.7H70v8.2h-1.1z"/><path class="st9" d="M111.9 216.6h4.5v4h-4.5zm0 5.1h4.5v12.5h-4.5zm-5.6 0h4.5v12.5h-4.5zm5.6-37.4h4.5v4h-4.5zm-5.6 51h4.5v3.4h-4.5zm10.2-65.7v-10.7c-1.4-.6-3-1.1-4.5-1.4v12.1h4.5zm-4.6 33.4h4.5v3.4h-4.5zm-5.6-32.3h4.5v3.4h-4.5zm5.6 18.7h4.5v12.5h-4.5zm0-18.7h4.5v3.4h-4.5zm-5.6 32.3h4.5v3.4h-4.5zm0 45.9h4.5v4h-4.5zm5.6-13.6h4.5v3.4h-4.5zm0 18.7h4.5v8.2h-4.5zm-5.6-69.7h4.5v4h-4.5zm0 69.7h4.5v8.2h-4.5zm5.6-5.1h4.5v4h-4.5zm-5.6-59.5h4.5v12.5h-4.5zm0 27.2h4.5v4h-4.5zm0-47h4.5v-12.4c-.2 0-.4-.1-.5-.1h-4v12.5zm4.5 84.4h1.1v8.2h-1.1z"/><path class="st10" d="M110.8 254h1.1v8.2h-1.1z"/><path class="st9" d="M110.8 216.6h1.1v4h-1.1z"/><path class="st10" d="M110.8 216.6h1.1v4h-1.1z"/><path class="st9" d="M110.8 248.9h1.1v4h-1.1z"/><path class="st10" d="M110.8 248.9h1.1v4h-1.1z"/><path class="st9" d="M110.8 203h1.1v3.4h-1.1z"/><path class="st10" d="M110.8 203h1.1v3.4h-1.1z"/><path class="st9" d="M110.8 221.7h1.1v12.5h-1.1z"/><path class="st10" d="M110.8 221.7h1.1v12.5h-1.1z"/><path class="st9" d="M110.8 189.4h1.1v12.5h-1.1z"/><path class="st10" d="M110.8 189.4h1.1v12.5h-1.1z"/><path class="st9" d="M110.8 235.3h1.1v3.4h-1.1z"/><path class="st10" d="M110.8 235.3h1.1v3.4h-1.1z"/><path class="st9" d="M110.8 170.7h1.1v3.4h-1.1z"/><path class="st10" d="M110.8 170.7h1.1v3.4h-1.1z"/><path class="st9" d="M110.8 184.3h1.1v4h-1.1z"/><path class="st10" d="M110.8 184.3h1.1v4h-1.1z"/><path class="st9" d="M111.9 157.5c-.4-.1-.8-.2-1.1-.2v12.4h1.1v-12.2z"/><path class="st10" d="M111.9 157.5c-.4-.1-.8-.2-1.1-.2v12.4h1.1v-12.2zm8 96.5h1.1v8.2h-1.1zm0-5.1h1.1v4h-1.1zm0-32.3h1.1v4h-1.1zm0 5.1h1.1v12.5h-1.1zm0-52.1h1.1v-8.4c-.4-.2-.7-.4-1.1-.7v9.1zm0 33.4h1.1v3.4h-1.1zm0-18.7h1.1v4h-1.1zm0 5.1h1.1v12.5h-1.1zm0 45.9h1.1v3.4h-1.1zm0-64.6h1.1v3.4h-1.1zm-18.7 13.6h1.1v4h-1.1zm0 64.6h1.1v4h-1.1zm0-45.9h1.1v3.4h-1.1zm0 13.6h1.1v4h-1.1zm1.1-47.6c-.1.2-.1.4-.2.6h.2v-.6zm-1.1 20.4h1.1v12.5h-1.1zm0 32.3h1.1v12.5h-1.1zm0-47.6h1.1v-3.4h-.6c-.2.4-.3.7-.5 1.1v2.3zm0 61.2h1.1v3.4h-1.1zm0 18.7h1.1v8.2h-1.1z"/><path class="st11" d="M133.5 203h1.1v3.4h-1.1zm0-13.6h1.1v12.5h-1.1zm0-5.1h1.1v4h-1.1zm0 32.3h1.1v4h-1.1zm0 37.4h1.1v8.2h-1.1zm0-5.1h1.1v4h-1.1zm0-13.6h1.1v3.4h-1.1zm0-13.6h1.1v12.5h-1.1z"/><path class="st9" d="M19.3 244.4h3.4v4.5h-3.4zm64.9-5.7h3.4v4.5h-3.4zm-64.9 0h3.4v4.5h-3.4zm69.4 0h12.5v4.5H88.7zm-18.7 0h4v4.5h-4zm-13.6 0h12.5v4.5H56.4zm45.9 0h4v4.5h-4zm-50.4 0h3.4v4.5h-3.4zm82.7 5.7h3.4v4.5h-3.4zm-50.4 0h3.4v4.5h-3.4zm32.3 0h3.4v4.5h-3.4zm-78.8 0h4v4.5h-4zm14.2 0h3.4v4.5h-3.4zm4.5 0h12.5v4.5H56.4zm64.6 0h12.5v4.5H121zm-97.2 0h12.8v4.5H23.8zm0-5.7h12.8v4.5H23.8zm92.7 0h3.4v4.5h-3.4zM70 244.4h4v4.5h-4zm-32.3-5.7h4v4.5h-4zm96.9 0h3.4v4.5h-3.4zm-32.3 5.7h4v4.5h-4zm-13.6 0h12.5v4.5H88.7zm32.3-5.7h12.5v4.5H121zm-101.9 5.7h.2v4.5h-.2z"/><path class="st9" d="M19.1 244.4h.2v4.5h-.2zm0-5.7h.2v4.5h-.2z"/><path class="st9" d="M19.1 238.7h.2v4.5h-.2z"/><path class="st10" d="M22.7 238.7h1.1v4.5h-1.1z"/><path class="st9" d="M22.7 238.7h1.1v4.5h-1.1z"/><path class="st10" d="M22.7 244.4h1.1v4.5h-1.1z"/><path class="st9" d="M22.7 244.4h1.1v4.5h-1.1zm24.7 0h4.5v4.5h-4.5z"/><path class="st9" d="M47.4 244.4h4.5v4.5h-4.5zm-5.7-5.7h4.5v4.5h-4.5z"/><path class="st9" d="M41.7 238.7h4.5v4.5h-4.5zm5.7 0h4.5v4.5h-4.5z"/><path class="st9" d="M47.4 238.7h4.5v4.5h-4.5zm-5.7 5.7h4.5v4.5h-4.5z"/><path class="st9" d="M41.7 244.4h4.5v4.5h-4.5zm4.5-5.7h1.1v4.5h-1.1z"/><path class="st10" d="M46.2 238.7h1.1v4.5h-1.1z"/><path class="st9" d="M46.2 238.7h1.1v4.5h-1.1zm0 5.7h1.1v4.5h-1.1z"/><path class="st10" d="M46.2 244.4h1.1v4.5h-1.1z"/><path class="st9" d="M46.2 244.4h1.1v4.5h-1.1z"/><path class="st10" d="M55.3 238.7h1.1v4.5h-1.1z"/><path class="st9" d="M55.3 238.7h1.1v4.5h-1.1z"/><path class="st10" d="M55.3 244.4h1.1v4.5h-1.1z"/><path class="st9" d="M55.3 244.4h1.1v4.5h-1.1z"/><path class="st10" d="M36.6 238.7h1.1v4.5h-1.1z"/><path class="st9" d="M36.6 238.7h1.1v4.5h-1.1z"/><path class="st10" d="M36.6 244.4h1.1v4.5h-1.1z"/><path class="st9" d="M36.6 244.4h1.1v4.5h-1.1zm37.4-5.7h4.5v4.5H74z"/><path class="st9" d="M74 238.7h4.5v4.5H74zm5.7 5.7h4.5v4.5h-4.5z"/><path class="st9" d="M79.7 244.4h4.5v4.5h-4.5zm0-5.7h4.5v4.5h-4.5z"/><path class="st9" d="M79.7 238.7h4.5v4.5h-4.5zm-5.7 5.7h4.5v4.5H74z"/><path class="st9" d="M74 244.4h4.5v4.5H74zm4.5-5.7h1.1v4.5h-1.1z"/><path class="st10" d="M78.5 238.7h1.1v4.5h-1.1z"/><path class="st9" d="M78.5 238.7h1.1v4.5h-1.1zm0 5.7h1.1v4.5h-1.1z"/><path class="st10" d="M78.5 244.4h1.1v4.5h-1.1z"/><path class="st9" d="M78.5 244.4h1.1v4.5h-1.1z"/><path class="st10" d="M87.6 238.7h1.1v4.5h-1.1z"/><path class="st9" d="M87.6 238.7h1.1v4.5h-1.1z"/><path class="st10" d="M87.6 244.4h1.1v4.5h-1.1z"/><path class="st9" d="M87.6 244.4h1.1v4.5h-1.1z"/><path class="st10" d="M68.9 238.7H70v4.5h-1.1z"/><path class="st9" d="M68.9 238.7H70v4.5h-1.1z"/><path class="st10" d="M68.9 244.4H70v4.5h-1.1z"/><path class="st9" d="M68.9 244.4H70v4.5h-1.1zm37.4 0h4.5v4.5h-4.5z"/><path class="st9" d="M106.3 244.4h4.5v4.5h-4.5zm0-5.7h4.5v4.5h-4.5z"/><path class="st9" d="M106.3 238.7h4.5v4.5h-4.5zm5.6 0h4.5v4.5h-4.5z"/><path class="st9" d="M111.9 238.7h4.5v4.5h-4.5zm0 5.7h4.5v4.5h-4.5z"/><path class="st9" d="M111.9 244.4h4.5v4.5h-4.5zm-1.1-5.7h1.1v4.5h-1.1z"/><path class="st10" d="M110.8 238.7h1.1v4.5h-1.1z"/><path class="st9" d="M110.8 238.7h1.1v4.5h-1.1zm0 5.7h1.1v4.5h-1.1z"/><path class="st10" d="M110.8 244.4h1.1v4.5h-1.1z"/><path class="st9" d="M110.8 244.4h1.1v4.5h-1.1z"/><path class="st10" d="M119.9 244.4h1.1v4.5h-1.1z"/><path class="st9" d="M119.9 244.4h1.1v4.5h-1.1z"/><path class="st10" d="M119.9 238.7h1.1v4.5h-1.1z"/><path class="st9" d="M119.9 238.7h1.1v4.5h-1.1z"/><path class="st10" d="M101.2 244.4h1.1v4.5h-1.1z"/><path class="st9" d="M101.2 244.4h1.1v4.5h-1.1z"/><path class="st10" d="M101.2 238.7h1.1v4.5h-1.1z"/><path class="st9" d="M101.2 238.7h1.1v4.5h-1.1z"/><path class="st11" d="M133.5 238.7h1.1v4.5h-1.1z"/><path class="st9" d="M133.5 238.7h1.1v4.5h-1.1z"/><path class="st11" d="M133.5 244.4h1.1v4.5h-1.1z"/><path class="st9" d="M133.5 244.4h1.1v4.5h-1.1zm-49.3-1.1h3.4v1.1h-3.4z"/><path class="st10" d="M84.2 243.3h3.4v1.1h-3.4z"/><path class="st9" d="M134.6 243.3h3.4v1.1h-3.4z"/><path class="st10" d="M134.6 243.3h3.4v1.1h-3.4z"/><path class="st9" d="M51.9 243.3h3.4v1.1h-3.4z"/><path class="st10" d="M51.9 243.3h3.4v1.1h-3.4z"/><path class="st9" d="M19.3 243.3h3.4v1.1h-3.4z"/><path class="st10" d="M19.3 243.3h3.4v1.1h-3.4z"/><path class="st9" d="M116.5 243.3h3.4v1.1h-3.4z"/><path class="st10" d="M116.5 243.3h3.4v1.1h-3.4z"/><path class="st9" d="M37.7 243.3h4v1.1h-4z"/><path class="st10" d="M37.7 243.3h4v1.1h-4z"/><path class="st9" d="M121 243.3h12.5v1.1H121z"/><path class="st10" d="M121 243.3h12.5v1.1H121z"/><path class="st9" d="M88.7 243.3h12.5v1.1H88.7z"/><path class="st10" d="M88.7 243.3h12.5v1.1H88.7z"/><path class="st9" d="M56.4 243.3h12.5v1.1H56.4z"/><path class="st10" d="M56.4 243.3h12.5v1.1H56.4z"/><path class="st9" d="M102.3 243.3h4v1.1h-4z"/><path class="st10" d="M102.3 243.3h4v1.1h-4z"/><path class="st9" d="M70 243.3h4v1.1h-4z"/><path class="st10" d="M70 243.3h4v1.1h-4z"/><path class="st9" d="M23.8 243.3h12.8v1.1H23.8z"/><path class="st10" d="M23.8 243.3h12.8v1.1H23.8z"/><path class="st9" d="M19.1 243.3h.2v1.1h-.2z"/><path class="st9" d="M19.1 243.3h.2v1.1h-.2z"/><path class="st10" d="M19.1 243.3h.2v1.1h-.2zm3.6 0h1.1v1.1h-1.1z"/><path class="st9" d="M22.7 243.3h1.1v1.1h-1.1z"/><path class="st10" d="M22.7 243.3h1.1v1.1h-1.1z"/><path class="st9" d="M41.7 243.3h4.5v1.1h-4.5z"/><path class="st9" d="M41.7 243.3h4.5v1.1h-4.5z"/><path class="st10" d="M41.7 243.3h4.5v1.1h-4.5z"/><path class="st9" d="M47.4 243.3h4.5v1.1h-4.5z"/><path class="st9" d="M47.4 243.3h4.5v1.1h-4.5z"/><path class="st10" d="M47.4 243.3h4.5v1.1h-4.5z"/><path class="st9" d="M46.2 243.3h1.1v1.1h-1.1z"/><path class="st10" d="M46.2 243.3h1.1v1.1h-1.1z"/><path class="st9" d="M46.2 243.3h1.1v1.1h-1.1z"/><path class="st10" d="M46.2 243.3h1.1v1.1h-1.1zm9.1 0h1.1v1.1h-1.1z"/><path class="st9" d="M55.3 243.3h1.1v1.1h-1.1z"/><path class="st10" d="M55.3 243.3h1.1v1.1h-1.1zm-18.7 0h1.1v1.1h-1.1z"/><path class="st9" d="M36.6 243.3h1.1v1.1h-1.1z"/><path class="st10" d="M36.6 243.3h1.1v1.1h-1.1z"/><path class="st9" d="M74 243.3h4.5v1.1H74z"/><path class="st9" d="M74 243.3h4.5v1.1H74z"/><path class="st10" d="M74 243.3h4.5v1.1H74z"/><path class="st9" d="M79.7 243.3h4.5v1.1h-4.5z"/><path class="st9" d="M79.7 243.3h4.5v1.1h-4.5z"/><path class="st10" d="M79.7 243.3h4.5v1.1h-4.5z"/><path class="st9" d="M78.5 243.3h1.1v1.1h-1.1z"/><path class="st10" d="M78.5 243.3h1.1v1.1h-1.1z"/><path class="st9" d="M78.5 243.3h1.1v1.1h-1.1z"/><path class="st10" d="M78.5 243.3h1.1v1.1h-1.1zm9.1 0h1.1v1.1h-1.1z"/><path class="st9" d="M87.6 243.3h1.1v1.1h-1.1z"/><path class="st10" d="M87.6 243.3h1.1v1.1h-1.1zm-18.7 0H70v1.1h-1.1z"/><path class="st9" d="M68.9 243.3H70v1.1h-1.1z"/><path class="st10" d="M68.9 243.3H70v1.1h-1.1z"/><path class="st9" d="M106.3 243.3h4.5v1.1h-4.5z"/><path class="st9" d="M106.3 243.3h4.5v1.1h-4.5z"/><path class="st10" d="M106.3 243.3h4.5v1.1h-4.5z"/><path class="st9" d="M111.9 243.3h4.5v1.1h-4.5z"/><path class="st9" d="M111.9 243.3h4.5v1.1h-4.5z"/><path class="st10" d="M111.9 243.3h4.5v1.1h-4.5z"/><path class="st9" d="M110.8 243.3h1.1v1.1h-1.1z"/><path class="st10" d="M110.8 243.3h1.1v1.1h-1.1z"/><path class="st9" d="M110.8 243.3h1.1v1.1h-1.1z"/><path class="st10" d="M110.8 243.3h1.1v1.1h-1.1zm9.1 0h1.1v1.1h-1.1z"/><path class="st9" d="M119.9 243.3h1.1v1.1h-1.1z"/><path class="st10" d="M119.9 243.3h1.1v1.1h-1.1zm-18.7 0h1.1v1.1h-1.1z"/><path class="st9" d="M101.2 243.3h1.1v1.1h-1.1z"/><path class="st10" d="M101.2 243.3h1.1v1.1h-1.1z"/><path class="st11" d="M133.5 243.3h1.1v1.1h-1.1z"/><path class="st9" d="M133.5 243.3h1.1v1.1h-1.1z"/><path class="st10" d="M133.5 243.3h1.1v1.1h-1.1zm-77.1-9.1h12.5v1.1H56.4zm13.6 0h4v1.1h-4zm51 0h12.5v1.1H121zm13.6 0h3.4v1.1h-3.4zm-50.4 0h3.4v1.1h-3.4zm-64.9 0h3.4v1.1h-3.4zm69.4 0h12.5v1.1H88.7zm-51 0h4v1.1h-4zm64.6 0h4v1.1h-4zm14.2 0h3.4v1.1h-3.4zm-92.7 0h12.8v1.1H23.8zm28.1 0h3.4v1.1h-3.4z"/><path class="st9" d="M19.1 234.2h.2v1.1h-.2z"/><path class="st10" d="M19.1 234.2h.2v1.1h-.2zm3.6 0h1.1v1.1h-1.1z"/><path class="st10" d="M22.7 234.2h1.1v1.1h-1.1z"/><path class="st9" d="M41.7 234.2h4.5v1.1h-4.5z"/><path class="st10" d="M41.7 234.2h4.5v1.1h-4.5z"/><path class="st9" d="M47.4 234.2h4.5v1.1h-4.5z"/><path class="st10" d="M47.4 234.2h4.5v1.1h-4.5z"/><path class="st9" d="M46.2 234.2h1.1v1.1h-1.1z"/><path class="st10" d="M46.2 234.2h1.1v1.1h-1.1z"/><path class="st10" d="M46.2 234.2h1.1v1.1h-1.1zm9.1 0h1.1v1.1h-1.1z"/><path class="st10" d="M55.3 234.2h1.1v1.1h-1.1zm-18.7 0h1.1v1.1h-1.1z"/><path class="st10" d="M36.6 234.2h1.1v1.1h-1.1z"/><path class="st9" d="M79.7 234.2h4.5v1.1h-4.5z"/><path class="st10" d="M79.7 234.2h4.5v1.1h-4.5z"/><path class="st9" d="M74 234.2h4.5v1.1H74z"/><path class="st10" d="M74 234.2h4.5v1.1H74z"/><path class="st9" d="M78.5 234.2h1.1v1.1h-1.1z"/><path class="st10" d="M78.5 234.2h1.1v1.1h-1.1z"/><path class="st10" d="M78.5 234.2h1.1v1.1h-1.1zm9.1 0h1.1v1.1h-1.1z"/><path class="st10" d="M87.6 234.2h1.1v1.1h-1.1zm-18.7 0H70v1.1h-1.1z"/><path class="st10" d="M68.9 234.2H70v1.1h-1.1z"/><path class="st9" d="M111.9 234.2h4.5v1.1h-4.5z"/><path class="st10" d="M111.9 234.2h4.5v1.1h-4.5z"/><path class="st9" d="M106.3 234.2h4.5v1.1h-4.5z"/><path class="st10" d="M106.3 234.2h4.5v1.1h-4.5z"/><path class="st9" d="M110.8 234.2h1.1v1.1h-1.1z"/><path class="st10" d="M110.8 234.2h1.1v1.1h-1.1z"/><path class="st10" d="M110.8 234.2h1.1v1.1h-1.1zm9.1 0h1.1v1.1h-1.1z"/><path class="st10" d="M119.9 234.2h1.1v1.1h-1.1zm-18.7 0h1.1v1.1h-1.1z"/><path class="st10" d="M101.2 234.2h1.1v1.1h-1.1z"/><path class="st11" d="M133.5 234.2h1.1v1.1h-1.1z"/><path class="st10" d="M133.5 234.2h1.1v1.1h-1.1zm-17 18.7h3.4v1.1h-3.4zm-46.5 0h4v1.1h-4zm51 0h12.5v1.1H121zm-69.1 0h3.4v1.1h-3.4zm4.5 0h12.5v1.1H56.4zm-18.7 0h4v1.1h-4zm96.9 0h3.4v1.1h-3.4zm-115.3 0h3.4v1.1h-3.4zm83 0h4v1.1h-4zm-13.6 0h12.5v1.1H88.7zm-64.9 0h12.8v1.1H23.8zm60.4 0h3.4v1.1h-3.4z"/><path class="st9" d="M19.1 252.9h.2v1.1h-.2z"/><path class="st10" d="M19.1 252.9h.2v1.1h-.2zm3.6 0h1.1v1.1h-1.1z"/><path class="st10" d="M22.7 252.9h1.1v1.1h-1.1z"/><path class="st9" d="M41.7 252.9h4.5v1.1h-4.5z"/><path class="st10" d="M41.7 252.9h4.5v1.1h-4.5z"/><path class="st9" d="M47.4 252.9h4.5v1.1h-4.5z"/><path class="st10" d="M47.4 252.9h4.5v1.1h-4.5z"/><path class="st9" d="M46.2 252.9h1.1v1.1h-1.1z"/><path class="st10" d="M46.2 252.9h1.1v1.1h-1.1z"/><path class="st10" d="M46.2 252.9h1.1v1.1h-1.1zm9.1 0h1.1v1.1h-1.1z"/><path class="st10" d="M55.3 252.9h1.1v1.1h-1.1zm-18.7 0h1.1v1.1h-1.1z"/><path class="st10" d="M36.6 252.9h1.1v1.1h-1.1z"/><path class="st9" d="M79.7 252.9h4.5v1.1h-4.5z"/><path class="st10" d="M79.7 252.9h4.5v1.1h-4.5z"/><path class="st9" d="M74 252.9h4.5v1.1H74z"/><path class="st10" d="M74 252.9h4.5v1.1H74z"/><path class="st9" d="M78.5 252.9h1.1v1.1h-1.1z"/><path class="st10" d="M78.5 252.9h1.1v1.1h-1.1z"/><path class="st10" d="M78.5 252.9h1.1v1.1h-1.1zm9.1 0h1.1v1.1h-1.1z"/><path class="st10" d="M87.6 252.9h1.1v1.1h-1.1zm-18.7 0H70v1.1h-1.1z"/><path class="st10" d="M68.9 252.9H70v1.1h-1.1z"/><path class="st9" d="M106.3 252.9h4.5v1.1h-4.5z"/><path class="st10" d="M106.3 252.9h4.5v1.1h-4.5z"/><path class="st9" d="M111.9 252.9h4.5v1.1h-4.5z"/><path class="st10" d="M111.9 252.9h4.5v1.1h-4.5z"/><path class="st9" d="M110.8 252.9h1.1v1.1h-1.1z"/><path class="st10" d="M110.8 252.9h1.1v1.1h-1.1z"/><path class="st10" d="M110.8 252.9h1.1v1.1h-1.1zm9.1 0h1.1v1.1h-1.1z"/><path class="st10" d="M119.9 252.9h1.1v1.1h-1.1zm-18.7 0h1.1v1.1h-1.1z"/><path class="st10" d="M101.2 252.9h1.1v1.1h-1.1z"/><path class="st11" d="M133.5 252.9h1.1v1.1h-1.1z"/><path class="st10" d="M133.5 252.9h1.1v1.1h-1.1z"/><path class="st9" d="M121 212.1h12.5v4.5H121zm-69.1 0h3.4v4.5h-3.4zm64.6 0h3.4v4.5h-3.4zm-32.3 0h3.4v4.5h-3.4zm-60.4-5.7h12.8v4.5H23.8zm32.6 0h12.5v4.5H56.4zm60.1 0h3.4v4.5h-3.4zm-32.3 0h3.4v4.5h-3.4zm-27.8 5.7h12.5v4.5H56.4zm-32.6 0h12.8v4.5H23.8zm13.9-5.7h4v4.5h-4zm96.9 0h3.4v4.5h-3.4zm-115.3 0h3.4v4.5h-3.4zm115.3 5.7h3.4v4.5h-3.4zm-13.6-5.7h12.5v4.5H121zm-32.3 0h12.5v4.5H88.7zM70 212.1h4v4.5h-4zm-32.3 0h4v4.5h-4zm64.6-5.7h4v4.5h-4zm-32.3 0h4v4.5h-4zm32.3 5.7h4v4.5h-4zm-50.4-5.7h3.4v4.5h-3.4zm36.8 5.7h12.5v4.5H88.7zm-69.4 0h3.4v4.5h-3.4zm-.2 0h.2v4.5h-.2z"/><path class="st9" d="M19.1 212.1h.2v4.5h-.2zm0-5.7h.2v4.5h-.2z"/><path class="st9" d="M19.1 206.4h.2v4.5h-.2z"/><path class="st10" d="M22.7 212.1h1.1v4.5h-1.1z"/><path class="st9" d="M22.7 212.1h1.1v4.5h-1.1z"/><path class="st10" d="M22.7 206.4h1.1v4.5h-1.1z"/><path class="st9" d="M22.7 206.4h1.1v4.5h-1.1zm19 0h4.5v4.5h-4.5z"/><path class="st9" d="M41.7 206.4h4.5v4.5h-4.5zm0 5.7h4.5v4.5h-4.5z"/><path class="st9" d="M41.7 212.1h4.5v4.5h-4.5zm5.7 0h4.5v4.5h-4.5z"/><path class="st9" d="M47.4 212.1h4.5v4.5h-4.5zm0-5.7h4.5v4.5h-4.5z"/><path class="st9" d="M47.4 206.4h4.5v4.5h-4.5zm-1.2 5.7h1.1v4.5h-1.1z"/><path class="st10" d="M46.2 212.1h1.1v4.5h-1.1z"/><path class="st9" d="M46.2 212.1h1.1v4.5h-1.1zm0-5.7h1.1v4.5h-1.1z"/><path class="st10" d="M46.2 206.4h1.1v4.5h-1.1z"/><path class="st9" d="M46.2 206.4h1.1v4.5h-1.1z"/><path class="st10" d="M55.3 206.4h1.1v4.5h-1.1z"/><path class="st9" d="M55.3 206.4h1.1v4.5h-1.1z"/><path class="st10" d="M55.3 212.1h1.1v4.5h-1.1z"/><path class="st9" d="M55.3 212.1h1.1v4.5h-1.1z"/><path class="st10" d="M36.6 212.1h1.1v4.5h-1.1z"/><path class="st9" d="M36.6 212.1h1.1v4.5h-1.1z"/><path class="st10" d="M36.6 206.4h1.1v4.5h-1.1z"/><path class="st9" d="M36.6 206.4h1.1v4.5h-1.1zm43.1 5.7h4.5v4.5h-4.5z"/><path class="st9" d="M79.7 212.1h4.5v4.5h-4.5zm0-5.7h4.5v4.5h-4.5z"/><path class="st9" d="M79.7 206.4h4.5v4.5h-4.5zm-5.7 5.7h4.5v4.5H74z"/><path class="st9" d="M74 212.1h4.5v4.5H74zm0-5.7h4.5v4.5H74z"/><path class="st9" d="M74 206.4h4.5v4.5H74zm4.5 0h1.1v4.5h-1.1z"/><path class="st10" d="M78.5 206.4h1.1v4.5h-1.1z"/><path class="st9" d="M78.5 206.4h1.1v4.5h-1.1zm0 5.7h1.1v4.5h-1.1z"/><path class="st10" d="M78.5 212.1h1.1v4.5h-1.1z"/><path class="st9" d="M78.5 212.1h1.1v4.5h-1.1z"/><path class="st10" d="M87.6 212.1h1.1v4.5h-1.1z"/><path class="st9" d="M87.6 212.1h1.1v4.5h-1.1z"/><path class="st10" d="M87.6 206.4h1.1v4.5h-1.1z"/><path class="st9" d="M87.6 206.4h1.1v4.5h-1.1z"/><path class="st10" d="M68.9 212.1H70v4.5h-1.1z"/><path class="st9" d="M68.9 212.1H70v4.5h-1.1z"/><path class="st10" d="M68.9 206.4H70v4.5h-1.1z"/><path class="st9" d="M68.9 206.4H70v4.5h-1.1zm43 0h4.5v4.5h-4.5z"/><path class="st9" d="M111.9 206.4h4.5v4.5h-4.5zm-5.6 0h4.5v4.5h-4.5z"/><path class="st9" d="M106.3 206.4h4.5v4.5h-4.5zm0 5.7h4.5v4.5h-4.5z"/><path class="st9" d="M106.3 212.1h4.5v4.5h-4.5zm5.6 0h4.5v4.5h-4.5z"/><path class="st9" d="M111.9 212.1h4.5v4.5h-4.5zm-1.1 0h1.1v4.5h-1.1z"/><path class="st10" d="M110.8 212.1h1.1v4.5h-1.1z"/><path class="st9" d="M110.8 212.1h1.1v4.5h-1.1zm0-5.7h1.1v4.5h-1.1z"/><path class="st10" d="M110.8 206.4h1.1v4.5h-1.1z"/><path class="st9" d="M110.8 206.4h1.1v4.5h-1.1z"/><path class="st10" d="M119.9 206.4h1.1v4.5h-1.1z"/><path class="st9" d="M119.9 206.4h1.1v4.5h-1.1z"/><path class="st10" d="M119.9 212.1h1.1v4.5h-1.1z"/><path class="st9" d="M119.9 212.1h1.1v4.5h-1.1z"/><path class="st10" d="M101.2 212.1h1.1v4.5h-1.1z"/><path class="st9" d="M101.2 212.1h1.1v4.5h-1.1z"/><path class="st10" d="M101.2 206.4h1.1v4.5h-1.1z"/><path class="st9" d="M101.2 206.4h1.1v4.5h-1.1z"/><path class="st11" d="M133.5 206.4h1.1v4.5h-1.1z"/><path class="st9" d="M133.5 206.4h1.1v4.5h-1.1z"/><path class="st11" d="M133.5 212.1h1.1v4.5h-1.1z"/><path class="st9" d="M133.5 212.1h1.1v4.5h-1.1zM88.7 211h12.5v1.1H88.7z"/><path class="st10" d="M88.7 211h12.5v1.1H88.7z"/><path class="st9" d="M134.6 211h3.4v1.1h-3.4z"/><path class="st10" d="M134.6 211h3.4v1.1h-3.4z"/><path class="st9" d="M51.9 211h3.4v1.1h-3.4z"/><path class="st10" d="M51.9 211h3.4v1.1h-3.4z"/><path class="st9" d="M19.3 211h3.4v1.1h-3.4z"/><path class="st10" d="M19.3 211h3.4v1.1h-3.4z"/><path class="st9" d="M37.7 211h4v1.1h-4z"/><path class="st10" d="M37.7 211h4v1.1h-4z"/><path class="st9" d="M102.3 211h4v1.1h-4z"/><path class="st10" d="M102.3 211h4v1.1h-4z"/><path class="st9" d="M70 211h4v1.1h-4z"/><path class="st10" d="M70 211h4v1.1h-4z"/><path class="st9" d="M23.8 211h12.8v1.1H23.8z"/><path class="st10" d="M23.8 211h12.8v1.1H23.8z"/><path class="st9" d="M56.4 211h12.5v1.1H56.4z"/><path class="st10" d="M56.4 211h12.5v1.1H56.4z"/><path class="st9" d="M121 211h12.5v1.1H121z"/><path class="st10" d="M121 211h12.5v1.1H121z"/><path class="st9" d="M116.5 211h3.4v1.1h-3.4z"/><path class="st10" d="M116.5 211h3.4v1.1h-3.4z"/><path class="st9" d="M84.2 211h3.4v1.1h-3.4z"/><path class="st10" d="M84.2 211h3.4v1.1h-3.4z"/><path class="st9" d="M19.1 211h.2v1.1h-.2z"/><path class="st9" d="M19.1 211h.2v1.1h-.2z"/><path class="st10" d="M19.1 211h.2v1.1h-.2zm3.6 0h1.1v1.1h-1.1z"/><path class="st9" d="M22.7 211h1.1v1.1h-1.1z"/><path class="st10" d="M22.7 211h1.1v1.1h-1.1z"/><path class="st9" d="M47.4 211h4.5v1.1h-4.5z"/><path class="st9" d="M47.4 211h4.5v1.1h-4.5z"/><path class="st10" d="M47.4 211h4.5v1.1h-4.5z"/><path class="st9" d="M41.7 211h4.5v1.1h-4.5z"/><path class="st9" d="M41.7 211h4.5v1.1h-4.5z"/><path class="st10" d="M41.7 211h4.5v1.1h-4.5z"/><path class="st9" d="M46.2 211h1.1v1.1h-1.1z"/><path class="st10" d="M46.2 211h1.1v1.1h-1.1z"/><path class="st9" d="M46.2 211h1.1v1.1h-1.1z"/><path class="st10" d="M46.2 211h1.1v1.1h-1.1zm9.1 0h1.1v1.1h-1.1z"/><path class="st9" d="M55.3 211h1.1v1.1h-1.1z"/><path class="st10" d="M55.3 211h1.1v1.1h-1.1zm-18.7 0h1.1v1.1h-1.1z"/><path class="st9" d="M36.6 211h1.1v1.1h-1.1z"/><path class="st10" d="M36.6 211h1.1v1.1h-1.1z"/><path class="st9" d="M74 211h4.5v1.1H74z"/><path class="st9" d="M74 211h4.5v1.1H74z"/><path class="st10" d="M74 211h4.5v1.1H74z"/><path class="st9" d="M79.7 211h4.5v1.1h-4.5z"/><path class="st9" d="M79.7 211h4.5v1.1h-4.5z"/><path class="st10" d="M79.7 211h4.5v1.1h-4.5z"/><path class="st9" d="M78.5 211h1.1v1.1h-1.1z"/><path class="st10" d="M78.5 211h1.1v1.1h-1.1z"/><path class="st9" d="M78.5 211h1.1v1.1h-1.1z"/><path class="st10" d="M78.5 211h1.1v1.1h-1.1zm9.1 0h1.1v1.1h-1.1z"/><path class="st9" d="M87.6 211h1.1v1.1h-1.1z"/><path class="st10" d="M87.6 211h1.1v1.1h-1.1zm-18.7 0H70v1.1h-1.1z"/><path class="st9" d="M68.9 211H70v1.1h-1.1z"/><path class="st10" d="M68.9 211H70v1.1h-1.1z"/><path class="st9" d="M106.3 211h4.5v1.1h-4.5z"/><path class="st9" d="M106.3 211h4.5v1.1h-4.5z"/><path class="st10" d="M106.3 211h4.5v1.1h-4.5z"/><path class="st9" d="M111.9 211h4.5v1.1h-4.5z"/><path class="st9" d="M111.9 211h4.5v1.1h-4.5z"/><path class="st10" d="M111.9 211h4.5v1.1h-4.5z"/><path class="st9" d="M110.8 211h1.1v1.1h-1.1z"/><path class="st10" d="M110.8 211h1.1v1.1h-1.1z"/><path class="st9" d="M110.8 211h1.1v1.1h-1.1z"/><path class="st10" d="M110.8 211h1.1v1.1h-1.1zm9.1 0h1.1v1.1h-1.1z"/><path class="st9" d="M119.9 211h1.1v1.1h-1.1z"/><path class="st10" d="M119.9 211h1.1v1.1h-1.1zm-18.7 0h1.1v1.1h-1.1z"/><path class="st9" d="M101.2 211h1.1v1.1h-1.1z"/><path class="st10" d="M101.2 211h1.1v1.1h-1.1z"/><path class="st11" d="M133.5 211h1.1v1.1h-1.1z"/><path class="st9" d="M133.5 211h1.1v1.1h-1.1z"/><path class="st10" d="M133.5 211h1.1v1.1h-1.1zM70 201.9h4v1.1h-4zm14.2 0h3.4v1.1h-3.4zm50.4 0h3.4v1.1h-3.4zm-110.8 0h12.8v1.1H23.8zm64.9 0h12.5v1.1H88.7zm-69.4 0h3.4v1.1h-3.4zm32.6 0h3.4v1.1h-3.4zm4.5 0h12.5v1.1H56.4zm60.1 0h3.4v1.1h-3.4zm-78.8 0h4v1.1h-4zm83.3 0h12.5v1.1H121zm-18.7 0h4v1.1h-4z"/><path class="st9" d="M19.1 201.9h.2v1.1h-.2z"/><path class="st10" d="M19.1 201.9h.2v1.1h-.2zm3.6 0h1.1v1.1h-1.1z"/><path class="st10" d="M22.7 201.9h1.1v1.1h-1.1z"/><path class="st9" d="M41.7 201.9h4.5v1.1h-4.5z"/><path class="st10" d="M41.7 201.9h4.5v1.1h-4.5z"/><path class="st9" d="M47.4 201.9h4.5v1.1h-4.5z"/><path class="st10" d="M47.4 201.9h4.5v1.1h-4.5z"/><path class="st9" d="M46.2 201.9h1.1v1.1h-1.1z"/><path class="st10" d="M46.2 201.9h1.1v1.1h-1.1z"/><path class="st10" d="M46.2 201.9h1.1v1.1h-1.1zm9.1 0h1.1v1.1h-1.1z"/><path class="st10" d="M55.3 201.9h1.1v1.1h-1.1zm-18.7 0h1.1v1.1h-1.1z"/><path class="st10" d="M36.6 201.9h1.1v1.1h-1.1z"/><path class="st9" d="M79.7 201.9h4.5v1.1h-4.5z"/><path class="st10" d="M79.7 201.9h4.5v1.1h-4.5z"/><path class="st9" d="M74 201.9h4.5v1.1H74z"/><path class="st10" d="M74 201.9h4.5v1.1H74z"/><path class="st9" d="M78.5 201.9h1.1v1.1h-1.1z"/><path class="st10" d="M78.5 201.9h1.1v1.1h-1.1z"/><path class="st10" d="M78.5 201.9h1.1v1.1h-1.1zm9.1 0h1.1v1.1h-1.1z"/><path class="st10" d="M87.6 201.9h1.1v1.1h-1.1zm-18.7 0H70v1.1h-1.1z"/><path class="st10" d="M68.9 201.9H70v1.1h-1.1z"/><path class="st9" d="M111.9 201.9h4.5v1.1h-4.5z"/><path class="st10" d="M111.9 201.9h4.5v1.1h-4.5z"/><path class="st9" d="M106.3 201.9h4.5v1.1h-4.5z"/><path class="st10" d="M106.3 201.9h4.5v1.1h-4.5z"/><path class="st9" d="M110.8 201.9h1.1v1.1h-1.1z"/><path class="st10" d="M110.8 201.9h1.1v1.1h-1.1z"/><path class="st10" d="M110.8 201.9h1.1v1.1h-1.1zm9.1 0h1.1v1.1h-1.1z"/><path class="st10" d="M119.9 201.9h1.1v1.1h-1.1zm-18.7 0h1.1v1.1h-1.1z"/><path class="st10" d="M101.2 201.9h1.1v1.1h-1.1z"/><path class="st11" d="M133.5 201.9h1.1v1.1h-1.1z"/><path class="st10" d="M133.5 201.9h1.1v1.1h-1.1zM70 220.6h4v1.1h-4zm-18.1 0h3.4v1.1h-3.4zm36.8 0h12.5v1.1H88.7zm-64.9 0h12.8v1.1H23.8zm13.9 0h4v1.1h-4zm64.6 0h4v1.1h-4zm32.3 0h3.4v1.1h-3.4zm-115.3 0h3.4v1.1h-3.4zm97.2 0h3.4v1.1h-3.4zm-60.1 0h12.5v1.1H56.4zm64.6 0h12.5v1.1H121zm-36.8 0h3.4v1.1h-3.4z"/><path class="st9" d="M19.1 220.6h.2v1.1h-.2z"/><path class="st10" d="M19.1 220.6h.2v1.1h-.2zm3.6 0h1.1v1.1h-1.1z"/><path class="st10" d="M22.7 220.6h1.1v1.1h-1.1z"/><path class="st9" d="M47.4 220.6h4.5v1.1h-4.5z"/><path class="st10" d="M47.4 220.6h4.5v1.1h-4.5z"/><path class="st9" d="M41.7 220.6h4.5v1.1h-4.5z"/><path class="st10" d="M41.7 220.6h4.5v1.1h-4.5z"/><path class="st9" d="M46.2 220.6h1.1v1.1h-1.1z"/><path class="st10" d="M46.2 220.6h1.1v1.1h-1.1z"/><path class="st10" d="M46.2 220.6h1.1v1.1h-1.1zm9.1 0h1.1v1.1h-1.1z"/><path class="st10" d="M55.3 220.6h1.1v1.1h-1.1zm-18.7 0h1.1v1.1h-1.1z"/><path class="st10" d="M36.6 220.6h1.1v1.1h-1.1z"/><path class="st9" d="M79.7 220.6h4.5v1.1h-4.5z"/><path class="st10" d="M79.7 220.6h4.5v1.1h-4.5z"/><path class="st9" d="M74 220.6h4.5v1.1H74z"/><path class="st10" d="M74 220.6h4.5v1.1H74z"/><path class="st9" d="M78.5 220.6h1.1v1.1h-1.1z"/><path class="st10" d="M78.5 220.6h1.1v1.1h-1.1z"/><path class="st10" d="M78.5 220.6h1.1v1.1h-1.1zm9.1 0h1.1v1.1h-1.1z"/><path class="st10" d="M87.6 220.6h1.1v1.1h-1.1zm-18.7 0H70v1.1h-1.1z"/><path class="st10" d="M68.9 220.6H70v1.1h-1.1z"/><path class="st9" d="M106.3 220.6h4.5v1.1h-4.5z"/><path class="st10" d="M106.3 220.6h4.5v1.1h-4.5z"/><path class="st9" d="M111.9 220.6h4.5v1.1h-4.5z"/><path class="st10" d="M111.9 220.6h4.5v1.1h-4.5z"/><path class="st9" d="M110.8 220.6h1.1v1.1h-1.1z"/><path class="st10" d="M110.8 220.6h1.1v1.1h-1.1z"/><path class="st10" d="M110.8 220.6h1.1v1.1h-1.1zm9.1 0h1.1v1.1h-1.1z"/><path class="st10" d="M119.9 220.6h1.1v1.1h-1.1zm-18.7 0h1.1v1.1h-1.1z"/><path class="st10" d="M101.2 220.6h1.1v1.1h-1.1z"/><path class="st11" d="M133.5 220.6h1.1v1.1h-1.1z"/><path class="st10" d="M133.5 220.6h1.1v1.1h-1.1z"/><path class="st9" d="M102.3 174.1h4v4.5h-4zm18.7 0v4.5h12.5v-4c-.1-.2-.2-.3-.3-.5H121zm-36.8 5.7h3.4v4.5h-3.4zm17-1.1v-4.5h-1.4c-.8 1-1.6 1.9-2.7 2.5-.9.6-2.5-.8-4.3-2.5h-4.1v4.5h12.5zm-17-4.6h3.4v4.5h-3.4zm-61.5 4l-.3.6h.3v-.6zm0 1.7h-.8c-.6 1.5-1.2 3-1.6 4.5h2.4v-4.5zm47.3 0h4v4.5h-4zm-13.6 0h12.5v4.5H56.4zm-4.5 0h3.4v4.5h-3.4zm-14.2-5.7h4v4.5h-4zm83.3 5.7h12.5v4.5H121zm-4.5 0h3.4v4.5h-3.4zm-78.8 0h4v4.5h-4zm-1.1-5.7H24.9c-.4.6-.8 1.2-1.1 1.9v2.7h12.8v-4.6zm79.9 0h3.4v4.5h-3.4zm18.8 4.6c-.2-.6-.5-1.1-.7-1.7v1.7h.7zm-.7 5.6h2.4c-.3-1.5-.8-3.1-1.3-4.5h-1.1v4.5zm-110.8-4.5h12.8v4.5H23.8zm28.1-5.7h3.4v4.5h-3.4zm50.4 5.7h4v4.5h-4zm-13.6 0h12.5v4.5H88.7zM74 178.7v-1c-.6-.7-.9-2-1.1-3.5H70v4.5h4zm-17.6 0h12.5v-4.5h-5.4c-1.8 1.7-3.3 3-4.2 2.5-.8-.7-1.6-1.6-2.3-2.5h-.6v4.5z"/><path class="st10" d="M22.7 179.8h1.1v4.5h-1.1z"/><path class="st9" d="M22.7 179.8h1.1v4.5h-1.1z"/><path class="st10" d="M23.8 178.7V176c-.4.7-.8 1.4-1.1 2.1v.6h1.1z"/><path class="st9" d="M23.8 178.7V176c-.4.7-.8 1.4-1.1 2.1v.6h1.1zm17.9 1.1h4.5v4.5h-4.5z"/><path class="st9" d="M41.7 179.8h4.5v4.5h-4.5zm5.7-5.7h4.5v4.5h-4.5z"/><path class="st9" d="M47.4 174.1h4.5v4.5h-4.5zm-5.7 0h4.5v4.5h-4.5z"/><path class="st9" d="M41.7 174.1h4.5v4.5h-4.5zm5.7 5.7h4.5v4.5h-4.5z"/><path class="st9" d="M47.4 179.8h4.5v4.5h-4.5zm-1.2-5.7h1.1v4.5h-1.1z"/><path class="st10" d="M46.2 174.1h1.1v4.5h-1.1z"/><path class="st9" d="M46.2 174.1h1.1v4.5h-1.1zm0 5.7h1.1v4.5h-1.1z"/><path class="st10" d="M46.2 179.8h1.1v4.5h-1.1z"/><path class="st9" d="M46.2 179.8h1.1v4.5h-1.1z"/><path class="st10" d="M55.3 179.8h1.1v4.5h-1.1z"/><path class="st9" d="M55.3 179.8h1.1v4.5h-1.1z"/><path class="st10" d="M55.3 174.1h1.1v4.5h-1.1z"/><path class="st9" d="M55.3 174.1h1.1v4.5h-1.1z"/><path class="st10" d="M36.6 179.8h1.1v4.5h-1.1z"/><path class="st9" d="M36.6 179.8h1.1v4.5h-1.1z"/><path class="st10" d="M36.6 174.1h1.1v4.5h-1.1z"/><path class="st9" d="M36.6 174.1h1.1v4.5h-1.1zm43.1 5.7h4.5v4.5h-4.5z"/><path class="st9" d="M79.7 179.8h4.5v4.5h-4.5zm-5.7 0h4.5v4.5H74z"/><path class="st9" d="M74 179.8h4.5v4.5H74zm0-2.2v1h4.5v-4.5c-2 2.1-3.6 3.9-3.6 3.9-.4.1-.7-.1-.9-.4z"/><path class="st9" d="M74 177.6v1h4.5v-4.5c-2 2.1-3.6 3.9-3.6 3.9-.4.1-.7-.1-.9-.4zm5.7-3.5h4.5v4.5h-4.5z"/><path class="st9" d="M79.7 174.1h4.5v4.5h-4.5zm-1.2 0h1.1v4.5h-1.1z"/><path class="st10" d="M78.5 174.1h1.1v4.5h-1.1z"/><path class="st9" d="M78.5 174.1h1.1v4.5h-1.1zm0 5.7h1.1v4.5h-1.1z"/><path class="st10" d="M78.5 179.8h1.1v4.5h-1.1z"/><path class="st9" d="M78.5 179.8h1.1v4.5h-1.1z"/><path class="st10" d="M87.6 174.1h1.1v4.5h-1.1z"/><path class="st9" d="M87.6 174.1h1.1v4.5h-1.1z"/><path class="st10" d="M87.6 179.8h1.1v4.5h-1.1z"/><path class="st9" d="M87.6 179.8h1.1v4.5h-1.1z"/><path class="st10" d="M68.9 174.1H70v4.5h-1.1z"/><path class="st9" d="M68.9 174.1H70v4.5h-1.1z"/><path class="st10" d="M68.9 179.8H70v4.5h-1.1z"/><path class="st9" d="M68.9 179.8H70v4.5h-1.1zm43-5.7h4.5v4.5h-4.5z"/><path class="st9" d="M111.9 174.1h4.5v4.5h-4.5zm0 5.7h4.5v4.5h-4.5z"/><path class="st9" d="M111.9 179.8h4.5v4.5h-4.5zm-5.6-5.7h4.5v4.5h-4.5z"/><path class="st9" d="M106.3 174.1h4.5v4.5h-4.5zm0 5.7h4.5v4.5h-4.5z"/><path class="st9" d="M106.3 179.8h4.5v4.5h-4.5zm4.5-5.7h1.1v4.5h-1.1z"/><path class="st10" d="M110.8 174.1h1.1v4.5h-1.1z"/><path class="st9" d="M110.8 174.1h1.1v4.5h-1.1zm0 5.7h1.1v4.5h-1.1z"/><path class="st10" d="M110.8 179.8h1.1v4.5h-1.1z"/><path class="st9" d="M110.8 179.8h1.1v4.5h-1.1z"/><path class="st10" d="M119.9 179.8h1.1v4.5h-1.1z"/><path class="st9" d="M119.9 179.8h1.1v4.5h-1.1z"/><path class="st10" d="M119.9 174.1h1.1v4.5h-1.1z"/><path class="st9" d="M119.9 174.1h1.1v4.5h-1.1z"/><path class="st10" d="M101.2 179.8h1.1v4.5h-1.1z"/><path class="st9" d="M101.2 179.8h1.1v4.5h-1.1z"/><path class="st10" d="M101.2 174.1h1.1v4.5h-1.1z"/><path class="st9" d="M101.2 174.1h1.1v4.5h-1.1z"/><path class="st11" d="M133.5 179.8h1.1v4.5h-1.1z"/><path class="st9" d="M133.5 179.8h1.1v4.5h-1.1z"/><path class="st11" d="M133.5 178.7h1.1V177c-.4-.8-.7-1.6-1.1-2.3v4z"/><path class="st9" d="M133.5 178.7h1.1V177c-.4-.8-.7-1.6-1.1-2.3v4zm-110.8 0h-.3c-.2.4-.4.8-.5 1.1h.8v-1.1z"/><path class="st10" d="M22.7 178.7h-.3c-.2.4-.4.8-.5 1.1h.8v-1.1z"/><path class="st9" d="M134.6 179.8h1.1c-.1-.4-.3-.8-.4-1.1h-.7v1.1z"/><path class="st10" d="M134.6 179.8h1.1c-.1-.4-.3-.8-.4-1.1h-.7v1.1z"/><path class="st9" d="M121 178.7h12.5v1.1H121z"/><path class="st10" d="M121 178.7h12.5v1.1H121z"/><path class="st9" d="M116.5 178.7h3.4v1.1h-3.4z"/><path class="st10" d="M116.5 178.7h3.4v1.1h-3.4z"/><path class="st9" d="M102.3 178.7h4v1.1h-4z"/><path class="st10" d="M102.3 178.7h4v1.1h-4z"/><path class="st9" d="M37.7 178.7h4v1.1h-4z"/><path class="st10" d="M37.7 178.7h4v1.1h-4z"/><path class="st9" d="M56.4 178.7h12.5v1.1H56.4z"/><path class="st10" d="M56.4 178.7h12.5v1.1H56.4z"/><path class="st9" d="M84.2 178.7h3.4v1.1h-3.4z"/><path class="st10" d="M84.2 178.7h3.4v1.1h-3.4z"/><path class="st9" d="M51.9 178.7h3.4v1.1h-3.4z"/><path class="st10" d="M51.9 178.7h3.4v1.1h-3.4z"/><path class="st9" d="M70 178.7h4v1.1h-4z"/><path class="st10" d="M70 178.7h4v1.1h-4z"/><path class="st9" d="M23.8 178.7h12.8v1.1H23.8z"/><path class="st10" d="M23.8 178.7h12.8v1.1H23.8z"/><path class="st9" d="M88.7 178.7h12.5v1.1H88.7z"/><path class="st10" d="M88.7 178.7h12.5v1.1H88.7zm-66 0h1.1v1.1h-1.1z"/><path class="st9" d="M22.7 178.7h1.1v1.1h-1.1z"/><path class="st10" d="M22.7 178.7h1.1v1.1h-1.1z"/><path class="st9" d="M41.7 178.7h4.5v1.1h-4.5z"/><path class="st9" d="M41.7 178.7h4.5v1.1h-4.5z"/><path class="st10" d="M41.7 178.7h4.5v1.1h-4.5z"/><path class="st9" d="M47.4 178.7h4.5v1.1h-4.5z"/><path class="st9" d="M47.4 178.7h4.5v1.1h-4.5z"/><path class="st10" d="M47.4 178.7h4.5v1.1h-4.5z"/><path class="st9" d="M46.2 178.7h1.1v1.1h-1.1z"/><path class="st10" d="M46.2 178.7h1.1v1.1h-1.1z"/><path class="st9" d="M46.2 178.7h1.1v1.1h-1.1z"/><path class="st10" d="M46.2 178.7h1.1v1.1h-1.1zm9.1 0h1.1v1.1h-1.1z"/><path class="st9" d="M55.3 178.7h1.1v1.1h-1.1z"/><path class="st10" d="M55.3 178.7h1.1v1.1h-1.1zm-18.7 0h1.1v1.1h-1.1z"/><path class="st9" d="M36.6 178.7h1.1v1.1h-1.1z"/><path class="st10" d="M36.6 178.7h1.1v1.1h-1.1z"/><path class="st9" d="M79.7 178.7h4.5v1.1h-4.5z"/><path class="st9" d="M79.7 178.7h4.5v1.1h-4.5z"/><path class="st10" d="M79.7 178.7h4.5v1.1h-4.5z"/><path class="st9" d="M74 178.7h4.5v1.1H74z"/><path class="st9" d="M74 178.7h4.5v1.1H74z"/><path class="st10" d="M74 178.7h4.5v1.1H74z"/><path class="st9" d="M78.5 178.7h1.1v1.1h-1.1z"/><path class="st10" d="M78.5 178.7h1.1v1.1h-1.1z"/><path class="st9" d="M78.5 178.7h1.1v1.1h-1.1z"/><path class="st10" d="M78.5 178.7h1.1v1.1h-1.1zm9.1 0h1.1v1.1h-1.1z"/><path class="st9" d="M87.6 178.7h1.1v1.1h-1.1z"/><path class="st10" d="M87.6 178.7h1.1v1.1h-1.1zm-18.7 0H70v1.1h-1.1z"/><path class="st9" d="M68.9 178.7H70v1.1h-1.1z"/><path class="st10" d="M68.9 178.7H70v1.1h-1.1z"/><path class="st9" d="M106.3 178.7h4.5v1.1h-4.5z"/><path class="st9" d="M106.3 178.7h4.5v1.1h-4.5z"/><path class="st10" d="M106.3 178.7h4.5v1.1h-4.5z"/><path class="st9" d="M111.9 178.7h4.5v1.1h-4.5z"/><path class="st9" d="M111.9 178.7h4.5v1.1h-4.5z"/><path class="st10" d="M111.9 178.7h4.5v1.1h-4.5z"/><path class="st9" d="M110.8 178.7h1.1v1.1h-1.1z"/><path class="st10" d="M110.8 178.7h1.1v1.1h-1.1z"/><path class="st9" d="M110.8 178.7h1.1v1.1h-1.1z"/><path class="st10" d="M110.8 178.7h1.1v1.1h-1.1zm9.1 0h1.1v1.1h-1.1z"/><path class="st9" d="M119.9 178.7h1.1v1.1h-1.1z"/><path class="st10" d="M119.9 178.7h1.1v1.1h-1.1zm-18.7 0h1.1v1.1h-1.1z"/><path class="st9" d="M101.2 178.7h1.1v1.1h-1.1z"/><path class="st10" d="M101.2 178.7h1.1v1.1h-1.1z"/><path class="st11" d="M133.5 178.7h1.1v1.1h-1.1z"/><path class="st9" d="M133.5 178.7h1.1v1.1h-1.1z"/><path class="st10" d="M133.5 178.7h1.1v1.1h-1.1zm-12.5-8h10.1c-.3-.4-.5-.8-.8-1.1H121v1.1zm-51 0h2.3c-.1-.4-.2-.8-.3-1.1h-2v1.1zm-33.4-1.1h-8.1c-.3.4-.7.7-1 1.1h9.1v-1.1zm18.5 1.1c-.2-.4-.3-.7-.5-1.1h-2.8v1.1h3.3zm61.4-1.1h3.4v1.1h-3.4zm-14.2 0h4v1.1h-4zm-33.4 1.1v-1.1h-.5c-.4.3-.9.7-1.3 1.1h1.8zm-31.2-1.1h4v1.1h-4zm46.5 0h3.4v1.1h-3.4zm4.5.5v.7h.7c-.2-.3-.5-.5-.7-.7z"/><path class="st9" d="M41.7 169.6h4.5v1.1h-4.5z"/><path class="st10" d="M41.7 169.6h4.5v1.1h-4.5z"/><path class="st9" d="M47.4 169.6h4.5v1.1h-4.5z"/><path class="st10" d="M47.4 169.6h4.5v1.1h-4.5z"/><path class="st9" d="M46.2 169.6h1.1v1.1h-1.1z"/><path class="st10" d="M46.2 169.6h1.1v1.1h-1.1z"/><path class="st10" d="M46.2 169.6h1.1v1.1h-1.1zm-9.6 0h1.1v1.1h-1.1z"/><path class="st10" d="M36.6 169.6h1.1v1.1h-1.1z"/><path class="st9" d="M84.2 170.7v-1.1h-.8c-.4.3-.9.7-1.4 1.1h2.2z"/><path class="st10" d="M84.2 170.7v-1.1h-.8c-.4.3-.9.7-1.4 1.1h2.2zm3.4 0h1.1v-.7c-.2-.2-.4-.3-.6-.5h-.6l.1 1.2z"/><path class="st10" d="M87.6 170.7h1.1v-.7c-.2-.2-.4-.3-.6-.5h-.6l.1 1.2zm-18.7-1.1H70v1.1h-1.1z"/><path class="st10" d="M68.9 169.6H70v1.1h-1.1z"/><path class="st9" d="M106.3 169.6h4.5v1.1h-4.5z"/><path class="st10" d="M106.3 169.6h4.5v1.1h-4.5z"/><path class="st9" d="M111.9 169.6h4.5v1.1h-4.5z"/><path class="st10" d="M111.9 169.6h4.5v1.1h-4.5z"/><path class="st9" d="M110.8 169.6h1.1v1.1h-1.1z"/><path class="st10" d="M110.8 169.6h1.1v1.1h-1.1z"/><path class="st10" d="M110.8 169.6h1.1v1.1h-1.1zm9.1 0h1.1v1.1h-1.1z"/><path class="st10" d="M119.9 169.6h1.1v1.1h-1.1zm-17.6 1.1v-1.1h-.2c-.1.4-.3.8-.4 1.1h.6z"/><path class="st10" d="M102.3 170.7v-1.1h-.2c-.1.4-.3.8-.4 1.1h.6zm-13.6 17.6h12.5v1.1H88.7zm45.9 1.1h3.2c0-.4-.1-.8-.1-1.1h-3.1v1.1zm-50.4-1.1h3.4v1.1h-3.4zm36.8 0h12.5v1.1H121zm-51 0h4v1.1h-4zm-47.3 1.1v-1.1h-3.3c0 .3-.1.6-.1.9v.3l3.4-.1zm93.8-1.1h3.4v1.1h-3.4zm-60.1 0h12.5v1.1H56.4zm-32.6 0h12.8v1.1H23.8zm78.5 0h4v1.1h-4zm-64.6 0h4v1.1h-4zm14.2 0h3.4v1.1h-3.4z"/><path class="st9" d="M19.3 189.2v.3-.3z"/><path class="st10" d="M19.3 189.2v.3-.3zm3.4-.9h1.1v1.1h-1.1z"/><path class="st10" d="M22.7 188.3h1.1v1.1h-1.1z"/><path class="st9" d="M47.4 188.3h4.5v1.1h-4.5z"/><path class="st10" d="M47.4 188.3h4.5v1.1h-4.5z"/><path class="st9" d="M41.7 188.3h4.5v1.1h-4.5z"/><path class="st10" d="M41.7 188.3h4.5v1.1h-4.5z"/><path class="st9" d="M46.2 188.3h1.1v1.1h-1.1z"/><path class="st10" d="M46.2 188.3h1.1v1.1h-1.1z"/><path class="st10" d="M46.2 188.3h1.1v1.1h-1.1zm9.1 0h1.1v1.1h-1.1z"/><path class="st10" d="M55.3 188.3h1.1v1.1h-1.1zm-18.7 0h1.1v1.1h-1.1z"/><path class="st10" d="M36.6 188.3h1.1v1.1h-1.1z"/><path class="st9" d="M79.7 188.3h4.5v1.1h-4.5z"/><path class="st10" d="M79.7 188.3h4.5v1.1h-4.5z"/><path class="st9" d="M74 188.3h4.5v1.1H74z"/><path class="st10" d="M74 188.3h4.5v1.1H74z"/><path class="st9" d="M78.5 188.3h1.1v1.1h-1.1z"/><path class="st10" d="M78.5 188.3h1.1v1.1h-1.1z"/><path class="st10" d="M78.5 188.3h1.1v1.1h-1.1zm9.1 0h1.1v1.1h-1.1z"/><path class="st10" d="M87.6 188.3h1.1v1.1h-1.1zm-18.7 0H70v1.1h-1.1z"/><path class="st10" d="M68.9 188.3H70v1.1h-1.1z"/><path class="st9" d="M106.3 188.3h4.5v1.1h-4.5z"/><path class="st10" d="M106.3 188.3h4.5v1.1h-4.5z"/><path class="st9" d="M111.9 188.3h4.5v1.1h-4.5z"/><path class="st10" d="M111.9 188.3h4.5v1.1h-4.5z"/><path class="st9" d="M110.8 188.3h1.1v1.1h-1.1z"/><path class="st10" d="M110.8 188.3h1.1v1.1h-1.1z"/><path class="st10" d="M110.8 188.3h1.1v1.1h-1.1zm9.1 0h1.1v1.1h-1.1z"/><path class="st10" d="M119.9 188.3h1.1v1.1h-1.1zm-18.7 0h1.1v1.1h-1.1z"/><path class="st10" d="M101.2 188.3h1.1v1.1h-1.1z"/><path class="st11" d="M133.5 188.3h1.1v1.1h-1.1z"/><path class="st10" d="M133.5 188.3h1.1v1.1h-1.1z"/><path class="st11" d="M106.3 156.6c-.8-.1-1.6-.1-2.4-.1v.6h2.4v-.5z"/><path class="st9" d="M51.9 156.2c-1.4.3-2.8.6-4.1 1h4.1v-1z"/><path class="st11" d="M51.9 156.2c-1.4.3-2.8.6-4.1 1h4.1v-1z"/><path class="st9" d="M110.3 157.1c-1.3-.2-2.6-.4-4-.5v.5h4z"/><path class="st11" d="M110.3 157.1c-1.3-.2-2.6-.4-4-.5v.5h4z"/><path class="st12" d="M115.9 205s-3.2 7.4-3.5 20.5c-.2 8.2-.2 36.2-.2 36.2 0-1.2 4.7 1.3 4.7 1.3s3-54.7-1-58zm-73.4 0s3.2 7.4 3.5 20.5c.2 8.2.2 36.2.2 36.2 0-1.2-4.7 1.3-4.7 1.3s-3-54.7 1-58z"/><path class="st6" d="M138.4 263.8H19.5c-.9 0-1.6-.7-1.6-1.6v-69.3c0-18.4 12.3-37.9 35-37.9.9 0 1.6.7 1.6 1.6 0 .9-.7 1.6-1.6 1.6-20.7 0-31.8 17.9-31.8 34.7v67.7h115.7v-67.7c0-16.7-12.4-34.7-32.5-34.7-.9 0-1.6-.7-1.6-1.6 0-.9.7-1.6 1.6-1.6 22 0 35.7 19.7 35.7 37.9v69.3c0 .9-.7 1.6-1.6 1.6z"/><path class="st5" d="M79.2 169.7c-.3 0-.6-.1-.9-.3l-4.5-4c-.6-.5-.6-1.3-.1-1.9.5-.6 1.3-.6 1.9-.1l3.5 3.2 3-3.1c.5-.5 1.4-.5 1.9 0s.5 1.4 0 1.9l-3.9 4c-.2.2-.5.3-.9.3z"/><path class="st13" d="M31.9 175.2c-.2 0-.5-.1-.7-.2-.4-.4-.5-1-.1-1.4 1.2-1.4 2.6-2.8 4-4 .4-.4 1.1-.3 1.4.1.4.4.3 1.1-.1 1.4-1.4 1.2-2.6 2.4-3.8 3.8-.1.2-.4.3-.7.3zm95.6 2.5c-.3 0-.6-.1-.8-.4-1.5-1.9-3.2-3.6-5-5.2-.4-.4-.5-1-.1-1.4s1-.5 1.4-.1c1.9 1.6 3.7 3.5 5.3 5.5.3.4.3 1.1-.2 1.4-.1.1-.4.2-.6.2zm-7.6-7.2c-.2 0-.4-.1-.6-.2-.9-.6-1.8-1.2-2.7-1.7-.5-.3-.6-.9-.4-1.4.3-.5.9-.6 1.4-.4 1 .6 1.9 1.2 2.8 1.8.5.3.6.9.2 1.4 0 .3-.3.5-.7.5zm-5.9-3.4c-.1 0-.3 0-.4-.1-1.2-.6-2.5-1-3.8-1.4-.5-.2-.8-.7-.7-1.3.2-.5.7-.8 1.3-.7 1.4.4 2.7.9 4 1.5.5.2.7.8.5 1.3-.2.5-.5.7-.9.7zm-73.8 1c-.3 0-.7-.2-.9-.5-.3-.5-.1-1.1.3-1.4 1.4-.9 3-1.7 4.5-2.4.5-.2 1.1 0 1.3.5s0 1.1-.5 1.3c-1.5.6-2.9 1.4-4.3 2.2 0 .2-.2.3-.4.3z"/><path class="st8" d="M41.1 261.9v-55.4"/><path class="st6" d="M41.1 263.6c-.9 0-1.7-.8-1.7-1.7v-55.4c0-.9.8-1.7 1.7-1.7s1.7.8 1.7 1.7v55.4c0 1-.8 1.7-1.7 1.7z"/><path class="st4" d="M42 259.5c-1.1-.7-.9-28.6-.9-28.6l-21.6.1-.1 28.1s-3.8 4.3-3.8 11.4c0 9.3 2.4 12.1 6.7 12.1 10.2 0 17.9 1.1 19.7-2.9 0 0-.8 2.9 3.3 4.5 8.7 2.1 5.2-13.3 3.4-16.4-1.7-2.9-.7-2.6-6.7-8.3z"/><path class="st2" d="M46.8 286.1c-.6 0-1.2-.1-1.9-.2-.1 0-.1 0-.2-.1-1.8-.7-3-1.7-3.6-2.8-2.8 1.6-7.5 1.5-13.3 1.4-1.8 0-3.6-.1-5.5-.1-7.4 0-8.3-7.3-8.3-13.7 0-6.3 2.7-10.6 3.8-12l.1-27.6c0-.9.7-1.6 1.6-1.6l21.6-.1c.4 0 .9.2 1.2.5s.5.7.5 1.2c-.1 12 .1 25.3.6 27.6 4.5 4.4 5.1 5.3 6 7.2l.7 1.4c1.5 2.7 4.1 12.7.9 17-.8.9-2.1 1.9-4.2 1.9zm-1.1-3.4c1.9.4 2.4-.3 2.6-.6 2-2.6.2-11.1-1.1-13.5-.4-.6-.6-1.1-.8-1.6-.7-1.4-1-2.1-5.5-6.4-.8-.6-1.7-2.6-1.5-28.2l-18.4.1v26.7c0 .4-.1.8-.4 1.1 0 0-3.4 4-3.4 10.4 0 9.7 2.6 10.5 5 10.5 2 0 3.8 0 5.6.1 6.5.1 11.6.3 12.6-2 .3-.8 1.2-1.1 2-.9.8.3 1.3 1.1 1.1 1.9 0 .1-.2 1.5 2.2 2.4zm-2.8-24.6zm0 0z"/><path class="st15" d="M40.8 270.6c0 .2 3.1 4.3 1.1 9.2"/><path class="st2" d="M41.9 281.5c-.2 0-.4 0-.6-.1-.8-.3-1.3-1.3-.9-2.1.9-2.4.6-4.9-.9-7.5-.2-.3-.4-.7-.3-1.2.1-.9.9-1.6 1.8-1.5.6.1 1.1.5 1.3 1v.1c2.5 4.4 2 8.1 1.1 10.4-.2.5-.8.9-1.5.9z"/><path class="st16" d="M28.8 282.4c-.8 0-1.4-.6-1.4-1.4v-4.3c0-.8.6-1.4 1.4-1.4s1.4.6 1.4 1.4v4.3c0 .8-.7 1.4-1.4 1.4zm6.5 0c-.8 0-1.4-.6-1.4-1.4v-2.7c0-.8.6-1.4 1.4-1.4s1.4.6 1.4 1.4v2.7c0 .8-.6 1.4-1.4 1.4zm-12.6 0c-.8 0-1.4-.6-1.4-1.4v-2.9c0-.8.6-1.4 1.4-1.4s1.4.6 1.4 1.4v2.9c0 .8-.7 1.4-1.4 1.4z"/><path class="st8" d="M117 206.5v55.4"/><path class="st6" d="M117 263.6c-.9 0-1.7-.8-1.7-1.7v-55.4c0-.9.8-1.7 1.7-1.7s1.7.8 1.7 1.7v55.4c-.1 1-.8 1.7-1.7 1.7z"/><path class="st4" d="M116 259.5c1.1-.7.9-28.6.9-28.6l21.6.1.1 28.1s3.8 4.3 3.8 11.4c0 9.3-2.4 12.1-6.7 12.1-10.2 0-17.9 1.1-19.7-2.9 0 0 .8 2.9-3.3 4.5-8.7 2.1-5.2-13.3-3.4-16.4 1.7-2.9.8-2.6 6.7-8.3z"/><path class="st2" d="M111.3 286.1c-2.2 0-3.5-1-4.2-2-3.2-4.3-.6-14.3.9-17l.7-1.4c.9-1.9 1.5-2.8 6-7.2.5-2.3.7-15.6.6-27.6 0-.4.2-.9.5-1.2s.7-.5 1.2-.5l21.6.1c.9 0 1.6.7 1.6 1.6l.1 27.6c1.1 1.4 3.8 5.7 3.8 12 0 6.4-.9 13.7-8.3 13.7-1.9 0-3.7 0-5.5.1-5.8.1-10.4.2-13.3-1.4-.7 1-1.8 2-3.6 2.8-.1 0-.1.1-.2.1-.7.3-1.3.3-1.9.3zm5.8-25.4c-4.4 4.3-4.8 4.9-5.5 6.4-.2.4-.4.9-.8 1.6-1.3 2.4-3.1 10.8-1.1 13.5.2.3.8 1 2.6.6 2.4-1 2.3-2.3 2.2-2.6-.2-.8.3-1.6 1.1-1.9.8-.3 1.7.1 2 .9 1 2.3 6.2 2.1 12.6 2 1.8 0 3.6-.1 5.6-.1 2.4 0 5-.8 5-10.5 0-6.4-3.4-10.3-3.4-10.4-.3-.3-.4-.7-.4-1.1l-.1-26.5-18.4-.1c.2 25.7-.6 27.6-1.4 28.2zm-2-2.6zm0 0z"/><path class="st15" d="M117.3 270.6c0 .2-3.1 4.3-1.1 9.2"/><path class="st2" d="M116.1 281.5c-.7 0-1.3-.4-1.5-1-.9-2.3-1.4-6 1.1-10.4v-.1c.2-.5.7-.9 1.3-1 .9-.1 1.7.6 1.8 1.5.1.5-.2.9-.3 1.2-1.5 2.6-1.8 5.2-.9 7.5.3.8-.1 1.8-.9 2.1-.2.1-.4.2-.6.2zm-.5-10.7z"/><path class="st16" d="M129.3 282.4c-.8 0-1.4-.6-1.4-1.4v-4.3c0-.8.6-1.4 1.4-1.4s1.4.6 1.4 1.4v4.3c0 .8-.6 1.4-1.4 1.4zm-6.5 0c-.8 0-1.4-.6-1.4-1.4v-2.7c0-.8.6-1.4 1.4-1.4s1.4.6 1.4 1.4v2.7c0 .8-.7 1.4-1.4 1.4zm12.6 0c-.8 0-1.4-.6-1.4-1.4v-2.9c0-.8.6-1.4 1.4-1.4s1.4.6 1.4 1.4v2.9c0 .8-.6 1.4-1.4 1.4z"/><g id="XMLID_6_"><path class="st13" d="M117.7 385H82.4c0-8.9 7.9-16.2 17.7-16.2s17.6 7.3 17.6 16.2z"/><path class="st17" d="M117.7 385H82.4c0-8.9 7.9-3.7 17.7-3.7s17.6-5.2 17.6 3.7z"/><path class="st2" d="M117.7 386.7H82.4c-.9 0-1.6-.7-1.6-1.6 0-9.8 8.7-17.8 19.3-17.8s19.3 8 19.3 17.8c0 .8-.7 1.6-1.7 1.6zm-33.6-3.3H116c-.9-7.2-7.7-12.9-15.9-12.9-8.3 0-15.1 5.7-16 12.9z"/></g><g id="XMLID_5_"><path class="st13" d="M75.9 385.1H40.5c0-8.9 7.9-16.2 17.7-16.2s17.7 7.2 17.7 16.2z"/><path class="st17" d="M75.9 385.1H40.5c0-8.9 7.9-3.7 17.7-3.7s17.7-5.3 17.7 3.7z"/><path class="st2" d="M75.9 386.7H40.5c-.9 0-1.6-.7-1.6-1.6 0-9.8 8.7-17.8 19.3-17.8 10.7 0 19.3 8 19.3 17.8.1.9-.7 1.6-1.6 1.6zm-33.6-3.3h31.9c-.9-7.2-7.7-12.9-15.9-12.9s-15.1 5.7-16 12.9z"/></g><circle class="st3" cx="100" cy="325.8" r="6.9"/><circle class="st3" cx="58.2" cy="325.9" r="6.9"/><path class="st8" d="M71.4 262.8v7.6"/><path class="st2" d="M71.4 272.1c-1 0-1.7-.8-1.7-1.7v-7.6c0-1 .8-1.7 1.7-1.7 1 0 1.7.8 1.7 1.7v7.6c0 1-.8 1.7-1.7 1.7z"/><path class="st8" d="M87.7 263.7v7.6"/><path class="st2" d="M87.7 273c-1 0-1.7-.8-1.7-1.7v-7.6c0-1 .8-1.7 1.7-1.7 1 0 1.7.8 1.7 1.7v7.6c0 .9-.8 1.7-1.7 1.7z"/><circle class="st13" cx="79.8" cy="268.4" r="1.8"/><path class="st19" d="M112.3 72c-11.4 5.7-82.1-1.1-82.1-1.1-3.6-46.3 9.4-43.1 9.4-43.1s-2.8-10.2 6.9-17.5c12.1-9.1 53-11.1 67.8-4.2 9.5 4.4.8 24.5-.4 24.2 0 0 18.1-13.8 13.1 40.6L112.3 72z"/><path class="st6" d="M89.8 75.7c-24.2 0-57.7-3.2-59.7-3.4-.7-.1-1.2-.6-1.3-1.3-1.8-23.2.4-38.1 6.2-43 1.1-.9 2.2-1.4 3-1.5-.4-3.4-.3-11.2 7.7-17.3 12.9-9.7 54.6-11.1 69.2-4.4 8.1 3.7 4.6 16.3 3.3 20-.3 1-.7 1.9-1 2.6 1.4-.2 3-.1 4.6.8 6.6 3.6 8.8 18 6.5 42.8-.1.7-.6 1.2-1.3 1.3l-14.4 1.1c-3.7 1.7-12.4 2.3-22.8 2.3zm-58.3-6.1c24.6 2.3 71.5 5.4 80.1 1.2.2-.1.3-.1.5-.1l13.5-1c2.6-29.9-2.1-37.2-5.2-38.9-2.2-1.2-4.5-.1-5.4.5-.7.7-1.2.6-1.5.5-.5-.1-.9-.5-1.1-1.1-.1-.5.1-1.1.5-1.4 0 0 .1-.1.3-.2 1.2-1.6 4.9-10.5 3.8-16.7-.4-2.5-1.5-4.1-3.4-4.9-14.7-7-55-4.5-66.2 3.9-8.9 6.7-6.4 15.9-6.4 16 .1.5 0 1-.3 1.4s-.9.5-1.3.4c0 0-1.2-.2-2.7 1.1-2.9 2.5-7.2 11-5.2 39.3z"/><g id="XMLID_4_"><path class="st21" d="M127.1 64v28.9c0 23.9-20.6 39.3-43.5 47H73.4c-23.8-6.2-43.8-26.3-43.5-47V63.1c0-4.1 2.2-11.6 5.3-17.9s6.4-9.1 10.5-9.1c0 0 17.3 5.1 34.7 5.1 16.3 0 30.8-5.9 30.8-5.9 8.2-.1 15.9 20.6 15.9 28.7z"/><path class="st22" d="M125.5 59.4L116 44.9c-2.2-2.8-5.8-4.3-9.3-3.7l-15 4.2c-1.2.3-2.5.6-3.7.8-6 .8-12.1.8-18.1 0-1.6-.2-3.1-.5-4.6-1l-14.1-4.1c-3.3-.6-6.7.7-9 3.2L30 58.3c0-4.1 3.4-8.6 6.5-14.9s5.2-7.5 9.3-7.5c0 0 15.3 4.5 32.7 4.5 16.3 0 31.4-5.3 31.4-5.3 8.1.1 15.6 16.2 15.6 24.3zm-40.7 73c31.2-11.8 42.3-39.5 42.3-39.5 0 23.9-20.3 39.3-43.5 47H73.4c-24.7-9.8-43.5-23.1-43.5-47 0 0 16.3 30.6 41.3 39.4 2.4.2 11.6.2 13.6.1z"/><path class="st6" d="M82.2 141.6h-6.8c-3.8 0-7.6-1-11-2.8-19-10.4-36.1-21.8-36.1-45.9V63.1c0-4.3 2.3-12.2 5.5-18.7 3.1-6.3 8-10.1 13.2-10.1h.3c.1 0 7.7 1.3 16.4 3.2 9.4 1.9 18.8 1.9 27.9-.1 10-2.2 19.4-3.8 19.5-3.8h.3c9.6 0 17.6 22.1 17.6 30.5V93c0 25-19.5 37.9-36.5 46.3-3.3 1.5-6.8 2.3-10.3 2.3zm-35.5-104c-3.8.1-7.5 3.1-10 8.2-2.9 6-5.1 13.4-5.1 17.2v29.8c0 20.2 12.6 31 34.4 43 2.9 1.6 6.1 2.4 9.4 2.4h6.8c3 0 6-.7 8.6-2 23.9-11.9 34.6-25.3 34.6-43.3V64c0-4-2-11-4.7-16.7-3.1-6.4-6.5-10.3-9.3-10.4-1.3.2-9.9 1.7-19.2 3.7-9.6 2.1-19.5 2.1-29.3.1-8-1.6-15.1-2.9-16.2-3.1z"/></g><path class="st23" d="M53.2 74.4c1.4-2.3 3.9-3.9 6.8-3.9s5.4 1.6 6.8 3.9"/><path class="st6" d="M66.8 75.8c-.5 0-.9-.2-1.2-.7-1.2-2-3.3-3.3-5.6-3.3s-4.5 1.2-5.6 3.3c-.4.6-1.2.9-1.8.5s-.9-1.2-.5-1.8c1.6-2.8 4.7-4.6 8-4.6s6.3 1.8 8 4.6c.4.6.2 1.5-.5 1.8-.3.1-.5.2-.8.2z"/><path class="st23" d="M90.4 74.4c1.4-2.3 3.9-3.9 6.8-3.9s5.4 1.6 6.8 3.9"/><path class="st6" d="M104 75.8c-.5 0-.9-.2-1.2-.7-1.2-2-3.3-3.3-5.6-3.3s-4.5 1.2-5.6 3.3c-.4.6-1.2.9-1.8.5-.6-.4-.9-1.2-.5-1.8 1.6-2.8 4.7-4.6 8-4.6s6.3 1.8 8 4.6c.4.6.2 1.5-.5 1.8-.4.1-.6.2-.8.2zm-30.1 40.6c-8.9 0-11.9-6.4-12-6.6-.3-.7 0-1.5.7-1.8s1.5 0 1.8.7c.1.3 2.9 5.8 11.3 5 .7-.1 1.4.5 1.5 1.2s-.5 1.4-1.2 1.5c-.8-.1-1.4 0-2.1 0z"/><circle class="st24" cx="57.2" cy="93.3" r="8.5"/><circle class="st24" cx="100" cy="93.3" r="8.5"/><path class="st5" d="M81.8 86.5s3.5 4.4 6 8.4c1.5 2.4.4 5.6-2.3 6.6-2.8 1-6.6 1.7-10 0l8.8-5.2-2.5-9.8z"/><path class="st6" d="M75.5 101.6c-.7 0-1.3-.6-1.3-1.3s.6-1.3 1.3-1.3c4 0 7.3-1.4 7.5-2.2-2.3-6.8-4-15.9-4-16.3-.1-.7.3-1.4 1.1-1.6.7-.1 1.4.4 1.6 1.1 0 .1 1.7 9.3 3.9 15.9.3.9.1 1.7-.4 2.5-1.6 2.1-6.2 3.2-9.7 3.2z"/><path class="st5" d="M30.5 245.3c-.6 0-1.1-.5-1.1-1.1v-2.5c0-.6.5-1.1 1.1-1.1s1.1.5 1.1 1.1v2.5c0 .6-.5 1.1-1.1 1.1zm5.6-4.1c-.6 0-1.1-.5-1.1-1.1v-2.5c0-.6.5-1.1 1.1-1.1s1.1.5 1.1 1.1v2.5c-.1.7-.5 1.1-1.1 1.1zm-11.1 0c-.6 0-1.1-.5-1.1-1.1v-2.5c0-.6.5-1.1 1.1-1.1s1.1.5 1.1 1.1v2.5c-.1.7-.6 1.1-1.1 1.1zm5.5 12.6c-.6 0-1.1-.5-1.1-1.1v-2.5c0-.6.5-1.1 1.1-1.1s1.1.5 1.1 1.1v2.5c0 .6-.5 1.1-1.1 1.1zm5.6-4.1c-.6 0-1.1-.5-1.1-1.1v-2.5c0-.6.5-1.1 1.1-1.1s1.1.5 1.1 1.1v2.5c-.1.6-.5 1.1-1.1 1.1zm-11.1 0c-.6 0-1.1-.5-1.1-1.1v-2.5c0-.6.5-1.1 1.1-1.1s1.1.5 1.1 1.1v2.5c-.1.6-.6 1.1-1.1 1.1zm102.5-4.4c-.6 0-1.1-.5-1.1-1.1v-2.5c0-.6.5-1.1 1.1-1.1.6 0 1.1.5 1.1 1.1v2.5c0 .6-.5 1.1-1.1 1.1zm-5.5-4.1c-.6 0-1.1-.5-1.1-1.1v-2.5c0-.6.5-1.1 1.1-1.1s1.1.5 1.1 1.1v2.5c-.1.7-.6 1.1-1.1 1.1zm11.1 0c-.6 0-1.1-.5-1.1-1.1v-2.5c0-.6.5-1.1 1.1-1.1s1.1.5 1.1 1.1v2.5c-.1.7-.5 1.1-1.1 1.1zm-5.6 12.6c-.6 0-1.1-.5-1.1-1.1v-2.5c0-.6.5-1.1 1.1-1.1.6 0 1.1.5 1.1 1.1v2.5c0 .6-.5 1.1-1.1 1.1zm-5.5-4.1c-.6 0-1.1-.5-1.1-1.1v-2.5c0-.6.5-1.1 1.1-1.1s1.1.5 1.1 1.1v2.5c-.1.6-.6 1.1-1.1 1.1zm11.1 0c-.6 0-1.1-.5-1.1-1.1v-2.5c0-.6.5-1.1 1.1-1.1s1.1.5 1.1 1.1v2.5c-.1.6-.5 1.1-1.1 1.1z"/><path class="st25" d="M72.8 16.9c-3.2 0-6.6-.9-9.2-2.6-.6-.4-.8-1.2-.4-1.8.4-.6 1.2-.8 1.8-.4 2.7 1.7 6.4 2.5 9.6 2 .7-.1 1.4.4 1.5 1.1.1.7-.4 1.4-1.1 1.5-.7.1-1.4.2-2.2.2zM52.7 15c-.5 0-.9-.3-1.2-.7-.3-.6-.1-1.5.6-1.8 2.1-1.1 4.5-1.9 7-2.3.7-.1 1.4.4 1.5 1.1.1.7-.4 1.4-1.1 1.5-2.3.4-4.3 1.1-6.2 2.1-.1.1-.3.1-.6.1zm-7.8 12.3c-.7 0-1.3-.6-1.3-1.3 0-4.1 1.6-7.8 4.6-10.6.5-.5 1.4-.5 1.9.1.5.5.5 1.4-.1 1.9-2.5 2.3-3.8 5.4-3.8 8.7 0 .6-.6 1.2-1.3 1.2zm25-3.3c-2.1 0-4-.7-5.9-2-.6-.4-.7-1.3-.3-1.9.4-.6 1.3-.7 1.9-.3 1.9 1.4 3.8 1.8 5.9 1.4.7-.2 1.4.3 1.6 1s-.3 1.4-1 1.6c-.8.1-1.5.2-2.2.2zm-18.2 7.8c-.5 0-1-.3-1.2-.8-1.2-2.8-1.1-5.7.4-8.2 1.7-2.9 5.1-4.7 9-5 .7-.1 1.4.5 1.4 1.2.1.7-.5 1.4-1.2 1.4-3 .2-5.6 1.6-6.9 3.7-1 1.7-1.1 3.7-.3 5.7.3.7 0 1.5-.7 1.8-.1.1-.3.2-.5.2z"/><path class="st12" d="M51.6 156.7s-3.4 12.4 5.7 23.6c.9 1.1 2.5 1.6 3.9 1.1 5.1-1.8 7.9-4.8 9.1-5.9.3-.2.6-.2.9 0l2.8 3.3-2.8-9.7-19.6-12.4zm54 0s3.4 12.4-5.7 23.6c-.9 1.1-2.5 1.6-3.9 1.1-5.1-1.8-9.2-4.9-10.5-6-.3-.2-.6-.2-.9 0l-8.5 3.5 9.9-9.7 19.6-12.5z"/><path class="st6" d="M75.3 179.4H75c-.4-.1-.8-.4-.9-.8l-3.2-7.7c-2.3 2.1-6.8 6-10.8 7.1-.5.1-1.1 0-1.4-.4-7.7-9.3-7.1-21-7.1-21.5 0-.4.2-.7.5-1L66 143.8c.6-.5 1.4-.4 1.9.2.5.6.4 1.4-.2 1.9l-13.4 10.9c0 2.3.4 11.1 6 18.4 4.6-1.7 10.1-7.5 10.2-7.5.3-.3.8-.5 1.2-.4.4.1.8.4 1 .8l3.2 7.8 9.2-8.3c.5-.5 1.4-.5 1.9.1.1.1 5.6 5.8 10.2 7.5 5.6-7.3 6-16.1 6-18.4l-13.4-10.9c-.6-.5-.7-1.3-.2-1.9.5-.6 1.3-.7 1.9-.2l13.9 11.3c.3.2.5.6.5 1 0 .5.6 12.2-7.1 21.5-.3.4-.9.6-1.4.4-4.3-1.2-9.3-5.7-11.3-7.6l-9.7 8.7c-.5.2-.8.3-1.1.3z"/><path class="st26" d="M66.7 148.3s-7.3 7.8 4.5 20.2c0 0-6.6 7.1-11.6 8.2-2.7-4-5-4.9-6.8-20.6 9.2-8.8 11.9-9.7 11.9-9.7l2 1.9z"/><path class="st6" d="M59.7 178c-.4 0-.9-.2-1.1-.6-.4-.5-.7-1-1.1-1.5-2.3-3.1-4.3-5.8-6-19.7 0-.4.1-.8.4-1.1 9.2-8.8 12.1-9.9 12.4-10 .5-.2 1 0 1.4.3l2 1.9c.5.5.5 1.3 0 1.9-.3.3-6.2 7.1 4.5 18.4.5.5.5 1.3 0 1.8-.3.3-7 7.4-12.3 8.6h-.2zm-5.4-21.4c1.5 12.6 3.3 15 5.4 17.8.2.2.4.5.6.8 3.1-1.1 7.1-4.6 9.2-6.7-9-10.1-6.1-17.4-4.4-20l-.5-.5c-1.3.7-4.3 2.8-10.3 8.6z"/><path class="st26" d="M90.8 148.3s7.3 7.8-4.5 20.2c0 0 6.6 7.1 11.6 8.2 2.7-4 5-4.9 6.8-20.6-9.2-8.8-11.9-9.7-11.9-9.7l-2 1.9z"/><path class="st6" d="M97.8 178h-.3c-5.3-1.2-12-8.3-12.3-8.6-.5-.5-.5-1.3 0-1.8 10.7-11.3 4.8-18.1 4.5-18.4-.5-.5-.5-1.4 0-1.9l2-1.9c.4-.4.9-.5 1.4-.3.3.1 3.3 1.2 12.4 10 .3.3.5.7.4 1.1-1.6 13.9-3.7 16.6-6 19.7-.3.5-.7.9-1.1 1.5-.1.4-.5.6-1 .6zm-9.7-9.6c2.1 2.1 6.1 5.5 9.2 6.7.2-.3.4-.5.6-.8 2.1-2.8 3.8-5.2 5.4-17.8-6-5.7-9-7.8-10.3-8.6l-.5.4c1.7 2.8 4.5 10.1-4.4 20.1zm-12.8 94.9c-.7 0-1.3-.6-1.3-1.3v-83.9c0-.7.6-1.3 1.3-1.3.7 0 1.3.6 1.3 1.3V262c0 .7-.6 1.3-1.3 1.3z"/><circle class="st6" cx="79.8" cy="187.1" r="1.1"/><circle class="st6" cx="79.8" cy="200.6" r="1.1"/><circle class="st6" cx="79.8" cy="214.1" r="1.1"/><circle class="st6" cx="79.8" cy="227.6" r="1.1"/><circle class="st6" cx="79.8" cy="241.1" r="1.1"/><circle class="st6" cx="79.8" cy="254.6" r="1.1"/><path class="st26" d="M87.7 192.5h22.6V212H87.7z"/><path class="st9" d="M87.5 196.8l.6-4.3 7.5-.7 14.9 14.8-.2 5.1-7.7.2z"/><path transform="rotate(-45.001 99.406 202.202)" class="st10" d="M98.9 188h1v28.3h-1z"/><defs><path id="SVGID_1_" d="M88.7 193.3h20.6v17.8H88.7z"/></defs><clipPath id="SVGID_2_"><use xlink:href="#SVGID_1_" overflow="visible"/></clipPath><path class="st27" d="M107.2 184.3h1v33.3h-1zm-17 0h1v33.3h-1z"/><path class="st10" d="M87.1 202.8l.8-.7 9.8 9.6-.7.8z"/><path class="st9" d="M95.8 212.1l-8-.2-.5-4.4 15.3-15.3 7.4.5.3 4.9z"/><path class="st10" d="M89.4 212.5l-.7-.8 20-19.9.7.7zm-1.5-9.7l-.8-.7 10.3-10.3.7.7zm14.5 9.4l-.8-.7 8.3-8.4.8.7z"/><path class="st6" d="M110.3 213H87.7c-.6 0-1.1-.5-1.1-1.1v-19.5c0-.6.5-1.1 1.1-1.1h22.6c.6 0 1.1.5 1.1 1.1V212c0 .6-.5 1-1.1 1zm-21.6-2.1h20.5v-17.4H88.7v17.4z"/><path class="st26" d="M87.7 192.5l11.3 8.7 11.3-8.7z"/><path class="st6" d="M99 202.2c-.2 0-.5-.1-.6-.2L87 193.3c-.4-.3-.5-.8-.4-1.2s.5-.7 1-.7h22.6c.5 0 .9.3 1 .7s0 .9-.4 1.2L99.6 202c-.2.2-.4.2-.6.2zm-8.2-8.7l8.2 6.3 8.2-6.3H90.8z"/><path class="st9" d="M46.2 196.8l.6-4.3 7.6-.7 14.8 14.8-.2 5.1-7.7.2z"/><path transform="rotate(-45.001 58.113 202.202)" class="st10" d="M57.6 188h1v28.3h-1z"/><defs><path id="SVGID_3_" d="M47.4 193.3H68v17.8H47.4z"/></defs><clipPath id="SVGID_4_"><use xlink:href="#SVGID_3_" overflow="visible"/></clipPath><path class="st28" d="M65.9 184.3h1v33.3h-1zm-16.9 0h1v33.3h-1z"/><path class="st10" d="M45.9 202.8l.7-.7 9.8 9.6-.7.8z"/><path class="st9" d="M54.5 212.1l-8-.2-.5-4.4 15.3-15.3 7.4.5.3 4.9z"/><path class="st10" d="M48.1 212.5l-.7-.8 20-19.9.7.7zm-1.5-9.7l-.7-.7 10.2-10.3.7.7zm14.5 9.4l-.7-.7 8.3-8.4.7.7z"/><path class="st6" d="M69 213H46.4c-.6 0-1.1-.5-1.1-1.1v-19.5c0-.6.5-1.1 1.1-1.1H69c.6 0 1.1.5 1.1 1.1V212c0 .6-.5 1-1.1 1zm-21.6-2.1h20.5v-17.4H47.4v17.4z"/><path class="st26" d="M46.4 192.5l11.3 8.7 11.3-8.7z"/><path class="st6" d="M57.7 202.2c-.2 0-.5-.1-.6-.2l-11.4-8.7c-.4-.3-.5-.8-.4-1.2s.5-.7 1-.7h22.6c.5 0 .9.3 1 .7s0 .9-.4 1.2L58.3 202c-.2.2-.4.2-.6.2zm-8.2-8.7l8.2 6.3 8.2-6.3H49.5z"/><path class="st25" d="M87.9 13.9c-.5 0-1-.3-1.2-.8-.3-.7 0-1.5.7-1.8.3-.2 8.7-3.7 18.2-2.6.7.1 1.3.7 1.2 1.5-.1.7-.7 1.3-1.5 1.2-8.8-1-16.8 2.4-16.9 2.4-.1.1-.3.1-.5.1zm2.5 7.6c-.6 0-1.2-.4-1.3-1.1-.1-.7.3-1.4 1.1-1.6 3.8-.7 7.4-.9 10.8-.5.7.1 1.3.7 1.2 1.5-.1.7-.7 1.3-1.5 1.2-3.1-.4-6.5-.2-10 .4-.2.1-.2.1-.3.1zm-7.2 2c-.5 0-1-.3-1.2-.8-.3-.7 0-1.5.7-1.8 0 0 1.2-.5 3.1-1.1.7-.2 1.4.2 1.7.9.2.7-.2 1.4-.9 1.7-1.7.5-2.8 1-2.8 1-.2.1-.4.1-.6.1z"/><path class="st29" d="M58.2 108.9c-.4 0-.7-.3-.7-.7 0-2.5 2.1-4.6 4.6-4.6.4 0 .7.3.7.7s-.3.7-.7.7c-1.8 0-3.2 1.4-3.2 3.2 0 .4-.3.7-.7.7z"/></svg>