<svg id="Layer_1" xmlns="http://www.w3.org/2000/svg" viewBox="0 0 491 334" enable-background="new 0 0 491 334"><style>.st0{fill:#feb}.st1{fill:#e1e9f0}.st2{fill:#d0dadc}.st3{fill:#f3de86}.st4{fill:#3b4249}.st5{fill:#fceab4}.st6{fill:#d2c08c}.st7{fill:#b5def2}.st8{fill:#f2de8b}.st9{fill:#fcebb6}.st10{opacity:.1;fill:#010202;enable-background:new}.st11{fill:#f6d4a4}.st12{fill:#c0dfb0}.st13{fill:#85bee1}.st14{fill:#fbe3d5}.st15{fill:#d5b6a5}.st16{fill:#d3bc74}.st17{fill:#c3b3a5}.st18{fill:#68574b}.st19{fill:#9a8a7d}.st20{fill:#e08484}.st21{fill:#d1c0b4}.st22{fill:#010202}.st23{fill:#75645a}.st24{filter:url(#Adobe_OpacityMaskFilter)}.st25{fill:#fff}.st26{opacity:.1;mask:url(#b);fill:#010202;enable-background:new}.st27{filter:url(#Adobe_OpacityMaskFilter_1_)}.st28{opacity:.1;mask:url(#d);fill:#010202;enable-background:new}.st29{fill:#c3996b}.st30{fill:#e4c09d}.st31{fill:#edd3c5}.st32{fill:#84bde1}.st33{fill:#fbe4d6}.st34{fill:#f5d0c0}.st35{fill:#e0e7ee}.st36{fill:#fefefe}</style><title>tribe@1x</title><path class="st0" d="M394.2 143.5c-1.9-4.2-4.3-8.2-7-11.9-4-5.5-8.3-10.9-13-15.8-2.8-3-5.7-5.9-8.5-9-.6-.8-1.1-1.7-1.6-2.5-.3-.9-.5-1.8-.7-2.7-.5-7.2.4-14.4.7-21.6.6-11.4-.5-22.8-4.9-33.4-2.8-6.5-5.9-11.4-10.5-17-3.6-4.4-8-7.7-12.6-11.1-9.4-6.8-21.8-10.1-33.2-10.2-13.1-.2-25.6 3.9-37.2 9.6-6.5 3.2-12.5 7.2-18.3 11.3-1.5-.4-3-.6-4.7-.7-6.9-.5-13.4-.9-20.3-.3-9 .7-17.6 3.2-26.1 6.4-14.4 5.4-28.6 11.8-42 19.4-12.8 7.2-24.9 16.2-35.7 26-4.7 4.3-9.1 8.8-13.1 13.7-5.1 6.2-10.6 12.9-14 20.3-5.2 11.1-7.1 23.4-3 35.3 2.7 7.7 6.9 14.5 10.3 21.8.3.9.6 1.8.8 2.7 0 1.7 0 3.3-.2 4.9-.5 3-1 5.9-1.5 8.9-.6 3.9-1.2 8-1.3 11.9 0 3.8.5 7.6 1.1 11.3 1.9 11.4 9.2 23.1 18.3 30.2 6.5 5.1 12.2 8.3 19.9 11.2 5.6 2.1 11.7 2.9 17.7 3.4 7.9.7 15.7-1.3 23.6-1.1.4.2.7.4 1.1.7 2.3 2 4.5 4.3 6.7 6.5 4.1 4.2 8.6 8 13.4 11.4 5 3.5 11 6 16.9 7.5 6.1 1.6 12.6 2.3 18.9 2.2 11.6-.2 23.5-2.6 34.5-6.3 11.6-3.8 23-8.9 33.3-15.5 10.3-6.5 19.1-14.8 28.4-22.4 2-1.4 4-2.8 6.2-3.9 1.5-.5 3-.8 4.6-1.1 5.2-.5 10.5-1 15.7-1.8 6.1-.9 12.3-3.2 17.6-6.3 4.8-2.8 9.4-6.5 12.9-10.9 5-6.3 8.1-11.7 11-19.3 4.2-10.9 4.1-22.7 2-33.9-1-6.2-3.6-12.2-6.2-17.9z"/><path class="st1" d="M89 284.3v-1.9c0-.2 0-.5-.1-.7v-.4c0-.2-.1-.4-.1-.6 0-.1 0-.3-.1-.4-.1-.6-.2-1.1-.3-1.6-.1-.3-.2-.7-.3-1 0-.1-.1-.3-.1-.4-.1-.2-.1-.4-.2-.6-.1-.1-.1-.3-.1-.4-.1-.2-.1-.4-.2-.6-.1-.1-.1-.3-.2-.4-.2-.4-.4-.8-.6-1.3l-.3-.6c-.1-.1-.2-.3-.3-.4-.1-.1-.2-.3-.3-.4-.1-.2-.2-.3-.3-.5-.1-.1-.2-.3-.3-.4-.3-.4-.6-.9-.9-1.3-.4-.5-.9-1.1-1.3-1.6l-.2-.2-.5-.5-.1-.1c-.9-.8-1.8-1.6-2.8-2.3-.2-.2-.5-.3-.7-.5 0 0-.1 0-.1-.1-.2-.1-.5-.3-.7-.4l-.1-.1c-.2-.1-.5-.3-.7-.4l-.1-.1c-.3-.1-.5-.3-.8-.4h-.1c-2.9-1.3-6-2-9.2-2h-3.6c-1.7 0-3.1-1.4-3.1-3.1v-9.9c12.5-2 22.1-12.9 22.1-25.9v-10.6c1.2-4.7 3.3-21.1-2.7-28.8-2.3-3-11.8-10.3-25.5-10.6-12.1-.3-22.7 7.7-25.5 10.6-8.4 8.6-5.3 30.1-5.3 30.1l.2-.3v9.7c0 13.1 9.7 24 22.2 26v9.9c0 1.7-1.4 3.1-3.1 3.1h-3.2c-3.3 0-6.4.7-9.2 2h-.1l-1.8.9c-.2.1-.5.3-.7.4 0 0-.1 0-.1.1-.2.2-.5.3-.7.5-1 .7-1.9 1.5-2.8 2.3l-.1.1-.5.5-.2.2c-.1.2-.3.3-.4.5-.7.8-1.3 1.6-1.8 2.4-.1.1-.2.3-.3.4-.1.2-.2.3-.3.5-.1.1-.2.3-.3.4-.1.1-.2.3-.3.4l-.3.6c-.2.4-.4.8-.6 1.3-.1.1-.1.3-.2.4-.1.2-.2.4-.2.6-.1.1-.1.3-.1.4-.1.2-.1.4-.2.6 0 .1-.1.3-.1.4-.1.3-.2.7-.3 1-.1.5-.2 1.1-.3 1.6 0 .1-.1.3-.1.4 0 .2-.1.4-.1.6v.4c0 .2 0 .5-.1.7V318h72l-.2-33.7z"/><path class="st2" d="M150.8 278c0-.3 0-.7-.1-1v-.6c0-.3-.1-.7-.1-1 0-.1 0-.3-.1-.4 0-.2-.1-.4-.1-.6 0-.1-.1-.2-.1-.4-.2-.9-.4-1.8-.7-2.7 0-.1-.1-.3-.1-.4l-.3-.9c0-.1-.1-.2-.1-.4-.1-.3-.3-.7-.4-1 0-.1-.1-.2-.1-.2-.4-.8-.7-1.6-1.2-2.4-.1-.1-.1-.2-.2-.3-.2-.3-.3-.6-.5-.8-.1-.1-.2-.3-.3-.4-.1-.2-.3-.5-.4-.7-.1-.2-.2-.3-.3-.5-.3-.4-.5-.7-.8-1.1-.4-.5-.8-1.1-1.3-1.6-.1-.2-.3-.3-.4-.5l-.1-.1-.3-.3-.5-.5-.4-.4c-.2-.2-.4-.3-.5-.5l-.2-.2c-.5-.5-1.1-.9-1.6-1.3l-.1-.1c-.3-.2-.5-.4-.8-.6-.1-.1-.2-.1-.3-.2-.3-.2-.5-.3-.8-.5-.1-.1-.2-.1-.3-.2-1-.6-2.1-1.2-3.1-1.7l-.2-.1c-.3-.1-.7-.3-1-.4h-.1c-3.4-1.4-7.1-2.1-10.7-2.1h-4.6c-2.2 0-4-1.8-4-4v-12.8c6-1 11.5-3.5 16.2-7.4 2 5.7 4.9 11.5 9 15.1 1.1-11.4 0-19 5.5-28.4.5-.9 1.1-1.9 1.5-2.9.8 2 1.8 3.7 3.1 4.7 4.5-11 9.8-17.2 8.7-31.8-.8-10-.4-17-6.5-28.6-6.5-12.4-15.3-20-30.9-24.6-8.9-2.6-24.9-1.4-34.7 3.7-7.9 4.1-21.6 13.7-29 32.3-6.6 16.5-11.9 36.8.7 51.4 1.5-1.8 3-3.5 4.2-5.3 8.3 14.3 12.9 8.3 18.3 29.5 2.2-3.6 3.7-7.4 5-11.2 3.3 1.7 6.8 2.9 10.5 3.5v12.8c0 2.2-1.8 4-4 4h-4.1c-5.9 0-11.7 1.9-16.6 5.3-1.3.9-2.5 1.9-3.6 3-.3.3-.5.6-.8.9-3.5 3.8-5.9 8.6-7 13.7-.5 1.7-.8 2.8-.8 2.8v19.5h.2v21.5h.1v.3H79v-.3l72.2 1v-40.3c-.3-.1-.4-.2-.4-.3"/><path class="st1" d="M474.1 284.3v-1.9c0-.2 0-.5-.1-.7v-.4c0-.2-.1-.4-.1-.6l-.3-1.5c-.1-.3-.2-.7-.3-1-.1-.2-.1-.4-.2-.6 0-.1-.1-.3-.1-.4-.1-.2-.1-.4-.2-.6 0-.1-.1-.3-.1-.4-.1-.2-.1-.4-.2-.6-.1-.1-.1-.3-.2-.4-.2-.4-.4-.8-.6-1.3l-.3-.6c-.1-.1-.2-.3-.3-.4-.1-.1-.2-.3-.3-.4-.1-.2-.2-.3-.3-.5-.1-.1-.2-.3-.3-.4-.1-.2-.2-.3-.3-.5-.4-.6-.8-1.1-1.3-1.6-.2-.3-.4-.5-.7-.8l-.2-.2-.5-.5-.1-.1c-.9-.8-1.8-1.6-2.8-2.3-.2-.2-.5-.3-.7-.5l-.1-.1c-.2-.1-.5-.3-.7-.4l-.1-.1c-.5-.3-1.1-.6-1.7-.8h-.1c-2.9-1.3-6-2-9.2-2h-3.6c-1.7 0-3.1-1.4-3.1-3.1v-9.9c12.5-2 22.1-12.9 22.1-25.9v-10.6c1.2-4.7 3.3-21.1-2.7-28.8-2.3-3-11.8-10.3-25.5-10.6-12.1-.3-22.7 7.7-25.5 10.6-8.4 8.6-5.3 30.1-5.3 30.1l.2-.3v9.7c0 13.1 9.7 24 22.2 26v9.9c0 1.7-1.4 3.1-3.1 3.1h-3.2c-3.3 0-6.4.7-9.2 2h-.1c-.3.1-.5.3-.8.4l-.1.1c-.5.3-1.1.6-1.6.9l-.1.1c-.2.2-.5.3-.7.5-1 .7-1.9 1.5-2.8 2.3l-.1.1-.5.5-.2.2c-.1.2-.3.3-.4.5l-.3.3c-.2.3-.4.5-.6.8-.2.3-.4.5-.6.8-.1.2-.2.3-.3.5-.1.1-.2.3-.3.4-.1.2-.2.3-.3.5-.1.1-.2.3-.3.4-.1.1-.2.3-.3.4l-.3.6c-.2.4-.4.8-.6 1.3-.1.1-.1.3-.2.4-.1.2-.2.4-.2.6-.1.1-.1.3-.1.4-.1.2-.1.4-.2.6 0 .1-.1.3-.1.4-.2.5-.3 1.1-.4 1.6-.1.3-.1.7-.2 1.1 0 .1 0 .3-.1.4 0 .2-.1.4-.1.6v.4c0 .2 0 .5-.1.7v35.5h72l.1-33.9"/><path class="st2" d="M431.9 277.4v-2.2c0-.3 0-.6-.1-.9 0-.2 0-.3-.1-.5 0-.3-.1-.5-.1-.8 0-.2-.1-.4-.1-.5-.1-.4-.2-.8-.2-1.3l-.3-1.2c-.1-.2-.1-.5-.2-.7-.1-.2-.1-.4-.2-.5-.1-.2-.1-.5-.2-.7-.1-.2-.1-.3-.2-.5s-.2-.5-.3-.7c-.1-.2-.1-.3-.2-.5-.2-.5-.5-1-.7-1.5-.1-.2-.2-.5-.4-.7-.1-.2-.2-.4-.3-.5-.1-.2-.2-.4-.3-.5l-.3-.6c-.1-.2-.2-.3-.3-.5-.1-.2-.3-.4-.4-.6-.6-.8-1.2-1.6-1.8-2.3-.2-.2-.3-.4-.5-.6l-.3-.3-.6-.6-.2-.2c-1.1-1-2.2-2-3.4-2.8l-.9-.6-.1-.1c-.3-.2-.7-.4-1-.6-.6-.4-1.3-.7-2-1h-.1c-3.5-1.6-7.3-2.4-11.1-2.4h-4.3c-2.1 0-3.8-1.7-3.8-3.8v-11.9c15-2.4 26.6-15.5 26.6-31.2v-12.8c1.8-6.2 5.8-30.5-1.6-40-2.8-3.6-5.4-4.6-8-6-7.3-4.1-11.3-12.4-18.8-13.2-11.5-1.2-13.8 7.3-29.1 14.4-9.5 4.4-10 5-13.4 8.4-10.1 10.3 0 37.8 0 37.8l.3-.3V203c0 15.7 11.6 28.9 26.7 31.2v11.9c0 2.1-1.7 3.8-3.8 3.8H372c-4 0-7.7.9-11.1 2.4h-.1c-.3.1-.6.3-1 .5l-.1.1c-.3.2-.6.3-.9.5-.1 0-.1.1-.2.1-.3.2-.6.3-.9.5l-.1.1-.9.6c-1.2.8-2.3 1.8-3.4 2.8l-.2.2-.6.6-.3.3c-.2.2-.3.4-.5.6-.4.4-.7.9-1.1 1.3-.4.5-.8 1-1.1 1.6-.1.2-.2.3-.3.5l-.3.6c-.1.2-.2.4-.3.5-.1.2-.2.4-.3.5-.1.2-.2.5-.3.7-.3.5-.5 1-.7 1.5-.1.2-.1.3-.2.5s-.2.5-.3.7c-.1.2-.1.3-.2.5s-.2.4-.2.7c-.1.2-.1.4-.2.5-.1.2-.1.5-.2.7l-.3 1.2c-.1.4-.2.8-.2 1.3 0 .2-.1.4-.1.5 0 .3-.1.5-.1.8 0 .2 0 .3-.1.5 0 .3 0 .6-.1.9v42.6h86.6l.2-40.4z"/><path class="st3" d="M350.4 98.9c-10.3-3-29-1.7-40.3 4.3-9.2 4.8-25.1 15.9-33.8 37.5-7.7 19.2-13.9 42.8.8 59.7 5.7-6.7 10.7-12.9 10.9-22.4 9.1-15 22.1 36.6 29.9 30.5 12.5-3.4 44.5-4.5 44.5-4.5s-1.1-48.3 13.2-35.9c1.5-15.4-1.2 21.7 8.2 29.5 5.3-12.7 11.4-20 10.1-36.9-.9-11.6-.5-19.7-7.6-33.2-7.6-14.4-17.8-23.3-35.9-28.6"/><path class="st4" d="M291.6 174h.2c5 .2 9.6 9.2 14.5 18.7 3.3 6.4 7.4 14.5 10 15 .2 0 .4.1.8-.2.1-.1.3-.2.5-.2 11.2-3.1 37.5-4.2 43.6-4.5-.1-6.8.1-33.7 8.1-37.5 1.7-.8 3.5-.6 5.4.5 0-.3.1-.5.1-.7.1-.8.3-2 1.5-2s1.3 1.3 1.3 1.9c0 .5.1 1.2.1 2.1.3 5.7 1.1 22 5.8 28.2.9-2.2 1.9-4.2 2.8-6.2 4-8.4 7.4-15.6 6.4-28.4-.1-1.5-.2-3-.3-4.4-.6-9.4-1.1-16.9-7.1-28.4-7.8-14.8-18-22.9-35.1-28-9.5-2.8-28-1.8-39.4 4.2-8.7 4.5-24.5 15.4-33.2 36.9-13.6 33.8-7.1 48.9-.4 57.3 5-5.9 9.4-11.7 9.6-20.4 0-.2.1-.4.2-.6 1.2-2.2 2.8-3.3 4.6-3.3m24.9 36.2c-.2 0-.5 0-.7-.1-3.7-.8-7.4-8-11.7-16.3-3.9-7.7-8.8-17.2-12.3-17.3-.8 0-1.7.6-2.5 1.9-.3 10-5.8 16.5-11.2 22.8-.2.3-.6.4-1 .4s-.7-.2-1-.4c-15.6-18-8-43.4-1-61 8.9-22.3 25.3-33.5 34.3-38.2 12.1-6.3 31.1-7.4 41.3-4.4 17.7 5.2 28.6 14 36.6 29.2 6.3 12 6.8 20 7.4 29.4.1 1.4.2 2.8.3 4.3 1 13.5-2.5 21-6.6 29.7-1.2 2.5-2.4 5-3.5 7.8-.3.6-1 1-1.6.7-.1 0-.2-.1-.3-.2-5.6-4.6-7.2-17.8-7.8-29.3-.1-.1-.3-.1-.4-.2-2.7-2.3-4.1-1.7-4.5-1.5-1.6.8-4.6 4.3-6 19.2-.8 8.7-.6 17.1-.6 17.2 0 .7-.5 1.3-1.2 1.3-.3 0-31.7 1.1-44 4.4-.7.4-1.3.6-2 .6"/><path class="st5" d="M386.2 272.6v44.1h-89.9l-6.1-44.1c0-18.4 3.1-33.4 21.5-33.4h4.8c2.6 0 4.7-2.1 4.7-4.7v-16.8h21.5v16.8c0 2.6 2.1 4.7 4.7 4.7h5.4c18.4-.1 33.4 15 33.4 33.4"/><path class="st6" d="M332 226.7c-8 0-10.7-4.4-10.7-4.4v-3.6h21.5v3.6c-.1 0-2.8 4.4-10.8 4.4m20.8 13.7h-.2v.9c.3 7.5-12.1 17.5-19.9 19.9-7.7-3.5-21.4-11.6-20.7-19.9v-.9h-.2c-18.4 0-9.5 33.3-9.5 51.7v24.6l84 1.2v-44.1c-.1-18.4-15.1-33.4-33.5-33.4"/><path class="st4" d="M280.1 315.1h104.6v-42.5c0-17.6-14.3-31.9-31.9-31.9h-5.4c-3.4 0-6.2-2.8-6.2-6.2v-15.3h-18.5v15.3c0 3.4-2.8 6.2-6.2 6.2h-4.8c-17.5 0-31.7 14.3-31.7 31.9v42.5h.1zm106.1 3.1H278.6c-.8 0-1.5-.7-1.5-1.5v-44.1c0-19.3 15.6-35 34.7-35h4.8c1.8 0 3.2-1.4 3.2-3.2v-16.8c0-.8.7-1.5 1.5-1.5h21.5c.8 0 1.5.7 1.5 1.5v16.8c0 1.8 1.4 3.2 3.2 3.2h5.4c19.3 0 34.9 15.7 34.9 35v44.1c0 .8-.7 1.5-1.6 1.5z"/><path class="st5" d="M375.9 154.6v26.1c0 21.7-17.7 39.4-39.4 39.4h-9.2c-21.6 0-39.4-17.7-39.4-39.4v-27c0-3.7 1.9-10.3 4.6-16 2.8-5.7 6.5-10.5 10.2-10.5 0 0 15.3-2.3 31-2.3 14.8 0 30.1 2.3 30.1 2.3 7.4 0 12.1 20 12.1 27.4"/><path class="st6" d="M287.7 155.9l10.1-13.1c2-2.6-13.3 17.5-10.1 18 0 0 13.2-6.9 21.6-9.6 12.9-4.1 25.9-9.5 33-17.6 7.6 1.2 13.1 4.5 20 8.1 2.7 1.4 13.3 13.4 13.3 13.4 0-3.7-3.1-7.8-5.9-13.5-2.8-5.7-5.3-8.1-8.9-8.1 0 0-13.6-6.8-29.4-6.8-14.8 0-32.9 6.3-32.9 6.3-7.4-.1-10.8 15.5-10.8 22.9M332 212c37.3 0 43.9-31.3 43.9-31.3 0 21.7-17.7 39.4-39.4 39.4h-9.2c-21.6 0-39.4-17.7-39.4-39.4 0 0 6.7 31.3 44.1 31.3"/><path class="st4" d="M333.8 126.5c-15.5 0-30.6 2.3-30.8 2.3h-.2c-2.6 0-5.9 3.6-8.8 9.6-2.6 5.3-4.5 11.8-4.5 15.3v27c0 20.9 17 37.9 37.8 37.9h9.2c20.9 0 37.8-17 37.8-37.9v-26.1c0-8.3-5-25.8-10.5-25.8h-.2c-.1-.1-15.4-2.3-29.8-2.3m2.7 95.1h-9.2c-22.5 0-40.9-18.3-40.9-40.9v-27c0-4 2-10.9 4.8-16.7 4.7-9.7 9.1-11.3 11.4-11.3 1.4-.2 16.1-2.3 31.1-2.3 14.1 0 28.8 2.1 30.2 2.3 8.8.2 13.4 21.5 13.4 28.8v26.1c.1 22.6-18.3 41-40.8 41"/><path class="st7" d="M307.7 240.1c-2.3.4-4.6 1-6.8 1.9 0 16.5 14.1 29.9 31.4 29.9s31.4-13.4 31.4-29.9v-.2c-2-.8-4.1-1.3-6.2-1.7-.1 13.7-11.2 24.7-24.9 24.7s-24.8-11.1-24.9-24.7"/><path class="st8" d="M280.2 181.9c.5-19.1 10.8-31.6 37-40.1s26.5-24 26.5-24l-30-5.7-21.7 15.3-11.8 15.4-5.9 28.4 5.9 10.7z"/><path class="st9" d="M307.5 162.9c1.2-2.2 3.5-3.7 6-3.8 2.5-.1 4.9 1.1 6.3 3.3"/><path class="st4" d="M307.5 164.1c-.7 0-1.2-.5-1.2-1.2 0-.2 0-.4.1-.6 1.4-2.6 4.1-4.3 7-4.5 3-.1 5.8 1.3 7.4 3.9.3.6.1 1.3-.4 1.7-.5.3-1.3.2-1.6-.4-1.1-1.8-3.1-2.8-5.2-2.7-2.1.1-4 1.3-5 3.2-.3.3-.7.6-1.1.6"/><path class="st9" d="M344.3 161.3c2.6-2.9 7.1-3.2 10-.6.9.8 1.6 1.9 2 3.1"/><path class="st4" d="M356.4 165c-.5 0-1-.3-1.2-.8-.7-2-2.3-3.5-4.4-3.9-2.1-.4-4.2.3-5.6 1.8-.5.5-1.2.5-1.7 0-.5-.4-.5-1.2-.1-1.7 2-2.2 5-3.2 7.9-2.6 2.9.6 5.3 2.7 6.2 5.5.2.6-.1 1.3-.8 1.5-.1.2-.2.2-.3.2m-27.5 24.2c-.7 0-1.2-.5-1.2-1.2s.5-1.2 1.2-1.2c1.4 0 3.1-.9 4.2-1.7-1.5-2.4-2.3-5.9-2.4-6.4-.1-.7.3-1.3 1-1.4.6-.1 1.2.3 1.4.9.3 1.3 1.3 4.9 2.7 6.4.4.5.4 1.3-.1 1.7-.3.1-3.6 2.9-6.8 2.9m7.8 12c-.7 0-1.2-.5-1.3-1.2 0-.7.5-1.2 1.2-1.3 7.8-.6 9.2-6.2 9.3-6.3.2-.7.8-1 1.5-.9.7.2 1 .8.9 1.5-.1.3-1.9 7.3-11.4 8.1-.1.1-.1.1-.2.1m-28 61.6c-.3 0-.5-.1-.7-.3-1.2-1.3-2.3-2.6-3.2-4-.3-.4-.1-1 .3-1.3.4-.2.9-.1 1.2.2.9 1.3 1.9 2.6 3.1 3.8.3.4.3.9 0 1.3-.2.2-.5.3-.7.3m19.8 9.9h-.1c-5.4-.6-10.6-2.6-15.1-5.8-.4-.3-.5-.9-.2-1.3s.8-.5 1.2-.2c4.2 3 9.2 4.8 14.3 5.4.5.1.9.5.8 1 0 .6-.4.9-.9.9m6.6.1c-.5 0-.9-.4-1-.9 0-.5.4-.9.9-1 8.9-.8 17.1-5.3 22.4-12.4.3-.4.9-.5 1.3-.2s.5.9.2 1.3c-5.7 7.6-14.3 12.4-23.8 13.2m24.7-15.1c-.5 0-.9-.4-.9-.9 0-.2 0-.3.1-.5.5-.8 1-1.6 1.4-2.5.2-.4.8-.6 1.2-.4.4.2.6.8.4 1.2l-1.5 2.7c-.1.3-.4.4-.7.4m-55.9-5.6c-.4 0-.7-.2-.9-.6-.5-1.2-.9-2.5-1.2-3.7-.1-.5.2-1 .7-1.1.5-.1 1 .2 1.1.7.3 1.2.7 2.4 1.1 3.5.2.5-.1 1-.5 1.2h-.3"/><path class="st4" d="M303.1 254.6c-.4 0-.7-.2-.8-.5-.7-1.4-1.2-2.8-1.7-4.3-.1-.5.1-1 .6-1.1.5-.1 1 .1 1.1.6.4 1.4 1 2.8 1.6 4.1.2.5 0 1-.4 1.2-.1-.1-.3 0-.4 0"/><path class="st10" d="M332.8 178.6s2.4 3 4 5.7c1 1.7.3 3.8-1.5 4.5-1.9.7-4.4 1.2-6.7 0l5.9-3.5-1.7-6.7z"/><path class="st11" d="M363.7 178.7c0 4.1-3.3 7.3-7.3 7.3s-7.3-3.3-7.3-7.3c0-4.1 3.3-7.3 7.3-7.3 4-.1 7.3 3.2 7.3 7.3m-47.6 0c0 4.1-3.3 7.3-7.3 7.3s-7.3-3.3-7.3-7.3c0-4.1 3.3-7.3 7.3-7.3 4-.1 7.3 3.2 7.3 7.3"/><path class="st12" d="M386.2 272.6v44.1h-84V292l-23.9-.3V269s2.7-12.5 10-20.2c6.7-7 18-9.2 18-9.2.1 14.2 20.3 25.9 26 25.7 5.5 0 25.8-11.5 25.9-25.7 15.9 2.6 28 16.5 28 33"/><path class="st4" d="M332.4 315.5h.1l28.5-.3V292c0-.8.7-1.5 1.5-1.5l22.2-.3v-17.6c0-7.6-2.7-14.9-7.7-20.7-4.5-5.3-10.7-9-17.4-10.4-1.7 14.3-21.8 25.2-27.2 25.4h-.1c-5.4-.2-25.5-11.1-27.2-25.4-6.7 1.5-12.8 5.1-17.4 10.4-5 5.8-7.7 13.1-7.7 20.7v17.6l22.2.3c.8 0 1.5.7 1.5 1.5v23.1l28.7.4c-.1 0 0 0 0 0zm-.1 3h-.1l-29.9-.4c-.8 0-1.5-.7-1.5-1.5v-23.1l-22.2-.3c-.8 0-1.5-.7-1.5-1.5v-19.1c0-8.3 3-16.4 8.4-22.7 5.4-6.3 12.8-10.5 20.8-11.8.8-.1 1.6.4 1.7 1.3v.2c.1 12.9 19.5 24 24.3 24.2 4.8-.2 24.2-11.3 24.3-24.2 0-.8.7-1.5 1.5-1.5h.2c8.1 1.3 15.5 5.5 20.8 11.8 5.4 6.3 8.4 14.4 8.4 22.7v19.1c0 .8-.7 1.5-1.5 1.5l-22.2.3v23.1c0 .8-.7 1.5-1.5 1.5l-29.9.4h-.1z"/><path class="st13" d="M362.6 278.9v37.7"/><path class="st4" d="M362.6 318.2c-.8 0-1.5-.7-1.5-1.5V279c0-.8.7-1.5 1.5-1.5s1.5.7 1.5 1.5v37.7c0 .8-.7 1.5-1.5 1.5"/><path class="st13" d="M302.7 278.9v37.7"/><path class="st4" d="M302.7 318.2c-.8 0-1.5-.7-1.5-1.5V279c0-.8.7-1.5 1.5-1.5s1.5.7 1.5 1.5v37.7c.1.8-.6 1.5-1.5 1.5"/><path class="st5" d="M362.6 317h23.7v-25h-23.7v25z"/><path class="st6" d="M362.6 296.6h23.7v-5.8h-23.7v5.8z"/><path class="st4" d="M364 314.9h20.7v-21.4H364v21.4zm22.2 3h-23.7c-.8 0-1.5-.7-1.5-1.5V292c0-.8.7-1.5 1.5-1.5h23.7c.8 0 1.5.7 1.5 1.5v24.4c0 .8-.6 1.5-1.5 1.5z"/><path class="st14" d="M278.7 317h23.7v-25h-23.7v25z"/><path class="st15" d="M278.7 296.6h23.7v-5.8h-23.7v5.8z"/><path class="st4" d="M280.2 314.9h20.7v-21.4h-20.7v21.4zm22.2 3h-23.7c-.8 0-1.5-.7-1.5-1.5V292c0-.8.7-1.5 1.5-1.5h23.7c.8 0 1.5.7 1.5 1.5v24.4c0 .8-.7 1.5-1.5 1.5z"/><path class="st8" d="M340.1 127.4s15.8 4.9 25 12.3c6.7 5.4 13.4 14 13.4 14h3.3l.6-27.8-21.3-11.2-18-8.7-11.7 15.6 8.7 5.8z"/><path class="st4" d="M280.2 183.2c-.7 0-1.2-.5-1.3-1.2-.9-25.5 21.6-35.9 38.6-41.4 24.9-8.1 25.6-22.7 25.6-22.9 0-.7.6-1.2 1.3-1.2.7 0 1.2.6 1.2 1.3 0 .7-.6 16.5-27.3 25.2-25.7 8.4-37.5 20.7-36.8 38.9 0 .7-.5 1.3-1.3 1.3"/><path class="st4" d="M380.8 160.3c-.4 0-.8-.2-1.1-.6-.1-.1-8.9-13.8-15.4-19.1-8.9-7.2-24.4-12-24.6-12.1-.7-.2-1-.9-.8-1.6.2-.7.9-1 1.6-.8.7.2 16.2 5 25.4 12.5 6.8 5.5 15.6 19.1 16 19.7.4.6.2 1.4-.4 1.8-.2.2-.5.2-.7.2"/><path class="st16" d="M384 144.8zm-1.1 1.3c-.2 0-.4-.1-.6-.2-.5-.3-.8-.8-.8-1.4 0-.4.2-.7.5-.9-.1-.9-.4-3-2.3-8.1-.2-.7.1-1.4.8-1.6.6-.2 1.3.1 1.6.7 3.5 9.5 2.4 10.5 1.8 11.1-.3.3-.7.4-1 .4zM305.2 128c-.7 0-1.3-.6-1.3-1.3 0-.5.3-1 .8-1.2.1 0 11.4-4.3 20.7-17.4.4-.6 1.2-.7 1.8-.3.6.4.7 1.2.3 1.8-9.7 13.8-21.4 18.1-21.9 18.3-.1.1-.3.1-.4.1m11.2 0c-.7 0-1.3-.6-1.3-1.3 0-.4.2-.7.5-1 .1-.1 6.4-5.2 9.3-8.3.5-.5 1.3-.5 1.8-.1.5.5.5 1.3.1 1.8-3 3.2-9.3 8.3-9.5 8.6-.3.2-.6.3-.9.3m12.9-10.3c-.7 0-1.3-.6-1.3-1.3 0-.4.2-.7.4-1 0 0 2.6-2.3 4.1-6.9.2-.7.9-1 1.6-.8.7.2 1 .9.8 1.6-1.7 5.4-4.7 8-4.9 8.1-.1.2-.4.3-.7.3m-3.4 10.3c-.7 0-1.3-.6-1.3-1.3 0-.5.3-.9.7-1.1.1 0 8-4.1 10.4-11.3.2-.7.9-1 1.6-.8.7.2 1 .9.8 1.6-2.7 8.2-11.3 12.6-11.7 12.7-.1.2-.3.2-.5.2m-36.2 16.1c-.7 0-1.3-.6-1.3-1.3 0-.3.1-.7.4-.9 1.3-1.3 2.8-2.4 4.4-3.4.6-.4 1.4-.1 1.7.5.4.6.1 1.4-.5 1.7-1.4.8-2.7 1.8-3.9 3-.1.3-.5.4-.8.4m-6.9 11.6c-.7 0-1.3-.6-1.3-1.3v-.2c0-.2.8-3.9 4.6-9.2.4-.6 1.2-.7 1.8-.3.6.4.7 1.2.3 1.8-3.5 4.9-4.2 8.2-4.2 8.2-.1.6-.6 1-1.2 1m83.4-37.4c-.3 0-.6-.1-.9-.4 0 0-2.5-2.4-8.2-4.3-.7-.2-1-.9-.8-1.6.2-.7.9-1 1.6-.8 6.2 2.1 9 4.7 9.1 4.8.5.5.5 1.3 0 1.8-.1.3-.4.5-.8.5m-89.5 53.8c-.7 0-1.3-.6-1.3-1.3 0-1.9.3-3.7.8-5.5.2-.7.9-1.1 1.5-.9.7.2 1.1.9.9 1.5v.1c-.4 1.6-.7 3.2-.7 4.8 0 .8-.6 1.3-1.2 1.3m3.1 13.2c-.4 0-.8-.2-1.1-.6-.1-.1-2.2-3.3-3.1-9.8-.1-.7.3-1.3 1-1.5.7-.1 1.3.3 1.5 1v.1c.9 5.9 2.7 8.8 2.7 8.8.4.6.2 1.4-.4 1.8-.1.1-.3.2-.6.2m105.2-16c-.7 0-1.3-.6-1.3-1.3 0-.2 0-.3.1-.5.7-1.7 1.5-3.4 2.6-4.9.4-.6 1.2-.7 1.8-.2.5.4.7 1.2.3 1.7-.9 1.3-1.7 2.8-2.3 4.3-.2.5-.7.9-1.2.9m-1.5 13.4c-.6 0-1.1-.4-1.2-1 0-.2-.9-3.9.4-10.3.2-.7.8-1.1 1.5-.9.7.2 1.1.8 1 1.5-1.2 5.9-.5 9.2-.5 9.2.2.7-.3 1.4-.9 1.5h-.3m-4.8-50.4c-.4 0-.9-.2-1.1-.6-.8-1.4-1.8-2.7-2.9-3.9-.5-.5-.5-1.3 0-1.8s1.3-.5 1.8 0c1.3 1.3 2.4 2.8 3.3 4.4.3.6.1 1.4-.5 1.7-.2.1-.4.2-.6.2"/><path class="st10" d="M315.6 294.6c-1.5 0-3.1-.3-4.5-.9-.6-.3-.9-1-.6-1.6.3-.6 1-.9 1.6-.6 2.1.9 4.5 1 6.7.1 2.2-.8 3.9-2.5 4.8-4.6.3-.6 1-.9 1.6-.6.6.3.9 1 .6 1.6-1.2 2.7-3.4 4.9-6.2 5.9-1.2.5-2.6.7-4 .7m32.5 0c-1.5 0-3.1-.3-4.5-.9-.6-.3-.9-1-.6-1.6.3-.6 1-.9 1.6-.6 2.1.9 4.5 1 6.7.1 2.2-.8 3.9-2.5 4.8-4.6.3-.6 1-.9 1.6-.7.6.3.9 1 .7 1.6v.1c-1.2 2.7-3.4 4.9-6.2 5.9-1.4.5-2.7.7-4.1.7"/><path class="st17" d="M207.3 264.2v53H93.8v-53c0-19.4 15.8-35.2 35.2-35.2h5c2.7 0 4.9-2.2 4.9-4.9v-17.7h22.6v17.7c0 2.7 2.2 4.9 4.9 4.9h5.7c19.4 0 35.2 15.9 35.2 35.2"/><path class="st18" d="M192.1 105.2c-3.7-4.7-18.6-16.2-40.2-16.7-19.1-.4-35.8 12.2-40.2 16.7-13.3 13.6-8.3 47.5-8.3 47.5l15.4-17.1 68.8 3.5 7.8 13.6c1.3.2 7.9-33.1-3.3-47.5"/><path class="st4" d="M151 89.9c-18.2 0-34.1 12-38.3 16.3-10.4 10.7-9.1 35.1-8.3 43.4l13.5-14.9c.3-.3.7-.5 1.1-.4l68.8 3.5c.4 0 .9.3 1.1.7l6.4 11.1c1.7-7.7 4.7-32-4.2-43.5-3.9-5.1-18.7-15.7-39.1-16.2h-1m44.6 64.1c-.5 0-.9-.2-1.2-.7l-7.5-12.9-67.5-3.5-15 16.6c-.5.5-1.3.6-1.9.1-.2-.2-.4-.5-.4-.8-.2-1.4-4.9-34.7 8.7-48.6 4.5-4.6 21.6-17.5 41.1-17.1 9.5.2 18.9 2.6 27.4 6.9 7.1 3.6 11.9 7.8 13.8 10.3 11.1 14.3 5.6 45.9 3.7 48.8-.3.8-.9.9-1.2.9"/><path class="st19" d="M150.2 214.6c-8.4 0-11.3-4.6-11.3-4.6v-3.7h22.6v3.7s-2.8 4.6-11.3 4.6m22 15.1h-.2v1c0 11.8-9.6 21.4-21.4 21.4s-21.4-9.6-21.4-21.4v-1h-.2c-19.4 0-35.2 15.8-35.2 35.2v53h113.6v-53c-.1-19.4-15.9-35.2-35.2-35.2"/><path class="st4" d="M95.4 315.6h110.4v-51.4c0-18.5-15.1-33.6-33.6-33.6h-5.7c-3.6 0-6.6-2.9-6.6-6.5V208h-19.4v16.1c0 3.6-2.9 6.5-6.5 6.5h-5c-18.5 0-33.6 15.1-33.6 33.6v51.4zm111.9 3.3H93.8c-.9 0-1.6-.7-1.6-1.6v-53c0-20.3 16.5-36.8 36.8-36.8h5c1.8 0 3.3-1.5 3.3-3.3v-17.7c0-.9.7-1.6 1.6-1.6h22.6c.9 0 1.6.7 1.6 1.6v17.7c0 1.8 1.5 3.3 3.3 3.3h5.7c20.3 0 36.8 16.5 36.8 36.8v53c0 .8-.7 1.6-1.6 1.6z"/><path class="st20" d="M207.3 264.2v53H93.8v-53c0-17.4 12.8-32 29.5-34.7.2 15 12.3 27.1 27.3 27.1s27.2-12.1 27.3-27.1c16.6 2.7 29.4 17.3 29.4 34.7"/><path class="st17" d="M196.4 140v27.5c0 22.8-18.6 41.5-41.4 41.5h-9.7c-22.8 0-41.4-18.7-41.4-41.5v-28.4c0-3.9 2-10.8 4.9-16.8 2.9-6 5.8-7.3 9.6-7.3 0 0 17 2.5 33.6 2.5 15.5 0 30.8-2.5 30.8-2.5 7.7 0 13.6 17.2 13.6 25"/><path class="st19" d="M196.4 134l-9.2-12.1c-2.1-2.7-6.9-3.1-10.3-2.5 0 0-16.3 2.6-26.8 2.9-10.8.3-26.1-2.9-26.1-2.9-3.2-.5-9.8.3-11.9 2.7l-8.3 11.1c0-3.9 3.6-8.1 6.2-14.2 1.7-4 4.1-4.8 8-4.8 0 0 17.3 2.4 33.9 2.4 15.5 0 31.7-2.9 31.7-2.9 7.8 0 12.8 12.6 12.8 20.3m-46.2 66.4c39.3 0 46.2-33 46.2-33 0 22.8-18.6 41.5-41.4 41.5h-9.7c-22.8 0-41.4-18.7-41.4-41.5 0 .1 6.9 33 46.3 33"/><path class="st4" d="M119.6 116.1c-4.1.1-7.3 2.4-9.5 6.8-2.7 5.6-4.7 12.4-4.7 16.1v28.4c0 22 17.9 39.9 39.8 39.9h9.7c22 0 39.8-17.9 39.8-39.9V140c0-7.9-4.6-23.7-10.6-23.9-1.7.3-17.6 2.9-32.3 2.9-15.5 0-30.5-2.6-32.2-2.9m35.4 94.4h-9.7c-23.7 0-43-19.3-43-43.1V139c0-4.2 2.1-11.5 5-17.5 3.5-7.1 8.7-8.6 12.5-8.6h.3c.2 0 15.6 2.9 31.9 2.9 15.2 0 31.7-2.9 31.9-2.9h.3c9.2 0 13.9 19 13.9 27.1v27.5c-.1 23.7-19.4 43-43.1 43M95.4 315.6h110.4v-51.4c0-8-2.9-15.7-8.1-21.8-4.8-5.6-11.2-9.4-18.2-11-1.1 14.9-13.7 26.7-28.8 26.7-15.1 0-27.7-11.8-28.8-26.7-7.1 1.6-13.5 5.4-18.2 11-5.2 6.1-8.1 13.8-8.1 21.8v51.4h-.2zm111.9 3.3H93.8c-.9 0-1.6-.7-1.6-1.6v-53c0-8.7 3.2-17.2 8.9-23.9 5.7-6.6 13.4-11 21.9-12.4.9-.1 1.7.5 1.8 1.3v.2c.1 14 11.7 25.5 25.7 25.5s25.6-11.4 25.7-25.5c0-.9.7-1.6 1.6-1.6h.2c8.5 1.4 16.3 5.8 21.9 12.4 5.7 6.7 8.9 15.2 8.9 23.9v53c.1.9-.6 1.7-1.5 1.7z"/><path class="st17" d="M126.4 145.2c1.3-2.3 3.8-3.7 6.5-3.7s5.1 1.4 6.5 3.7"/><path class="st4" d="M139.3 146.5c-.4 0-.9-.2-1.1-.6-1.1-1.9-3.2-3.1-5.4-3.1s-4.3 1.2-5.4 3.1c-.4.6-1.2.8-1.8.4-.6-.4-.8-1.1-.4-1.7 1.6-2.7 4.5-4.4 7.6-4.4 3.1 0 6 1.7 7.6 4.4.4.6.1 1.4-.5 1.8-.1 0-.4.1-.6.1"/><path class="st17" d="M159.1 145.2c1.3-2.3 3.8-3.7 6.5-3.7s5.1 1.4 6.5 3.7"/><path class="st4" d="M172 146.5c-.4 0-.9-.2-1.1-.6-1.1-1.9-3.2-3.1-5.4-3.1s-4.3 1.2-5.4 3.1c-.4.6-1.2.8-1.8.4-.6-.4-.8-1.1-.4-1.7 1.6-2.7 4.5-4.4 7.6-4.4 3.1 0 6 1.7 7.6 4.4.4.6.1 1.4-.5 1.8-.1 0-.3.1-.6.1m-23.2 23.6c-.7 0-1.3-.6-1.2-1.3 0-.7.6-1.2 1.2-1.2 1.5 0 3.3-1 4.4-1.8-1.6-2.5-2.5-6.2-2.6-6.7-.2-.7.3-1.4 1-1.5s1.4.3 1.5 1c.3 1.3 1.4 5.1 2.8 6.7.5.5.4 1.3-.1 1.8-.1 0-3.6 3-7 3m-2.2 17h-.1c-10-.8-11.9-8.2-12-8.5-.2-.7.3-1.4 1-1.5.7-.2 1.3.2 1.5.9.1.3 1.7 6 9.7 6.6.7 0 1.3.6 1.2 1.3 0 .7-.6 1.2-1.3 1.2"/><path class="st10" d="M150.8 242c-.3 0-.6-.1-.9-.3l-4.3-3.8c-.5-.5-.6-1.3-.1-1.8s1.3-.6 1.8-.1l3.4 3 2.9-3c.5-.5 1.3-.5 1.8 0s.5 1.2 0 1.7l-3.7 3.8c-.2.4-.5.5-.9.5"/><path class="st4" d="M125.7 253.9c-.3 0-.5-.1-.7-.3-1.2-1.3-2.4-2.7-3.4-4.2-.3-.5-.1-1 .3-1.3.4-.3 1-.2 1.3.2 1 1.4 2 2.7 3.2 4 .4.4.3 1 0 1.4-.2.1-.4.2-.7.2m20.9 10.5h-.1c-5.7-.7-11.2-2.8-15.9-6.1-.4-.3-.5-.9-.2-1.3s.9-.5 1.3-.2c4.5 3.1 9.6 5.1 15.1 5.7.5.1.9.5.8 1.1-.1.4-.6.8-1 .8m6.9.1c-.5 0-1-.4-1-.9s.4-1 .9-1c9.3-.8 18-5.6 23.6-13.1.3-.4.9-.5 1.3-.2s.5.9.2 1.3c-5.9 8-15 13-25 13.9m26-15.9c-.5 0-1-.4-1-1 0-.2.1-.4.1-.5.5-.9 1-1.7 1.5-2.6.2-.5.8-.7 1.3-.4.5.2.7.8.4 1.3-.5 1-1 1.9-1.6 2.8-.1.2-.4.4-.7.4m2.9-5.9c-.5 0-1-.4-1-1 0-.1 0-.2.1-.3.5-1.2.9-2.5 1.2-3.7.1-.5.7-.8 1.2-.7.5.1.8.6.7 1.1-.3 1.3-.8 2.6-1.2 3.9-.2.5-.6.7-1 .7m-62.6 2.6c-.4 0-.7-.2-.9-.5-.7-1.5-1.3-3-1.8-4.5-.2-.5.1-1 .6-1.2.5-.2 1 .1 1.2.6.5 1.5 1 2.9 1.7 4.3.2.5 0 1.1-.4 1.3-.1-.1-.3 0-.4 0"/><path class="st10" d="M153.3 159.1s2.5 3.1 4.2 5.9c1.1 1.7.3 4-1.6 4.7-2 .7-4.7 1.2-7.1 0l6.2-3.7-1.7-6.9z"/><path class="st21" d="M183.6 167.3c0 4.3-3.5 7.7-7.7 7.7-4.3 0-7.7-3.5-7.7-7.7 0-4.3 3.5-7.7 7.7-7.7 4.3 0 7.7 3.4 7.7 7.7m-50.2 0c0 4.3-3.5 7.7-7.7 7.7-4.3 0-7.7-3.5-7.7-7.7 0-4.3 3.5-7.7 7.7-7.7s7.7 3.4 7.7 7.7"/><path class="st0" d="M181.7 143.1c-.3-.5-.6-.9-.8-1.4-.1-.1-.1-.3-.2-.4-.5.1-.9 0-1.4-.2.8.9 1.6 1.7 2.6 2.3-.1-.2-.1-.2-.2-.3"/><path class="st13" d="M118.8 277.2V317"/><path class="st4" d="M118.8 318.6c-.9 0-1.6-.7-1.6-1.6v-39.7c0-.9.7-1.6 1.6-1.6s1.6.7 1.6 1.6V317c0 .8-.7 1.6-1.6 1.6"/><path class="st17" d="M93.9 317.3h24.9V291H93.9v26.3z"/><path class="st10" d="M93.9 297.1h24.9V291H93.9v6.1z"/><path class="st4" d="M95.4 315.8h21.8v-23.2H95.4v23.2zm23.4 3.1H93.9c-.9 0-1.6-.7-1.6-1.6V291c0-.9.7-1.6 1.6-1.6h24.9c.9 0 1.6.7 1.6 1.6v26.3c0 .9-.7 1.6-1.6 1.6z"/><path class="st13" d="M182 277.2V317"/><path class="st4" d="M182 318.6c-.9 0-1.6-.7-1.6-1.6v-39.7c0-.9.7-1.6 1.6-1.6.9 0 1.6.7 1.6 1.6V317c0 .8-.7 1.6-1.6 1.6"/><path class="st17" d="M182 317.3h24.9V291H182v26.3z"/><path class="st22" d="M182 297.1h24.9V291H182v6.1z"/><path class="st4" d="M183.6 315.8h21.8v-23.2h-21.8v23.2zm23.3 3.1H182c-.9 0-1.6-.7-1.6-1.6V291c0-.9.7-1.6 1.6-1.6h24.9c.9 0 1.6.7 1.6 1.6v26.3c0 .9-.7 1.6-1.6 1.6z"/><path class="st23" d="M160.2 108.6c-.4 0-.7-.3-.7-.7 0-.4.3-.6.6-.7 3.9-.6 6.5-2.4 6.5-2.4.3-.2.8-.1 1 .2.2.3.1.7-.2 1-.1.1-2.8 2-7.1 2.7l-.1-.1m-26.1.2c-.4 0-.7-.3-.7-.7 0-.3.1-.5.4-.6 1.6-.9 9.4-3.8 18.5-.9.4.1.6.5.5.9s-.5.6-.9.5c-8.5-2.7-16 0-17.3.8h-.5m6-7.8c-.4 0-.7-.3-.7-.7 0-.2.1-.5.3-.6 1-.6 6-2.7 12-.9 5.1 1.5 8.8-1.3 8.9-1.4.3-.2.8-.2 1 .2.2.3.2.7-.1 1-.2.1-4.3 3.3-10.1 1.6-5.4-1.6-10 .3-10.9.8-.1-.1-.3 0-.4 0"/><g transform="translate(270 96)"><defs><filter id="Adobe_OpacityMaskFilter" filterUnits="userSpaceOnUse" x="-1.1" y="1.4" width="126.8" height="221.1"><feColorMatrix values="1 0 0 0 0 0 1 0 0 0 0 0 1 0 0 0 0 0 1 0"/></filter></defs><mask maskUnits="userSpaceOnUse" x="-1.1" y="1.4" width="126.8" height="221.1" id="b"><g class="st24"><path id="a" class="st25" d="M-1.1 221.9h52.5v-39.4c0-.3 0-.6-.1-.9 0-.3 0-.6-.1-.9 0-.4-.1-.8-.1-1.2 0-.2 0-.4-.1-.5-.1-.5-.1-1-.2-1.5v-.2C47.4 158.4 30.7 144 10.7 144H4.3c-2 0-3.7-1.7-3.7-3.7v-15.8c22-4.2 38.6-23.5 38.6-46.6V58.5c1.3-4.9 2.8-13.6 3.4-22.2.8-11.3.4-26.3-5.8-34.9h-38v220.5z"/></g></mask><path class="st26" d="M117.8 175.2c0-.4 0-.8-.1-1.2v-.6c0-.4-.1-.8-.2-1.2 0-.2-.1-.3-.1-.5s-.1-.4-.1-.7c0-.1-.1-.3-.1-.4-.1-.5-.2-1-.4-1.6 0-.2-.1-.3-.1-.5-.1-.4-.2-.7-.3-1 0-.2-.1-.3-.1-.5-.1-.4-.2-.7-.4-1.1-.1-.1-.1-.3-.1-.4-.2-.4-.3-.8-.5-1.2 0-.1-.1-.2-.1-.3-.4-1-.9-1.9-1.4-2.8-.1-.1-.1-.2-.2-.4-.2-.3-.4-.7-.6-1-.1-.2-.2-.3-.3-.5-.2-.3-.3-.5-.5-.8-.1-.2-.2-.4-.4-.5-.3-.4-.6-.9-.9-1.3-.3-.4-.6-.8-1-1.2-.2-.2-.3-.4-.5-.6-.2-.2-.3-.4-.5-.6l-.1-.1-.4-.4-.6-.6-.5-.5-.6-.6c-.1-.1-.2-.1-.2-.2-.6-.5-1.2-1.1-1.9-1.6l-.1-.1c-.3-.2-.6-.4-.9-.7-.1-.1-.2-.2-.3-.2l-.9-.6c-.1-.1-.2-.2-.4-.2l-.9-.6c-.1-.1-.2-.1-.4-.2l-2.4-1.2-.3-.1c-.4-.2-.8-.3-1.2-.5h-.1c-4-1.6-8.3-2.4-12.6-2.4h-5.4c-2.6 0-4.7-2.1-4.7-4.7V124c18.9-3 33.4-19.4 33.4-39V69.9c1-8-.8 24.8 8 32.1 5.3-12.8 11.5-20 10.2-37-.9-11.6-.5-19.8-7.6-33.3C110.3 17.2 100 8.4 81.7 3 71.3 0 52.5 1.3 41 7.3c-9.3 4.8-25.3 15.9-34 37.6-7.8 19.3-14 42.9.8 59.9 5.7-6.8 10.8-12.9 10.9-22.4V85c0 19.7 14.6 36.1 33.6 39v14.9c0 2.6-2.1 4.7-4.7 4.7h-4.8c-7 0-13.7 2.2-19.4 6.2-1.5 1-2.9 2.2-4.2 3.5-.3.3-.6.7-.9 1.1-4.1 4.5-7 10-8.2 15.9-.6 2-.9 3.3-.9 3.3v22.8h.2v25h.1v.4h23.9v-.4l84.5 1.2v-47.1c-.1-.1-.1-.2-.1-.3"/></g><g transform="translate(157 87)"><defs><filter id="Adobe_OpacityMaskFilter_1_" filterUnits="userSpaceOnUse" x="-58.9" y="2.1" width="113.4" height="228.9"><feColorMatrix values="1 0 0 0 0 0 1 0 0 0 0 0 1 0 0 0 0 0 1 0"/></filter></defs><mask maskUnits="userSpaceOnUse" x="-58.9" y="2.1" width="113.4" height="228.9" id="d"><g class="st27"><path id="c" class="st25" d="M39.1 2.1c-.5.3-1.1.6-1.7.9-13.7 6.4-14.7 7.4-19.5 12.2l-.2.2c-15 15.3-.9 54.2-.3 55.9V87c0 22.5 15.9 41.5 37.1 46.1V2.1H39.1zm15.4 149.8c-.6.5-1.4.8-2.3.8h-5.5c-19.8 0-36.3 14.3-39.7 33.2-.1.6-.2 1.1-.3 1.7 0 .2 0 .4-.1.5-.1.4-.1.8-.1 1.2 0 .3 0 .6-.1.9 0 .3 0 .6-.1.9v39.3l48.1-.1c.1.1.1-78.4.1-78.4z"/></g></mask><path class="st28" d="M54.5 178.1v-2.9c0-.4-.1-.8-.1-1.1 0-.2-.1-.4-.1-.7 0-.3-.1-.7-.1-1 0-.2-.1-.5-.1-.7-.2-1.4-.6-2.8-1-4.2-.1-.2-.1-.5-.2-.7l-.3-.9c-.1-.2-.2-.4-.2-.7-.1-.3-.2-.6-.4-.9l-.3-.6c-.2-.4-.3-.7-.5-1.1-.1-.3-.3-.6-.4-.9-.1-.3-.3-.6-.5-.9-.1-.2-.3-.5-.4-.7-.1-.2-.3-.5-.4-.7-.1-.2-.3-.5-.5-.7-.1-.2-.3-.4-.4-.6-.2-.2-.3-.5-.5-.7-.1-.2-.3-.4-.4-.6-.3-.4-.6-.8-1-1.3-.2-.2-.4-.5-.6-.7-.1-.2-.3-.3-.4-.5-.2-.3-.4-.5-.7-.7-.1-.1-.2-.3-.4-.4l-.8-.8c-.1-.1-.2-.1-.2-.2-1.4-1.3-2.9-2.6-4.4-3.7h-.1c-.4-.3-.8-.5-1.1-.8l-.2-.1c-.4-.2-.8-.5-1.1-.7l-.2-.1-1.2-.6-.2-.1-1.2-.6h-.1c-4.6-2.1-9.5-3.2-14.5-3.2h-5.6c-2.7 0-4.9-2.2-4.9-4.9v-15.6c19.7-3.2 34.8-20.3 34.8-40.8V64.1c1.9-7.3 5.2-33.2-4.3-45.4C35.6 14 20.7 2.6-.8 2.1c-19.1-.4-35.7 12.2-40.1 16.6-13.2 13.5-8.3 47.4-8.3 47.4l.4-.4v15.2c0 20.6 15.3 37.8 35 40.9v15.6c0 2.7-2.2 4.9-4.9 4.9h-5c-5 0-10 1.1-14.5 3.2h-.1l-1.2.6c-.1 0-.1.1-.2.1l-1.2.6c-.1 0-.1.1-.2.1-.4.2-.8.4-1.1.7l-.2.1c-.4.2-.8.5-1.1.8h-.1c-1.6 1.1-3.1 2.3-4.4 3.7-.1.1-.2.1-.2.2l-.8.8-.4.4c-.2.2-.4.5-.7.7-.1.2-.3.3-.4.5-.3.4-.7.8-1 1.3-.5.7-1 1.3-1.5 2-.1.2-.3.4-.4.6-.2.2-.3.5-.5.7-.1.2-.3.5-.4.7-.1.2-.3.5-.4.7-.2.3-.3.6-.5.9-.3.6-.6 1.3-.9 2l-.3.6c-.1.3-.2.6-.4.9-.1.2-.2.4-.2.7l-.3.9c-.1.2-.1.5-.2.7-.3 1.1-.6 2.1-.8 3.2-.1.3-.1.6-.2 1 0 .2-.1.5-.1.7 0 .3-.1.7-.1 1 0 .2-.1.4-.1.7 0 .4-.1.8-.1 1.1V231H54.5v-52.9z"/></g><path class="st14" d="M304.7 258.7V317H179.9v-58.3c0-21.3 17.4-38.7 38.6-38.7h5.5c3 0 5.4-2.4 5.4-5.4v-19.5h24.9v19.5c0 3 2.4 5.4 5.4 5.4h6.2c21.4 0 38.8 17.4 38.8 38.7z"/><path class="st29" d="M290.1 76.7c-4.1-5.2-7.8-6.6-11.6-8.7-10.6-5.8-16.2-17.8-27.2-19-16.5-1.8-19.9 10.6-42 20.8C195.6 76.2 194.8 77 190 82c-14.6 14.9.1 54.4.1 54.4l17-18.8 75.7 3.9 8.6 14.9c1.4.3 11-43.9-1.3-59.7"/><path class="st4" d="M248.8 50c-7.4 0-11.9 3.4-18.3 8.3-4.9 3.7-10.9 8.3-19.9 12.5-13.3 6.1-14.1 7-18.6 11.6l-.2.2c-11.8 12-3.2 41.9-.4 50.5l15.3-16.9c.3-.3.7-.5 1.2-.5l75.6 3.9c.5 0 .9.3 1.2.7l7.1 12.2c1.1-4 2.7-12.5 3.3-22.1.7-10.9.4-25.6-5.6-33.2-3.2-4.1-6.2-5.7-9.3-7.3-.6-.3-1.2-.6-1.8-1-4.5-2.5-8-5.9-11.5-9.2-4.7-4.6-9.1-8.9-15.1-9.5-1-.2-2-.2-3-.2m-58.1 87.4c-.6 0-1.2-.4-1.4-1-.6-1.6-14.8-40.5.3-55.9l.2-.2c4.7-4.8 5.7-5.9 19.5-12.2 8.7-4 14.4-8.4 19.4-12.2 7.2-5.5 12.9-9.8 23.3-8.7 7 .7 11.8 5.4 16.8 10.3 3.3 3.2 6.7 6.5 10.8 8.8l1.8.9c3.3 1.7 6.7 3.5 10.3 8.1 6.5 8.4 7 23.9 6.2 35.4-.8 11.9-3.3 23.8-4.6 25.8-.6 1-1.5.8-1.7.8-.4-.1-.7-.3-.9-.7l-8.2-14.2-74.1-3.8-16.5 18.2c-.4.4-.8.6-1.2.6"/><path class="st30" d="M219.6 80.6c-.6 0-1.1-.4-1.3-1-.3-.7.1-1.6.9-1.9.2-.1 13-4.9 23.4-19.9.5-.7 1.4-.8 2-.3.6.5.8 1.4.3 2-11 15.8-24.3 20.7-24.8 20.9-.2.1-.4.2-.5.2m13 0c-.4 0-.9-.2-1.1-.5-.5-.6-.4-1.5.2-2 .1-.1 7.4-5.7 10.9-9.2.6-.6 1.5-.6 2.1-.1.6.5.6 1.4.1 2-3.6 3.6-10.8 9.2-11.1 9.4-.4.3-.7.4-1.1.4m15-12.1c-.4 0-.9-.2-1.2-.5-.5-.6-.5-1.5.2-2 .1 0 3.1-2.6 4.9-7.7.3-.7 1.1-1.2 1.9-.9.8.2 1.2 1 1 1.8-2 6-5.7 8.9-5.8 9-.4.2-.7.3-1 .3m-3.8 12.1c-.6 0-1.1-.3-1.3-.8-.4-.7-.1-1.6.6-1.9.1 0 9.4-4.7 12.1-13 .3-.8 1.1-1.2 1.9-.9.8.2 1.2 1.1.9 1.8-3.2 9.4-13.2 14.5-13.6 14.7-.2 0-.4.1-.6.1m-47.5 6.5c-.4 0-.7-.1-1-.4-.6-.5-.7-1.3-.2-1.9 0 0 0-.1.1-.1 1.4-1.5 3-2.9 4.8-4 .7-.4 1.6-.3 2 .4.4.6.3 1.5-.4 1.9-1.6 1-3 2.2-4.2 3.5-.3.4-.7.6-1.1.6m-7.5 16.7h-.2c-.8-.1-1.3-.9-1.2-1.7 0-.3 1-6.9 4.9-13.4.4-.7 1.3-.9 1.9-.5.6.4.8 1.4.4 2.1-3.5 5.9-4.5 12.2-4.5 12.3 0 .7-.6 1.2-1.3 1.2M280 78.7c-.4 0-.7-.2-1-.4-1.3-1.3-2.7-2.5-4.3-3.4-.7-.4-.9-1.3-.5-2s1.2-.9 1.9-.5c1.8 1.1 3.4 2.4 4.9 3.8.6.6.6 1.5 0 2-.3.4-.6.5-1 .5m9.2 13c-.7 0-1.4-.5-1.5-1.2 0-.1-.9-3.9-5.1-9.5-.5-.6-.4-1.5.3-2h.1c.7-.5 1.6-.3 2.1.3 4.7 6.2 5.6 10.5 5.6 10.7.2.8-.4 1.6-1.2 1.7h-.3"/><path class="st15" d="M241.9 204.4c-9.4 0-12.6-5.1-12.6-5.1v-4.2h25.1v4.2c0-.1-3.2 5.1-12.5 5.1"/><path class="st31" d="M266 220.2h-.2v1.1c0 13-10.5 23.5-23.5 23.5s-23.5-10.5-23.5-23.5v-1.1h-.3c-21.3 0-38.6 17.4-38.6 38.6V317h124.7v-58.2c.1-21.2-17.3-38.6-38.6-38.6"/><path class="st4" d="M181.6 315.4H303v-56.7c0-20.4-16.6-37-36.9-37h-6.2c-4 0-7.2-3.2-7.2-7.2v-17.7h-21.4v17.7c0 4-3.2 7.2-7.2 7.2h-5.5c-20.4 0-36.9 16.6-36.9 37l-.1 56.7zm123.2 3.5h-125c-1 0-1.8-.8-1.8-1.8v-58.4c0-22.4 18.2-40.5 40.5-40.5h5.5c2 0 3.7-1.7 3.7-3.7V195c0-1 .8-1.8 1.8-1.8h24.9c1 0 1.8.8 1.8 1.8v19.5c0 2 1.7 3.7 3.7 3.7h6.2c22.3 0 40.5 18.2 40.5 40.5v58.4c0 1-.8 1.8-1.8 1.8z"/><path class="st32" d="M304.7 258.5V317H179.9v-58.5c0-19.2 14.1-35.3 32.4-38.3.2 16.5 13.5 29.9 30 29.9s29.8-13.3 30-29.9c18.3 3 32.4 19.1 32.4 38.3"/><path class="st14" d="M291.7 122.3v30.1c0 25-20.4 45.4-45.4 45.4h-10.6c-25 0-45.4-20.4-45.4-45.4v-31.1c0-4.3 2.1-11.9 5.4-18.5 3.2-6.6 7.5-12.1 11.7-12.1 0 0 17.4 6.8 35.6 6.8 17 0 34.9-6.8 34.9-6.8 8.4.1 13.8 23.1 13.8 31.6"/><path class="st15" d="M291.7 115.9L280 101c-2.3-2.9-6-4.4-9.7-3.8l-15.7 4.3c-1.3.3-2.6.6-3.9.8-6.3.8-12.6.8-18.9.1-1.6-.2-3.3-.5-4.8-1l-14.7-4.2c-3.5-.6-7 .7-9.4 3.3L190.2 115c0-4.2 3.6-8.9 6.8-15.3 3.2-6.5 6.1-9.2 10.3-9.2 0 0 17.4 6.7 35.6 6.7 17 0 36.3-7.2 36.3-7.2 8.5-.1 12.5 17.6 12.5 25.9M241 188.5c43.1 0 50.6-36.3 50.6-36.3 0 25.1-20.4 45.6-45.4 45.6h-10.6c-25 0-45.4-20.5-45.4-45.6 0 0 7.6 36.3 50.8 36.3"/><path class="st4" d="M207.9 92.5c-2.9.3-6.6 4.4-9.9 11.1-3 6.2-5.2 13.6-5.2 17.7v31.2c0 24.1 19.6 43.7 43.8 43.7h10.6c24.1 0 43.8-19.6 43.8-43.7v-30.2c0-9.4-5.6-29.2-11.8-29.8-2.6 1-19.2 6.8-35.3 6.8-17.2 0-33.4-5.8-36-6.8m39.3 107.2h-10.6c-26.1 0-47.3-21.2-47.3-47.3v-31.2c0-4.7 2.3-12.6 5.5-19.3 5.6-11.4 10.7-13.1 13.3-13.1.2 0 .4 0 .6.1.2.1 17.4 6.7 35.1 6.7 16.5 0 34.2-6.6 34.4-6.7.2-.1.4-.1.6-.1 4.5 0 8.6 4.8 11.8 13.8 2.5 7.2 3.8 15.3 3.8 19.6v30.2c.1 26.1-21.2 47.3-47.2 47.3"/><path class="st7" d="M212.9 220.2c-2.7.4-5.3 1.2-7.8 2.2 0 19.3 16.3 35 36.3 35s36.3-15.7 36.3-35v-.3c-2.3-.9-4.7-1.6-7.1-2-.2 16-13 28.9-28.8 28.9-15.9.1-28.7-12.8-28.9-28.8"/><path class="st4" d="M181.6 315.4H303v-56.3c0-8.7-3.2-17.2-8.9-23.9-5.2-6.1-12.3-10.3-20.1-12-1.2 16.3-15.1 29.3-31.7 29.3-16.7 0-30.5-13-31.7-29.3-7.8 1.7-14.8 5.9-20.1 12-5.7 6.7-8.9 15.2-8.9 23.9v56.3zm123.2 3.5h-125c-1 0-1.8-.8-1.8-1.8V259c0-9.6 3.5-18.9 9.8-26.2 6.2-7.2 14.8-12 24.1-13.6.5-.1 1 .1 1.4.4.4.3.6.8.6 1.3.2 15.4 12.9 27.9 28.3 27.9s28.1-12.5 28.3-27.9c0-1 .8-1.8 1.8-1.7h.3c9.3 1.5 17.9 6.4 24.1 13.6 6.3 7.3 9.8 16.6 9.8 26.2v58.1c.1 1-.7 1.8-1.7 1.8z"/><path class="st33" d="M215.3 127.1c1.4-2.2 4-3.7 7-3.7s5.6 1.5 7 3.7"/><path class="st4" d="M229.9 129c-.4 0-.8-.2-1.1-.6-1.3-2.2-3.6-3.5-6.1-3.5-2.5 0-4.8 1.3-6.1 3.5-.3.6-1.1.8-1.7.4-.6-.3-.8-1.1-.5-1.6 1.7-2.9 4.8-4.7 8.2-4.7 3.4 0 6.5 1.8 8.2 4.7.3.6.1 1.3-.4 1.7 0 0-.3.1-.5.1"/><path class="st33" d="M251.6 127.1c1.4-2.2 4-3.7 7-3.7s5.6 1.5 7 3.7"/><path class="st4" d="M265.3 129c-.4 0-.8-.2-1.1-.6-1.3-2.2-3.6-3.5-6.1-3.5-2.5 0-4.8 1.3-6.1 3.5-.3.6-1.1.8-1.7.4-.6-.3-.8-1.1-.5-1.6 1.7-2.9 4.8-4.7 8.2-4.7 3.4 0 6.5 1.8 8.2 4.7.3.6.1 1.3-.4 1.7-.1 0-.3.1-.5.1m-25.2 26c-.8 0-1.5-.6-1.5-1.4 0-.8.7-1.4 1.5-1.4 1.7 0 3.8-1.1 5.2-1.9-1.8-2.8-2.9-6.9-3-7.4-.2-.8.3-1.5 1.1-1.7.8-.2 1.6.3 1.8 1.1.4 1.5 1.6 5.7 3.3 7.4.3.3.4.7.4 1 0 .4-.2.7-.5 1-.3.1-4.4 3.3-8.3 3.3m-2 18.7h-.1c-11.1-.9-13.2-9.1-13.3-9.4-.2-.8.3-1.5 1-1.7.8-.2 1.5.3 1.7 1 .1.3 1.8 6.6 10.8 7.3.8.1 1.4.7 1.3 1.5 0 .7-.7 1.3-1.4 1.3"/><path class="st10" d="M241.7 234.2c-.3 0-.7-.1-.9-.4l-4.5-4.5c-.6-.6-.6-1.5-.1-2.1.5-.6 1.4-.7 1.9-.1l3.5 3.5 3-3.4c.5-.6 1.4-.6 1.9 0s.5 1.5 0 2.1l-3.9 4.5c-.2.2-.6.4-.9.4"/><path class="st4" d="M215.2 247.2c-.3 0-.6-.1-.7-.3-1.3-1.4-2.5-3-3.6-4.6-.3-.5-.2-1.1.3-1.4.5-.3 1.1-.2 1.4.3 1 1.5 2.2 3 3.4 4.3.4.4.4 1.1 0 1.5-.3.1-.5.2-.8.2m22.4 11.2h-.1c-6.1-.7-12-3-17-6.5-.5-.3-.6-1-.3-1.4.3-.5 1-.6 1.4-.3 4.8 3.3 10.3 5.5 16.1 6.1.6.1 1 .6.9 1.1-.1.6-.5 1-1 1m7.6 0c-.5 0-1-.4-1.1-1 0-.6.4-1.1 1-1.1 10.3-.9 19.8-6.1 26-14.3.4-.5 1-.6 1.5-.2.5.3.6 1 .2 1.5-6.6 8.7-16.6 14.2-27.6 15.1.1 0 .1 0 0 0m27.9-17.7c-.2 0-.4 0-.5-.1-.5-.3-.6-.9-.3-1.3.6-.9 1.1-1.7 1.6-2.6.3-.5.9-.7 1.4-.4.5.2.7.8.5 1.3-.5 1-1.1 1.9-1.7 2.8-.3.1-.6.3-1 .3m3.9-5.6c-.1 0-.3 0-.4-.1-.6-.2-.9-.8-.7-1.4.6-1.4 1-2.8 1.4-4.2.2-.6.8-.9 1.4-.8.6.1 1 .7.8 1.3-.4 1.5-.9 3-1.5 4.5-.1.4-.6.7-1 .7m-69.2 1.9c-.4 0-.7-.2-.9-.6-.7-1.5-1.3-3.1-1.8-4.7-.2-.5.1-1.1.6-1.2.5-.2 1.1.1 1.2.6.5 1.5 1.1 3 1.7 4.4.2.5 0 1.1-.5 1.3 0 .1-.1.2-.3.2"/><path class="st10" d="M245.5 142.9s2.8 3.3 4.7 6.3c1.2 1.8.3 4.2-1.8 5-2.2.8-5.2 1.3-7.9 0l6.9-3.9-1.9-7.4z"/><path class="st34" d="M279.6 152.7c0 4.9-4 8.8-8.8 8.8-4.9 0-8.8-4-8.8-8.8 0-4.9 4-8.8 8.8-8.8s8.8 3.9 8.8 8.8m-55.9 0c0 4.9-4 8.8-8.8 8.8-4.9 0-8.8-4-8.8-8.8 0-4.9 4-8.8 8.8-8.8s8.8 3.9 8.8 8.8"/><path class="st0" d="M275.6 124.9c-.3-.5-.6-1.1-.9-1.7-.1-.2-.2-.3-.2-.5-.5.1-1 0-1.5-.2.8 1.1 1.8 2.1 2.8 2.8-.1-.2-.1-.3-.2-.4"/><path class="st13" d="M206.9 272.3v43.8"/><path class="st4" d="M206.9 318c-1 0-1.9-.8-1.9-1.8v-43.9c0-1 .8-1.8 1.9-1.8 1 0 1.9.8 1.9 1.8v43.9c0 1-.8 1.8-1.9 1.8"/><path class="st14" d="M179.9 316.1h27v-28.9h-27v28.9z"/><path class="st10" d="M179.9 293.7h27v-6.5h-27v6.5z"/><path class="st4" d="M181.5 314.5h23.9v-25.7h-23.9v25.7zm25.6 3.5h-27.3c-.9 0-1.7-.8-1.7-1.7v-29.1c0-1 .8-1.7 1.7-1.7h27.3c.9 0 1.7.8 1.7 1.7v29.1c0 .9-.8 1.7-1.7 1.7z"/><path class="st13" d="M276.8 272.3v43.8"/><path class="st4" d="M276.8 318c-1 0-1.9-.8-1.9-1.8v-43.9c0-1 .8-1.8 1.9-1.8 1 0 1.9.8 1.9 1.8v43.9c-.1 1-.9 1.8-1.9 1.8"/><path class="st14" d="M276.8 316.1h27v-28.9h-27v28.9z"/><path class="st10" d="M276.8 293.7h27v-6.5h-27v6.5z"/><path class="st4" d="M278.3 314.5h23.9v-25.7h-23.9v25.7zm25.6 3.5h-27.3c-.9 0-1.7-.8-1.7-1.7v-29.1c0-1 .8-1.7 1.7-1.7h27.3c.9 0 1.7.8 1.7 1.7v29.1c0 .9-.7 1.7-1.7 1.7z"/><path class="st35" d="M484.2 310.2c-1.2-.6-3.3-1.7-5.4-1.9-1.7-.2-3.4-.2-5.2-.3-2.3-.1-4.7-.2-7-.4-5.9-.5-11.6-1.7-17.5-2.5-6.2-.8-12.5-1.2-18.9-1.2-1.2-2.5-3.4-4.3-6-5.4-3.5-2.9-7.6-2.9-12.4-1.9-.6.1-1.2.3-1.8.4-6.3.7-12.5 2.3-18.7 3.4-7.3 1.2-14.6 2.1-22 3-7 .8-14.8.5-21.7 2.1-17.9-2.3-36-2.7-54.1-3.1-23.3-.5-46.8.5-70.1 1.8-23.3 1.3-46.6 3.5-69.9 5.4-11.4.9-22.9 1.6-34.3 1.1-11.3-.5-22.3-2.9-33.6-3.8-12.7-1-25.1.9-37.6 3-5.8 1-11.7 2-17.6 2.5-6.2.5-12.5.3-18.7.8-7.3.5-9.5 10.7-2.5 13.5 10.6 4.3 22.4 2.9 33.5 1.4 10.9-1.5 21.9-3.4 33-3.4 10.6 0 21.2 2.5 31.8 3.6 12 1.3 24.1 1.3 36.1.7 23.6-1.1 47-3.5 70.6-4.6 23.3-1.1 46.7-1.8 70.1-2.2 17.2-.3 34.5-.4 51.7-1.6.3.2.7.5 1 .7 3.7 2.3 7.8 3.9 12.1 5 8.6 2.2 17.8 1.7 26.4-.1 6.6-1.4 13-3.6 19.2-5.9 6.1-1 12.3-1.9 18.6-2.1 5.7-.2 11.4 0 17.1.9 6.1 1 11.9 2.7 17.9 4 5.9 1.3 11.9 2.8 17.9 3.4 3.4.3 7 .5 10.4 0 1.7-.2 3.4-.5 5-1.1 2.3-.9 3.5-2.5 5.2-4 3.7-3.2 1.4-9.2-2.6-11.2"/><path class="st4" d="M448.6 318H428c-.7 0-1.3-.6-1.3-1.4s.6-1.4 1.3-1.4h20.6c.7 0 1.3.6 1.3 1.4s-.6 1.4-1.3 1.4m-405.9.9H22.1c-.7 0-1.3-.6-1.3-1.4s.6-1.4 1.3-1.4h20.6c.7 0 1.3.6 1.3 1.4s-.6 1.4-1.3 1.4m378-.9h-37.4c-.7 0-1.3-.6-1.3-1.4s.6-1.4 1.3-1.4h37.4c.7 0 1.3.6 1.3 1.4s-.6 1.4-1.3 1.4m-55.9 0h-50.5c-.7 0-1.3-.6-1.3-1.4s.6-1.4 1.3-1.4h50.5c.7 0 1.3.6 1.3 1.4s-.5 1.4-1.3 1.4m-95.9 0h-20.6c-.7 0-1.3-.6-1.3-1.4s.6-1.4 1.3-1.4h20.6c.7 0 1.3.6 1.3 1.4s-.5 1.4-1.3 1.4m-29.8 0h-37.4c-.7 0-1.3-.6-1.3-1.4s.6-1.4 1.3-1.4h37.4c.7 0 1.3.6 1.3 1.4s-.5 1.4-1.3 1.4m-125.6.9H62.1c-.7 0-1.3-.6-1.3-1.4 0-.8.6-1.4 1.3-1.4h51.4c.7 0 1.3.6 1.3 1.4 0 .8-.6 1.4-1.3 1.4"/><path class="st36" d="M323.6 37.8c-3.7 0-6.8 3-6.8 6.8 0 3.7 3 6.8 6.8 6.8 3.7 0 6.8-3 6.8-6.8s-3.1-6.8-6.8-6.8zm0 10.2c-1.9 0-3.4-1.5-3.4-3.4s1.5-3.4 3.4-3.4 3.4 1.5 3.4 3.4-1.5 3.4-3.4 3.4zM165.8 64.5c-2.7 0-4.9 2.2-4.9 4.9s2.2 4.9 4.9 4.9 4.9-2.2 4.9-4.9-2.2-4.9-4.9-4.9zm0 7.4c-1.4 0-2.5-1.1-2.5-2.5s1.1-2.5 2.5-2.5 2.5 1.1 2.5 2.5-1.1 2.5-2.5 2.5zm43-16.8c-.6.2-1.3.1-1.9-.3-.8-.7-.9-1.8-.3-2.7l9.8-12.1c.7-.8 1.8-.9 2.7-.3.8.7.9 1.9.3 2.7l-9.8 12.1c-.2.2-.5.4-.8.6M321.2 77c-.6-.2-1.1-.8-1.2-1.5-.2-1 .5-2 1.5-2.2l15.4-2.7c1-.2 2 .5 2.2 1.5.2 1-.5 2-1.5 2.2L322.2 77c-.3.2-.6.1-1 0m-29.1-36.7c.3.6.3 1.3 0 1.9-.5.9-1.7 1.2-2.6.7L276 35c-.9-.5-1.2-1.7-.7-2.6.5-.9 1.7-1.2 2.6-.7l13.5 7.9c.3.2.5.4.7.7"/></svg>