<?xml version="1.0" standalone="no"?>
<!DOCTYPE svg PUBLIC "-//W3C//DTD SVG 1.1//EN" "http://www.w3.org/Graphics/SVG/1.1/DTD/svg11.dtd" >
<svg xmlns="http://www.w3.org/2000/svg">
<metadata></metadata>
<defs>
<font id="museo_sans_rounded700_italic" horiz-adv-x="1196" >
<font-face units-per-em="2048" ascent="1536" descent="-512" />
<missing-glyph horiz-adv-x="512" />
<glyph unicode="&#xfb01;" horiz-adv-x="1222" d="M90 86l148 752h-52q-85 0 -67 86l6 34q15 86 102 86h52l6 35q19 95 64.5 167.5t98 112t115.5 64.5t108 32t85 7h32q85 0 70 -86l-12 -53q-14 -78 -105 -84q-20 -1 -36 -3.5t-38 -8.5t-39.5 -17.5t-35 -29.5t-31 -46t-20.5 -65l-4 -25h553q83 0 67 -86l-170 -872 q-15 -86 -100 -86h-90q-85 0 -70 86l147 752h-378l-146 -752q-15 -86 -100 -86h-90q-85 0 -70 86zM1034 1223q-84 0 -69 84l12 61q19 86 102 86h90q41 0 59 -22.5t9 -63.5l-12 -61q-15 -84 -103 -84h-88z" />
<glyph unicode="&#xfb02;" horiz-adv-x="1269" d="M90 86l146 737h-52q-41 0 -59.5 23.5t-9.5 66.5l8 37q15 80 102 80h49l11 49q19 94 65 166.5t99 112t116.5 64.5t108.5 32.5t84 7.5h30q41 0 59.5 -24t10.5 -66l-12 -53q-13 -74 -105 -80q-20 -1 -36 -3.5t-38 -8.5t-39.5 -17.5t-35 -29.5t-31 -46t-20.5 -65l-6 -39h139 q41 0 59 -24t10 -66l-8 -37q-15 -80 -100 -80h-141l-144 -737q-15 -86 -100 -86h-90q-85 0 -70 86zM774 326l205 1042q16 86 100 86h90q41 0 59.5 -22.5t10.5 -63.5l-199 -1022q-14 -69 3 -95t53 -30q29 -3 43 -23.5t8 -56.5l-14 -67q-16 -84 -105 -84q-28 0 -52.5 2.5 t-52.5 8t-50 17t-43.5 28.5t-35.5 42.5t-22.5 58.5t-8 78.5t10.5 100.5z" />
<glyph unicode="&#xfb03;" horiz-adv-x="1910" d="M86 86l147 752h-45q-85 0 -67 86l6 34q19 86 102 86h43l9 35q19 95 64.5 167.5t98 112t115.5 64.5t108 32t85 7h32q85 0 70 -86l-12 -53q-17 -78 -105 -84q-20 -1 -36 -3.5t-38 -8.5t-39.5 -17.5t-35 -29.5t-31 -46t-20.5 -65l-5 -25h435l6 35q19 95 65 167.5t98.5 112 t115.5 64.5t108 32t84 7h33q84 0 69 -86l-12 -53q-14 -78 -104 -84q-24 -2 -42.5 -4.5t-46 -13.5t-47 -27.5t-37.5 -49t-26 -75.5l-6 -25h553q41 0 58.5 -22.5t8.5 -63.5l-170 -872q-15 -86 -100 -86h-90q-85 0 -70 86l148 752h-377l-148 -752q-15 -86 -100 -86h-90 q-85 0 -70 86l148 752h-434l-146 -752q-15 -86 -100 -86h-90q-85 0 -70 86zM1653 1307l12 61q19 86 102 86h91q41 0 58.5 -22.5t8.5 -63.5l-12 -61q-15 -84 -101 -84h-90q-84 0 -69 84z" />
<glyph unicode="&#xfb04;" horiz-adv-x="1955" d="M88 86l145 752h-43q-84 0 -69 86l8 34q16 86 100 86h43l9 35q19 95 65 167.5t98.5 112t115.5 64.5t108 32t84 7h32q85 0 70 -86l-10 -53q-17 -78 -107 -84q-31 -2 -54.5 -7.5t-55.5 -21.5t-55 -51.5t-33 -89.5l-4 -25h432l6 35q19 95 65 167.5t98.5 112t115.5 64.5 t108 32t84 7h33q84 0 69 -86l-10 -53q-14 -78 -104 -84q-32 -2 -56.5 -7.5t-56.5 -21.5t-55 -51.5t-33 -89.5l-4 -25h139q41 0 59.5 -22.5t10.5 -63.5l-9 -34q-15 -86 -90 -86h-151l-146 -752q-15 -86 -102 -86h-90q-83 0 -68 86l146 752h-432l-146 -752q-15 -86 -102 -86 h-90q-83 0 -68 86zM1462 326l203 1042q16 86 100 86h90q41 0 59 -22.5t9 -63.5l-197 -1022q-13 -69 4 -95t52 -30q62 -7 51 -74l-14 -69q-17 -88 -105 -88q-29 0 -53.5 2.5t-52.5 8t-50.5 17t-43.5 28.5t-35 42.5t-22 58.5t-7 78.5t12 100.5z" />
<glyph horiz-adv-x="0" />
<glyph horiz-adv-x="682" />
<glyph unicode=" "  horiz-adv-x="512" />
<glyph unicode="&#x09;" horiz-adv-x="512" />
<glyph unicode="&#xa0;" horiz-adv-x="512" />
<glyph unicode="!" horiz-adv-x="524" d="M125 504l151 862q7 42 34 65t69 23h96q41 0 58 -22.5t8 -65.5l-183 -862q-18 -84 -102 -84h-61q-82 0 -70 84zM37 86l12 72q15 86 103 86h79q86 0 70 -86l-12 -74q-18 -84 -105 -84h-80q-83 0 -67 86z" />
<glyph unicode="&#x22;" horiz-adv-x="747" d="M604 1024q-84 0 -69 84l55 287q19 86 102 86h23q41 0 59 -22.5t10 -63.5l-57 -287q-15 -84 -100 -84h-23zM274 1024q-82 0 -67 84l55 287q7 41 34.5 63.5t68.5 22.5h22q41 0 59 -22.5t9 -63.5l-56 -287q-15 -84 -102 -84h-23z" />
<glyph unicode="#" horiz-adv-x="1419" d="M152 92l106 291h-147q-44 0 -60.5 26.5t-1.5 69.5l6 21q24 69 107 69h166l106 287h-145q-45 0 -61.5 26t-2.5 70l8 21q26 71 105 71h164l123 332q28 78 106 78h37q44 0 60 -25t1 -69l-118 -316h280l123 332q28 78 107 78h36q44 0 60.5 -25t1.5 -69l-119 -316h152 q44 0 60 -26.5t1 -69.5l-8 -20q-25 -72 -105 -72h-167l-107 -287h148q44 0 61 -26.5t0 -69.5l-6 -18q-25 -72 -107 -72h-166l-110 -307q-30 -76 -107 -76h-37q-45 0 -61 24.5t-2 67.5l109 291h-279l-113 -307q-30 -76 -106 -76h-37q-44 0 -60 24.5t-1 67.5zM537 569h278 l109 287h-281z" />
<glyph unicode="$" d="M74 238l51 59q48 56 119 12q131 -90 280 -90q101 0 173.5 53t72.5 140q0 51 -30.5 91.5t-79.5 68.5t-107.5 56t-117.5 63t-108 78.5t-79.5 113.5t-30.5 159q0 121 63 217.5t167 151t231 64.5l20 110q16 76 88 76h21q83 0 65 -90l-18 -103q82 -9 154.5 -38t111.5 -56 q68 -49 15 -121l-45 -61q-45 -61 -119 -23q-135 66 -242 66t-177.5 -54.5t-70.5 -133.5q0 -48 30.5 -86.5t80 -66t109 -54.5t118.5 -62t108.5 -79.5t80 -115t30.5 -159.5q0 -183 -133 -309t-344 -138l-18 -104q-15 -80 -86 -80h-21q-83 0 -67 92l20 103q-100 15 -185.5 55 t-123.5 74q-62 53 -6 121z" />
<glyph unicode="%" horiz-adv-x="1638" d="M856 1188q0 -139 -117.5 -248t-261.5 -109q-134 0 -217.5 80.5t-83.5 208.5q0 137 116 248t263 111q132 0 216.5 -82.5t84.5 -208.5zM129 104l1229 1305q45 45 104 45h47q57 0 70.5 -32.5t-25.5 -73.5l-1230 -1303q-45 -45 -105 -45h-45q-57 0 -71 31.5t26 72.5z M377 1128q0 -47 32.5 -77.5t86.5 -30.5q62 0 110.5 47.5t48.5 112.5q0 48 -32.5 79t-85.5 31q-61 0 -110.5 -49t-49.5 -113zM1128 -25q-134 0 -217.5 80t-83.5 207q0 138 115.5 248.5t261.5 110.5q134 0 218.5 -82.5t84.5 -208.5q0 -139 -117.5 -247t-261.5 -108zM1188 434 q-62 0 -111 -49.5t-49 -112.5q0 -48 32 -78t87 -30q63 0 111.5 47.5t48.5 112.5q0 47 -33 78.5t-86 31.5z" />
<glyph unicode="&#x26;" horiz-adv-x="1359" d="M49 356q0 137 89.5 254t236.5 168l2 4q-5 2 -14 7t-32 26t-40.5 47.5t-32 74t-14.5 103.5q0 133 74.5 234.5t195 153t264.5 51.5h94q43 0 62 -22.5t10 -63.5l-14 -52q-21 -84 -103 -84h-67q-103 0 -178.5 -63t-75.5 -166q0 -158 188 -158h234l20 105q18 84 101 84h88 q42 0 59.5 -22t9.5 -58l-20 -109h102q40 0 58.5 -24t11.5 -68l-12 -57q-14 -80 -101 -80h-104l-33 -172q-45 -237 -198 -365.5t-384 -128.5q-218 0 -347.5 108t-129.5 273zM326 393q0 -81 55 -128.5t158 -47.5q123 0 205 68t108 198l31 158h-252q-79 0 -146.5 -26t-113 -84 t-45.5 -138z" />
<glyph unicode="'" horiz-adv-x="409" d="M274 1053q-84 0 -69 86l49 256q19 86 102 86h27q41 0 59.5 -22.5t10.5 -63.5l-52 -256q-15 -86 -102 -86h-25z" />
<glyph unicode="(" horiz-adv-x="581" d="M295 -195h-37q-75 0 -98 68q-86 232 -86 487q0 630 387 1110q43 48 106 48h35q54 0 68 -29.5t-17 -73.5q-350 -494 -350 -1061q0 -233 64 -452q12 -45 -6.5 -71t-65.5 -26z" />
<glyph unicode=")" horiz-adv-x="581" d="M35 -195h-49q-47 0 -57.5 29.5t20.5 73.5q350 497 350 1061q0 237 -63 452q-12 45 6 71t63 26h39q75 0 98 -68q86 -232 86 -487q0 -628 -387 -1108q-42 -50 -106 -50z" />
<glyph unicode="*" horiz-adv-x="954" d="M279 711l-37 30q-29 25 -27.5 55.5t33.5 61.5l141 139v4l-158 46q-41 9 -52 36.5t11 67.5l25 51q45 83 115 49l155 -65l27 180q3 41 28 64.5t68 23.5h58q42 0 59 -23t6 -65l-47 -180l178 63q43 17 71 4t32 -53l6 -49q9 -83 -74 -102l-188 -50v-4l84 -135q46 -65 -33 -119 l-51 -30q-38 -26 -68 -20t-45 42l-66 150h-4l-125 -148q-58 -76 -122 -24z" />
<glyph unicode="+" d="M131 483q-41 0 -63.5 22.5t-22.5 63.5v31q0 41 22.5 63.5t63.5 22.5h358v399q0 86 84 86h41q41 0 63.5 -22.5t22.5 -63.5v-399h357q41 0 63.5 -22.5t22.5 -63.5v-31q0 -41 -22.5 -63.5t-63.5 -22.5h-357v-397q0 -86 -86 -86h-41q-84 0 -84 86v397h-358z" />
<glyph unicode="," horiz-adv-x="491" d="M-104 -147l165 340q36 71 111 71h76q47 0 61 -28t-12 -72l-209 -342q-40 -66 -111 -66h-26q-46 0 -60.5 26.5t5.5 70.5z" />
<glyph unicode="-" horiz-adv-x="864" d="M182 471q-42 0 -59.5 24t-9.5 66l10 57q15 80 102 80h445q41 0 59 -24t10 -66l-10 -57q-15 -80 -102 -80h-445z" />
<glyph unicode="." horiz-adv-x="481" d="M12 90l21 92q15 80 98 80h92q41 0 60 -23.5t10 -66.5l-19 -92q-15 -80 -100 -80h-90q-41 0 -60.5 24.5t-11.5 65.5z" />
<glyph unicode="/" horiz-adv-x="854" d="M-37 10l748 1448q40 70 110 70h60q46 0 60.5 -26t-9.5 -70l-750 -1448q-37 -70 -108 -70h-60q-45 0 -59.5 26t8.5 70z" />
<glyph unicode="0" horiz-adv-x="1269" d="M102 467q0 83 10 173t34 189.5t59 191.5t89 176t120.5 146t157 99t194.5 37q448 0 448 -490q0 -83 -10 -173t-34 -190t-59 -192t-89 -176.5t-120.5 -146.5t-156.5 -99t-194 -37q-449 0 -449 492zM373 475q0 -258 186 -258q78 0 144.5 54t109 137.5t73 187t43.5 200 t13 179.5q0 260 -186 260q-76 0 -141.5 -52.5t-108.5 -134.5t-74 -185t-45 -202t-14 -186z" />
<glyph unicode="1" horiz-adv-x="1003" d="M-10 92l10 58q14 77 98 77h232l153 791l23 98h-4q-27 -39 -72 -74l-70 -59q-74 -56 -116 4l-39 51q-47 62 24 121l312 252q55 43 114 43h86q84 0 68 -86l-221 -1141h229q41 0 59.5 -24t10.5 -66l-10 -57q-17 -80 -103 -80h-719q-40 0 -57 24.5t-8 67.5z" />
<glyph unicode="2" horiz-adv-x="1155" d="M-6 92q0 79 43 167t106 161q65 77 166.5 151t191.5 127.5t173 109.5t132.5 121t49.5 138q0 76 -51 119t-135 43q-123 0 -246 -113q-69 -56 -121 -10l-45 45q-63 63 -12 119q214 209 461 209q119 0 216.5 -44.5t156.5 -132.5t59 -204q0 -99 -41 -186t-108 -152 t-148.5 -122.5t-166.5 -107.5t-157 -96.5t-125 -99.5t-67 -107h579q42 0 60 -25t10 -69l-10 -57q-11 -76 -101 -76h-790q-80 0 -80 92z" />
<glyph unicode="3" horiz-adv-x="1138" d="M14 125q-53 50 4 117l43 53q22 25 44 32.5t38 3t39 -17.5q26 -19 43 -30t51 -28t74.5 -25.5t87.5 -8.5q122 0 213.5 74t91.5 184q0 94 -73.5 141.5t-200.5 47.5h-33q-36 0 -55.5 14t-28.5 47l-6 19q-13 50 43 106l291 293q21 21 45.5 41.5t38.5 30.5l14 10v4 q-53 -6 -131 -6h-336q-41 0 -58 24t-9 66l10 57q15 80 102 80h717q41 0 59.5 -24t10.5 -64l-4 -25q-7 -32 -20 -51.5t-42 -46.5l-383 -375q142 -25 231 -123.5t89 -244.5q0 -143 -77.5 -264t-208.5 -191t-282 -70q-149 0 -262.5 48t-169.5 102z" />
<glyph unicode="4" horiz-adv-x="1245" d="M80 375q-41 0 -59.5 23.5t-10.5 64.5l4 22q11 55 52 99l700 815q44 55 113 55h180q83 0 67 -86l-149 -774h102q41 0 59 -24t9 -66l-8 -51q-17 -78 -86 -78h-119l-55 -289q-18 -86 -103 -86h-90q-86 0 -68 86l56 289h-594zM334 594h383l86 450q6 32 17 71.5t18 62.5l8 24 h-4q-54 -82 -101 -139l-407 -465v-4z" />
<glyph unicode="5" horiz-adv-x="1136" d="M37 123q-53 49 6 117l47 53q56 64 119 14q99 -82 231 -82q137 0 231.5 88t94.5 209q0 94 -69 148.5t-181 54.5q-16 0 -31 -1t-30 -4t-25.5 -5t-26 -6.5t-21.5 -6.5t-22 -7.5t-18 -6.5q-73 -21 -115 -4l-26 10q-63 25 -43 101l166 577q25 82 104 82h606q40 0 58.5 -24 t9.5 -68l-10 -57q-14 -78 -101 -78h-450l-72 -240l-25 -67h5q71 32 163 32q187 0 308.5 -119.5t121.5 -300.5q0 -109 -46.5 -210.5t-125.5 -178t-191.5 -122.5t-236.5 -46q-140 0 -248.5 48t-156.5 100z" />
<glyph unicode="6" horiz-adv-x="1220" d="M92 516q0 84 18 176t54 185t86.5 181t120 164.5t149.5 133.5t180 90t207 33q127 0 232 -33q41 -10 52.5 -42t-9.5 -69l-35 -67q-34 -64 -109 -49q-66 16 -127 16q-83 0 -159 -33t-134.5 -89t-102.5 -125t-73 -148h4q44 49 124 78.5t155 29.5q189 0 295 -114.5t106 -298.5 q0 -100 -39.5 -199.5t-108.5 -180t-173.5 -130.5t-224.5 -50q-104 0 -193 36.5t-154.5 104t-103 170.5t-37.5 230zM360 502q0 -117 65.5 -201t162.5 -84q117 0 197.5 92t80.5 217q0 91 -59 148t-168 57q-108 0 -193.5 -66t-85.5 -163z" />
<glyph unicode="7" horiz-adv-x="1083" d="M68 100l694 994q25 37 52 70.5t42 47.5l14 15v4q-34 -4 -108 -4h-508q-41 0 -59 24t-9 66l9 57q17 80 104 80h827q41 0 59.5 -24t10.5 -64l-8 -45q-11 -56 -45 -100l-807 -1160q-44 -61 -113 -61h-114q-49 0 -60.5 28t19.5 72z" />
<glyph unicode="8" horiz-adv-x="1234" d="M53 369q0 37 7.5 73.5t19 66.5t30 60.5t36 54t41 48t41 40.5t41 34t36 27t30 21t19.5 13q-114 99 -114 240q0 79 35 155.5t98 138.5t161.5 100t215.5 38q199 0 320.5 -96.5t121.5 -254.5q0 -204 -230 -419q-6 -5 -8 -7q146 -106 146 -258q0 -90 -42 -175t-115 -150 t-181 -104.5t-232 -39.5q-218 0 -347.5 113t-129.5 281zM330 399q0 -86 63 -141t158 -55q108 0 192 68t84 169q0 24 -6.5 44.5t-24 40t-32 33t-48 33.5t-52.5 30.5t-64.5 33.5t-67.5 35q-202 -138 -202 -291zM504 1047q0 -19 3.5 -36t14.5 -33.5l19 -28.5t28 -27t30.5 -23 t38 -23.5t39 -21.5t45 -22.5t44.5 -22.5q160 151 160 285q0 71 -50.5 113t-136.5 42q-104 0 -169.5 -60.5t-65.5 -141.5z" />
<glyph unicode="9" horiz-adv-x="1216" d="M141 911q0 104 38.5 205t107 182t173 131t226.5 50q211 0 348 -144.5t137 -396.5q0 -82 -16.5 -172.5t-51.5 -184t-85 -181.5t-120 -165.5t-152.5 -135t-188 -91t-221.5 -33.5q-122 0 -213 31q-85 33 -41 113l35 67q18 38 43.5 46.5t64.5 3.5q78 -19 127 -19q84 0 160 33 t134 90t101.5 126t73.5 148h-4q-32 -40 -110.5 -75t-176.5 -35q-175 0 -282 116t-107 291zM401 928q0 -91 57.5 -149t162.5 -58q110 0 196 66.5t86 170.5q0 109 -65 193t-166 84q-114 0 -192.5 -91t-78.5 -216z" />
<glyph unicode=":" horiz-adv-x="512" d="M246 780q-42 0 -61 24t-11 66l19 95q17 79 102 79h90q41 0 59.5 -24t10.5 -66l-19 -94q-15 -80 -100 -80h-90zM92 0q-41 0 -59 24t-10 66l18 92q17 80 100 80h90q42 0 61 -23.5t11 -66.5l-18 -92q-15 -80 -103 -80h-90z" />
<glyph unicode=";" horiz-adv-x="559" d="M297 780q-41 0 -58.5 24t-9.5 66l19 93q15 81 100 81h84q41 0 59.5 -24t10.5 -66l-19 -92q-18 -82 -102 -82h-84zM-72 -150l150 340q30 74 110 74h78q47 0 60 -27t-13 -71l-192 -342q-36 -68 -109 -68h-30q-44 0 -59 25.5t5 68.5z" />
<glyph unicode="&#x3c;" d="M59 573v25q0 72 64 100l821 365q44 20 72 2t28 -66v-47q0 -71 -67 -98l-643 -266v-4l643 -267q67 -27 67 -98v-47q0 -49 -28 -67t-72 1l-821 367q-64 26 -64 100z" />
<glyph unicode="=" d="M90 780v31q0 84 86 84h830q84 0 84 -84v-31q0 -86 -84 -86h-830q-86 0 -86 86zM90 358v31q0 86 86 86h830q84 0 84 -86v-31q0 -84 -84 -84h-830q-86 0 -86 84z" />
<glyph unicode="&#x3e;" d="M139 172v47q0 71 68 98l643 267v4l-643 266q-68 27 -68 98v47q0 47 28.5 65.5t72.5 -1.5l821 -365q63 -28 63 -100v-25q0 -75 -63 -100l-821 -364q-44 -20 -72.5 -2t-28.5 65z" />
<glyph unicode="?" horiz-adv-x="956" d="M319 420q-41 0 -59.5 22.5t-9.5 63.5l6 31q15 76 64.5 141.5t109.5 112t119 91t101.5 97.5t47.5 111q6 66 -41 109.5t-125 43.5q-68 0 -161 -41q-85 -42 -119 21l-31 59q-36 71 37 113q55 36 137.5 62t173.5 26q183 0 294.5 -92t111.5 -254q0 -71 -23 -132.5 t-60.5 -107.5t-83.5 -86.5t-94.5 -75.5t-91 -68.5t-75 -72.5t-43.5 -80l-10 -39q-10 -32 -31.5 -43.5t-61.5 -11.5h-82zM168 90l14 74q15 80 101 80h82q42 0 60 -25t9 -67l-14 -74q-17 -78 -101 -78h-81q-41 0 -59.5 24t-10.5 66z" />
<glyph unicode="@" horiz-adv-x="1652" d="M649 -256q-263 26 -426.5 196.5t-163.5 419.5q0 177 74 342.5t197 286t289.5 193.5t343.5 73q112 0 199.5 -19t145 -52.5t95.5 -81.5t54 -103t16 -120q0 -43 -11 -107l-92 -475h66q80 0 65 -88l-4 -19q-7 -38 -32.5 -58.5t-63.5 -20.5h-459q-188 0 -292.5 96t-104.5 242 q0 78 35.5 152.5t98 133.5t156 95t201.5 36h201q0 2 1 12t1 15q0 69 -77 111.5t-199 42.5q-128 0 -248.5 -58.5t-206 -152.5t-137.5 -216t-52 -245q0 -169 97.5 -286.5t273.5 -141.5q89 -16 72 -94l-6 -35q-8 -39 -35.5 -58.5t-71.5 -15.5zM1051 698q-101 0 -173.5 -73 t-72.5 -170q0 -69 44 -113.5t120 -44.5h157l78 401h-153z" />
<glyph unicode="A" horiz-adv-x="1298" d="M-66 98l691 1286q37 70 110 70h152q73 0 82 -70l205 -1286q6 -44 -18.5 -71t-70.5 -27h-94q-73 0 -82 70l-43 303h-510l-159 -301q-37 -72 -109 -72h-102q-47 0 -61 27t9 71zM461 588h381l-56 389q-4 36 -7 92.5t-4 94.5l-1 38h-4q-59 -143 -100 -225z" />
<glyph unicode="B" horiz-adv-x="1286" d="M68 86l247 1282q7 41 34.5 63.5t68.5 22.5h383q137 0 219 -31q99 -35 154 -113.5t55 -181.5q0 -118 -64.5 -215t-173.5 -147v-4q88 -33 133 -108.5t45 -178.5q0 -158 -90.5 -273t-234.5 -167q-98 -35 -221 -35h-488q-82 0 -67 86zM481 860h256q95 0 158 66.5t63 160.5 q0 64 -39 102t-114 38h-252zM356 227h283q67 0 123 27q60 30 97.5 92.5t37.5 138.5q0 74 -45.5 118t-128.5 44h-285z" />
<glyph unicode="C" horiz-adv-x="1419" d="M96 616q0 173 70.5 332.5t188.5 275.5t280 185.5t338 69.5q159 0 280 -46t183 -100q60 -55 8 -119l-47 -59q-19 -24 -42 -30t-39 -1.5t-38 15.5q-148 98 -315 98q-125 0 -237 -52.5t-189.5 -138t-122.5 -196.5t-45 -225q0 -176 106 -292t293 -116q62 0 120 12t111.5 36.5 t79.5 39t70 41.5q79 44 117 -29l28 -57q37 -71 -24 -117q-80 -60 -222 -114t-307 -54q-292 0 -468.5 178t-176.5 463z" />
<glyph unicode="D" horiz-adv-x="1490" d="M356 227h222q172 0 308.5 84.5t210.5 229t74 319.5q0 178 -106 272.5t-295 94.5h-217zM68 86l247 1282q7 41 34.5 63.5t68.5 22.5h370q307 0 480.5 -150.5t173.5 -420.5q0 -181 -63.5 -343t-174.5 -281.5t-271.5 -189t-346.5 -69.5h-451q-82 0 -67 86z" />
<glyph unicode="E" horiz-adv-x="1134" d="M68 86l247 1282q7 41 34.5 63.5t68.5 22.5h700q41 0 59 -25t9 -67l-10 -57q-14 -78 -101 -78h-522l-74 -381h406q40 0 57.5 -25t9.5 -67l-12 -58q-14 -78 -102 -78h-406l-76 -391h555q41 0 59.5 -25t10.5 -67l-10 -57q-14 -78 -103 -78h-733q-82 0 -67 86z" />
<glyph unicode="F" horiz-adv-x="1067" d="M68 86l247 1282q19 86 103 86h665q41 0 59 -25t9 -67l-10 -57q-14 -78 -101 -78h-487l-80 -412h397q41 0 58.5 -24t9.5 -66l-10 -57q-17 -80 -103 -80h-397l-98 -502q-15 -86 -103 -86h-92q-82 0 -67 86z" />
<glyph unicode="G" horiz-adv-x="1540" d="M96 606q0 174 69 334.5t186.5 279t280.5 189t343 70.5q151 0 276 -39.5t191 -87.5q69 -54 12 -121l-49 -57q-27 -33 -57 -36.5t-62 13.5q-150 86 -313 86q-133 0 -247.5 -52.5t-191 -139.5t-120 -198.5t-43.5 -228.5q0 -187 112 -294t287 -107q121 0 231.5 55.5 t165.5 110.5l31 156h-139q-41 0 -59.5 22.5t-10.5 63.5l12 55q15 86 103 86h291q82 0 67 -86l-116 -594q-15 -86 -103 -86h-49q-41 0 -59.5 18.5t-12.5 49.5l8 45l11 34h-4q-24 -23 -55.5 -46t-86.5 -55t-129.5 -51.5t-154.5 -19.5q-168 0 -307 75t-223.5 220.5t-84.5 335.5 z" />
<glyph unicode="H" horiz-adv-x="1529" d="M68 86l247 1282q7 41 34.5 63.5t68.5 22.5h94q84 0 68 -86l-105 -530h666l104 530q7 41 34.5 63.5t68.5 22.5h92q83 0 67 -86l-247 -1282q-15 -86 -103 -86h-94q-83 0 -68 86l103 524h-666l-102 -524q-15 -86 -103 -86h-92q-82 0 -67 86z" />
<glyph unicode="I" horiz-adv-x="600" d="M68 86l247 1282q19 86 103 86h94q84 0 68 -86l-250 -1282q-15 -86 -103 -86h-92q-82 0 -67 86z" />
<glyph unicode="J" horiz-adv-x="1110" d="M6 336q0 48 12 113t91 65h90q46 0 65.5 -18t16.5 -47q-9 -70 -9 -80q0 -152 154 -152q81 0 143 53t84 164l154 793h-289q-42 0 -59.5 25t-9.5 67l10 57q14 78 102 78h469q41 0 59 -22.5t9 -63.5l-185 -956q-21 -111 -70.5 -197t-116.5 -137.5t-143.5 -77t-160.5 -25.5 q-83 0 -156.5 22.5t-132.5 65.5t-93 113.5t-34 159.5z" />
<glyph unicode="K" horiz-adv-x="1294" d="M68 86l249 1282q7 41 34.5 63.5t68.5 22.5h92q84 0 68 -86l-99 -506h187l411 533q47 59 115 59h115q51 0 62 -29.5t-23 -72.5l-478 -604l248 -646q15 -45 -6.5 -73.5t-73.5 -28.5h-96q-68 0 -88 59l-213 576h-205l-104 -549q-15 -86 -103 -86h-94q-82 0 -67 86z" />
<glyph unicode="L" horiz-adv-x="1073" d="M68 86l247 1282q19 86 103 86h94q84 0 68 -86l-222 -1141h543q40 0 58 -25t10 -67l-11 -57q-14 -78 -102 -78h-721q-82 0 -67 86z" />
<glyph unicode="M" horiz-adv-x="1744" d="M18 88l355 1284q19 82 102 82h123q73 0 82 -70l135 -649l31 -219h4q64 133 113 219l387 649q40 70 110 70h135q78 0 72 -82l-145 -1284q-4 -41 -31 -64.5t-68 -23.5h-92q-80 0 -71 82l88 731q4 43 14.5 99t18.5 91l8 35h-5q-73 -141 -122 -225l-306 -496 q-43 -67 -112 -67h-86q-72 0 -84 67l-113 496l-35 227h-4q-20 -131 -47 -227l-196 -731q-22 -82 -105 -82h-94q-40 0 -56.5 23.5t-5.5 64.5z" />
<glyph unicode="N" horiz-adv-x="1525" d="M68 86l249 1282q7 41 34.5 63.5t68.5 22.5h108q71 0 93 -57l362 -783q16 -38 35.5 -94.5t31.5 -93.5l11 -37h4q15 139 31 225l145 754q16 86 102 86h95q83 0 67 -86l-250 -1282q-15 -86 -102 -86h-109q-68 0 -90 57l-364 781q-17 38 -37 94.5t-31 93.5l-12 37h-4 q-13 -139 -29 -225l-145 -752q-15 -86 -103 -86h-94q-82 0 -67 86z" />
<glyph unicode="O" horiz-adv-x="1662" d="M754 -25q-296 0 -478 179t-182 460q0 171 72.5 331.5t190.5 277t275.5 186.5t321.5 70q147 0 271.5 -47t210 -129.5t133 -198t47.5 -250.5q0 -174 -73.5 -337t-192.5 -281t-276.5 -189.5t-319.5 -71.5zM952 1237q-110 0 -217 -48.5t-188.5 -129t-131.5 -194t-50 -236.5 q0 -183 109.5 -297.5t283.5 -114.5q108 0 214 49.5t188 131.5t132.5 198.5t50.5 241.5q0 178 -108.5 288.5t-282.5 110.5z" />
<glyph unicode="P" horiz-adv-x="1259" d="M68 86l249 1282q7 41 34.5 63.5t68.5 22.5h432q139 0 229 -47q92 -46 142.5 -135.5t50.5 -206.5q0 -173 -90 -312.5t-234 -203.5q-103 -47 -219 -47h-319l-80 -416q-15 -86 -103 -86h-94q-82 0 -67 86zM457 731h248q86 0 141 31q72 38 115 112.5t43 169.5 q0 86 -52.5 134.5t-148.5 48.5h-248z" />
<glyph unicode="Q" horiz-adv-x="1667" d="M754 -25q-296 0 -478 179t-182 460q0 171 72.5 331.5t190.5 277t275.5 186.5t321.5 70q147 0 271.5 -47t210 -129.5t133 -198t47.5 -250.5q0 -339 -252 -594l70 -84q60 -63 -4 -121l-39 -37q-64 -58 -121 9l-72 92q-203 -144 -444 -144zM952 1237q-110 0 -217 -48.5 t-188.5 -129t-131.5 -194t-50 -236.5q0 -183 109.5 -297.5t283.5 -114.5q142 0 280 88l-77 94q-57 63 4 121l43 37q65 58 118 -10l76 -94q141 171 141 385q0 178 -108.5 288.5t-282.5 110.5z" />
<glyph unicode="R" horiz-adv-x="1292" d="M68 86l247 1282q7 41 34.5 63.5t68.5 22.5h432q127 0 205 -37q94 -40 146 -121.5t52 -193.5q0 -158 -87.5 -296t-241.5 -190v-4q16 -22 34 -71l156 -439q15 -45 -7 -73.5t-73 -28.5h-100q-68 0 -88 59l-162 484h-264l-90 -457q-15 -86 -103 -86h-92q-82 0 -67 86z M463 772h233q122 0 203.5 77.5t81.5 207.5q0 81 -49 125.5t-139 44.5h-240z" />
<glyph unicode="S" horiz-adv-x="1110" d="M27 238l51 59q20 24 43 29.5t38.5 0.5t37.5 -18q136 -90 276 -90q106 0 181 51t75 142q0 46 -23.5 83.5t-62 62.5t-87.5 51t-100.5 49t-100.5 57t-87.5 74t-62 102t-23.5 139q0 105 43.5 191t117 141.5t169.5 86t203 30.5q120 0 222 -34t153 -71q69 -52 16 -121l-45 -61 q-45 -61 -119 -23q-40 20 -62.5 30.5t-72.5 23t-100 12.5q-123 0 -192 -55t-69 -133q0 -50 30.5 -89t78.5 -66t106.5 -53.5t117.5 -60t107 -75.5t78.5 -110t30.5 -155q0 -203 -147.5 -333t-380.5 -130q-141 0 -257 45.5t-177 96.5q-65 55 -6 121z" />
<glyph unicode="T" horiz-adv-x="1247" d="M389 86l221 1141h-391q-41 0 -58 24t-9 66l10 57q15 80 102 80h1045q41 0 58.5 -25t8.5 -67l-10 -57q-14 -78 -100 -78h-392l-221 -1141q-18 -86 -104 -86h-92q-83 0 -68 86z" />
<glyph unicode="U" horiz-adv-x="1480" d="M141 535l162 833q7 41 34.5 63.5t68.5 22.5h92q41 0 58.5 -22.5t8.5 -63.5l-164 -844q-27 -146 44 -226.5t221 -80.5q149 0 251.5 80.5t129.5 226.5l163 844q19 86 103 86h92q42 0 59.5 -22t8.5 -64l-166 -860q-47 -243 -224.5 -388t-423.5 -145q-189 0 -318 72.5 t-180 199t-20 288.5z" />
<glyph unicode="V" horiz-adv-x="1316" d="M385 68l-215 1288q-8 44 16.5 71t71.5 27h102q76 0 82 -72l127 -876q4 -37 8 -90.5t5 -87.5l2 -35h4q51 129 96 213l471 876q34 72 111 72h118q47 0 60.5 -27t-10.5 -71l-715 -1288q-36 -68 -111 -68h-141q-73 0 -82 68z" />
<glyph unicode="W" horiz-adv-x="1941" d="M279 74l-72 1286q-2 43 23.5 68.5t70.5 25.5h92q78 0 78 -76l31 -929q1 -36 0 -74.5t-2 -58.5l-2 -21h4q20 70 57 154l424 931q35 74 111 74h69q75 0 78 -74l59 -931q3 -37 3 -75.5t-1 -58.5l-2 -20h5q20 72 53 154l405 929q30 76 109 76h104q46 0 61 -25.5t-5 -68.5 l-584 -1288q-34 -72 -109 -72h-145q-76 0 -82 74l-53 786q-3 42 -3 89.5t2 74.5l1 27h-6q-33 -97 -76 -191l-361 -786q-35 -74 -108 -74h-150q-73 0 -79 74z" />
<glyph unicode="X" horiz-adv-x="1243" d="M-25 102l512 635l-254 615q-17 43 5 72.5t73 29.5h105q68 0 88 -59l108 -297q17 -47 31.5 -91.5t20.5 -65.5l6 -21h4q57 88 125 178l225 297q45 59 115 59h125q51 0 61 -29t-25 -73l-495 -615l266 -635q20 -44 -1.5 -73t-74.5 -29h-96q-68 0 -88 59l-131 332 q-14 36 -27.5 79t-20.5 68l-7 25h-4q-49 -76 -123 -172l-256 -332q-45 -59 -113 -59h-115q-52 0 -63 29t24 73z" />
<glyph unicode="Y" horiz-adv-x="1175" d="M350 86l103 522l-285 744q-15 43 7.5 72.5t72.5 29.5h104q68 0 86 -63l127 -365q12 -40 24.5 -89t19.5 -77l7 -29h5q61 105 124 195l267 365q42 63 112 63h123q50 0 61.5 -29.5t-22.5 -72.5l-571 -744l-103 -522q-15 -86 -102 -86h-92q-83 0 -68 86z" />
<glyph unicode="Z" horiz-adv-x="1212" d="M-43 86l4 27q8 55 53 106l762 877q34 37 67.5 70t50.5 47l17 14v4q-42 -4 -110 -4h-508q-41 0 -58.5 24t-9.5 66l11 57q15 80 102 80h881q83 0 67 -86l-4 -25q-11 -56 -55 -106l-766 -879q-33 -38 -66 -71t-50 -47l-17 -13v-4q40 4 108 4h551q42 0 60 -24t10 -66l-10 -57 q-14 -80 -103 -80h-921q-41 0 -58 22.5t-8 63.5z" />
<glyph unicode="[" horiz-adv-x="602" d="M-8 -109l299 1543q15 84 100 84h234q85 0 69 -88l-4 -19q-15 -82 -96 -82h-102l-259 -1335h97q41 0 58 -24t9 -66l-4 -17q-14 -82 -100 -82h-236q-83 0 -65 86z" />
<glyph unicode="\" horiz-adv-x="833" d="M426 -16l-186 1448q-4 44 20 70t70 26h39q75 0 84 -70l186 -1448q4 -44 -20 -70t-70 -26h-37q-77 0 -86 70z" />
<glyph unicode="]" horiz-adv-x="602" d="M-68 -88q15 82 101 82h96l260 1335h-98q-41 0 -58.5 24t-9.5 66l4 19q15 80 103 80h233q83 0 68 -84l-299 -1543q-18 -86 -103 -86h-231q-41 0 -59.5 24t-10.5 67z" />
<glyph unicode="^" horiz-adv-x="1267" d="M55 600l342 789q26 65 99 65h22q74 0 100 -65l340 -789q19 -43 1.5 -70.5t-66.5 -27.5h-45q-72 0 -98 67l-242 611l-244 -611q-23 -67 -98 -67h-43q-49 0 -68 27.5t0 70.5z" />
<glyph unicode="_" horiz-adv-x="1148" d="M-135 -80q12 80 100 80h977q41 0 59.5 -24t10.5 -66l-6 -31q-15 -80 -101 -80h-979q-83 0 -67 90z" />
<glyph unicode="`" horiz-adv-x="1009" d="M442 1550q-64 0 -98 52l-76 124q-27 40 -9.5 71.5t71.5 31.5h69q61 0 86 -60l58 -124q19 -34 3 -64.5t-59 -30.5h-45z" />
<glyph unicode="a" horiz-adv-x="1081" d="M-20 248q0 90 44.5 161t114 114.5t162 71.5t180 39t176.5 11h52q8 47 8 76q0 63 -41.5 98t-122.5 35q-111 0 -229 -63q-87 -33 -111 47l-12 39q-22 72 49 108q57 30 155 57t195 27q57 0 109.5 -10t102 -34t85.5 -59.5t58 -91t22 -124.5q0 -40 -10 -105l-109 -559 q-18 -86 -102 -86h-70q-42 0 -59.5 23.5t-8.5 62.5l9 41l12 45h-4q2 0 -12.5 -20.5t-43 -49t-68 -57.5t-98 -49.5t-122.5 -20.5q-128 0 -219.5 72t-91.5 201zM242 287q0 -50 34 -81.5t99 -31.5q102 0 189.5 88.5t109.5 192.5l6 32h-57q-48 0 -95 -4.5t-100.5 -18t-93 -34.5 t-66 -58t-26.5 -85z" />
<glyph unicode="b" horiz-adv-x="1241" d="M31 86l248 1282q16 86 102 86h88q42 0 59.5 -22t8.5 -64l-72 -379l-23 -88h4q53 77 137 122.5t187 45.5q181 0 286 -119t105 -321q0 -141 -49 -265t-128.5 -208t-181 -132.5t-206.5 -48.5q-107 0 -189 48.5t-124 132.5h-4q1 -20 -5 -45l-8 -43q-5 -30 -30.5 -49 t-67.5 -19h-70q-82 0 -67 86zM356 434q0 -107 52 -173t151 -66q62 0 122.5 29.5t108.5 81t77.5 129.5t29.5 167q0 115 -55 179.5t-150 64.5q-90 0 -168 -57.5t-123 -152.5t-45 -202z" />
<glyph unicode="c" horiz-adv-x="1087" d="M43 436q0 125 50 241t135.5 202.5t207 138t256.5 51.5q111 0 199 -30t139 -68q67 -50 12 -121l-32 -39q-28 -32 -59.5 -34t-59.5 16q-99 55 -189 55q-169 0 -283 -116.5t-114 -274.5q0 -115 72 -187.5t194 -72.5q52 0 104.5 15t81 29t68.5 38q81 40 113 -41l16 -37 q28 -69 -39 -115q-57 -40 -157.5 -75.5t-220.5 -35.5q-225 0 -359.5 129.5t-134.5 331.5z" />
<glyph unicode="d" horiz-adv-x="1245" d="M45 412q0 143 48 267t127.5 208.5t185 133t219.5 48.5q91 0 169.5 -37.5t116.5 -111.5h4q3 26 9 59l73 389q19 86 105 86h88q41 0 58.5 -22.5t8.5 -63.5l-247 -1282q-15 -86 -103 -86h-73q-41 0 -60.5 20t-11.5 54l8 41l10 41h-4q-55 -80 -143.5 -130.5t-190.5 -50.5 q-188 0 -292.5 117.5t-104.5 319.5zM309 430q0 -109 55 -172t152 -63q86 0 163.5 57.5t124 154.5t46.5 205q0 102 -52.5 168t-154.5 66q-59 0 -117.5 -29t-107 -81t-79 -132t-30.5 -174z" />
<glyph unicode="e" horiz-adv-x="1124" d="M45 424q0 131 46 250t125 205.5t192 138t241 51.5q204 0 313 -111.5t109 -291.5q0 -64 -18 -123q-25 -60 -107 -60h-635q-5 -45 4 -90q11 -89 75.5 -142.5t172.5 -53.5q112 0 244 67q38 19 68 8.5t43 -49.5l14 -39q25 -77 -41 -112q-178 -97 -342 -97 q-237 0 -370.5 126.5t-133.5 322.5zM348 641h463q4 30 4 55q0 83 -47 129.5t-123 46.5q-100 0 -179.5 -62t-117.5 -169z" />
<glyph unicode="f" horiz-adv-x="696" d="M90 86l146 737h-52q-41 0 -59.5 23.5t-9.5 66.5l8 37q15 80 102 80h49l11 49q19 94 65 166.5t99 112t116.5 64.5t108.5 32.5t84 7.5h30q41 0 59.5 -24t10.5 -66l-12 -53q-13 -74 -105 -80q-20 -1 -36 -3.5t-38 -8.5t-39.5 -17.5t-35 -29.5t-31 -46t-20.5 -65l-6 -39h139 q41 0 59 -24t10 -66l-8 -37q-15 -80 -100 -80h-141l-144 -737q-15 -86 -100 -86h-90q-85 0 -70 86z" />
<glyph unicode="g" horiz-adv-x="1226" d="M51 446q0 112 38 221.5t106 199.5t175.5 146t235.5 56q100 0 183.5 -37t121.5 -123h4q1 15 3 31l8 39q6 30 32 47.5t66 17.5h68q85 0 69 -86l-178 -911q-20 -103 -65.5 -185.5t-104.5 -136t-133 -89.5t-147.5 -51t-149.5 -15q-88 0 -180 19t-144 42q-22 10 -33 23.5 t-10 30t4.5 28t12.5 29.5l22 41q38 70 119 47q109 -39 201 -39q132 0 226.5 60.5t121.5 193.5l14 74l17 57h-4q-58 -78 -129 -117t-172 -39q-187 0 -292.5 118.5t-105.5 307.5zM315 473q0 -108 53.5 -170.5t153.5 -62.5q61 0 114 25.5t89.5 67.5t62.5 96t38 110t12 110 q0 199 -205 199q-75 0 -137 -33t-100.5 -86.5t-59.5 -119.5t-21 -136z" />
<glyph unicode="h" horiz-adv-x="1239" d="M31 86l248 1282q16 86 100 86h92q41 0 58.5 -22t9.5 -62l-84 -436q-4 -17 -9.5 -36t-9.5 -30l-4 -10h4q27 37 61 70.5t82.5 67t114 53.5t137.5 20q175 0 253.5 -105t39.5 -305l-110 -573q-15 -86 -103 -86h-90q-82 0 -67 86l104 532q21 104 -5.5 158.5t-121.5 54.5 q-133 0 -234.5 -101.5t-129.5 -252.5l-78 -391q-15 -86 -103 -86h-88q-85 0 -67 86z" />
<glyph unicode="i" horiz-adv-x="526" d="M336 1223q-41 0 -58.5 23t-9.5 65l11 61q18 82 104 82h88q42 0 59.5 -24t8.5 -66l-11 -61q-15 -80 -102 -80h-90zM33 86l168 872q16 86 102 86h88q41 0 59 -22.5t9 -63.5l-168 -872q-15 -86 -103 -86h-90q-80 0 -65 86z" />
<glyph unicode="j" horiz-adv-x="530" d="M340 1223q-43 0 -61 23.5t-9 64.5l13 63q15 80 98 80h90q41 0 60 -24.5t10 -67.5l-11 -59q-17 -80 -102 -80h-88zM14 -10l189 971q15 83 100 83h88q87 0 72 -88l-195 -995q-19 -94 -62 -167t-92.5 -112.5t-108 -65t-101.5 -33t-80 -7.5h-51q-42 0 -63 26.5t-13 65.5 l12 56q8 39 24 55t56 20l27 2q31 2 56.5 9t55.5 25.5t52.5 58t33.5 96.5z" />
<glyph unicode="k" horiz-adv-x="1093" d="M31 86l248 1282q16 86 102 86h88q41 0 59 -22.5t9 -63.5l-134 -692h127l279 311q43 57 113 57h112q52 0 62 -30.5t-27 -71.5l-354 -389l223 -451q22 -42 -1.5 -72t-76.5 -30h-94q-65 0 -88 59l-184 398h-134l-71 -371q-15 -86 -103 -86h-90q-80 0 -65 86z" />
<glyph unicode="l" horiz-adv-x="569" d="M74 326l205 1042q16 86 100 86h90q41 0 59.5 -22.5t10.5 -63.5l-199 -1022q-14 -69 2.5 -95t52.5 -30q29 -3 43 -23.5t8 -56.5l-14 -67q-16 -84 -104 -84q-28 0 -52.5 2.5t-52.5 8t-50 17t-43.5 28.5t-35.5 42.5t-22.5 58.5t-8 78.5t10.5 100.5z" />
<glyph unicode="m" horiz-adv-x="1851" d="M29 86l170 872q16 86 100 86h80q41 0 58.5 -22.5t8.5 -63.5l-12 -63l-14 -47h4q58 88 158.5 154.5t218.5 66.5q114 0 183.5 -55t82.5 -160h4q61 88 166 151.5t229 63.5q168 0 239 -104.5t32 -305.5l-111 -573q-18 -86 -102 -86h-90q-83 0 -68 86l102 522q11 61 12 110.5 t-30 81t-96 31.5q-119 0 -207 -107.5t-115 -254.5l-76 -383q-15 -86 -102 -86h-88q-85 0 -70 86l103 522q10 49 12 83.5t-6.5 69t-37.5 52.5t-79 18q-63 0 -119.5 -32t-97 -84.5t-68.5 -115.5t-41 -130l-75 -383q-15 -86 -101 -86h-90q-85 0 -67 86z" />
<glyph unicode="n" horiz-adv-x="1236" d="M29 86l170 872q16 86 100 86h80q41 0 58.5 -21.5t8.5 -61.5l-12 -66l-14 -47h4q29 40 64.5 75.5t85.5 70t116 55t139 20.5q177 0 254.5 -105.5t38.5 -304.5l-110 -573q-15 -86 -103 -86h-88q-84 0 -69 86l100 520q22 108 -5 166.5t-118 58.5q-132 0 -233.5 -102.5 t-130.5 -251.5l-78 -391q-15 -86 -101 -86h-90q-85 0 -67 86z" />
<glyph unicode="o" horiz-adv-x="1282" d="M43 438q0 175 94 322t242 228t311 81q227 0 370.5 -128t143.5 -333q0 -107 -36 -206t-99 -175.5t-144.5 -134t-176.5 -87.5t-191 -30q-227 0 -370.5 127.5t-143.5 335.5zM307 451q0 -115 71 -184.5t183 -69.5q70 0 138 29.5t121.5 80.5t86.5 126t33 159 q0 115 -70.5 185.5t-181.5 70.5q-93 0 -180.5 -50.5t-144 -143.5t-56.5 -203z" />
<glyph unicode="p" horiz-adv-x="1245" d="M-47 -324l248 1282q16 86 102 86h66q40 0 57.5 -19.5t11.5 -51.5l-8 -47l-12 -41h4q13 21 37.5 47t67.5 59.5t108 55.5t139 22q178 0 284.5 -122t106.5 -312q0 -148 -48.5 -274t-130 -209t-186.5 -130t-218 -47q-119 0 -195 53.5t-90 106.5h-4q0 -37 -10 -90l-72 -369 q-15 -86 -102 -86h-89q-82 0 -67 86zM358 430q0 -103 52 -169t153 -66q60 0 119.5 28.5t108 80t78.5 132t30 174.5q0 109 -55.5 172.5t-151.5 63.5q-74 0 -138 -37.5t-106 -97.5t-66 -133.5t-24 -147.5z" />
<glyph unicode="q" horiz-adv-x="1245" d="M45 410q0 143 48 268t128 209.5t185.5 133t218.5 48.5q219 0 303 -172h4q2 16 6 41l6 39q6 31 31.5 49t66.5 18h68q41 0 59.5 -22.5t10.5 -63.5l-250 -1282q-15 -86 -103 -86h-88q-85 0 -67 86l71 379q4 24 10 46.5t9 32.5l4 11h-4q-48 -70 -129 -120t-191 -50 q-187 0 -292 117.5t-105 317.5zM309 430q0 -109 56 -172t151 -63q86 0 163.5 57.5t124 154.5t46.5 205q0 102 -51.5 168t-153.5 66q-59 0 -118.5 -29t-108 -81t-79 -132t-30.5 -174z" />
<glyph unicode="r" horiz-adv-x="776" d="M29 86l170 872q16 86 102 86h80q84 0 68 -86l-19 -98l-20 -72h4q55 105 153 185t201 80q77 0 61 -90l-16 -80q-15 -82 -104 -82q-133 0 -229 -112.5t-126 -266.5l-65 -336q-15 -86 -103 -86h-88q-84 0 -69 86z" />
<glyph unicode="s" horiz-adv-x="913" d="M4 203l29 30q52 59 123 21q115 -70 223 -70q73 0 118.5 30t45.5 85q0 30 -24 54.5t-62 42.5t-84 37.5t-92 45.5t-84 59t-62 86t-24 119q0 104 60.5 179.5t155.5 111t212 35.5q105 0 184 -26t121 -54q63 -42 14 -110l-29 -37q-27 -37 -55.5 -43.5t-62.5 12.5 q-105 49 -197 49q-72 0 -115 -27t-43 -81q0 -32 24 -57.5t62 -44.5t84 -38.5t92 -46t84 -59t62 -85t24 -118.5q0 -150 -119.5 -239t-303.5 -89q-122 0 -220.5 38.5t-138.5 74.5q-59 48 -2 115z" />
<glyph unicode="t" horiz-adv-x="741" d="M137 373l88 450h-55q-40 0 -57.5 23.5t-10.5 66.5l9 37q15 80 100 80h61l41 213q19 86 103 86h82q85 0 69 -86l-43 -213h154q41 0 58.5 -24t8.5 -66l-6 -37q-15 -80 -100 -80h-154l-79 -405q-11 -46 -4 -79.5t17.5 -54.5t33 -34t41.5 -18.5t43 -8.5q46 -5 62 -25t7 -63 l-12 -63q-9 -44 -39 -63t-84 -19q-58 0 -111 12.5t-102 40.5t-80 73t-44.5 108.5t3.5 148.5z" />
<glyph unicode="u" horiz-adv-x="1226" d="M78 385l110 573q16 86 103 86h88q41 0 59.5 -22.5t10.5 -63.5l-103 -520q-20 -109 6.5 -167t118.5 -58q127 0 226 102.5t128 249.5l76 393q19 86 103 86h90q83 0 67 -86l-170 -872q-15 -86 -100 -86h-80q-85 0 -70 84l15 63q1 11 4 23t6 18l2 7h-4q-38 -55 -87.5 -100.5 t-133.5 -82.5t-178 -37q-172 0 -248.5 105.5t-38.5 304.5z" />
<glyph unicode="v" horiz-adv-x="1079" d="M256 70l-150 876q-6 44 18 71t71 27h88q73 0 79 -71l84 -578q4 -26 5.5 -65t1.5 -64v-26h4q36 94 67 155l310 578q33 71 108 71h107q47 0 60.5 -27t-11.5 -71l-488 -876q-36 -70 -108 -70h-164q-73 0 -82 70z" />
<glyph unicode="w" horiz-adv-x="1669" d="M215 72l-100 876q-3 43 22 69.5t70 26.5h88q39 0 57.5 -18t20.5 -57l47 -611v-112h4q20 57 47 112l293 611q30 73 108 73h84q75 0 78 -73l56 -611l2 -112h4q20 57 45 112l284 611q29 75 109 75h96q46 0 60.5 -26.5t-7.5 -69.5l-438 -876q-37 -72 -110 -72h-140 q-74 0 -80 74l-55 522l-4 113h-4q-20 -58 -47 -113l-258 -522q-35 -74 -111 -74h-141q-74 0 -80 72z" />
<glyph unicode="x" horiz-adv-x="1017" d="M-27 102l363 426l-191 414q-20 43 2.5 72.5t75.5 29.5h94q70 0 89 -61l86 -223q5 -16 9.5 -35.5t6.5 -30.5l2 -12h4q20 39 49 78l174 223q46 61 113 61h113q52 0 62 -29.5t-26 -72.5l-350 -414l195 -426q22 -43 -0.5 -72.5t-75.5 -29.5h-90q-71 0 -88 59l-103 244 q-5 13 -9.5 29t-6.5 26l-2 9h-4q-16 -35 -39 -64l-197 -244q-45 -59 -112 -59h-107q-51 0 -61.5 29.5t24.5 72.5z" />
<glyph unicode="y" horiz-adv-x="1079" d="M322 16l-218 928q-10 48 14 74t70 26h103q75 0 84 -69l92 -533q4 -29 7.5 -69t5.5 -65l1 -25h4q29 89 62 155l287 535q33 71 108 71h113q46 0 59.5 -27t-10.5 -71l-637 -1102q-79 -139 -190 -205.5t-230 -66.5q-83 0 -151 33q-66 34 -19 110l25 41q41 64 98 47 q40 -18 72 -18q54 0 104 38.5t88 100.5z" />
<glyph unicode="z" horiz-adv-x="1038" d="M-47 74l4 20q6 42 53 92l531 541q24 24 50.5 48t40.5 36l15 12v4q-30 -4 -96 -4h-348q-41 0 -59.5 24t-10.5 66l10 50q17 81 103 81h719q85 0 69 -73l-2 -23q-3 -18 -13.5 -36.5t-17 -26.5t-24.5 -27l-531 -543q-23 -24 -50.5 -48t-43.5 -36l-16 -12v-4q32 6 100 6h383 q41 0 58.5 -24t9.5 -66l-10 -51q-15 -80 -103 -80h-751q-81 0 -70 74z" />
<glyph unicode="{" horiz-adv-x="702" d="M135 145l39 199q27 135 -68 193q-34 22 -46 40.5t-5 53.5l17 80q3 18 9.5 32t19.5 25.5t24 18.5t33 20q46 19 87 66t56 128l33 175q15 74 43 133t64 95t73.5 61.5t78 37.5t69.5 16.5t55 4.5h26q86 0 68 -86l-6 -31q-15 -84 -103 -84q-18 0 -36 -6t-41.5 -22t-42.5 -53.5 t-29 -92.5l-43 -215q-12 -62 -39 -111.5t-57 -76t-58 -44t-46 -22.5l-19 -6v-4q2 -1 5.5 -2.5t14 -7.5t20 -13.5t23 -20t23 -27t20 -34t14 -42t5.5 -51t-6 -60.5l-48 -240q-6 -39 -7.5 -67t6.5 -47t16.5 -30.5t22.5 -17.5t24 -8t22 -2q86 0 70 -86l-6 -31q-19 -86 -102 -86 h-29q-23 0 -51.5 7.5t-61.5 24t-60.5 43t-49 65t-27 90t5.5 118.5z" />
<glyph unicode="|" horiz-adv-x="657" d="M225 -246v1790q0 86 84 86h53q84 0 84 -86v-1790q0 -84 -84 -84h-53q-84 0 -84 84z" />
<glyph unicode="}" horiz-adv-x="704" d="M-82 -86q19 86 102 86q19 0 37.5 6t41.5 22t42 53t29 91l47 240q13 64 40.5 114.5t57 76.5t57.5 43t46 22l18 4l2 4q-2 1 -5.5 2.5t-14 8t-19.5 14.5t-22.5 21t-23 27.5t-20 34.5t-14 42t-6 50t5.5 58l41 215q34 174 -86 174q-82 0 -67 84l6 31q18 86 102 86h35 q28 0 61.5 -10.5t72.5 -34.5t65.5 -63.5t40.5 -98.5t-2 -139l-33 -177q-17 -81 5 -128t61 -66q34 -24 46 -42.5t5 -53.5l-17 -80q-5 -35 -25 -53.5t-63 -40.5q-115 -58 -141 -193l-39 -199q-17 -88 -54.5 -154.5t-79 -102t-92 -57.5t-86 -28t-67.5 -6h-26q-41 0 -59.5 22.5 t-10.5 63.5z" />
<glyph unicode="~" horiz-adv-x="1198" d="M211 408h-41q-44 0 -66 23.5t-16 66.5q37 282 307 282q57 0 104.5 -19t79.5 -46.5t60.5 -55t62 -46.5t70.5 -19q86 0 115 100q17 41 35.5 59.5t54.5 18.5h41q43 0 65.5 -24t16.5 -66q-37 -283 -307 -283q-57 0 -104 19t-79 46.5t-60.5 54.5t-62.5 46t-71 19 q-85 0 -113 -101q-20 -41 -38 -58t-54 -17z" />
<glyph unicode="&#xa1;" horiz-adv-x="503" d="M354 541l-151 -863q-7 -42 -34 -65t-69 -23h-96q-84 0 -65 88l182 863q18 84 102 84h62q81 0 69 -84zM442 958l-12 -71q-15 -86 -102 -86h-80q-86 0 -70 86l12 74q18 83 105 83h80q83 0 67 -86z" />
<glyph unicode="&#xa2;" d="M438 68l19 90q-154 38 -245 159.5t-91 303.5q0 132 46 254t122.5 212t178.5 148t212 70l18 96q12 76 84 76h21q85 0 69 -93l-18 -90q64 -13 116 -41.5t86.5 -65.5t55 -69t35.5 -67q16 -39 2 -67t-53 -42l-82 -31q-36 -11 -57.5 0.5t-47.5 46.5q-62 107 -182 107 q-138 0 -240 -129.5t-102 -310.5q0 -111 55 -173.5t156 -62.5q125 0 238 119q29 29 54 36t60 -7l70 -29q43 -17 52.5 -48.5t-17.5 -66.5q-185 -232 -422 -250l-19 -92q-15 -76 -86 -76h-18q-89 0 -70 93z" />
<glyph unicode="&#xa3;" d="M0 90l10 57q15 80 101 80h41l79 410h-32q-81 0 -66 80l4 22q7 40 30.5 58t65.5 18h33l47 248q37 183 178 299.5t330 116.5q179 0 309 -103q54 -46 -12 -119l-39 -43q-53 -58 -123 -14q-63 39 -135 39q-91 0 -157.5 -52.5t-81.5 -131.5l-47 -240h276q85 0 70 -84l-4 -20 q-13 -74 -101 -74h-276l-80 -410h553q41 0 59.5 -23.5t9.5 -64.5l-10 -59q-17 -80 -102 -80h-864q-40 0 -57 23.5t-9 66.5z" />
<glyph unicode="&#xa5;" d="M168 381q-85 0 -72 76l2 14q12 68 101 68h247l15 67l-35 99h-195q-84 0 -71 75l2 15q11 65 88 65h127l-168 494q-14 43 9.5 71.5t72.5 28.5h110q72 0 84 -68l101 -321q10 -41 21.5 -100t17.5 -97l6 -39h4q67 132 133 236l225 321q44 68 113 68h121q51 0 63 -28t-20 -72 l-361 -494h117q84 0 70 -76l-2 -14q-11 -65 -99 -65h-196l-70 -99l-14 -67h248q39 0 58 -19.5t13 -56.5l-4 -14q-12 -68 -98 -68h-248l-57 -295q-15 -86 -103 -86h-96q-85 0 -70 86l58 295h-248z" />
<glyph unicode="&#xa7;" horiz-adv-x="931" d="M207 365l-6 614q-5 100 22.5 190t83.5 159t145.5 110t200.5 41q153 0 281 -80q35 -23 37.5 -55.5t-27.5 -63.5l-24 -29q-25 -28 -54 -31t-65 13q-72 33 -148 33q-128 0 -194 -81.5t-60 -213.5l2 -602q3 -41 -18 -63.5t-64 -22.5h-26q-83 0 -86 82zM14 72l27 28 q25 28 54 31.5t63 -12.5q68 -33 149 -33q128 0 194 81t60 214l-4 600q-2 42 19.5 65t62.5 23h29q40 0 62.5 -21t23.5 -61l6 -614q5 -100 -22.5 -190t-84 -159t-146.5 -110t-202 -41q-150 0 -278 80q-35 23 -38 56t25 63z" />
<glyph unicode="&#xa8;" horiz-adv-x="1009" d="M549 1591q-83 0 -68 86l13 68q15 84 102 84h29q85 0 67 -84l-10 -68q-15 -86 -102 -86h-31zM172 1591q-83 0 -68 86l13 68q15 84 102 84h31q82 0 67 -84l-12 -68q-15 -86 -102 -86h-31z" />
<glyph unicode="&#xa9;" horiz-adv-x="1673" d="M125 727q0 153 57.5 292t155 239.5t233 159.5t285.5 59t286.5 -59t235.5 -159.5t157 -239.5t58 -292t-58 -292.5t-157 -240t-235.5 -160t-286.5 -59.5t-285.5 59.5t-233 160t-155 240t-57.5 292.5zM307 727q0 -162 72 -296.5t198 -212t279 -77.5q154 0 281.5 77.5 t200.5 212t73 296.5q0 161 -73 295t-200.5 211.5t-281.5 77.5q-153 0 -279 -77.5t-198 -211.5t-72 -295zM483 723q0 108 48 199t137 145.5t202 54.5q97 0 172 -43t113 -96q39 -53 -8 -90l-31 -27q-24 -19 -50.5 -13t-49.5 32q-62 67 -142 67q-93 0 -148.5 -65t-55.5 -168 q0 -97 54.5 -161t149.5 -64q91 0 154 73q46 49 88 13l29 -25q47 -40 10 -94q-44 -53 -116.5 -95t-168.5 -42q-113 0 -202 54.5t-137 145.5t-48 199z" />
<glyph unicode="&#xaa;" horiz-adv-x="833" d="M184 965q0 61 29.5 107t73 71.5t102.5 41.5t107 20.5t98 4.5h35l4 15q11 51 -14 78.5t-82 27.5q-51 0 -113 -24q-26 -12 -52 -7t-34 31l-8 21q-21 57 61 90q76 33 182 33q127 0 187.5 -55.5t60.5 -151.5q0 -18 -8 -68l-63 -319q-15 -84 -86 -84h-19q-37 0 -53 26.5 t-6 53.5l6 28h-4q-3 -5 -8.5 -13t-25.5 -29t-43 -37t-60 -29t-76 -13q-81 0 -136 49.5t-55 131.5zM375 985q0 -57 69 -57q53 0 100.5 48t57.5 99l2 15h-22q-32 0 -63 -4t-66 -14t-56.5 -32.5t-21.5 -54.5zM119 614l2 13q4 31 26.5 44t65.5 13h424q43 0 59 -18t11 -50l-2 -12 q-11 -59 -93 -59h-424q-84 0 -69 69z" />
<glyph unicode="&#xab;" horiz-adv-x="1146" d="M563 635l330 321q43 43 106 43h48q58 0 71 -32t-28 -72l-345 -328l197 -307q29 -43 13 -72.5t-68 -29.5h-49q-66 0 -101 55l-188 301q-40 67 14 121zM281 213l-191 303q-40 64 12 119l299 319q42 45 103 45h53q56 0 69.5 -31.5t-24.5 -72.5l-313 -328l196 -307 q29 -43 13 -72.5t-68 -29.5h-47q-67 0 -102 55z" />
<glyph unicode="&#xac;" horiz-adv-x="1280" d="M125 780v31q0 84 84 84h831q84 0 84 -84v-432q0 -86 -84 -86h-39q-86 0 -86 86v315h-706q-84 0 -84 86z" />
<glyph unicode="&#xad;" horiz-adv-x="860" d="M111 563l12 60q15 75 92 75h444q43 0 64 -25t12 -67l-12 -59q-12 -76 -90 -76h-445q-44 0 -64.5 24.5t-12.5 67.5z" />
<glyph unicode="&#xae;" horiz-adv-x="1673" d="M125 727q0 153 58 292t156 239.5t233 159.5t284 59q151 0 287.5 -59t235 -159.5t156.5 -239.5t58 -292t-58 -292.5t-156.5 -240t-235 -160t-287.5 -59.5q-198 0 -366 100.5t-266 273.5t-99 378zM307 727q0 -162 72.5 -296.5t198.5 -212t278 -77.5q155 0 283 77.5t201 212 t73 296.5q0 161 -73 295t-201 211.5t-283 77.5q-114 0 -216 -45.5t-175 -123.5t-115.5 -186.5t-42.5 -228.5zM600 442v578q0 86 84 86h227q112 0 179 -65t67 -173q0 -79 -42 -130t-91 -64v-4q11 -8 27 -43l88 -170q23 -44 11 -72.5t-52 -28.5h-27q-70 0 -100 64l-99 213h-98 v-191q0 -86 -80 -86h-14q-80 0 -80 86zM774 756h96q51 0 80 30t29 82q0 53 -28.5 82t-78.5 29h-98v-223z" />
<glyph unicode="&#xaf;" horiz-adv-x="1009" d="M199 1604q-42 0 -60.5 22.5t-9.5 63.5l2 14q14 78 100 78h367q85 0 70 -86l-2 -15q-14 -77 -101 -77h-366z" />
<glyph unicode="&#xb0;" horiz-adv-x="806" d="M842 1192q0 -92 -54 -175.5t-139.5 -132t-175.5 -48.5q-135 0 -220 80t-85 204q0 92 53 176t139 134.5t177 50.5q133 0 219 -82.5t86 -206.5zM365 1135q0 -50 32.5 -81.5t85.5 -31.5q62 0 111 47t49 109q0 51 -33 82.5t-86 31.5q-63 0 -111 -47.5t-48 -109.5z" />
<glyph unicode="&#xb1;" d="M18 569v31q0 86 84 86h359v399q0 41 22.5 63.5t63.5 22.5h41q84 0 84 -86v-399h358q84 0 84 -86v-31q0 -86 -84 -86h-358v-397q0 -86 -84 -86h-41q-86 0 -86 86v397h-359q-84 0 -84 86zM131 -174h870q41 0 63.5 -22.5t22.5 -63.5v-31q0 -84 -86 -84h-870q-86 0 -86 84v31 q0 41 22.5 63.5t63.5 22.5z" />
<glyph unicode="&#xb2;" horiz-adv-x="796" d="M217 866q-74 0 -74 80q10 181 281 346q20 11 59.5 33.5t61 34.5t51.5 33.5t45.5 38.5t27 40t11.5 48q0 41 -30.5 63.5t-78.5 22.5q-52 0 -116 -39q-33 -19 -50.5 -25t-32.5 -2t-32 23l-14 18q-50 58 18 115q44 37 109 63.5t137 26.5q125 0 208 -66.5t83 -181.5 q0 -72 -33 -132t-83 -98.5t-111 -75t-115.5 -63t-98.5 -61.5t-57 -72h328q85 0 71 -86l-2 -12q-14 -72 -100 -72h-463z" />
<glyph unicode="&#xb3;" horiz-adv-x="796" d="M438 846q-83 0 -151 27.5t-107 60.5q-56 45 -2 104l8 11q31 36 56.5 37.5t58.5 -19.5q25 -14 36 -20t39.5 -14.5t57.5 -8.5q75 0 123.5 41t48.5 102q0 48 -36.5 75.5t-92.5 27.5h-20q-52 0 -72 49q-11 18 -4.5 40.5t37.5 51.5l143 135l64 49l2 4q-49 -6 -80 -6h-168 q-85 0 -72 86l2 13q14 73 101 73h405q39 0 58 -17t14 -48l-2 -14q-2 -22 -13 -40t-45 -49l-198 -186q80 -28 129 -86t49 -143q0 -137 -108.5 -236.5t-260.5 -99.5z" />
<glyph unicode="&#xb4;" horiz-adv-x="1009" d="M254 1550q-43 0 -53 28.5t22 68.5l94 122q46 60 113 60h84q54 0 60 -31t-37 -72l-115 -124q-52 -52 -115 -52h-53z" />
<glyph unicode="&#xb5;" horiz-adv-x="1234" d="M-49 -324l248 1285q15 83 100 83h90q41 0 59 -22.5t9 -65.5l-103 -530q-20 -103 5.5 -158t115.5 -55q135 0 235 106.5t128 253.5l75 388q15 83 101 83h88q43 0 60.5 -22.5t8.5 -65.5l-167 -872q-18 -84 -103 -84h-78q-85 0 -69 86l10 59l16 50h-4q-57 -89 -164 -154.5 t-227 -65.5q-61 0 -101 17t-53 41h-4q-6 -111 -18 -185l-35 -174q-15 -84 -100 -84h-56q-41 0 -58.5 22.5t-8.5 63.5z" />
<glyph unicode="&#xb6;" horiz-adv-x="1280" d="M436 -16l99 510q-123 10 -215 72t-137.5 154t-45.5 200q0 145 85.5 270.5t213 194.5t258.5 69h566q42 0 59.5 -24t9.5 -66l-12 -57q-15 -80 -100 -80h-351l-241 -1243q-15 -86 -103 -86h-18q-83 0 -68 86zM752 -16l202 1044q15 86 103 86h18q85 0 70 -86l-203 -1044 q-18 -86 -102 -86h-19q-84 0 -69 86z" />
<glyph unicode="&#xb7;" horiz-adv-x="499" d="M180 467q-84 0 -69 84l18 94q18 84 102 84h82q85 0 70 -84l-18 -94q-15 -84 -101 -84h-84z" />
<glyph unicode="&#xb8;" horiz-adv-x="1009" d="M281 -109l69 150h127l-53 -131q59 -9 92 -45t33 -94q0 -93 -77 -145t-177 -52q-64 0 -92.5 20t-16.5 58l11 26q10 37 45 37q7 0 23 -3t28 -3q34 0 61 16t27 50q0 7 -1.5 13t-5.5 10.5t-6.5 8t-9.5 6.5t-10 4.5t-12.5 3.5t-12 2.5t-13 2.5t-11.5 2q-47 6 -18 63z" />
<glyph unicode="&#xb9;" horiz-adv-x="796" d="M270 866q-41 0 -58.5 22t-8.5 62l2 13q11 73 84 73h117l77 410q4 17 9 34.5t8 26.5l4 9h-4q-11 -15 -27 -27l-47 -37q-17 -14 -37 -12t-35 20l-18 25q-45 54 31 114l151 123q51 43 113 43h22q87 0 72 -88l-125 -641h98q87 0 72 -84l-2 -12q-15 -74 -100 -74h-398z" />
<glyph unicode="&#xba;" horiz-adv-x="933" d="M203 1077q0 110 59.5 202.5t154 144t197.5 51.5q139 0 228.5 -80.5t89.5 -210.5q0 -111 -60.5 -203.5t-155 -143.5t-198.5 -51q-138 0 -226.5 81t-88.5 210zM391 1092q0 -64 39 -103t102 -39q81 0 146 63.5t65 157.5q0 63 -39.5 102.5t-101.5 39.5q-81 0 -146 -64.5 t-65 -156.5zM213 545q-43 0 -62 17.5t-12 51.5l2 13q11 57 97 57h489q42 0 61 -17.5t13 -50.5l-2 -12q-10 -59 -97 -59h-489z" />
<glyph unicode="&#xbb;" horiz-adv-x="1142" d="M530 262l314 328l-197 307q-29 43 -13 72.5t68 29.5h50q65 0 100 -55l190 -303q40 -64 -12 -119l-297 -319q-45 -45 -104 -45h-54q-56 0 -69.5 31.5t24.5 72.5zM43 262l344 328l-197 307q-29 43 -13 72.5t69 29.5h49q65 0 100 -55l189 -301q40 -66 -15 -121l-329 -321 q-43 -43 -107 -43h-47q-58 0 -71 32t28 72z" />
<glyph unicode="&#xbc;" horiz-adv-x="1980" d="M1561 0q-86 0 -68 86l23 117h-332q-41 0 -59.5 18t-12.5 51l4 23q4 19 11.5 33.5t12.5 21.5t25 31l402 463q47 55 112 55h78q40 0 58.5 -22.5t9.5 -63.5l-86 -442h53q73 0 59 -80l-4 -19q-11 -69 -86 -69h-53l-25 -117q-15 -86 -100 -86h-22zM1335 371h213l43 225 q4 24 12 52t13 44l6 17h-4q-37 -56 -72 -97l-209 -237zM469 100l862 1291q40 63 109 63h41q43 0 50 -28t-24 -74l-860 -1291q-41 -61 -110 -61h-43q-41 0 -47.5 28t22.5 72zM166 555q-41 0 -59 22t-9 62l2 12q12 74 84 74h117l78 410l20 69h-4q-10 -14 -26 -26l-47 -37 q-17 -14 -37 -12t-35 20l-19 25q-45 54 31 114l152 123q51 43 112 43h23q87 0 72 -88l-125 -641h98q87 0 72 -84l-2 -12q-15 -74 -101 -74h-397z" />
<glyph unicode="&#xbd;" horiz-adv-x="1941" d="M463 100l862 1291q40 63 109 63h41q43 0 50 -28t-24 -74l-860 -1291q-41 -61 -111 -61h-43q-41 0 -47.5 28t23.5 72zM156 555q-41 0 -59 22t-9 62l2 12q12 74 84 74h117l78 410l20 69h-4q-11 -14 -27 -26l-47 -37q-40 -31 -71 8l-19 25q-45 54 31 114l151 123 q51 43 113 43h23q86 0 71 -88l-125 -641h99q86 0 71 -84l-2 -12q-15 -74 -100 -74h-397zM1200 0q-74 0 -74 80q10 181 281 346q20 12 59.5 33.5t61 34t51 33.5t45.5 38t27.5 40t11.5 48q0 41 -30.5 63.5t-78.5 22.5q-52 0 -116 -39q-33 -19 -50.5 -25t-32.5 -2t-32 23 l-14 19q-49 57 18 114q44 37 109 64t137 27q125 0 208 -66.5t83 -181.5q0 -72 -33 -132t-83 -98.5t-111 -75t-115.5 -63t-98.5 -61.5t-57 -72h328q85 0 71 -86l-2 -12q-14 -72 -100 -72h-463z" />
<glyph unicode="&#xbe;" horiz-adv-x="1998" d="M383 535q-83 0 -151 27.5t-107 60.5q-56 45 -2 104l8 10q32 36 57 38t58 -19q25 -14 36 -20t39.5 -14.5t57.5 -8.5q75 0 123.5 41t48.5 102q0 48 -36.5 75t-92.5 27h-21q-50 0 -71 50q-11 18 -5 40.5t37 51.5l144 135l63 49l2 4q-48 -6 -79 -6h-168q-85 0 -72 86l2 12 q14 74 100 74h406q39 0 57.5 -17t13.5 -48l-2 -15q-2 -22 -12.5 -39.5t-44.5 -48.5l-199 -186q80 -28 129.5 -86.5t49.5 -143.5q0 -137 -108.5 -236t-260.5 -99zM487 100l863 1291q40 63 108 63h41q43 0 50.5 -28t-23.5 -74l-860 -1291q-41 -61 -111 -61h-43q-41 0 -47.5 28 t22.5 72zM1579 0q-86 0 -68 86l23 117h-332q-41 0 -59.5 18t-12.5 51l5 23q4 19 11.5 33.5t12.5 21.5t25 31l401 463q47 55 113 55h78q40 0 58 -22.5t9 -63.5l-86 -442h53q74 0 60 -80l-4 -19q-11 -69 -86 -69h-54l-24 -117q-15 -86 -100 -86h-23zM1354 371h213l43 225 q4 24 11.5 52t12.5 44l6 17h-4q-36 -56 -71 -97l-209 -237z" />
<glyph unicode="&#xbf;" horiz-adv-x="940" d="M594 625q42 0 60.5 -22.5t9.5 -63.5l-7 -31q-15 -76 -64.5 -141.5t-109.5 -112t-119 -91t-101.5 -97.5t-47.5 -111q-6 -66 41 -110t125 -44q69 0 162 41q86 42 119 -20l30 -60q36 -70 -37 -112q-55 -36 -137.5 -62t-173.5 -26q-183 0 -294 92t-111 254q0 71 23 132.5 t60.5 107t83.5 86t94.5 76t91 68.5t75 72t43.5 80l10 39q10 32 31.5 44t60.5 12h82zM745 954l-14 -73q-15 -80 -100 -80h-82q-42 0 -60.5 25t-9.5 67l15 74q17 77 100 77h82q41 0 59 -24t10 -66z" />
<glyph unicode="&#xc0;" horiz-adv-x="1298" d="M-66 98l691 1286q37 70 110 70h152q73 0 82 -70l205 -1286q6 -44 -18.5 -71t-70.5 -27h-94q-73 0 -82 70l-43 303h-510l-159 -301q-37 -72 -109 -72h-102q-47 0 -61 27t9 71zM461 588h381l-56 389q-4 36 -7 92.5t-4 94.5l-1 38h-4q-59 -143 -100 -225zM791 1550 q-65 0 -99 52l-76 124q-27 40 -9.5 71.5t71.5 31.5h70q61 0 86 -60l57 -124q19 -34 3.5 -64.5t-58.5 -30.5h-45z" />
<glyph unicode="&#xc1;" horiz-adv-x="1298" d="M-66 98l691 1286q37 70 110 70h152q73 0 82 -70l205 -1286q6 -44 -18.5 -71t-70.5 -27h-94q-73 0 -82 70l-43 303h-510l-159 -301q-37 -72 -109 -72h-102q-47 0 -61 27t9 71zM461 588h381l-56 389q-4 36 -7 92.5t-4 94.5l-1 38h-4q-59 -143 -100 -225zM819 1550 q-43 0 -53 28.5t22 68.5l95 122q46 60 112 60h84q54 0 60 -31t-37 -72l-115 -124q-52 -52 -115 -52h-53z" />
<glyph unicode="&#xc2;" horiz-adv-x="1298" d="M-66 98l691 1286q37 70 110 70h152q73 0 82 -70l205 -1286q6 -44 -18.5 -71t-70.5 -27h-94q-73 0 -82 70l-43 303h-510l-159 -301q-37 -72 -109 -72h-102q-47 0 -61 27t9 71zM461 588h381l-56 389q-4 36 -7 92.5t-4 94.5l-1 38h-4q-59 -143 -100 -225zM614 1550 q-46 0 -51 30.5t33 74.5l104 119q49 55 115 55h129q67 0 92 -55l60 -119q21 -44 4 -74.5t-62 -30.5h-47q-33 0 -49 13.5t-29 46.5l-47 110h-4l-90 -110q-25 -34 -45 -47t-53 -13h-60z" />
<glyph unicode="&#xc3;" horiz-adv-x="1298" d="M-66 98l691 1286q37 70 110 70h152q73 0 82 -70l205 -1286q6 -44 -18.5 -71t-70.5 -27h-94q-73 0 -82 70l-43 303h-510l-159 -301q-37 -72 -109 -72h-102q-47 0 -61 27t9 71zM461 588h381l-56 389q-4 36 -7 92.5t-4 94.5l-1 38h-4q-59 -143 -100 -225zM547 1552 q-62 0 -62 62q0 66 54 127q75 92 194 92q51 0 90.5 -21t60.5 -45.5t49 -45.5t58 -21q57 0 84 80q19 47 82 47h21q29 0 46 -11t17 -44q0 -66 -53 -132q-77 -94 -195 -94q-42 0 -76 13.5t-55.5 33t-40.5 39.5t-41 33.5t-47 13.5q-59 0 -88 -82q-20 -45 -78 -45h-20z" />
<glyph unicode="&#xc4;" horiz-adv-x="1298" d="M-66 98l691 1286q37 70 110 70h152q73 0 82 -70l205 -1286q6 -44 -18.5 -71t-70.5 -27h-94q-73 0 -82 70l-43 303h-510l-159 -301q-37 -72 -109 -72h-102q-47 0 -61 27t9 71zM461 588h381l-56 389q-4 36 -7 92.5t-4 94.5l-1 38h-4q-59 -143 -100 -225zM1014 1591 q-83 0 -68 86l12 68q7 41 34 62.5t69 21.5h29q85 0 67 -84l-10 -68q-15 -86 -103 -86h-30zM637 1591q-83 0 -68 86l13 68q15 84 102 84h31q82 0 67 -84l-12 -68q-15 -86 -102 -86h-31z" />
<glyph unicode="&#xc5;" horiz-adv-x="1298" d="M-66 98l691 1286q37 70 110 70h152q73 0 82 -70l205 -1286q6 -44 -18.5 -71t-70.5 -27h-94q-73 0 -82 70l-43 303h-510l-159 -301q-37 -72 -109 -72h-102q-47 0 -61 27t9 71zM461 588h381l-56 389q-4 36 -7 92.5t-4 94.5l-1 38h-4q-59 -143 -100 -225zM1055 1698 q0 -78 -66.5 -125t-144.5 -47q-80 0 -132.5 37.5t-52.5 107.5q0 81 64 128.5t145 47.5q80 0 133.5 -38.5t53.5 -110.5zM786 1669q0 -25 15 -39t43 -14q34 0 59 25t25 61q0 25 -16 41t-42 16q-34 0 -59 -26t-25 -64z" />
<glyph unicode="&#xc6;" horiz-adv-x="1816" d="M-86 98l784 1291q39 65 111 65h993q41 0 58.5 -24t9.5 -66l-10 -57q-14 -80 -103 -80h-522l-74 -381h406q41 0 58.5 -24t8.5 -66l-10 -58q-17 -80 -102 -80h-406l-76 -391h553q41 0 59 -24t9 -66l-8 -57q-17 -80 -105 -80h-731q-82 0 -67 86l104 537h-346l-328 -557 q-37 -66 -108 -66h-111q-47 0 -60 27.5t13 70.5zM633 838h262l78 389h-109z" />
<glyph unicode="&#xc7;" horiz-adv-x="1419" d="M578 -109l43 95q-242 35 -383.5 205.5t-141.5 424.5q0 173 70.5 332.5t188.5 275.5t280 185.5t338 69.5q159 0 280 -46t183 -100q60 -55 8 -119l-47 -59q-19 -24 -42 -30t-39 -1.5t-38 15.5q-148 98 -315 98q-125 0 -237 -52.5t-189.5 -138t-122.5 -196.5t-45 -225 q0 -176 106 -292t293 -116q62 0 120 12t111.5 36.5t79.5 39t70 41.5q79 44 117 -29l28 -57q37 -71 -24 -117q-47 -35 -114 -69.5t-181 -66t-227 -32.5l-27 -65q59 -9 92 -45t33 -94q0 -93 -77 -145t-177 -52q-64 0 -92.5 20t-16.5 58l11 26q10 37 45 37q7 0 23 -3t28 -3 q34 0 61 16t27 50q0 7 -1.5 13t-5.5 10.5t-6.5 8t-9.5 6.5t-10 4.5t-12.5 3.5t-12 2.5t-13 2.5t-11.5 2q-47 6 -18 63z" />
<glyph unicode="&#xc8;" horiz-adv-x="1134" d="M68 86l247 1282q7 41 34.5 63.5t68.5 22.5h700q41 0 59 -25t9 -67l-10 -57q-14 -78 -101 -78h-522l-74 -381h406q40 0 57.5 -25t9.5 -67l-12 -58q-14 -78 -102 -78h-406l-76 -391h555q41 0 59.5 -25t10.5 -67l-10 -57q-14 -78 -103 -78h-733q-82 0 -67 86zM762 1550 q-64 0 -98 52l-76 124q-28 40 -10.5 71.5t71.5 31.5h70q61 0 86 -60l57 -124q19 -34 3.5 -64.5t-58.5 -30.5h-45z" />
<glyph unicode="&#xc9;" horiz-adv-x="1134" d="M68 86l247 1282q7 41 34.5 63.5t68.5 22.5h700q41 0 59 -25t9 -67l-10 -57q-14 -78 -101 -78h-522l-74 -381h406q40 0 57.5 -25t9.5 -67l-12 -58q-14 -78 -102 -78h-406l-76 -391h555q41 0 59.5 -25t10.5 -67l-10 -57q-14 -78 -103 -78h-733q-82 0 -67 86zM788 1550 q-43 0 -52.5 28.5t22.5 68.5l94 122q46 60 113 60h84q35 0 50 -14t7.5 -38t-35.5 -51l-115 -124q-52 -52 -114 -52h-54z" />
<glyph unicode="&#xca;" horiz-adv-x="1134" d="M68 86l247 1282q7 41 34.5 63.5t68.5 22.5h700q41 0 59 -25t9 -67l-10 -57q-14 -78 -101 -78h-522l-74 -381h406q40 0 57.5 -25t9.5 -67l-12 -58q-14 -78 -102 -78h-406l-76 -391h555q41 0 59.5 -25t10.5 -67l-10 -57q-14 -78 -103 -78h-733q-82 0 -67 86zM584 1550 q-46 0 -51.5 30.5t32.5 74.5l105 119q49 55 114 55h129q68 0 93 -55l59 -119q21 -44 4.5 -74.5t-61.5 -30.5h-47q-33 0 -49 13.5t-29 46.5l-47 110h-5l-90 -110q-25 -34 -45 -47t-53 -13h-59z" />
<glyph unicode="&#xcb;" horiz-adv-x="1134" d="M68 86l247 1282q7 41 34.5 63.5t68.5 22.5h700q41 0 59 -25t9 -67l-10 -57q-14 -78 -101 -78h-522l-74 -381h406q40 0 57.5 -25t9.5 -67l-12 -58q-14 -78 -102 -78h-406l-76 -391h555q41 0 59.5 -25t10.5 -67l-10 -57q-14 -78 -103 -78h-733q-82 0 -67 86zM985 1591 q-82 0 -67 86l12 68q15 84 102 84h29q85 0 67 -84l-10 -68q-15 -86 -102 -86h-31zM608 1591q-82 0 -67 86l12 68q15 84 102 84h31q83 0 68 -84l-13 -68q-15 -86 -102 -86h-31z" />
<glyph unicode="&#xcc;" horiz-adv-x="600" d="M68 86l247 1282q19 86 103 86h94q84 0 68 -86l-250 -1282q-15 -86 -103 -86h-92q-82 0 -67 86zM442 1550q-64 0 -98 52l-76 124q-27 40 -9.5 71.5t71.5 31.5h69q61 0 86 -60l58 -124q19 -34 3 -64.5t-59 -30.5h-45z" />
<glyph unicode="&#xcd;" horiz-adv-x="600" d="M68 86l247 1282q19 86 103 86h94q84 0 68 -86l-250 -1282q-15 -86 -103 -86h-92q-82 0 -67 86zM471 1550q-43 0 -53 28.5t22 68.5l95 122q46 60 112 60h84q54 0 60 -31t-37 -72l-115 -124q-52 -52 -115 -52h-53z" />
<glyph unicode="&#xce;" horiz-adv-x="600" d="M68 86l247 1282q19 86 103 86h94q84 0 68 -86l-250 -1282q-15 -86 -103 -86h-92q-82 0 -67 86zM266 1550q-46 0 -51 30.5t33 74.5l104 119q49 55 115 55h129q67 0 92 -55l60 -119q21 -44 4 -74.5t-62 -30.5h-47q-33 0 -49 13.5t-29 46.5l-47 110h-4l-90 -110 q-25 -34 -45 -47t-53 -13h-60z" />
<glyph unicode="&#xcf;" horiz-adv-x="600" d="M68 86l247 1282q19 86 103 86h94q84 0 68 -86l-250 -1282q-15 -86 -103 -86h-92q-82 0 -67 86zM668 1591q-83 0 -68 86l12 68q7 41 34 62.5t69 21.5h28q86 0 68 -84l-10 -68q-15 -86 -103 -86h-30zM291 1591q-83 0 -68 86l13 68q15 84 102 84h31q82 0 67 -84l-12 -68 q-15 -86 -102 -86h-31z" />
<glyph unicode="&#xd0;" horiz-adv-x="1495" d="M74 711l8 45q15 75 92 75h41l107 547q15 76 92 76h377q307 0 481 -150.5t174 -420.5q0 -181 -63.5 -343t-175 -281t-272 -189t-345.5 -70h-440q-44 0 -64.5 25t-11.5 69l100 522h-37q-37 0 -54.5 25.5t-8.5 69.5zM360 227h220q129 0 241 49.5t189.5 134.5t121.5 201.5 t44 247.5q0 178 -106.5 272.5t-295.5 94.5h-217l-78 -396h176q43 0 64 -25t12 -69l-10 -45q-12 -76 -92 -76h-193z" />
<glyph unicode="&#xd1;" horiz-adv-x="1525" d="M68 86l249 1282q7 41 34.5 63.5t68.5 22.5h108q71 0 93 -57l362 -783q16 -38 35.5 -94.5t31.5 -93.5l11 -37h4q15 139 31 225l145 754q16 86 102 86h95q83 0 67 -86l-250 -1282q-15 -86 -102 -86h-109q-68 0 -90 57l-364 781q-17 38 -37 94.5t-31 93.5l-12 37h-4 q-13 -139 -29 -225l-145 -752q-15 -86 -103 -86h-94q-82 0 -67 86zM662 1552q-62 0 -62 62q0 68 53 127q75 92 195 92q51 0 90.5 -21t60.5 -45.5t49 -45.5t58 -21q57 0 84 80q19 47 82 47h20q29 0 46.5 -11t17.5 -44q0 -66 -53 -132q-77 -94 -195 -94q-42 0 -76 13.5 t-55.5 33t-40.5 39.5t-41 33.5t-47 13.5q-59 0 -88 -82q-20 -45 -78 -45h-20z" />
<glyph unicode="&#xd2;" horiz-adv-x="1662" d="M754 -25q-296 0 -478 179t-182 460q0 171 72.5 331.5t190.5 277t275.5 186.5t321.5 70q147 0 271.5 -47t210 -129.5t133 -198t47.5 -250.5q0 -174 -73.5 -337t-192.5 -281t-276.5 -189.5t-319.5 -71.5zM952 1237q-110 0 -217 -48.5t-188.5 -129t-131.5 -194t-50 -236.5 q0 -183 109.5 -297.5t283.5 -114.5q108 0 214 49.5t188 131.5t132.5 198.5t50.5 241.5q0 178 -108.5 288.5t-282.5 110.5zM965 1550q-65 0 -99 52l-75 124q-28 40 -10.5 71.5t71.5 31.5h70q61 0 86 -60l57 -124q19 -34 3.5 -64.5t-58.5 -30.5h-45z" />
<glyph unicode="&#xd3;" horiz-adv-x="1662" d="M754 -25q-296 0 -478 179t-182 460q0 171 72.5 331.5t190.5 277t275.5 186.5t321.5 70q147 0 271.5 -47t210 -129.5t133 -198t47.5 -250.5q0 -174 -73.5 -337t-192.5 -281t-276.5 -189.5t-319.5 -71.5zM952 1237q-110 0 -217 -48.5t-188.5 -129t-131.5 -194t-50 -236.5 q0 -183 109.5 -297.5t283.5 -114.5q108 0 214 49.5t188 131.5t132.5 198.5t50.5 241.5q0 178 -108.5 288.5t-282.5 110.5zM993 1550q-43 0 -52.5 28.5t22.5 68.5l94 122q46 60 112 60h84q54 0 60 -31t-37 -72l-115 -124q-52 -52 -114 -52h-54z" />
<glyph unicode="&#xd4;" horiz-adv-x="1662" d="M754 -25q-296 0 -478 179t-182 460q0 171 72.5 331.5t190.5 277t275.5 186.5t321.5 70q147 0 271.5 -47t210 -129.5t133 -198t47.5 -250.5q0 -174 -73.5 -337t-192.5 -281t-276.5 -189.5t-319.5 -71.5zM952 1237q-110 0 -217 -48.5t-188.5 -129t-131.5 -194t-50 -236.5 q0 -183 109.5 -297.5t283.5 -114.5q108 0 214 49.5t188 131.5t132.5 198.5t50.5 241.5q0 178 -108.5 288.5t-282.5 110.5zM788 1550q-46 0 -51 30.5t33 74.5l104 119q49 55 115 55h129q67 0 92 -55l60 -119q21 -44 4 -74.5t-62 -30.5h-47q-33 0 -49 13.5t-29 46.5l-47 110 h-4l-90 -110q-25 -34 -45 -47t-53 -13h-60z" />
<glyph unicode="&#xd5;" horiz-adv-x="1662" d="M754 -25q-296 0 -478 179t-182 460q0 171 72.5 331.5t190.5 277t275.5 186.5t321.5 70q147 0 271.5 -47t210 -129.5t133 -198t47.5 -250.5q0 -174 -73.5 -337t-192.5 -281t-276.5 -189.5t-319.5 -71.5zM952 1237q-110 0 -217 -48.5t-188.5 -129t-131.5 -194t-50 -236.5 q0 -183 109.5 -297.5t283.5 -114.5q108 0 214 49.5t188 131.5t132.5 198.5t50.5 241.5q0 178 -108.5 288.5t-282.5 110.5zM721 1552q-62 0 -62 62q0 66 54 127q75 92 194 92q51 0 90.5 -21t60.5 -45.5t49 -45.5t58 -21q57 0 84 80q19 47 82 47h21q29 0 46 -11t17 -44 q0 -66 -53 -132q-77 -94 -195 -94q-42 0 -76 13.5t-55.5 33t-40.5 39.5t-41 33.5t-47 13.5q-59 0 -88 -82q-20 -45 -78 -45h-20z" />
<glyph unicode="&#xd6;" horiz-adv-x="1662" d="M754 -25q-296 0 -478 179t-182 460q0 171 72.5 331.5t190.5 277t275.5 186.5t321.5 70q147 0 271.5 -47t210 -129.5t133 -198t47.5 -250.5q0 -174 -73.5 -337t-192.5 -281t-276.5 -189.5t-319.5 -71.5zM952 1237q-110 0 -217 -48.5t-188.5 -129t-131.5 -194t-50 -236.5 q0 -183 109.5 -297.5t283.5 -114.5q108 0 214 49.5t188 131.5t132.5 198.5t50.5 241.5q0 178 -108.5 288.5t-282.5 110.5zM1188 1591q-83 0 -68 86l13 68q15 84 102 84h29q85 0 67 -84l-10 -68q-15 -86 -102 -86h-31zM811 1591q-83 0 -68 86l13 68q15 84 102 84h31 q82 0 67 -84l-12 -68q-15 -86 -102 -86h-31z" />
<glyph unicode="&#xd7;" d="M109 205l346 381l-346 381q-56 62 2 120l20 23q64 61 121 -2l340 -375l340 375q60 63 121 2l22 -23q58 -58 2 -120l-348 -381l348 -383q57 -60 -2 -119l-22 -23q-60 -63 -121 2l-340 375l-340 -375q-58 -65 -121 -2l-20 23q-58 58 -2 121z" />
<glyph unicode="&#xd8;" horiz-adv-x="1662" d="M754 -25q-243 0 -412 121l-90 -98q-49 -52 -100 -10q-47 41 0 94l94 102q-152 176 -152 430q0 171 72.5 331.5t190.5 277t275.5 186.5t321.5 70q221 0 383 -103l80 88q39 45 92 4q49 -43 9 -86l-78 -86q176 -173 176 -442q0 -174 -73.5 -337t-192.5 -281t-276.5 -189.5 t-319.5 -71.5zM1343 838q0 154 -86 260l-737 -807q99 -74 238 -74q108 0 214 49.5t188 131.5t132.5 198.5t50.5 241.5zM952 1237q-110 0 -217 -48.5t-188.5 -129t-131.5 -194t-50 -236.5q0 -137 65 -242l731 797q-89 53 -209 53z" />
<glyph unicode="&#xd9;" horiz-adv-x="1480" d="M141 535l162 833q7 41 34.5 63.5t68.5 22.5h92q41 0 58.5 -22.5t8.5 -63.5l-164 -844q-27 -146 44 -226.5t221 -80.5q149 0 251.5 80.5t129.5 226.5l163 844q19 86 103 86h92q42 0 59.5 -22t8.5 -64l-166 -860q-47 -243 -224.5 -388t-423.5 -145q-189 0 -318 72.5 t-180 199t-20 288.5zM881 1550q-65 0 -99 52l-75 124q-28 40 -10.5 71.5t71.5 31.5h70q61 0 86 -60l57 -124q19 -34 3.5 -64.5t-58.5 -30.5h-45z" />
<glyph unicode="&#xda;" horiz-adv-x="1480" d="M141 535l162 833q7 41 34.5 63.5t68.5 22.5h92q41 0 58.5 -22.5t8.5 -63.5l-164 -844q-27 -146 44 -226.5t221 -80.5q149 0 251.5 80.5t129.5 226.5l163 844q19 86 103 86h92q42 0 59.5 -22t8.5 -64l-166 -860q-47 -243 -224.5 -388t-423.5 -145q-189 0 -318 72.5 t-180 199t-20 288.5zM909 1550q-43 0 -52.5 28.5t22.5 68.5l94 122q46 60 112 60h84q54 0 60 -31t-37 -72l-115 -124q-52 -52 -114 -52h-54z" />
<glyph unicode="&#xdb;" horiz-adv-x="1480" d="M141 535l162 833q7 41 34.5 63.5t68.5 22.5h92q41 0 58.5 -22.5t8.5 -63.5l-164 -844q-27 -146 44 -226.5t221 -80.5q149 0 251.5 80.5t129.5 226.5l163 844q19 86 103 86h92q42 0 59.5 -22t8.5 -64l-166 -860q-47 -243 -224.5 -388t-423.5 -145q-189 0 -318 72.5 t-180 199t-20 288.5zM705 1550q-46 0 -51.5 30.5t32.5 74.5l105 119q49 55 114 55h129q67 0 92 -55l60 -119q21 -44 4 -74.5t-62 -30.5h-47q-33 0 -48.5 13.5t-28.5 46.5l-48 110h-4l-90 -110q-25 -34 -45 -47t-53 -13h-59z" />
<glyph unicode="&#xdc;" horiz-adv-x="1480" d="M141 535l162 833q7 41 34.5 63.5t68.5 22.5h92q41 0 58.5 -22.5t8.5 -63.5l-164 -844q-27 -146 44 -226.5t221 -80.5q149 0 251.5 80.5t129.5 226.5l163 844q19 86 103 86h92q42 0 59.5 -22t8.5 -64l-166 -860q-47 -243 -224.5 -388t-423.5 -145q-189 0 -318 72.5 t-180 199t-20 288.5zM1104 1591q-83 0 -68 86l13 68q15 84 102 84h29q85 0 67 -84l-10 -68q-15 -86 -102 -86h-31zM727 1591q-83 0 -68 86l13 68q15 84 102 84h31q82 0 67 -84l-12 -68q-15 -86 -102 -86h-31z" />
<glyph unicode="&#xdd;" horiz-adv-x="1175" d="M350 86l103 522l-285 744q-15 43 7.5 72.5t72.5 29.5h104q68 0 86 -63l127 -365q12 -40 24.5 -89t19.5 -77l7 -29h5q61 105 124 195l267 365q42 63 112 63h123q50 0 61.5 -29.5t-22.5 -72.5l-571 -744l-103 -522q-15 -86 -102 -86h-92q-83 0 -68 86zM748 1550 q-43 0 -53 28.5t22 68.5l94 122q46 60 113 60h84q35 0 50 -14t7.5 -38t-35.5 -51l-115 -124q-52 -52 -114 -52h-53z" />
<glyph unicode="&#xde;" horiz-adv-x="1249" d="M68 86l249 1284q15 84 101 84h92q41 0 59.5 -22t10.5 -62l-31 -151h260q134 0 225 -45q92 -47 142.5 -136.5t50.5 -206.5q0 -174 -89.5 -313t-234.5 -205q-99 -45 -217 -45h-321l-35 -184q-15 -84 -101 -84h-92q-43 0 -60.5 22.5t-8.5 63.5zM410 496h247q89 0 142 30 q72 39 114.5 114t42.5 171q0 86 -51 133t-147 47h-252z" />
<glyph unicode="&#xdf;" horiz-adv-x="1228" d="M33 86l194 1016q18 90 68.5 163t120.5 119t152 70.5t167 24.5q175 0 286.5 -88t111.5 -226q0 -67 -26.5 -122.5t-64.5 -92.5t-76.5 -69t-65 -65t-26.5 -66t26 -68t62.5 -68t73 -69.5t62.5 -88t26 -108.5q0 -100 -58 -184t-152 -131t-199 -47q-112 0 -217 28 q-75 18 -62 105l10 51q17 77 91 61q84 -24 155 -24q64 0 117 34.5t53 104.5q0 38 -26 76t-63.5 70.5t-75 67t-63.5 79t-26 92.5q0 57 27 108t65 88t76 70.5t65 71t27 74.5q0 49 -37 81.5t-106 32.5q-87 0 -156 -48.5t-88 -143.5l-190 -981q-15 -84 -101 -84h-88 q-43 0 -60.5 22.5t-8.5 63.5z" />
<glyph unicode="&#xe0;" horiz-adv-x="1081" d="M-20 248q0 90 44.5 161t114 114.5t162 71.5t180 39t176.5 11h52q8 47 8 76q0 63 -41.5 98t-122.5 35q-111 0 -229 -63q-87 -33 -111 47l-12 39q-22 72 49 108q57 30 155 57t195 27q57 0 109.5 -10t102 -34t85.5 -59.5t58 -91t22 -124.5q0 -40 -10 -105l-109 -559 q-18 -86 -102 -86h-70q-42 0 -59.5 23.5t-8.5 62.5l9 41l12 45h-4q2 0 -12.5 -20.5t-43 -49t-68 -57.5t-98 -49.5t-122.5 -20.5q-128 0 -219.5 72t-91.5 201zM242 287q0 -50 34 -81.5t99 -31.5q102 0 189.5 88.5t109.5 192.5l6 32h-57q-48 0 -95 -4.5t-100.5 -18t-93 -34.5 t-66 -58t-26.5 -85zM584 1174q-65 0 -99 51l-75 125q-27 40 -10 71t71 31h70q62 0 86 -59l57 -125q19 -34 3.5 -64t-58.5 -30h-45z" />
<glyph unicode="&#xe1;" horiz-adv-x="1081" d="M-20 248q0 90 44.5 161t114 114.5t162 71.5t180 39t176.5 11h52q8 47 8 76q0 63 -41.5 98t-122.5 35q-111 0 -229 -63q-87 -33 -111 47l-12 39q-22 72 49 108q57 30 155 57t195 27q57 0 109.5 -10t102 -34t85.5 -59.5t58 -91t22 -124.5q0 -40 -10 -105l-109 -559 q-18 -86 -102 -86h-70q-42 0 -59.5 23.5t-8.5 62.5l9 41l12 45h-4q2 0 -12.5 -20.5t-43 -49t-68 -57.5t-98 -49.5t-122.5 -20.5q-128 0 -219.5 72t-91.5 201zM242 287q0 -50 34 -81.5t99 -31.5q102 0 189.5 88.5t109.5 192.5l6 32h-57q-48 0 -95 -4.5t-100.5 -18t-93 -34.5 t-66 -58t-26.5 -85zM612 1174q-43 0 -52.5 28t22.5 68l94 123q45 59 112 59h84q54 0 60 -30.5t-37 -71.5l-115 -125q-51 -51 -114 -51h-54z" />
<glyph unicode="&#xe2;" horiz-adv-x="1081" d="M-20 248q0 90 44.5 161t114 114.5t162 71.5t180 39t176.5 11h52q8 47 8 76q0 63 -41.5 98t-122.5 35q-111 0 -229 -63q-87 -33 -111 47l-12 39q-22 72 49 108q57 30 155 57t195 27q57 0 109.5 -10t102 -34t85.5 -59.5t58 -91t22 -124.5q0 -40 -10 -105l-109 -559 q-18 -86 -102 -86h-70q-42 0 -59.5 23.5t-8.5 62.5l9 41l12 45h-4q2 0 -12.5 -20.5t-43 -49t-68 -57.5t-98 -49.5t-122.5 -20.5q-128 0 -219.5 72t-91.5 201zM242 287q0 -50 34 -81.5t99 -31.5q102 0 189.5 88.5t109.5 192.5l6 32h-57q-48 0 -95 -4.5t-100.5 -18t-93 -34.5 t-66 -58t-26.5 -85zM408 1174q-46 0 -51.5 30t32.5 74l105 119q49 55 114 55h129q67 0 92 -55l60 -119q21 -44 4 -74t-62 -30h-47q-33 0 -48.5 13t-28.5 46l-48 110h-4l-90 -110q-25 -33 -45 -46t-53 -13h-59z" />
<glyph unicode="&#xe3;" horiz-adv-x="1081" d="M-20 248q0 90 44.5 161t114 114.5t162 71.5t180 39t176.5 11h52q8 47 8 76q0 63 -41.5 98t-122.5 35q-111 0 -229 -63q-87 -33 -111 47l-12 39q-22 72 49 108q57 30 155 57t195 27q57 0 109.5 -10t102 -34t85.5 -59.5t58 -91t22 -124.5q0 -40 -10 -105l-109 -559 q-18 -86 -102 -86h-70q-42 0 -59.5 23.5t-8.5 62.5l9 41l12 45h-4q2 0 -12.5 -20.5t-43 -49t-68 -57.5t-98 -49.5t-122.5 -20.5q-128 0 -219.5 72t-91.5 201zM242 287q0 -50 34 -81.5t99 -31.5q102 0 189.5 88.5t109.5 192.5l6 32h-57q-48 0 -95 -4.5t-100.5 -18t-93 -34.5 t-66 -58t-26.5 -85zM340 1176q-61 0 -61 61q0 68 53 127q75 92 194 92q51 0 90.5 -21t60.5 -45.5t49 -45.5t58 -21q57 0 84 80q19 47 82 47h21q29 0 46 -11t17 -44q0 -65 -53 -131q-78 -95 -195 -95q-42 0 -76 14t-55.5 33.5t-40.5 39t-41 33.5t-47 14q-59 0 -88 -82 q-20 -45 -78 -45h-20z" />
<glyph unicode="&#xe4;" horiz-adv-x="1081" d="M-20 248q0 90 44.5 161t114 114.5t162 71.5t180 39t176.5 11h52q8 47 8 76q0 63 -41.5 98t-122.5 35q-111 0 -229 -63q-87 -33 -111 47l-12 39q-22 72 49 108q57 30 155 57t195 27q57 0 109.5 -10t102 -34t85.5 -59.5t58 -91t22 -124.5q0 -40 -10 -105l-109 -559 q-18 -86 -102 -86h-70q-42 0 -59.5 23.5t-8.5 62.5l9 41l12 45h-4q2 0 -12.5 -20.5t-43 -49t-68 -57.5t-98 -49.5t-122.5 -20.5q-128 0 -219.5 72t-91.5 201zM242 287q0 -50 34 -81.5t99 -31.5q102 0 189.5 88.5t109.5 192.5l6 32h-57q-48 0 -95 -4.5t-100.5 -18t-93 -34.5 t-66 -58t-26.5 -85zM807 1214q-83 0 -68 86l13 68q15 84 102 84h29q85 0 67 -84l-10 -68q-15 -86 -102 -86h-31zM430 1214q-83 0 -68 86l13 68q15 84 102 84h31q82 0 67 -84l-12 -68q-15 -86 -102 -86h-31z" />
<glyph unicode="&#xe5;" horiz-adv-x="1081" d="M-20 248q0 90 44.5 161t114 114.5t162 71.5t180 39t176.5 11h52q8 47 8 76q0 63 -41.5 98t-122.5 35q-111 0 -229 -63q-87 -33 -111 47l-12 39q-22 72 49 108q57 30 155 57t195 27q57 0 109.5 -10t102 -34t85.5 -59.5t58 -91t22 -124.5q0 -40 -10 -105l-109 -559 q-18 -86 -102 -86h-70q-42 0 -59.5 23.5t-8.5 62.5l9 41l12 45h-4q2 0 -12.5 -20.5t-43 -49t-68 -57.5t-98 -49.5t-122.5 -20.5q-128 0 -219.5 72t-91.5 201zM242 287q0 -50 34 -81.5t99 -31.5q102 0 189.5 88.5t109.5 192.5l6 32h-57q-48 0 -95 -4.5t-100.5 -18t-93 -34.5 t-66 -58t-26.5 -85zM848 1321q0 -78 -66.5 -125t-144.5 -47q-80 0 -132 37.5t-52 107.5q0 81 64 128.5t145 47.5q80 0 133 -38.5t53 -110.5zM580 1292q0 -53 57 -53q34 0 59 25t25 61q0 25 -15.5 41t-41.5 16q-34 0 -59 -26t-25 -64z" />
<glyph unicode="&#xe6;" horiz-adv-x="1726" d="M315 -25q-141 0 -237 71t-96 196q0 94 44.5 166.5t113.5 116t162.5 71t181 37.5t180.5 10h38q1 4 2.5 14.5t3 17.5t1.5 9q18 170 -168 170q-97 0 -222 -57q-83 -36 -110 47l-10 37q-25 76 47 110q186 78 340 78q216 0 307 -149h4q152 149 356 149t311 -107.5t107 -289.5 q0 -41 -14 -113q-15 -74 -94 -74h-639q-6 -64 10 -112q18 -87 81.5 -131.5t155.5 -44.5q110 0 246 67q81 40 111 -41l12 -39q28 -75 -39 -112q-178 -97 -342 -97q-156 0 -267 61t-165 167h-4q-10 -19 -26 -41t-52 -57.5t-79 -62.5t-109.5 -47t-141.5 -20zM963 643h450 q4 20 4 55q0 81 -46.5 125.5t-121.5 44.5q-98 0 -173.5 -60.5t-112.5 -164.5zM602 485q-42 0 -82.5 -3.5t-92.5 -16t-90 -32.5t-64.5 -58t-26.5 -88q0 -47 33.5 -78t99.5 -31q99 0 185 86.5t108 188.5l6 32h-76z" />
<glyph unicode="&#xe7;" horiz-adv-x="1087" d="M358 -109l45 99q-167 35 -263.5 156t-96.5 290q0 125 50 241t135.5 202.5t207 138t256.5 51.5q111 0 199 -30t139 -68q67 -50 12 -121l-32 -39q-28 -32 -59.5 -34t-59.5 16q-99 55 -189 55q-169 0 -283 -116.5t-114 -274.5q0 -115 72 -187.5t194 -72.5q52 0 104.5 15 t81 29t68.5 38q81 40 113 -41l16 -37q28 -69 -39 -115q-57 -40 -157.5 -75.5t-220.5 -35.5h-9l-26 -65q59 -9 92 -45t33 -94q0 -93 -77 -145t-177 -52q-64 0 -92.5 20t-16.5 58l10 26q10 37 45 37q7 0 23.5 -3t28.5 -3q34 0 61 16t27 50q0 7 -1.5 13t-5.5 10.5t-6.5 8 t-9.5 6.5t-10 4.5t-12.5 3.5t-12 2.5t-13 2.5t-11.5 2q-48 6 -19 63z" />
<glyph unicode="&#xe8;" horiz-adv-x="1124" d="M45 424q0 131 46 250t125 205.5t192 138t241 51.5q204 0 313 -111.5t109 -291.5q0 -64 -18 -123q-25 -60 -107 -60h-635q-5 -45 4 -90q11 -89 75.5 -142.5t172.5 -53.5q112 0 244 67q38 19 68 8.5t43 -49.5l14 -39q25 -77 -41 -112q-178 -97 -342 -97 q-237 0 -370.5 126.5t-133.5 322.5zM348 641h463q4 30 4 55q0 83 -47 129.5t-123 46.5q-100 0 -179.5 -62t-117.5 -169zM637 1174q-64 0 -98 51l-76 125q-27 40 -10 71t71 31h70q62 0 86 -59l57 -125q19 -34 3.5 -64t-58.5 -30h-45z" />
<glyph unicode="&#xe9;" horiz-adv-x="1124" d="M45 424q0 131 46 250t125 205.5t192 138t241 51.5q204 0 313 -111.5t109 -291.5q0 -64 -18 -123q-25 -60 -107 -60h-635q-5 -45 4 -90q11 -89 75.5 -142.5t172.5 -53.5q112 0 244 67q38 19 68 8.5t43 -49.5l14 -39q25 -77 -41 -112q-178 -97 -342 -97 q-237 0 -370.5 126.5t-133.5 322.5zM348 641h463q4 30 4 55q0 83 -47 129.5t-123 46.5q-100 0 -179.5 -62t-117.5 -169zM666 1174q-43 0 -53 28t22 68l94 123q45 59 113 59h84q35 0 50 -14t7.5 -37.5t-35.5 -50.5l-114 -125q-51 -51 -115 -51h-53z" />
<glyph unicode="&#xea;" horiz-adv-x="1124" d="M45 424q0 131 46 250t125 205.5t192 138t241 51.5q204 0 313 -111.5t109 -291.5q0 -64 -18 -123q-25 -60 -107 -60h-635q-5 -45 4 -90q11 -89 75.5 -142.5t172.5 -53.5q112 0 244 67q38 19 68 8.5t43 -49.5l14 -39q25 -77 -41 -112q-178 -97 -342 -97 q-237 0 -370.5 126.5t-133.5 322.5zM348 641h463q4 30 4 55q0 83 -47 129.5t-123 46.5q-100 0 -179.5 -62t-117.5 -169zM461 1174q-46 0 -51.5 30t32.5 74l105 119q49 55 115 55h129q67 0 92 -55l59 -119q21 -44 4.5 -74t-61.5 -30h-47q-34 0 -49.5 13t-28.5 46l-47 110h-4 l-91 -110q-25 -33 -45 -46t-53 -13h-59z" />
<glyph unicode="&#xeb;" horiz-adv-x="1124" d="M45 424q0 131 46 250t125 205.5t192 138t241 51.5q204 0 313 -111.5t109 -291.5q0 -64 -18 -123q-25 -60 -107 -60h-635q-5 -45 4 -90q11 -89 75.5 -142.5t172.5 -53.5q112 0 244 67q38 19 68 8.5t43 -49.5l14 -39q25 -77 -41 -112q-178 -97 -342 -97 q-237 0 -370.5 126.5t-133.5 322.5zM348 641h463q4 30 4 55q0 83 -47 129.5t-123 46.5q-100 0 -179.5 -62t-117.5 -169zM862 1214q-82 0 -67 86l12 68q15 84 102 84h29q86 0 68 -84l-11 -68q-15 -86 -102 -86h-31zM485 1214q-82 0 -67 86l12 68q15 84 102 84h31q83 0 68 -84 l-13 -68q-15 -86 -102 -86h-31z" />
<glyph unicode="&#xec;" horiz-adv-x="526" d="M31 86l170 872q16 86 102 86h88q41 0 59.5 -22.5t10.5 -63.5l-172 -872q-15 -86 -101 -86h-90q-85 0 -67 86zM330 1174q-65 0 -99 51l-75 125q-27 40 -10 71t71 31h70q62 0 86 -59l57 -125q19 -34 3.5 -64t-58.5 -30h-45z" />
<glyph unicode="&#xed;" horiz-adv-x="526" d="M31 86l170 872q16 86 102 86h88q41 0 59.5 -22.5t10.5 -63.5l-172 -872q-15 -86 -101 -86h-90q-85 0 -67 86zM358 1174q-43 0 -52.5 28t22.5 68l94 123q45 59 113 59h83q54 0 60 -30.5t-37 -71.5l-115 -125q-51 -51 -114 -51h-54z" />
<glyph unicode="&#xee;" horiz-adv-x="526" d="M31 86l170 872q16 86 102 86h88q41 0 59.5 -22.5t10.5 -63.5l-172 -872q-15 -86 -101 -86h-90q-85 0 -67 86zM154 1174q-46 0 -51.5 30t32.5 74l105 119q49 55 114 55h129q67 0 92 -55l60 -119q21 -44 4.5 -74t-61.5 -30h-48q-33 0 -48.5 13t-28.5 46l-47 110h-5 l-90 -110q-25 -33 -45 -46t-53 -13h-59z" />
<glyph unicode="&#xef;" horiz-adv-x="526" d="M31 86l170 872q16 86 102 86h88q41 0 59.5 -22.5t10.5 -63.5l-172 -872q-15 -86 -101 -86h-90q-85 0 -67 86zM555 1214q-83 0 -68 86l13 68q15 84 102 84h29q85 0 67 -84l-10 -68q-15 -86 -102 -86h-31zM178 1214q-82 0 -67 86l12 68q15 84 102 84h31q83 0 68 -84 l-13 -68q-15 -86 -102 -86h-31z" />
<glyph unicode="&#xf0;" horiz-adv-x="1175" d="M256 1020l-8 16q-9 24 3 44.5t40 31.5l246 98q-80 39 -144 60q-88 34 -43 110l23 41q21 35 47.5 45t62.5 0q168 -47 316 -151l239 96q63 22 82 -31l6 -18q10 -24 -1.5 -44.5t-41.5 -31.5l-172 -69q195 -198 195 -488q0 -68 -10.5 -138.5t-34 -145t-58 -142.5t-86 -128 t-113.5 -104.5t-144.5 -70t-176.5 -25.5q-212 0 -331 121.5t-119 300.5q0 102 40.5 201.5t110.5 178t174.5 127t223.5 48.5q48 0 91 -8.5t70.5 -21t47.5 -25t29 -21.5l9 -8h5q-22 135 -164 252l-330 -131q-62 -25 -84 31zM297 412q0 -96 50 -156.5t149 -60.5 q72 0 135.5 35.5t104 90t64 118t23.5 122.5q0 87 -55.5 138t-155.5 51q-138 0 -226.5 -101t-88.5 -237z" />
<glyph unicode="&#xf1;" horiz-adv-x="1236" d="M29 86l170 872q16 86 100 86h80q41 0 58.5 -21.5t8.5 -61.5l-12 -66l-14 -47h4q29 40 64.5 75.5t85.5 70t116 55t139 20.5q177 0 254.5 -105.5t38.5 -304.5l-110 -573q-15 -86 -103 -86h-88q-84 0 -69 86l100 520q22 108 -5 166.5t-118 58.5q-132 0 -233.5 -102.5 t-130.5 -251.5l-78 -391q-15 -86 -101 -86h-90q-85 0 -67 86zM459 1176q-62 0 -62 61q0 66 54 127q75 92 194 92q51 0 90.5 -21t60.5 -45.5t49 -45.5t58 -21q57 0 84 80q19 47 82 47h21q29 0 46 -11t17 -44q0 -65 -53 -131q-78 -95 -195 -95q-42 0 -76 14t-55.5 33.5 t-40.5 39t-41 33.5t-47 14q-59 0 -88 -82q-20 -45 -78 -45h-20z" />
<glyph unicode="&#xf2;" horiz-adv-x="1282" d="M43 438q0 175 94 322t242 228t311 81q227 0 370.5 -128t143.5 -333q0 -107 -36 -206t-99 -175.5t-144.5 -134t-176.5 -87.5t-191 -30q-227 0 -370.5 127.5t-143.5 335.5zM307 451q0 -115 71 -184.5t183 -69.5q70 0 138 29.5t121.5 80.5t86.5 126t33 159 q0 115 -70.5 185.5t-181.5 70.5q-93 0 -180.5 -50.5t-144 -143.5t-56.5 -203zM711 1174q-65 0 -99 51l-75 125q-27 40 -10 71t71 31h70q62 0 86 -59l57 -125q19 -34 3.5 -64t-58.5 -30h-45z" />
<glyph unicode="&#xf3;" horiz-adv-x="1282" d="M43 438q0 175 94 322t242 228t311 81q227 0 370.5 -128t143.5 -333q0 -107 -36 -206t-99 -175.5t-144.5 -134t-176.5 -87.5t-191 -30q-227 0 -370.5 127.5t-143.5 335.5zM307 451q0 -115 71 -184.5t183 -69.5q70 0 138 29.5t121.5 80.5t86.5 126t33 159 q0 115 -70.5 185.5t-181.5 70.5q-93 0 -180.5 -50.5t-144 -143.5t-56.5 -203zM739 1174q-43 0 -52.5 28t22.5 68l94 123q45 59 112 59h84q54 0 60 -30.5t-37 -71.5l-115 -125q-51 -51 -114 -51h-54z" />
<glyph unicode="&#xf4;" horiz-adv-x="1282" d="M43 438q0 175 94 322t242 228t311 81q227 0 370.5 -128t143.5 -333q0 -107 -36 -206t-99 -175.5t-144.5 -134t-176.5 -87.5t-191 -30q-227 0 -370.5 127.5t-143.5 335.5zM307 451q0 -115 71 -184.5t183 -69.5q70 0 138 29.5t121.5 80.5t86.5 126t33 159 q0 115 -70.5 185.5t-181.5 70.5q-93 0 -180.5 -50.5t-144 -143.5t-56.5 -203zM535 1174q-46 0 -51.5 30t32.5 74l105 119q49 55 114 55h129q67 0 92 -55l60 -119q21 -44 4 -74t-62 -30h-47q-33 0 -48.5 13t-28.5 46l-48 110h-4l-90 -110q-25 -33 -45 -46t-53 -13h-59z" />
<glyph unicode="&#xf5;" horiz-adv-x="1282" d="M43 438q0 175 94 322t242 228t311 81q227 0 370.5 -128t143.5 -333q0 -107 -36 -206t-99 -175.5t-144.5 -134t-176.5 -87.5t-191 -30q-227 0 -370.5 127.5t-143.5 335.5zM307 451q0 -115 71 -184.5t183 -69.5q70 0 138 29.5t121.5 80.5t86.5 126t33 159 q0 115 -70.5 185.5t-181.5 70.5q-93 0 -180.5 -50.5t-144 -143.5t-56.5 -203zM467 1176q-61 0 -61 61q0 68 53 127q75 92 194 92q51 0 90.5 -21t60.5 -45.5t49 -45.5t58 -21q57 0 84 80q19 47 82 47h21q29 0 46 -11t17 -44q0 -65 -53 -131q-78 -95 -195 -95q-42 0 -76 14 t-55.5 33.5t-40.5 39t-41 33.5t-47 14q-59 0 -88 -82q-20 -45 -78 -45h-20z" />
<glyph unicode="&#xf6;" horiz-adv-x="1282" d="M43 438q0 175 94 322t242 228t311 81q227 0 370.5 -128t143.5 -333q0 -107 -36 -206t-99 -175.5t-144.5 -134t-176.5 -87.5t-191 -30q-227 0 -370.5 127.5t-143.5 335.5zM307 451q0 -115 71 -184.5t183 -69.5q70 0 138 29.5t121.5 80.5t86.5 126t33 159 q0 115 -70.5 185.5t-181.5 70.5q-93 0 -180.5 -50.5t-144 -143.5t-56.5 -203zM934 1214q-83 0 -68 86l13 68q15 84 102 84h29q85 0 67 -84l-10 -68q-15 -86 -102 -86h-31zM557 1214q-83 0 -68 86l13 68q15 84 102 84h31q82 0 67 -84l-12 -68q-15 -86 -102 -86h-31z" />
<glyph unicode="&#xf7;" d="M477 979v51q0 86 84 86h66q84 0 84 -86v-51q0 -84 -84 -84h-66q-84 0 -84 84zM59 569v31q0 41 22.5 63.5t63.5 22.5h897q41 0 63.5 -22.5t22.5 -63.5v-31q0 -41 -22.5 -63.5t-63.5 -22.5h-897q-41 0 -63.5 22.5t-22.5 63.5zM477 139v51q0 86 84 86h66q84 0 84 -86v-51 q0 -84 -84 -84h-66q-84 0 -84 84z" />
<glyph unicode="&#xf8;" horiz-adv-x="1282" d="M43 438q0 175 94 322t242 228t311 81q168 0 295 -76l72 78q40 46 92 6q47 -42 6 -86l-70 -76q119 -122 119 -307q0 -107 -36 -206t-99 -175.5t-144.5 -134t-176.5 -87.5t-191 -30q-154 0 -283 66l-63 -70q-49 -52 -96 -10q-48 39 2 92l57 62q-131 125 -131 323zM307 451 q0 -89 41 -148l471 512q-61 33 -131 33q-93 0 -180.5 -50.5t-144 -143.5t-56.5 -203zM940 592q0 69 -33 133l-465 -504q52 -24 119 -24q70 0 138 29.5t121.5 80.5t86.5 126t33 159z" />
<glyph unicode="&#xf9;" horiz-adv-x="1226" d="M78 385l110 573q16 86 103 86h88q41 0 59.5 -22.5t10.5 -63.5l-103 -520q-20 -109 6.5 -167t118.5 -58q127 0 226 102.5t128 249.5l76 393q19 86 103 86h90q83 0 67 -86l-170 -872q-15 -86 -100 -86h-80q-85 0 -70 84l15 63q1 11 4 23t6 18l2 7h-4q-38 -55 -87.5 -100.5 t-133.5 -82.5t-178 -37q-172 0 -248.5 105.5t-38.5 304.5zM674 1174q-65 0 -99 51l-75 125q-27 40 -10 71t71 31h70q62 0 86 -59l57 -125q19 -34 3.5 -64t-58.5 -30h-45z" />
<glyph unicode="&#xfa;" horiz-adv-x="1226" d="M78 385l110 573q16 86 103 86h88q41 0 59.5 -22.5t10.5 -63.5l-103 -520q-20 -109 6.5 -167t118.5 -58q127 0 226 102.5t128 249.5l76 393q19 86 103 86h90q83 0 67 -86l-170 -872q-15 -86 -100 -86h-80q-85 0 -70 84l15 63q1 11 4 23t6 18l2 7h-4q-38 -55 -87.5 -100.5 t-133.5 -82.5t-178 -37q-172 0 -248.5 105.5t-38.5 304.5zM702 1174q-43 0 -52.5 28t22.5 68l94 123q45 59 113 59h84q35 0 50 -14t7.5 -37.5t-35.5 -50.5l-115 -125q-51 -51 -114 -51h-54z" />
<glyph unicode="&#xfb;" horiz-adv-x="1226" d="M78 385l110 573q16 86 103 86h88q41 0 59.5 -22.5t10.5 -63.5l-103 -520q-20 -109 6.5 -167t118.5 -58q127 0 226 102.5t128 249.5l76 393q19 86 103 86h90q83 0 67 -86l-170 -872q-15 -86 -100 -86h-80q-85 0 -70 84l15 63q1 11 4 23t6 18l2 7h-4q-38 -55 -87.5 -100.5 t-133.5 -82.5t-178 -37q-172 0 -248.5 105.5t-38.5 304.5zM498 1174q-46 0 -51.5 30t32.5 74l105 119q49 55 114 55h129q68 0 93 -55l59 -119q21 -44 4.5 -74t-61.5 -30h-48q-33 0 -48.5 13t-28.5 46l-47 110h-5l-90 -110q-25 -33 -45 -46t-53 -13h-59z" />
<glyph unicode="&#xfc;" horiz-adv-x="1226" d="M78 385l110 573q16 86 103 86h88q41 0 59.5 -22.5t10.5 -63.5l-103 -520q-20 -109 6.5 -167t118.5 -58q127 0 226 102.5t128 249.5l76 393q19 86 103 86h90q83 0 67 -86l-170 -872q-15 -86 -100 -86h-80q-85 0 -70 84l15 63q1 11 4 23t6 18l2 7h-4q-38 -55 -87.5 -100.5 t-133.5 -82.5t-178 -37q-172 0 -248.5 105.5t-38.5 304.5zM897 1214q-83 0 -68 86l13 68q15 84 102 84h29q85 0 67 -84l-10 -68q-15 -86 -102 -86h-31zM520 1214q-82 0 -67 86l12 68q15 84 102 84h31q83 0 68 -84l-13 -68q-15 -86 -102 -86h-31z" />
<glyph unicode="&#xfd;" horiz-adv-x="1079" d="M322 16l-218 928q-10 48 14 74t70 26h103q75 0 84 -69l92 -533q4 -29 7.5 -69t5.5 -65l1 -25h4q29 89 62 155l287 535q33 71 108 71h113q46 0 59.5 -27t-10.5 -71l-637 -1102q-79 -139 -190 -205.5t-230 -66.5q-83 0 -151 33q-66 34 -19 110l25 41q41 64 98 47 q40 -18 72 -18q54 0 104 38.5t88 100.5zM635 1174q-43 0 -53 28t22 68l94 123q45 59 113 59h84q54 0 60 -30.5t-37 -71.5l-115 -125q-51 -51 -115 -51h-53z" />
<glyph unicode="&#xfe;" horiz-adv-x="1245" d="M-47 -324l328 1694q15 84 100 84h88q87 0 72 -88l-70 -358l-22 -90h4q53 67 137 109t178 42q186 0 291.5 -118.5t105.5 -321.5q0 -141 -48.5 -265t-128 -208t-182.5 -132.5t-210 -48.5q-93 0 -174.5 39.5t-122.5 114.5h-4q-4 -45 -14 -102l-70 -353q-15 -84 -100 -84h-88 q-41 0 -59.5 22.5t-10.5 63.5zM360 430q0 -103 52 -169t153 -66q60 0 119.5 28.5t108 80t78.5 132t30 174.5q0 109 -55.5 172.5t-151.5 63.5q-131 0 -232.5 -124t-101.5 -292z" />
<glyph unicode="&#xff;" horiz-adv-x="1079" d="M322 16l-218 928q-10 48 14 74t70 26h103q75 0 84 -69l92 -533q4 -29 7.5 -69t5.5 -65l1 -25h4q29 89 62 155l287 535q33 71 108 71h113q46 0 59.5 -27t-10.5 -71l-637 -1102q-79 -139 -190 -205.5t-230 -66.5q-83 0 -151 33q-66 34 -19 110l25 41q41 64 98 47 q40 -18 72 -18q54 0 104 38.5t88 100.5zM829 1214q-82 0 -67 86l12 68q7 41 34 62.5t69 21.5h28q86 0 68 -84l-10 -68q-15 -86 -103 -86h-31zM453 1214q-83 0 -68 86l12 68q7 41 34 62.5t69 21.5h30q83 0 68 -84l-12 -68q-15 -86 -103 -86h-30z" />
<glyph unicode="&#x152;" horiz-adv-x="1955" d="M750 -18q-290 0 -473 176.5t-183 451.5q0 115 33.5 226.5t92 205.5t140.5 174t176.5 135.5t203.5 87t218 31.5q77 0 171 -8t139 -8h663q44 0 64.5 -25t11.5 -69l-12 -57q-12 -76 -92 -76h-529l-74 -381h396q44 0 64.5 -24.5t11.5 -67.5l-11 -60q-18 -76 -94 -76h-412 l-75 -391h544q45 0 65.5 -25t10.5 -67l-10 -59q-15 -76 -92 -76h-686q-34 0 -117 -9t-145 -9zM969 1245q-118 0 -229 -50.5t-193 -135.5t-132 -202t-50 -243q0 -179 109.5 -292t291.5 -113q38 0 75.5 4t55.5 8l18 4l195 1004q-57 16 -141 16z" />
<glyph unicode="&#x153;" horiz-adv-x="2004" d="M43 438q0 175 94 322t242 228t311 81q135 0 241 -57t169 -158h4q78 101 189 158t239 57q204 0 311 -107.5t107 -287.5q0 -36 -15 -119q-15 -72 -94 -72h-647q0 -59 4 -90q13 -94 82 -145t172 -51q108 0 244 67q80 39 110 -41l13 -39q28 -75 -39 -112q-178 -97 -342 -97 q-147 0 -254.5 57.5t-165.5 162.5h-4q-88 -103 -209 -161.5t-248 -58.5q-227 0 -370.5 127.5t-143.5 335.5zM1233 641h457q4 30 4 55q0 81 -45 126.5t-121 45.5q-98 0 -177.5 -61t-117.5 -166zM307 451q0 -115 71 -184.5t183 -69.5q70 0 138 29.5t121.5 80.5t86.5 126 t33 159q0 115 -70.5 185.5t-181.5 70.5q-93 0 -180.5 -50.5t-144 -143.5t-56.5 -203z" />
<glyph unicode="&#x178;" horiz-adv-x="1175" d="M350 86l103 522l-285 744q-15 43 7.5 72.5t72.5 29.5h104q68 0 86 -63l127 -365q12 -40 24.5 -89t19.5 -77l7 -29h5q61 105 124 195l267 365q42 63 112 63h123q50 0 61.5 -29.5t-22.5 -72.5l-571 -744l-103 -522q-15 -86 -102 -86h-92q-83 0 -68 86zM944 1591 q-82 0 -67 86l12 68q15 84 102 84h29q85 0 67 -84l-10 -68q-15 -86 -102 -86h-31zM567 1591q-82 0 -67 86l12 68q15 84 102 84h31q83 0 68 -84l-13 -68q-15 -86 -102 -86h-31z" />
<glyph unicode="&#x2c6;" horiz-adv-x="1011" d="M150 1550q-46 0 -51.5 30.5t32.5 74.5l105 119q49 55 114 55h129q67 0 92 -55l60 -119q21 -44 4 -74.5t-62 -30.5h-47q-33 0 -48.5 13.5t-28.5 46.5l-48 110h-4l-90 -110q-25 -34 -45 -47t-53 -13h-59z" />
<glyph unicode="&#x2dc;" horiz-adv-x="1009" d="M78 1552q-62 0 -62 62q0 66 54 127q75 92 194 92q51 0 90.5 -21t60.5 -45.5t49 -45.5t58 -21q57 0 84 80q19 47 82 47h21q29 0 46 -11t17 -44q0 -66 -53 -132q-77 -94 -195 -94q-42 0 -76 13.5t-55.5 33t-40.5 39.5t-41 33.5t-47 13.5q-59 0 -88 -82q-20 -45 -78 -45h-20 z" />
<glyph unicode="&#x2000;" horiz-adv-x="923" />
<glyph unicode="&#x2001;" horiz-adv-x="1847" />
<glyph unicode="&#x2002;" horiz-adv-x="923" />
<glyph unicode="&#x2003;" horiz-adv-x="1847" />
<glyph unicode="&#x2004;" horiz-adv-x="615" />
<glyph unicode="&#x2005;" horiz-adv-x="461" />
<glyph unicode="&#x2006;" horiz-adv-x="307" />
<glyph unicode="&#x2007;" horiz-adv-x="307" />
<glyph unicode="&#x2008;" horiz-adv-x="230" />
<glyph unicode="&#x2009;" horiz-adv-x="369" />
<glyph unicode="&#x200a;" horiz-adv-x="102" />
<glyph unicode="&#x2010;" horiz-adv-x="864" d="M182 471q-42 0 -59.5 24t-9.5 66l10 57q15 80 102 80h445q41 0 59 -24t10 -66l-10 -57q-15 -80 -102 -80h-445z" />
<glyph unicode="&#x2011;" horiz-adv-x="864" d="M182 471q-42 0 -59.5 24t-9.5 66l10 57q15 80 102 80h445q41 0 59 -24t10 -66l-10 -57q-15 -80 -102 -80h-445z" />
<glyph unicode="&#x2012;" horiz-adv-x="864" d="M182 471q-42 0 -59.5 24t-9.5 66l10 57q15 80 102 80h445q41 0 59 -24t10 -66l-10 -57q-15 -80 -102 -80h-445z" />
<glyph unicode="&#x2013;" horiz-adv-x="1384" d="M184 483q-41 0 -58 24t-9 66l4 31q14 82 102 82h963q41 0 59 -24t10 -66l-6 -31q-15 -82 -100 -82h-965z" />
<glyph unicode="&#x2014;" horiz-adv-x="1796" d="M186 483q-41 0 -59 24t-10 66l6 31q14 82 100 82h1374q41 0 59 -24t9 -66l-4 -31q-15 -82 -102 -82h-1373z" />
<glyph unicode="&#x2018;" horiz-adv-x="460" d="M178 1104l166 313q33 62 102 62h17q48 0 65.5 -26.5t-0.5 -72.5l-129 -309q-30 -67 -100 -67h-61q-50 0 -66.5 28t6.5 72z" />
<glyph unicode="&#x2019;" horiz-adv-x="454" d="M182 1102l131 309q27 68 99 68h61q50 0 66.5 -28.5t-7.5 -72.5l-165 -313q-33 -61 -103 -61h-16q-48 0 -66.5 27t0.5 71z" />
<glyph unicode="&#x201a;" horiz-adv-x="468" d="M-74 -113l131 310q27 67 99 67h61q50 0 66.5 -28t-7.5 -72l-165 -314q-33 -61 -103 -61h-16q-48 0 -66.5 27t0.5 71z" />
<glyph unicode="&#x201c;" horiz-adv-x="802" d="M520 1104l166 313q36 62 102 62h17q49 0 66.5 -26.5t-1.5 -72.5l-129 -309q-27 -67 -98 -67h-61q-51 0 -68 28t6 72zM178 1104l166 313q36 62 102 62h17q49 0 66.5 -26.5t-1.5 -72.5l-129 -309q-27 -67 -98 -67h-61q-51 0 -68 28t6 72z" />
<glyph unicode="&#x201d;" horiz-adv-x="796" d="M524 1102l129 309q27 68 99 68h61q51 0 67.5 -28.5t-8.5 -72.5l-165 -313q-33 -61 -103 -61h-16q-48 0 -66 27t2 71zM182 1102l129 309q27 68 99 68h61q51 0 67.5 -28.5t-8.5 -72.5l-165 -313q-33 -61 -101 -61h-18q-47 0 -65 27t1 71z" />
<glyph unicode="&#x201e;" horiz-adv-x="813" d="M270 -113l129 310q27 67 99 67h61q51 0 68 -28t-6 -72l-166 -314q-35 -61 -103 -61h-16q-48 0 -67 27t1 71zM-72 -113l129 310q27 67 99 67h61q51 0 68 -28t-6 -72l-166 -314q-35 -61 -103 -61h-16q-48 0 -67 27t1 71z" />
<glyph unicode="&#x2022;" horiz-adv-x="958" d="M817 596q0 -141 -100.5 -241.5t-241.5 -100.5q-142 0 -242 100.5t-100 241.5t100 241.5t242 100.5q141 0 241.5 -100.5t100.5 -241.5z" />
<glyph unicode="&#x2026;" horiz-adv-x="1638" d="M1180 94l18 92q15 76 92 76h82q45 0 65 -24t11 -68l-18 -94q-12 -76 -91 -76h-82q-44 0 -64.5 25t-12.5 69zM596 94l20 92q12 76 91 76h81q44 0 64.5 -24t13.5 -68l-20 -94q-12 -76 -90 -76h-82q-44 0 -65 25t-13 69zM12 94l21 92q12 76 90 76h82q44 0 64.5 -24t13.5 -68 l-19 -94q-15 -76 -92 -76h-82q-44 0 -65 25t-13 69z" />
<glyph unicode="&#x202f;" horiz-adv-x="369" />
<glyph unicode="&#x2039;" horiz-adv-x="673" d="M281 213l-191 303q-40 64 12 119l299 319q42 45 103 45h53q56 0 69.5 -31.5t-24.5 -72.5l-313 -328l196 -307q29 -43 13 -72.5t-68 -29.5h-47q-67 0 -102 55z" />
<glyph unicode="&#x203a;" horiz-adv-x="671" d="M57 262l312 328l-195 307q-29 43 -13 72.5t68 29.5h47q68 0 103 -55l188 -303q43 -63 -10 -119l-299 -319q-45 -45 -104 -45h-52q-57 0 -70 31.5t25 72.5z" />
<glyph unicode="&#x205f;" horiz-adv-x="461" />
<glyph unicode="&#x20ac;" d="M201 952h49q105 233 314.5 380t453.5 147q60 0 168 -15q42 -9 55 -38.5t-6 -69.5l-35 -74q-28 -66 -94 -57q-50 8 -94 8q-144 0 -268.5 -76t-200.5 -205h438q47 0 60 -20t-1 -60q-14 -43 -36 -60t-66 -17h-463q-19 -61 -22 -127h417q47 0 60.5 -22t-2.5 -60 q-13 -43 -35 -58.5t-66 -15.5h-354q22 -131 114.5 -209t237.5 -78q47 0 105 8q92 13 92 -71v-78q3 -79 -74 -94q-69 -15 -141 -15q-255 0 -423 149.5t-198 387.5h-69q-42 0 -57 19.5t-7 58.5q8 40 28.5 59t63.5 19h33q3 48 23 127h-39q-67 0 -53 79q10 41 30 59.5t62 18.5z " />
<glyph unicode="&#x2122;" horiz-adv-x="2146" d="M1116 635l60 737q6 82 88 82h28q72 0 101 -65l155 -363l31 -100h4q17 65 31 100l155 363q26 65 101 65h28q80 0 89 -82l55 -737q6 -88 -82 -88h-25q-82 0 -88 82l-28 385l2 88h-4l-140 -324q-19 -65 -90 -65h-12q-37 0 -58.5 15t-33.5 50l-140 324h-4l2 -88l-28 -385 q-9 -82 -88 -82h-27q-85 0 -82 88zM559 631v651h-219q-86 0 -86 86q0 41 22.5 63.5t63.5 22.5h631q84 0 84 -88q0 -84 -84 -84h-217v-651q0 -84 -86 -84h-25q-84 0 -84 84z" />
<glyph unicode="&#x25fc;" horiz-adv-x="1044" d="M0 1044h1044v-1044h-1044v1044z" />
</font>
</defs>
</svg>
