<?xml version="1.0" encoding="utf-8"?>
<!-- Generator: Adobe Illustrator 19.2.1, SVG Export Plug-In . SVG Version: 6.00 Build 0)  -->
<svg version="1.1" id="Layer_1" xmlns="http://www.w3.org/2000/svg" xmlns:xlink="http://www.w3.org/1999/xlink" x="0px" y="0px"
	 viewBox="152.5 285.1 485.1 64" enable-background="new 152.5 285.1 485.1 64" xml:space="preserve">
<g>
	<path fill="#64C5B3" d="M154.3,316.1c1.5-0.7,3.8-1.4,5.2-1.7c3.5-0.7,9.1-0.7,13.8-0.7c0,2.2,0.1,5,0,7.2
		c-6.2,0-10.3,0.6-14.7,3.5c-5.3,3.5-6.3,9.2-6.1,13.6c0.3,6.5,4.7,11.1,11.5,11.1c10.8,0,18.1-6.3,18.1-19.7
		c5.6,0,10.5-0.2,13.7-1.9c3.5-1.9,5.4-6.2,4-9.8c-1.5,0.9-3.3,1.7-6.4,2.4c-2,0.5-5.8,1-11.2,1c0-1.1-0.1-6.3,0-7.4
		c9.7,0,15.2-3.4,17.8-7.3c1.9-2.8,3.2-6.1,3-11.1c-0.3-5-4.1-10.2-11.6-10.2c-11.3,0-17.9,7.6-17.9,20.2c-6,0-11.9-0.3-15.3,1.6
		C154.7,308.8,153.4,312.9,154.3,316.1z M182,305.3c0-9.2,2.7-16.9,9.5-16.9c4.6,0,7.5,2.7,7.5,6.8
		C199.1,302.7,191.2,305.3,182,305.3z M161,330.9c3.4-1.8,7.3-1.7,12.3-1.7c0,8.5-1.9,16.7-9.5,16.7c-4.2,0-7.7-2.6-7.7-7.5
		C156.2,335,158.2,332.2,161,330.9z"/>
	<g>
		<path fill="#999999" d="M228.1,301.5H240c2.4,0,4.5,0.3,6.3,0.8c1.8,0.5,3.4,1.3,4.7,2.2c1.3,0.9,2.4,2,3.3,3.1
			c0.9,1.2,1.6,2.4,2.1,3.7c0.5,1.3,0.9,2.5,1.1,3.8c0.2,1.3,0.3,2.4,0.3,3.5c0,2.2-0.4,4.3-1.2,6.3c-0.8,2-2,3.8-3.6,5.4
			c-1.6,1.6-3.5,2.9-5.8,3.8c-2.3,1-5,1.4-8.1,1.4h-11.1V301.5z M232.7,331.2h5.8c2,0,3.8-0.3,5.6-0.8c1.7-0.5,3.3-1.3,4.6-2.4
			c1.3-1.1,2.4-2.4,3.1-4c0.8-1.6,1.2-3.4,1.2-5.6c0-1.1-0.2-2.4-0.5-3.8c-0.4-1.5-1-2.8-2-4.2c-1-1.3-2.3-2.4-4.1-3.3
			c-1.7-0.9-4-1.4-6.7-1.4h-6.9V331.2z"/>
		<path fill="#999999" d="M265,301.5h22v4.3h-17.4v10.1h16.2v4.3h-16.2v10.9h18.2v4.3H265V301.5z"/>
		<path fill="#999999" d="M297.8,328.4c0.8,1.3,1.9,2.2,3.2,2.8c1.3,0.6,2.6,0.9,4,0.9c0.8,0,1.6-0.1,2.4-0.4
			c0.8-0.2,1.5-0.6,2.2-1.1c0.7-0.5,1.2-1.1,1.6-1.8c0.4-0.7,0.6-1.5,0.6-2.5c0-1.3-0.4-2.3-1.3-3c-0.8-0.7-1.9-1.3-3.1-1.7
			c-1.2-0.5-2.6-0.9-4-1.3c-1.5-0.4-2.8-1-4-1.8c-1.2-0.8-2.3-1.8-3.1-3.1c-0.8-1.3-1.3-3.1-1.3-5.3c0-1,0.2-2.1,0.6-3.2
			c0.4-1.1,1.1-2.1,2-3.1c0.9-0.9,2.1-1.7,3.6-2.3c1.5-0.6,3.2-0.9,5.3-0.9c1.9,0,3.6,0.3,5.3,0.8c1.7,0.5,3.2,1.6,4.5,3.1l-3.8,3.4
			c-0.6-0.9-1.4-1.6-2.5-2.2c-1.1-0.5-2.3-0.8-3.6-0.8c-1.3,0-2.3,0.2-3.2,0.5c-0.8,0.3-1.5,0.8-2,1.3c-0.5,0.5-0.9,1.1-1.1,1.7
			c-0.2,0.6-0.3,1.2-0.3,1.7c0,1.4,0.4,2.5,1.3,3.3c0.8,0.8,1.9,1.4,3.1,1.9c1.2,0.5,2.6,0.9,4,1.3c1.5,0.4,2.8,0.9,4,1.6
			c1.2,0.7,2.3,1.6,3.1,2.8c0.8,1.2,1.2,2.8,1.2,4.8c0,1.6-0.3,3.1-0.9,4.4c-0.6,1.3-1.5,2.4-2.5,3.3c-1.1,0.9-2.3,1.6-3.8,2.1
			c-1.4,0.5-3,0.7-4.6,0.7c-2.2,0-4.2-0.4-6.2-1.2c-2-0.8-3.5-2-4.7-3.6L297.8,328.4z"/>
		<path fill="#999999" d="M325.9,301.5h4.6v34.1h-4.6V301.5z"/>
		<path fill="#999999" d="M370.7,316.5v16.8c-0.8,0.5-1.8,1-2.8,1.3c-1.1,0.4-2.2,0.7-3.3,1c-1.1,0.3-2.3,0.5-3.5,0.6
			c-1.2,0.1-2.3,0.2-3.3,0.2c-2.9,0-5.5-0.5-7.7-1.4c-2.3-1-4.2-2.3-5.7-3.9c-1.6-1.6-2.7-3.5-3.6-5.7c-0.8-2.2-1.2-4.4-1.2-6.9
			c0-2.5,0.4-4.9,1.3-7.1c0.9-2.2,2.1-4.1,3.7-5.7c1.6-1.6,3.4-2.9,5.6-3.8c2.2-0.9,4.6-1.4,7.2-1.4c3.1,0,5.7,0.4,7.7,1.2
			c2,0.8,3.7,1.9,5,3.2l-3.3,3.5c-1.4-1.3-2.9-2.3-4.5-2.8c-1.6-0.5-3.2-0.8-5-0.8c-2,0-3.7,0.4-5.3,1.1c-1.6,0.7-2.9,1.7-4,2.9
			c-1.1,1.2-2,2.7-2.6,4.3c-0.6,1.7-0.9,3.4-0.9,5.3c0,1.9,0.3,3.7,1,5.4c0.7,1.7,1.6,3.1,2.8,4.3c1.2,1.2,2.6,2.2,4.2,2.9
			c1.6,0.7,3.4,1,5.2,1c1.6,0,3.2-0.2,4.6-0.5c1.5-0.3,2.7-0.7,3.7-1.3v-9.5h-7.6v-4.3H370.7z"/>
		<path fill="#999999" d="M381.5,301.5h6.1l18.8,28h0.1v-28h4.6v34.1h-5.9l-18.9-28h-0.1v28h-4.6V301.5z"/>
		<path fill="#999999" d="M422.2,301.5h22v4.3h-17.4v10.1H443v4.3h-16.2v10.9h18.2v4.3h-22.8V301.5z"/>
		<path fill="#999999" d="M454,301.5h12c2.2,0,4,0.3,5.4,0.9c1.4,0.6,2.5,1.3,3.3,2.3c0.8,0.9,1.4,1.9,1.7,3.1
			c0.3,1.1,0.5,2.2,0.5,3.3c0,1.1-0.2,2.1-0.6,3.2c-0.4,1-0.9,1.9-1.7,2.7c-0.7,0.8-1.6,1.5-2.6,2.1c-1,0.6-2.2,0.9-3.5,1l9.7,15.5
			h-5.8l-8.7-15h-5.1v15H454V301.5z M458.6,316.5h6.1c0.9,0,1.8-0.1,2.7-0.2c0.9-0.1,1.7-0.4,2.4-0.8c0.7-0.4,1.2-0.9,1.7-1.7
			c0.4-0.7,0.6-1.7,0.6-2.8s-0.2-2.1-0.6-2.8c-0.4-0.7-1-1.3-1.7-1.7c-0.7-0.4-1.5-0.6-2.4-0.8c-0.9-0.1-1.8-0.2-2.7-0.2h-6.1V316.5
			z"/>
		<path fill="#999999" d="M501.6,301.5H523v4.3h-16.8v10.7h15.6v4.3h-15.6v14.7h-4.6V301.5z"/>
		<path fill="#999999" d="M535.6,301.5v20.9c0,1.1,0.1,2.2,0.4,3.3c0.3,1.1,0.8,2.2,1.4,3.1c0.7,1,1.6,1.7,2.6,2.4
			c1.1,0.6,2.4,0.9,4,0.9c1.6,0,2.9-0.3,4-0.9c1.1-0.6,2-1.4,2.6-2.4c0.7-1,1.2-2,1.4-3.1c0.3-1.1,0.4-2.2,0.4-3.3v-20.9h4.6V323
			c0,2-0.3,3.8-1,5.4c-0.7,1.6-1.6,3-2.8,4.2c-1.2,1.2-2.6,2.1-4.2,2.7c-1.6,0.6-3.3,1-5.2,1c-1.9,0-3.6-0.3-5.2-1
			c-1.6-0.6-3-1.6-4.2-2.7c-1.2-1.2-2.1-2.6-2.8-4.2c-0.7-1.6-1-3.4-1-5.4v-21.6H535.6z"/>
		<path fill="#999999" d="M567.8,301.5h6.1l18.8,28h0.1v-28h4.6v34.1h-5.9l-18.9-28h-0.1v28h-4.6V301.5z"/>
		<path fill="#999999" d="M607.8,301.5h11.9c2.4,0,4.5,0.3,6.3,0.8c1.8,0.5,3.4,1.3,4.7,2.2c1.3,0.9,2.4,2,3.3,3.1
			c0.9,1.2,1.6,2.4,2.1,3.7c0.5,1.3,0.9,2.5,1.1,3.8c0.2,1.3,0.3,2.4,0.3,3.5c0,2.2-0.4,4.3-1.2,6.3c-0.8,2-2,3.8-3.6,5.4
			c-1.6,1.6-3.5,2.9-5.8,3.8c-2.3,1-5,1.4-8.1,1.4h-11.1V301.5z M612.4,331.2h5.8c2,0,3.8-0.3,5.6-0.8c1.7-0.5,3.3-1.3,4.6-2.4
			c1.3-1.1,2.4-2.4,3.1-4c0.8-1.6,1.2-3.4,1.2-5.6c0-1.1-0.2-2.4-0.5-3.8c-0.4-1.5-1-2.8-2-4.2c-1-1.3-2.3-2.4-4.1-3.3
			c-1.7-0.9-4-1.4-6.7-1.4h-6.9V331.2z"/>
	</g>
</g>
</svg>
